<?xml version="1.0" encoding="utf-8"?><svg xmlns="http://www.w3.org/2000/svg" xmlns:xlink="http://www.w3.org/1999/xlink"><symbol viewBox="0 0 18 18" id="basket" xmlns="http://www.w3.org/2000/svg"><path d="M16.2 15.56L15.17 3.953a.496.496 0 00-.494-.452h-2.12A3.559 3.559 0 009 0a3.559 3.559 0 00-3.556 3.5h-2.12a.493.493 0 00-.493.453L1.8 15.56c0 .014-.005.029-.005.044C1.796 16.925 3.007 18 4.498 18h9.004c1.49 0 2.702-1.075 2.702-2.396 0-.015 0-.03-.004-.044zM9 .993A2.565 2.565 0 0111.562 3.5H6.438A2.565 2.565 0 019 .994zm4.502 16.012H4.498c-.935 0-1.693-.618-1.708-1.38l.987-11.128H5.44v1.51c0 .275.22.496.496.496.277 0 .497-.22.497-.497V4.498h5.128v1.51c0 .275.22.496.497.496.276 0 .497-.22.497-.497V4.498h1.664l.99 11.128c-.015.762-.777 1.38-1.708 1.38z"/></symbol><symbol viewBox="0 0 16 20" id="light" xmlns="http://www.w3.org/2000/svg"><path d="M11.098 13.921a6.622 6.622 0 004.129-6.234c0-3.753-3.242-6.806-7.228-6.806C4.014.881.771 3.934.771 7.687a6.622 6.622 0 004.13 6.234l.056.03.382.628a1.43 1.43 0 00-.337 2.203 1.44 1.44 0 001.07 2.41h3.855a1.44 1.44 0 001.07-2.41 1.43 1.43 0 00-.338-2.203l.382-.628.056-.03zm-1.172 4.307H6.072a.482.482 0 110-.964h3.854a.482.482 0 010 .964zm0-1.928H6.072a.482.482 0 110-.963h3.854a.482.482 0 010 .963zm.734-3.238l-.193.104a.483.483 0 00-.181.173l-.63 1.034h-.211v-3.655l2.268-2.268-.682-.682-2.409 2.41a.482.482 0 00-.141.34v3.855h-.964v-3.855c0-.128-.05-.25-.141-.34l-2.41-2.41-.68.681 2.267 2.269v3.655h-.21l-.63-1.034a.484.484 0 00-.182-.173l-.193-.104a.524.524 0 00-.048-.023 5.674 5.674 0 01-3.555-5.352c0-3.221 2.81-5.842 6.264-5.842s6.264 2.62 6.264 5.842a5.674 5.674 0 01-3.555 5.352.514.514 0 00-.048.023z"/></symbol><symbol viewBox="0 0 163 109" id="logo" xmlns="http://www.w3.org/2000/svg"><path d="M4.645 93.645a1.05 1.05 0 01-1.058 1.051 1.05 1.05 0 110-2.102 1.05 1.05 0 011.058 1.051zm58.273 10.392c-2.293-.525-4.586-2.685-6.527-3.794-2.175-1.226-6.056-2.336-8.761-1.401.53.7.647 1.693.176 2.743-.47 1.11-2.705 2.102-3.234.467-.53-1.517.588-2.685 1.882-3.327-.412-.234-.882-.409-1.294-.467-1.587-.175-3.234.7-4.645 1.342-2.587 1.168-5.116 2.277-7.997 2.569-1.823.234-4.117-.35-4.822-2.277-.588-1.693-.235-3.678 1.293-4.729 1.118-.759 3.705-.817 3.646 1.226-.058 1.343-2.175 2.219-2.705.584-.176-.467.53.175 1.059.175 1 0 1.411-1.226.294-1.634-.588-.234-1.411-.059-1.882.292-.647.35-1 1.167-1.117 1.868-.353 1.576.53 3.036 2 3.62 2.763.992 6.526-.759 8.996-1.869 1.882-.875 4.234-2.277 6.41-1.81a3.36 3.36 0 011.587.76h.059c2.705-1.052 5.645-.41 8.232.7 1.705.7 3.175 1.81 4.704 2.861.588 1.167 1.53 1.81 2.647 2.101zm-15.994-4.845c-.647.233-1.176.7-1.529 1.343-.94 1.634 1 2.218 1.764.759.353-.759.294-1.577-.235-2.102zM.588 93.062a.587.587 0 00-.588.583.587.587 0 001.176 0c0-.291-.294-.583-.588-.583zm120.486 3.035c.941.35 1.882.76 2.646 1.168.294.117.529.234.764.35h.059c1.529.701 3.705 1.752 5.587 1.927-1.118-.584-1.941-1.751-1.941-3.036v-.525c-1.352.058-6.174.117-7.115.117zM7.409 92.245a1.45 1.45 0 00-1.47 1.46c0 .817.647 1.46 1.47 1.46a1.45 1.45 0 001.47-1.46 1.45 1.45 0 00-1.47-1.46zm77.795 2.044c14.407-.059 66.682-.35 66.682-.643 0-.35-69.916-.642-70.327-.642-.353 0-70.328.292-70.328.642 0 .292 51.805.584 66.506.643-.824.35-1.412 1.109-1.588 2.101-.176 1.051.412 2.277 1.117 3.095.353.408.706.817 1.117 1.226-3.469-.993-8.35 2.16-11.525 2.627-1.764.292-3.998.409-5.292-1.051-1.058-1.168-1.646-2.978-1.117-4.554.588-1.693 2.41-3.153 4.41-2.627 1.117.292 2.117 1.46 1.823 2.686-.177.7-.706 1.167-1.411 1.4-1.353.293-2.588-.875-1.764-2.218.235-.35-.06-.7-.412-.409-1.47 1.285-.176 3.854 1.94 3.445 2.117-.409 3.117-2.686 1.823-4.437-1.352-1.751-3.88-1.635-5.468-.467-1.706 1.226-2.411 3.678-1.706 5.605.177.408.353.817.53 1.109-.294.117-.53.525.646.934.06.058.294.292.353.35 1.294.818 1.94.876 1.764.818 3.41.992 8.233-1.401 11.35-2.336 1.587-.525 3.292-.875 4.762.117 1.47.934 2.176 2.686 1.529 4.379-.588 1.635-2.41 2.627-4.057 2.043-.765-.292-1.588-.875-1.706-1.81-.117-.759-.059-1.809.824-2.16.823-.35 1.764-.117 1.999.818.059.233.412.35.412.116 0-1.518-1.823-2.043-2.94-1.401-1.588.993-1.118 3.562.293 4.437 2.823 1.752 5.704-.292 6.116-2.86a4.29 4.29 0 010-1.227c-.059-.467-.235-.875-.47-1.342-.412-.701-.883-1.226-1.412-1.577-1-1.167-2.234-2.218-2.587-3.678-.353-1.46.294-2.86 1.764-2.86 1.235 0 1.705.817 1.764 1.226.176.758-.118 1.46-1.117 1.4-.47 0-.882-.758-.353-1.109.294-.233 0-.642-.353-.583-1.529.292-.412 2.627.823 2.51 2.058-.175 2.176-2.452.824-3.561-.177-.175-.353-.234-.53-.35h3.235c-.177.116-.353.175-.53.35-1.411 1.109-1.293 3.386.823 3.561 1.235.117 2.411-2.218.824-2.51-.294-.059-.647.35-.353.584.53.35.117 1.109-.353 1.109-1 .058-1.294-.7-1.117-1.401.059-.41.53-1.227 1.764-1.227 1.47-.058 2.117 1.343 1.764 2.861-.353 1.46-1.529 2.51-2.587 3.678.352-.233.764-.467 1.176-.583.352-.409.764-.818 1.117-1.227.647-.817 1.235-2.043 1.117-3.094-.176-.759-.823-1.576-1.588-1.926zm-17.817 6.889c.765-.234 1.706-.584 2.647-.934 1.41-.526 2.94-1.11 4.41-1.46a5.648 5.648 0 01-.412-2.51H69.21a4.378 4.378 0 01-.176 2.744 4.306 4.306 0 01-1.647 2.16zm92.026-8.583a1.05 1.05 0 100 2.102 1.05 1.05 0 100-2.102zm-3.822-.35a1.45 1.45 0 00-1.47 1.46c0 .817.647 1.46 1.47 1.46a1.45 1.45 0 001.47-1.46c0-.817-.706-1.46-1.47-1.46zm6.821.818a.587.587 0 00-.588.583.587.587 0 001.176 0 .587.587 0 00-.588-.583zM32.752 99.6c1.883-.233 4.058-1.226 5.587-1.926h.059c.235-.117.53-.234.764-.35a27.65 27.65 0 012.646-1.168h-2.88c-1.47 0-2.882 0-4.293-.059v.526c0 1.226-.765 2.394-1.882 2.977zm73.857-2.393c1.058-.467 2.116-.818 3.057-.993h-4.763c.236.526.412 1.051.53 1.577.352-.234.764-.41 1.176-.584zm-49.16.584a8.409 8.409 0 01.53-1.577h-4.763c1 .234 2 .584 3.117.993.294.175.705.35 1.117.584zm35.341 2.452c.94.35 1.882.7 2.646.934a4.78 4.78 0 01-1.705-2.16 4.404 4.404 0 01-.176-2.744h-4.822c.117.934-.118 1.81-.412 2.51 1.588.35 3.058.934 4.469 1.46zm-8.232.525c3.47-.992 8.35 2.16 11.525 2.627 1.764.292 3.999.409 5.292-1.051 1.059-1.167 1.647-2.977 1.117-4.553-.588-1.694-2.41-3.153-4.41-2.628-1.117.292-2.117 1.46-1.823 2.686.177.7.706 1.168 1.412 1.401 1.352.292 2.587-.876 1.705-2.218-.235-.35.059-.701.411-.41 1.471 1.285.177 3.854-1.94 3.445-2.117-.408-3.116-2.685-1.823-4.437 1.353-1.751 3.881-1.634 5.469-.467 1.705 1.226 2.411 3.678 1.705 5.605-.176.409-.353.817-.529 1.109 1.529-.992 2.999-2.16 4.704-2.86 2.587-1.051 5.527-1.752 8.232-.701h.059c.412-.35.941-.584 1.588-.759 2.117-.467 4.528.934 6.409 1.81 2.411 1.109 6.233 2.919 8.997 1.868 1.529-.525 2.411-1.985 1.999-3.62-.176-.7-.47-1.46-1.117-1.868-.47-.35-1.294-.525-1.882-.292-1.117.409-.764 1.693.294 1.635.471 0 1.176-.642 1.059-.175-.588 1.634-2.705.759-2.705-.584-.059-2.102 2.528-2.043 3.646-1.226 1.529 1.05 1.881 3.036 1.293 4.729-.647 1.927-2.999 2.51-4.821 2.277-2.882-.35-5.351-1.401-7.998-2.569-1.352-.642-3.057-1.518-4.645-1.343-.47.059-.882.175-1.294.467 1.235.7 2.352 1.81 1.882 3.328-.529 1.635-2.764.584-3.234-.467-.471-1.051-.353-2.043.176-2.744-2.763-.992-6.586.117-8.761 1.401-1.941 1.11-4.175 3.27-6.527 3.795-3.41.993-8.233-1.401-11.35-2.335-1.587-.526-3.292-.876-4.762.117-1.47.934-2.176 2.685-1.529 4.378.588 1.635 2.41 2.627 4.057 2.044.765-.292 1.588-.876 1.706-1.81.117-.759.059-1.81-.824-2.16-.823-.351-1.764-.117-1.999.817-.059.234-.412.35-.412.117 0-1.518 1.823-2.044 2.94-1.401 1.588.992 1.118 3.561-.293 4.437-2.823 1.751-5.704-.292-6.116-2.861a4.282 4.282 0 000-1.226c.059-.467.235-.876.47-1.343.412-.701.883-1.226 1.412-1.576.53-.292.706-.642 1.235-.409zm31.106.467c.765 1.46 2.705.876 1.705-.759a3.414 3.414 0 00-1.528-1.343c-.471.584-.53 1.402-.177 2.102zm-55.51.701c-.058.116-.529.525.648.934l-.647-.934zm-23.932-28.9c-1.293.876-2.764 1.285-4.469 1.285-1.94 0-3.528-.584-4.704-1.81l-.53 1.81h-.646l-.412-6.189h.824c.705 4.087 3.587 5.371 5.527 5.371 2 0 3.41-.817 3.41-2.452 0-.759-.411-1.4-.823-1.81-.235-.175-.529-.408-1-.583-.41-.175-.822-.35-1.117-.467-.293-.117-.705-.234-1.293-.409-1.235-.35-1.823-.584-2.823-1.11-1.352-.758-2.058-1.81-2.175-3.736 0-3.094 2.175-4.787 5.41-4.787 1.822 0 3.292.584 4.41 1.693l.588-1.635h.646l.236 5.722h-.823c-.353-1.869-1.177-3.27-2.235-3.97-1-.7-1.882-.934-2.822-.934-1.47 0-2.705.875-2.705 2.452 0 .759.411 1.4.882 1.81a4.24 4.24 0 001.058.583l1.117.467 1.353.41c1.47.408 2.293.758 3.41 1.459 1.059.7 1.647 1.81 1.647 3.27 0 1.459-.647 2.685-1.94 3.56zm19.346-13.778h-.294c-1 0-1.587.526-2.058 1.868l-5.175 13.195h-1.587l-5.41-13.662c-.412-.992-.823-1.343-1.646-1.343h-.294V58.5h7.291v.817h-1.117c-.53 0-.823.176-.823.468 0 .233.058.525.176.934l3.822 9.808 3.646-9.283c.176-.467.294-.817.294-1.168 0-.408-.412-.7-1.059-.7h-.823v-.817h5.057v.7zm.941-.817h8.703c2.293 0 4.057.759 5.292 2.218 1.235 1.46 1.882 3.328 1.882 5.547 0 2.218-.647 4.086-1.882 5.604-1.294 1.46-3.058 2.219-5.292 2.219h-8.703v-.817h.882c.823 0 1.117-.234 1.117-1.343V60.718c0-1.11-.352-1.343-1.117-1.343h-.882v-.934zm6.645.817c-.765 0-.941.234-.941 1.343v11.21c0 1.109.353 1.342 1.117 1.342h1c2.94 0 4.351-2.627 4.351-6.947s-1.411-6.948-4.292-6.948h-1.235zM74.15 73.97v-.817h.882c.823 0 1.117-.233 1.117-1.343V60.66c0-1.11-.353-1.343-1.117-1.343h-.882v-.818h12.76l.353 5.196h-.824c-.294-1.635-.705-2.802-1.058-3.386-.176-.292-.412-.525-.647-.642-.53-.292-.823-.292-1.529-.292h-2.41c-.765 0-.941.233-.941 1.343v4.846h1.587c.647 0 1.176-.176 1.47-.584.353-.409.53-1.226.53-2.452h.823v7.006h-.823c0-1.227-.177-2.044-.53-2.453-.353-.408-.823-.642-1.47-.642h-1.587v5.43c0 1.109.352 1.343 1.117 1.343h2.352c.588 0 .764 0 1.176-.059.47-.058.647-.292 1-.584.588-.642 1.058-1.868 1.47-4.437h.823l-.412 5.897H74.15v-.058zm26.93-14.07l.588-1.751h.765l.352 6.13h-.882c-.411-2.102-1.176-3.62-2.058-4.262-.882-.7-1.587-.992-2.41-.992-2.294 0-3.94 1.342-3.94 7.297 0 4.788 1.587 6.89 4.116 6.89 2.352 0 4.116-1.635 4.704-4.613h.823c-.294 2.16-1.235 3.795-2.469 4.612-1.235.818-2.411 1.11-3.705 1.11-2.058 0-3.822-.7-5.175-2.044-1.41-1.4-2.058-3.269-2.058-5.78 0-2.51.647-4.553 2-6.071 1.352-1.518 3.116-2.277 5.35-2.277 1.47 0 2.941.642 3.999 1.751zm18.993 6.306c0 2.335-.646 4.262-1.999 5.838-1.352 1.518-3.175 2.277-5.586 2.277-2.411 0-4.293-.76-5.586-2.277-1.353-1.518-2-3.445-2-5.838 0-2.336.647-4.262 2-5.78 1.352-1.518 3.175-2.277 5.586-2.277 2.411 0 4.292.759 5.586 2.277 1.294 1.518 1.999 3.444 1.999 5.78zm-11.466 0c0 4.553 1.235 7.24 3.822 7.24 2.646 0 3.881-2.686 3.881-7.24s-1.235-7.24-3.881-7.24c-2.587 0-3.822 2.686-3.822 7.24zm28.813 4.553c-.176 2.57-1 3.445-2.822 3.445-2 0-2.823-.934-3.058-2.86-.059-.526-.177-.935-.235-1.227-.059-.584-.353-1.634-.588-2.102-.412-.817-.941-1.459-1.941-1.459h-1.294v5.196c0 1.11.353 1.343 1.118 1.343h.882v.817h-7.645v-.817h.882c.824 0 1.118-.234 1.118-1.343V60.601c0-1.11-.353-1.343-1.118-1.343h-.882v-.817h8.409c3.469 0 5.645 1.401 5.645 4.028 0 2.102-1.823 3.562-4.763 3.853 1.823.35 2.94 1.46 3.47 3.387.058.35.176.817.294 1.4.235 1.227.411 1.636.764 1.636.529 0 .823-.468.941-1.986h.823zm-8.82-11.5c-.824 0-1.118.233-1.118 1.342v5.08h1.882c1.823 0 2.823-1.227 2.823-3.27 0-1.927-.941-3.211-2.529-3.211H128.6v.058zM18.346 86.756v-4.67h.765v3.853l2.117-3.853h1v4.67h-.765v-3.853l-2.117 3.853h-1zm7.997.117c-1.47 0-2.234-.992-2.234-2.394 0-1.576.882-2.568 2.293-2.568 1.176 0 1.882.583 2 1.634h-.824c-.117-.642-.529-.992-1.176-.992-.882 0-1.47.7-1.47 1.81 0 1.167.53 1.81 1.412 1.81.705 0 1.176-.41 1.293-1.227h.765c-.118 1.227-.882 1.927-2.059 1.927zm7.057-.117l-1.705-2.335-.765.7v1.577h-.764v-4.67h.764v2.218l2.176-2.219h1.058l-1.881 1.869 2.175 2.86H33.4zm4.351.584c-.235.642-.529 1.284-1.352 1.284-.177 0-.412-.058-.588-.058v-.7c.235.058.352.116.529.116.235 0 .47-.175.53-.408l.352-.876-1.882-4.67h.882l1.412 3.794 1.352-3.736h.823l-2.058 5.254zm5.469-.467c-1.47 0-2.235-.992-2.235-2.394 0-1.576.882-2.568 2.294-2.568 1.176 0 1.881.583 1.999 1.634h-.823c-.118-.642-.53-.992-1.176-.992-.882 0-1.47.7-1.47 1.81 0 1.167.529 1.81 1.41 1.81.706 0 1.177-.41 1.294-1.227h.765c-.118 1.227-.882 1.927-2.058 1.927zm5.821 0c-1.47 0-2.234-.992-2.234-2.394 0-1.576.882-2.568 2.293-2.568 1.176 0 1.882.583 2 1.634h-.824c-.118-.642-.53-.992-1.176-.992-.882 0-1.47.7-1.47 1.81 0 1.167.53 1.81 1.411 1.81.706 0 1.176-.41 1.294-1.227h.764c-.117 1.227-.882 1.927-2.058 1.927zm5.763-4.145v4.028h-.765v-4.028h-1.705v-.7h4.175v.7h-1.705zm3.234-.642h2.176c.823 0 1.646.175 1.646 1.109 0 .525-.235.817-.706.993.53.116.882.525.882 1.167 0 .817-.587 1.401-1.41 1.401h-2.588v-4.67zm2.999 1.226c0-.409-.235-.584-.882-.584h-1.353v1.226h1.353c.647 0 .882-.234.882-.642zm-2.235 2.802h1.647c.47 0 .764-.35.764-.759 0-.409-.294-.7-.94-.7h-1.47v1.46zm9.409-1.751c0 1.576-.823 2.51-2.293 2.51-1.47 0-2.294-.934-2.294-2.452 0-1.518.882-2.51 2.294-2.51 1.47 0 2.293.934 2.293 2.452zm-3.764.058c0 1.168.53 1.81 1.53 1.81.94 0 1.47-.7 1.47-1.868 0-1.11-.589-1.81-1.47-1.81-.942 0-1.53.759-1.53 1.868zm12.996 2.335h-.765v-4.028h-1.705l-.059 2.043c-.059 1.518-.647 2.044-1.293 2.044-.236 0-.47-.059-.53-.117v-.642c.118.058.294.058.412.058.294 0 .647-.292.706-1.284l.058-2.861h3.235v4.787h-.06zm4.057.175c-1.411 0-2.234-.934-2.234-2.452 0-1.518.882-2.568 2.175-2.568 1.53 0 2.117 1.226 2.117 2.568v.117H80.03v.058c0 .993.588 1.577 1.47 1.577.706 0 1.058-.292 1.294-.993h.764c-.235 1.11-.94 1.693-2.058 1.693zm-.059-4.378c-.764 0-1.293.525-1.41 1.4h2.763c-.059-.816-.588-1.4-1.353-1.4zm3.881 4.203v-4.67h3.94v4.67h-.764v-4.028h-2.353v4.028h-.823zm5.998 0v-4.67h.765v1.868h2.352v-1.868h.764v4.67h-.764v-2.16h-2.352v2.16h-.765zm10.349-2.393c0 1.576-.823 2.51-2.293 2.51-1.47 0-2.293-.934-2.293-2.452 0-1.518.882-2.51 2.293-2.51 1.47 0 2.293.934 2.293 2.452zm-3.763.058c0 1.168.53 1.81 1.529 1.81.941 0 1.47-.7 1.47-1.868 0-1.11-.588-1.81-1.47-1.81-.941 0-1.529.759-1.529 1.868zm6.409-1.693v4.028h-.764v-4.67h3.234v.7h-2.47v-.058zm8.056 1.635c0 1.576-.823 2.51-2.293 2.51-1.47 0-2.293-.934-2.293-2.452 0-1.518.882-2.51 2.293-2.51s2.293.934 2.293 2.452zm-3.763.058c0 1.168.529 1.81 1.529 1.81.941 0 1.47-.7 1.47-1.868 0-1.11-.588-1.81-1.47-1.81-.941 0-1.529.759-1.529 1.868zm11.055 2.452c-1.47 0-2.235-.992-2.235-2.394 0-1.576.882-2.568 2.294-2.568 1.176 0 1.881.583 1.999 1.634h-.823c-.118-.642-.53-.992-1.176-.992-.882 0-1.47.7-1.47 1.81 0 1.167.529 1.81 1.411 1.81.705 0 1.176-.41 1.293-1.227h.765c-.118 1.227-.882 1.927-2.058 1.927zm3.822-4.787h2.176c.823 0 1.646.175 1.646 1.109 0 .525-.235.817-.706.993.53.116.883.525.883 1.167 0 .817-.589 1.401-1.412 1.401h-2.587v-4.67zm2.999 1.226c0-.409-.235-.584-.882-.584h-1.353v1.226h1.353c.647 0 .882-.234.882-.642zm-2.235 2.802h1.647c.47 0 .764-.35.764-.759 0-.409-.294-.7-.941-.7h-1.528v1.46h.058zm7.057.817c-1.412 0-2.235-.934-2.235-2.452 0-1.518.882-2.568 2.176-2.568 1.529 0 2.117 1.226 2.117 2.568v.117h-3.528v.058c0 .993.588 1.577 1.47 1.577.705 0 1.058-.292 1.293-.993h.765c-.235 1.11-.941 1.693-2.058 1.693zm-.059-4.378c-.765 0-1.294.525-1.411 1.4h2.763c-.058-.816-.529-1.4-1.352-1.4zm5.704.175v4.028h-.765v-4.028h-1.705v-.7h4.175v.7h-1.705zm7.232 4.028c-.176.059-.352.117-.529.117-.411 0-.705-.234-.705-.7-.471.525-1 .758-1.706.758-.941 0-1.529-.525-1.529-1.342 0-.818.53-1.343 1.647-1.46 1.117-.117 1.529-.117 1.529-.759 0-.525-.353-.759-1.059-.759-.705 0-1.117.292-1.176.934h-.705c0-.992.764-1.576 1.999-1.576.647 0 1.176.175 1.47.467.353.292.294.817.294 1.226 0 .7-.059 1.401-.059 2.102 0 .35.059.467.294.467h.177v.525h.058zm-2.293-2.16c-.588.058-1.352.117-1.352.876 0 .467.352.759.94.759.706 0 1.412-.526 1.412-1.11v-.875c-.235.292-.647.292-1 .35zM84.087 21.485h-5.469L75.855 9.458l2.587-1.576 2.176 2.043 2.293-2.802 1.47 2.86 2.646-1.109-2.94 12.61zm-4.057-1.752h2.705l1.823-7.998c-.647.117-1.353-.234-1.647-.817l-.294-.584-.706.875c-.294.35-.705.526-1.117.584h-.117c-.412 0-.824-.175-1.118-.408l-1.352-1.226-.353.233 2.176 9.341zm-14.054-4.028c-.705-.526-1.058.117-1.705.467-.118-.817.823-1.46 1.47-1.693.647-.234 1.764 0 2.234.525 1 1.11 1.059 2.744.294 3.97-.176.292-.411.584-.47.934-.059.467.235.526.647.643.353.116.764.35.294.642-.53.292-1.176-.059-1.764-.117-.823-.058-1.705.058-2.411.409-1.117.525-1.882 1.167-2.587 2.16-1.059 1.46-2.117 3.21-2.117 5.08 0 2.393 1.529 5.137 4.116 5.662 1.646.35 3.88-1.4 3.705-3.21-.06-.468-.294-.701-.765-.643-.53.117-.588.817-.764 1.226-.706 1.635-3 1.284-3.764-.058-.823-1.343-.353-3.795.647-4.963.706-.817 1.294-1.46 2.47-1.751 1-.234 2.058-.175 2.999.116 1.058.292 1.646.818 2.234 1.752.47.817.882 1.518 1.117 2.452.53 2.043-.47 4.145-1.881 5.663-1.411 1.518-3.528 2.277-5.587 1.81-2.47-.526-4.527-2.86-5.233-5.196-.235-.7-.53-1.46-.706-2.219-.47-2.393-.117-4.787.941-7.006.47-.992 1.176-1.693.647-2.86-.235-.526-1.176-1.051-.706-1.752.471-.642 1 0 1.294.409.118.175.294.759.53.817 1.587.35-.765-3.503-1-3.853-.235-.35-.235-.584-.53-.876a8.983 8.983 0 00-.94-.642 6.27 6.27 0 00-2.235-.934 4.682 4.682 0 00-2.528.175c-.588.234-1.411 1.051-1.94 1.11-.295.35 0 .7.41.466 0 0-.646 1.577-.646 1.693.53-.233 1-1.05 1.411-1.459.53-.584 1.059-.934 1.823-1.05.647-.06 1.353.116 2 .35.352.175.94.058 1 .583.176 1.401-2.882-.117-3.47-.117-.882 0-1.353.76-1.706 1.402-.176.291-.705.934-.117 1.109.353.117.94-.175 1.176-.35.647-.41 1.176-.701 1.94-.41 1.294.468 2.764 1.577 2.882 2.978.058.467 0 3.328-.647 3.211-.47-.058-.235-1.109-.235-1.4 0-.935-.765-2.102-1.412-2.745-.352-.35-.764-.759-1.352-.642-.47.058-1 .584-.353.934.353.175.765-.175 1.176-.058.353.117.53.467.706.759 1.235 1.985 1.117 4.846.882 7.064-.177 1.518-.177 3.153.411 4.612 1.177 2.57 3.293 5.021 5.998 6.072 1 .35 1.882.525 3 .234.293-.059.587-.234.881-.35.118-.06.294-.118.412-.118 1.705-.233.53 1.343-.588 1.46-.235 0-.47-.058-.706-.058-1.176-.059-1.881.175-2.999-.292-.94-.409-1.881-.76-2.763-1.401-1.764-1.285-3.176-3.095-4.352-4.904-.764-1.227-.47-2.861-1-4.204-.235-.642-.587-1.11-1.234-1.401-.941-.467-1.059-.642-.941-1.869.117-1.167 0-2.276-.177-3.444-.058-.409-.117-.642-.588-.7-.235-.059-.47 0-.705-.059-.235-.117-.353-.292-.588-.409-.647-.467-1.588-.992-1.235-1.868.118-.35.294-.817.235-1.168-.117-.759-.529-.175-1-.233-.293 0-.705-.409-.823-.7-.059-.176-.117-.701.118-.818.235-.117.117.117.353.175.117 0 .235 0 .411-.058.706-.175 1.176-.934 1.706-1.401a9.372 9.372 0 011.234-.876c.47-.234.883-.584 1.353-.76 1.058-.408 2-.116 3.058.176.705.175 1.352.35 1.999.7 1.058.584 2.058 1.402 2.705 2.453.411.642.588 1.342.647 2.101.059.701 1.058 1.226 1.705 1.285.353 0 .706 0 1-.234.235-.175.411-1.05.294-.992-.647.409-.941-.35-.412-.7.882-.585.706.466 1 .933.352.526.47.117.47-.35.118-.642 0-1.168-.353-1.401zm31.048.058c.705-.525 1.058.117 1.705.467.118-.817-.823-1.46-1.47-1.693-.647-.233-1.764 0-2.234.526-1 1.109-1.059 2.744-.294 3.97.176.292.411.583.47.992.059.467-.235.526-.647.642-.353.117-.764.35-.294.643.53.292 1.176-.059 1.764-.117.823-.059 1.705.058 2.411.409 1.117.525 1.882 1.167 2.587 2.16 1.059 1.46 2.117 3.21 2.117 5.079 0 2.394-1.529 5.138-4.116 5.663-1.646.35-3.88-1.401-3.704-3.211.058-.467.294-.7.764-.642.53.116.588.817.764 1.226.706 1.634 3 1.284 3.764-.059.823-1.342.353-3.794-.647-4.962-.706-.818-1.294-1.46-2.47-1.752a5.792 5.792 0 00-2.999.117c-1.058.292-1.646.817-2.234 1.752-.47.817-.882 1.518-1.117 2.452-.53 2.043.47 4.145 1.881 5.663 1.411 1.518 3.528 2.277 5.587 1.81 2.469-.526 4.527-2.861 5.233-5.196.235-.7.529-1.46.706-2.219.47-2.394.117-4.787-.941-7.006-.471-.992-1.176-1.693-.647-2.86.235-.526 1.176-1.051.705-1.752-.47-.642-.999 0-1.293.409-.118.175-.294.759-.529.817-1.588.35.764-3.503.999-3.853.235-.35.235-.584.529-.876.294-.233.647-.467.941-.642a6.28 6.28 0 012.235-.934 4.681 4.681 0 012.528.175c.588.233 1.412 1.05 1.941 1.11.294.35 0 .7-.412.466 0 0 .647 1.576.647 1.693-.529-.233-1-1.05-1.411-1.46-.53-.583-1.059-.933-1.823-1.05-.647-.059-1.353.117-1.999.35-.353.175-.941.059-1 .584-.176 1.401 2.881-.117 3.469-.117.882 0 1.353.76 1.706 1.401.176.292.705.934.117 1.11-.353.116-.941-.175-1.176-.35-.647-.41-1.176-.701-1.94-.41-1.294.468-2.764 1.577-2.882 2.978-.059.467 0 3.328.647 3.211.471-.058.235-1.109.235-1.401 0-.934.765-2.102 1.412-2.744.352-.35.764-.759 1.352-.642.47.058 1 .584.353.934-.353.175-.765-.175-1.176-.058-.353.116-.529.467-.706.759-1.235 1.985-1.117 4.845-.882 7.064.177 1.518.177 3.152-.411 4.612-1.177 2.569-3.293 5.02-5.998 6.072-1 .35-1.882.525-3 .233-.293-.058-.587-.233-.881-.35a1.096 1.096 0 00-.412-.117c-1.705-.233-.53 1.343.588 1.46.235 0 .47-.059.706-.059 1.176-.058 1.882.176 2.999-.291.941-.41 1.881-.76 2.763-1.402 1.764-1.284 3.176-3.094 4.352-4.904.764-1.226.47-2.86.999-4.203.236-.643.588-1.11 1.235-1.402.941-.466 1.059-.642.941-1.868-.118-1.167 0-2.277.176-3.444.059-.409.118-.642.589-.7.235-.06.47 0 .705-.06.235-.116.412-.291.588-.408.647-.467 1.588-.992 1.235-1.868-.118-.35-.294-.818-.235-1.168.117-.759.529-.175.999-.233.294 0 .706-.409.824-.7.058-.176.117-.702-.118-.818-.235-.117-.118.116-.353.175-.117 0-.235 0-.411-.059-.706-.175-1.176-.934-1.706-1.4a9.348 9.348 0 00-1.234-.876c-.471-.234-.882-.584-1.353-.76-1.058-.408-1.999-.116-3.058.176-.705.175-1.352.35-1.999.7-1.058.584-2.058 1.402-2.705 2.452-.411.643-.588 1.343-.647 2.102-.058.7-1.058 1.226-1.705 1.285-.353 0-.706 0-1-.234-.235-.175-.411-1.05-.294-.992.647.408.941-.35.412-.701-.882-.584-.706.467-1 .934-.352.526-.47.117-.47-.35-.118-.642 0-1.226.353-1.46zm-6.174 19.15a5.54 5.54 0 00-1.47-1.051c-.824-.409-1.765-.526-2.647-.467-.176 0-1.823.292-1.764.584-.058-.35-.235-.76-.588-.935-.176-.058-1.176.059-1.058.292-.176-.467-.235-.642-.706-.817-.705-.233-1.881-.058-1.823.934 0-.35-1-.35-1.234-.233-.294.175-.47.642-.53.992-.235-.175-.647-.292-.94-.409-1.059-.35-2.235-.525-3.294-.175-1 .35-1.822.642-2.646 1.285-.823.584-1.117 1.4-1.293 2.335-.118.584-.235 1.168-.118 1.81.059.409.235.876.353 1.284.176.409.294.76.647 1.11.647.642 1.529 1.05 2.47 1.226.529.116 1.058.058 1.587 0 .353-.059.765 0 1.059-.117.294-.117.588-.292.882-.467.411-.175.529-.467.823-.76.294-.35.588-.7.764-1.109.294-.525.412-1.167.47-1.751 0-.175 0-.584.236-.642.235 0 .176.408.176.584 0 .467-.235.875-.294 1.284-.117.525-.353.817-.588 1.284-.235.468-.47.935-.823 1.285-.176.233-.47.409-.647.584-.588.467-1.293.934-1.999 1.226-.294.117-.647.175-.94.35-.177.117-.413.233-.589.409l-.117.117c-.177.233-.412.467-.412.758a.867.867 0 00.412.876c.235.117.529.175.764.234.176.058.47.175.706.117.235-.117 0-.292-.118-.35-.294-.234-.765-.293-.94-.701-.177-.41-.06-.818.234-1.168.177-.234.706-.35.824-.058.058.175 0 .35-.06.467-.117.175-.528.467-.41.759.058.233.47.467.705.525.235.117.529-.117.47-.409.235-.116.765.234.941.467.235.292.412.584.706.76.176.116.352.058.529 0l.059.058c-.06.175-.294.175-.353.35h.176c.118 0 .236-.058.353-.175.235-.117.353-.059.47.175 0 .058.06.117.06.175.293.526-.06.175-.236.467-.353.409.47.876.764.934.236.059 1 .35 1.235.117-.117-.292-.705-.175-.94-.35-.177-.117-.53-.409-.353-.642.353-.467 1.176-.059 1.529-.643.058-.116.117-.467.352-.35.353.175-.529.876.353.642.177-.058.235-.116.47-.116.177 0 .412.116.589.175.647.058.353-.7.235-1.051-.176-.76-.412-1.46-.588-2.219a5.26 5.26 0 01-.177-1.343c0-.291.118-.467.294-.233.118.175.118.467.177.7.118.584 0 1.227.235 1.81.177.526.412 1.051.53 1.577.117.408.117.992.646 1.05.118 0 .294.059.412.059.117 0 .176.117.117.234-.058.116-.176.175-.294.233-.176.117-.352.234-.588.292-.059 0-.411.058-.235.175.176.117.764-.233 1-.35.411-.234.705-.584.823-1.051.118-.409-.118-.817-.294-1.168-.118-.175-.176-.408-.353-.584-.235-.233-.47-.525-.588-.817-.059-.233-.294-.759-.117-.934.235.117.176.467.294.7.058.234.293.584.411.818.294.467.941 1.518 1.588.992a.637.637 0 01.411-.175c.177 0 .294-.058.353-.233.118-.175.236-.292.412-.35.176 0 .47.175.588-.059.294-.584-1.705-.992-2-1.11-.764-.35-1.587-.816-2.116-1.517-.236-.292-1.823-2.452-1.176-2.51.411-.059.764.875.882 1.167.235.526.529.876.94 1.226.353.292.647.7 1.059.934.412.292.823.467 1.294.643.352.175.823.233 1.176.408.882.584-.412 1.401-.824 1.635-.176.117-.411.175-.646.233-.06 0-.294 0-.353.059-.059.058-.059.117 0 .117.059.058.117 0 .176 0 .177-.059.294-.117.47-.117.06 0 .118 0 .177-.059.47-.175.882-.467 1.294-.759.411-.291.529-.7.588-1.109a.863.863 0 00-.236-.817c-.058-.059-.117-.117-.117-.175 0-.117-.059-.117-.118-.175-.47-.176-.882-.292-1.352-.468-.647-.175-1.235-.525-1.764-.934-.706-.583-1.059-1.342-1.53-2.043-.94-1.401-.763-2.978-.47-4.554.06-.175.294-.759.53-.759.353 0 .294.876.176 1.11-.176.525-.412.992-.412 1.576 0 .7.118 1.284.412 1.926.235.526.53 1.051 1.059 1.402.47.35 1.058.583 1.646.759a4.331 4.331 0 002.117 0c.53-.117 1.117-.292 1.588-.584.47-.234.764-.643 1.058-1.11.353-.467.706-1.226.764-1.81.06-.642-.117-1.167-.352-1.75a5.588 5.588 0 00-.765-1.577c-.411-.117-.529-.292-.705-.467zm-12.996 2.919a3.953 3.953 0 01-.647 1.81c-.588.875-1.352 1.4-2.47 1.46-.822.058-1.47-.176-2.116-.701-.294-.234-.588-.526-.706-.876-.117-.35-.059-.76.412-.584.294.117.53.467.823.642.294.175.647.409.94.584 1.177.76 2.177.058 2.882-.876.47-.642.47-1.109.235-1.868-.117-.409-.235-.817-.588-1.168-.352-.291-1.646-.642-1.47.234.06.233.294.292.47.467.354.35.471.876.354 1.343-.118.584-.47 1.05-1.059 1.226-1.176.292-2.175-1.226-2-2.277.236-1.868 2.647-3.036 4.117-1.635.647.642.882 1.46.823 2.219zm11.29 1.868c-.059-.117.118-.175.235-.175.353-.175.706-.35 1.059-.584.53-.35 1-.992.94-1.693 0-.234-.234-.409-.234-.642-.06-.467.294-.059.411.116.47.818.412 2.044-.411 2.57-.118.058-.236.175-.353.233-.412.175-.823.233-1.235.292-.235-.059-.353 0-.412-.117zm-1.881.992c-.53-.175-.882-.467-1.294-.817a3.24 3.24 0 01-.353-.467c-.235-.35-.47-.759-.588-1.226-.059-.292-.176-.584-.176-.934v-.117c0-.117 0-.233.176-.233.118 0 .235.116.235.233 0 .292.118.526.118.76 0 .233.118.408.235.583.177.35.353.7.588 1.05.412.526 1 .877 1.588 1.227.059 0 .117 0 .117.117-.235.058-.411-.117-.646-.175zM79.5 43.029c-.236.292-.47.35-.765.584-.235.175-.47.408-.705.642-.294.35-.588.584-.941.876-.235.175-1.353.525-.882-.175.176-.292.882-.526 1.176-.701.176-.117.412-.175.53-.35.41-.468.999-.818 1.352-1.343.235-.35.352-.76.529-1.11.235-.408.294-.758.353-1.226.176-.758.235-1.46.411-2.218a3.063 3.063 0 000-1.46c-.117-.525-.294-.817-.647-1.226-.176-.175-.353-.584-.176-.817.235-.292.706 0 .823.233.118.292.118.701.177.993.117.526.117.992.058 1.518 0 .35-.117.642-.176.992-.118.526-.118.993-.176 1.518-.118.584-.236 1.226-.412 1.81 0 .35-.177 1.051-.53 1.46zm7.115-4.963c.235.409.529.818.94.993.177.117.589 0 .765.117.235.175-.117.292-.353.35-.529.058-1.117-.35-1.411-.76-.412-.525-.53-1.167-.588-1.809 0-.292-.176-.525-.059-.759a1.27 1.27 0 01.588-.642c.353-.175.706-.467 1.117-.467.412 0 1 .233 1.353.408.53.292 1 .876 1.117 1.46.118.525-.647 1.168-1.058 1.226-.647.117-1.412.058-1.706-.642-.235-.526-.117-1.285.47-1.46.53-.175.648.292.648.7 0 .176-.06.468 0 .643.294.526.94.117.94-.35.06-.467-.352-.818-.705-1.11-.647-.467-1.764-.467-2.176.35-.235.526-.176 1.168.118 1.752zm-5.704 4.379a10.5 10.5 0 00.353-1.868c.059-.35-.059-.584-.059-.934 0-.292.059-.643.059-.934 0-.468.059-.876.176-1.343.118-.409.177-.818.235-1.285 0-.233.06-.467.06-.7 0-.234-.118-.409-.118-.7 0-.41-.177-1.11.352-1.169.588-.058.294.701.236.993-.118.467-.294.934-.353 1.46-.059.583-.235 1.167-.235 1.81 0 .525-.118 1.05-.118 1.576 0 .642-.059 1.284-.176 1.868-.118.642-.353 1.284-.47 1.927-.177.817-.706 1.634-.942 2.393-.059.234 0 1.168-.353 1.285-.293.058-.293-.292-.235-.409.118-.175.177-.292.236-.525.058-.176.058-.35.176-.526.176-.35.412-.584.53-.992.117-.467.234-.818.41-1.285.118-.058.177-.35.236-.642zm-1.235 1.05c.118-.174.47-.641.47-.174 0 .233-.352.525-.47.7-.118.234-.294.467-.412.76-.235.466-.47.933-.882 1.284-.352.292-.705-.234-.529-.526.177-.292.47-.35.706-.583.235-.234.412-.526.588-.76.235-.233.353-.467.53-.7zm-2.352 4.204c.059 0 .118 0 .118-.058s0-.058-.06-.058c-.176-.059-.293-.117-.47 0 .177-.059.294.116.412.116zm-3.175-10.1c-.118.292 0 .934.235 1.168.117.058.294.117.411 0 .06-.058 0-.292 0-.409.06-.35.236-.525.353-.759a.473.473 0 00-.117-.642.377.377 0 00-.353 0c-.177.058-.47.467-.53.642z"/><path d="M95.73 8.699C95.73.701 85.91 0 81.5 0S67.328.7 67.328 8.699c0 3.97 7.233 7.765 8.762 10.45l.411.643v2.101c0 3.153 3.058 2.628 5.234 2.628 2 0 4.88.116 4.88-2.628V19.85l.412-.642c1.47-2.686 8.703-6.539 8.703-10.509zm-2.47 0c.118 2.277-6.645 7.415-8.35 8.816-.882.759-2.41-.234-3.41-.292-1.235 0-2.176.876-3.47.117-1.881-1.11-8.114-6.364-8.232-8.7-.294-7.005 9.173-6.597 11.702-6.597 2.528 0 11.407-.292 11.76 6.656zm-7.997 17.106h-7.468c-.53 0-1 .467-1 1.05 0 .585.412.993 1 .993h7.468c.53 0 1-.467 1-.992 0-.584-.47-1.051-1-1.051zm0 3.153h-7.468c-.53 0-1 .467-1 1.05 0 .584.412.993 1 .993h7.468c.53 0 1-.467 1-.992 0-.584-.47-1.051-1-1.051z"/></symbol><symbol viewBox="0 0 21 16" id="next" xmlns="http://www.w3.org/2000/svg"><rect x=".5" y="7.133" width="13.867" height="1.733" rx=".867"/><path d="M20.707 8.707a1 1 0 000-1.414L14.343.929a1 1 0 10-1.414 1.414L18.586 8l-5.657 5.657a1 1 0 001.414 1.414l6.364-6.364zM19.567 9H20V7h-.433v2z"/></symbol><symbol viewBox="0 0 59 71" id="production1" xmlns="http://www.w3.org/2000/svg"><path d="M29.485 71C13.43 70.928.361 58.062.04 42.009c-.32-16.053 12.222-29.432 28.262-30.146V1.183a1.183 1.183 0 012.366 0v10.68c16.04.714 28.583 14.093 28.262 30.146C58.608 58.062 45.54 70.928 29.485 71zm0-44.967c-.653 0-1.183-.53-1.183-1.183v-.855a2.367 2.367 0 102.366 0v.855c0 .653-.53 1.183-1.183 1.183zm1.183-11.804v7.24a4.733 4.733 0 11-2.366 0v-7.24c-14.787.644-26.35 12.986-26.027 27.783.322 14.798 12.41 26.625 27.21 26.625s26.888-11.827 27.21-26.625c.322-14.797-11.24-27.139-26.027-27.782z"/><path d="M37.295 58.93a1.183 1.183 0 01-1.657-.237l-14.2-18.933a1.183 1.183 0 011.893-1.42l14.2 18.933a1.183 1.183 0 01-.236 1.657zM35.402 47.333a4.733 4.733 0 110-9.466 4.733 4.733 0 010 9.466zm0-7.1a2.366 2.366 0 100 4.733 2.366 2.366 0 000-4.733zM28.302 54.433a4.734 4.734 0 11-9.468 0 4.734 4.734 0 019.468 0zm-7.1 0a2.366 2.366 0 104.732 0 2.366 2.366 0 00-4.733 0z"/><defs><linearGradient id="epaint0_linear" x1="29.485" y1="0" x2="29.485" y2="71" gradientUnits="userSpaceOnUse"><stop stop-color="#7B5F54"/><stop offset="1" stop-color="#5B433F"/></linearGradient><linearGradient id="epaint1_linear" x1="29.485" y1="37.867" x2="29.485" y2="59.167" gradientUnits="userSpaceOnUse"><stop stop-color="#7B5F54"/><stop offset="1" stop-color="#5B433F"/></linearGradient><linearGradient id="epaint2_linear" x1="35.402" y1="37.867" x2="35.402" y2="47.333" gradientUnits="userSpaceOnUse"><stop stop-color="#7B5F54"/><stop offset="1" stop-color="#5B433F"/></linearGradient><linearGradient id="epaint3_linear" x1="23.568" y1="49.7" x2="23.568" y2="59.167" gradientUnits="userSpaceOnUse"><stop stop-color="#7B5F54"/><stop offset="1" stop-color="#5B433F"/></linearGradient></defs></symbol><symbol viewBox="0 0 70 70" id="production2" xmlns="http://www.w3.org/2000/svg"><path d="M37.94 55.975a3.086 3.086 0 00-2.891-2.024 3.08 3.08 0 00-2.89 4.129 3.086 3.086 0 002.89 2.024 3.08 3.08 0 002.89-4.129zm-2.54 2.016a1.021 1.021 0 01-1.314-.613 1.027 1.027 0 01.963-1.376 1.026 1.026 0 01.351 1.99z"/><path d="M69.938 46.094l-1.403-3.854a1.021 1.021 0 00-.524-.575l-.006-.003-.047-.02-.045-.018-.01-.003a1.019 1.019 0 00-.682.006l-3.353 1.22-7.133-19.599-2.805-7.707a1.03 1.03 0 00-1.314-.613 1.027 1.027 0 00-.614 1.314l2.456 6.744L41.29 27.78h-.002l-8.028 2.922-5.378-14.773 7.067-2.572 1.52 4.175a1.028 1.028 0 001.313.612l5.14-1.87a1.019 1.019 0 00.663-1.11v-.003a.987.987 0 00-.016-.08l-.005-.022a1.033 1.033 0 00-.03-.099l-1.52-4.174 7.066-2.572 1.52 4.175a1.031 1.031 0 001.314.612c.531-.193.806-.782.613-1.314l-1.87-5.139a1.03 1.03 0 00-1.314-.612l-8.989 3.271-.004.002c-.003 0-.005.002-.008.003l-5.122 1.864c-.003.002-.006.002-.01.003l-.014.006-8.978 3.268a1.02 1.02 0 00-.579.53 1.016 1.016 0 00-.034.784l6.078 16.7 5.846 16.061a8.482 8.482 0 00-2.316-.369L20.405 7.373a5.133 5.133 0 00-6.571-3.064h-.001L.677 9.056H.673l-.068.03-.026.01a.994.994 0 00-.065.035l-.026.015a.595.595 0 00-.058.04.145.145 0 00-.026.017l-.051.043-.026.022c-.016.014-.03.03-.045.046-.008.008-.017.016-.024.025l-.04.049-.023.028-.032.05-.022.032c-.01.017-.018.034-.027.052l-.019.035c-.008.017-.014.035-.021.052l-.016.04-.016.051-.013.043-.01.052-.01.045-.005.053L0 9.967v.1c0 .019.003.037.004.055l.005.046.01.055.01.046.017.054.013.045v.001l.001.002 1.403 3.854c.01.03.025.056.038.083.01.021.018.044.03.064.015.03.035.055.053.082.012.017.021.035.034.051.022.029.047.054.072.08.011.011.021.025.033.036.028.026.059.049.089.072.01.008.02.018.032.025a.89.89 0 00.103.06l.03.018a.884.884 0 00.111.044c.011.004.021.01.032.013.039.012.079.02.118.028l.033.007a.996.996 0 00.243.008l.018-.002.07-.009.032-.007c.018-.004.037-.007.055-.012.02-.005.039-.012.058-.018l.028-.009h.002l.001-.002 12.194-4.397 14.46 39.726c-2.58 2.256-3.654 5.95-2.413 9.36a8.573 8.573 0 008.03 5.624 8.51 8.51 0 002.922-.518 8.49 8.49 0 004.821-4.418c.513-1.1.78-2.27.801-3.447l25.73-9.357h.001l.02-.009c.026-.01.052-.02.077-.032l.03-.017c.02-.01.04-.02.06-.032l.032-.022c.017-.012.035-.023.052-.036l.015-.013a.986.986 0 00.062-.051l.01-.01c.02-.02.04-.04.059-.062l.01-.013a.767.767 0 00.052-.064l.005-.008a.98.98 0 00.049-.075l.008-.014a1.04 1.04 0 00.038-.073l.012-.03c.009-.02.018-.04.025-.06l.013-.044.016-.051a1.05 1.05 0 00.015-.077c0-.007.003-.013.004-.02.024-.163.01-.335-.051-.502zm-29.85-34.608l1.168 3.212-3.212 1.168-1.168-3.21 3.212-1.17zm6.078 16.7l1.17 3.212-3.213 1.17-1.169-3.212 3.212-1.17zm-12.204 4.442l7.065-2.57 1.52 4.174a1.028 1.028 0 001.314.612l5.14-1.87c.531-.193.806-.782.612-1.314l-1.52-4.175 7.066-2.571 6.782 18.633-20.458 7.44a8.599 8.599 0 00-1.272-1.188l-6.249-17.17zM16.551 8.776l-.02-.048-.02-.047-.023-.04c-.009-.018-.017-.035-.027-.051l-.022-.032-.035-.052-.021-.025-.044-.052-.02-.02c-.017-.016-.033-.034-.052-.05l-.015-.012a.938.938 0 00-.062-.05l-.01-.006a1.03 1.03 0 00-.072-.048l-.006-.003a1.03 1.03 0 00-.463-.138h-.004a1.017 1.017 0 00-.096 0l-.018.002a1 1 0 00-.083.008l-.04.008-.06.012-.069.02-.03.01h-.002l-.001.001h-.001l-12.195 4.4-.701-1.928 12.192-4.397h.003a3.08 3.08 0 013.942 1.838L33.111 48.28a8.584 8.584 0 00-.985.292c-.326.12-.64.258-.942.411L16.551 8.776zm24.383 50.57a6.451 6.451 0 01-3.664 3.358 6.476 6.476 0 01-2.22.394 6.515 6.515 0 01-6.103-4.275 6.501 6.501 0 016.101-8.717 6.515 6.515 0 016.103 4.275 6.45 6.45 0 01-.217 4.965zm2.436-4.681a8.485 8.485 0 00-.701-1.927l24.29-8.833.7 1.927-24.29 8.833z"/><defs><linearGradient id="fpaint0_linear" x1="35.049" y1="53.951" x2="35.049" y2="60.104" gradientUnits="userSpaceOnUse"><stop stop-color="#7B5F54"/><stop offset="1" stop-color="#5B433F"/></linearGradient><linearGradient id="fpaint1_linear" x1="35" y1="4" x2="35" y2="65.149" gradientUnits="userSpaceOnUse"><stop stop-color="#7B5F54"/><stop offset="1" stop-color="#5B433F"/></linearGradient><clipPath id="fclip0"><path d="M0 0h70v70H0z"/></clipPath></defs></symbol><symbol viewBox="0 0 57 57" id="production3" xmlns="http://www.w3.org/2000/svg"><path d="M30.391 37.522h15.195c.57 0 .95-.38.95-.95v-8.547c0-.57-.38-.95-.95-.95H30.391c-.57 0-.95.38-.95.95v8.548c0 .57.38.95.95.95zm.95-8.547h13.296v6.648H31.34v-6.648z"/><path d="M30.391 37.522h15.195c.57 0 .95-.38.95-.95v-8.547c0-.57-.38-.95-.95-.95H30.391c-.57 0-.95.38-.95.95v8.548c0 .57.38.95.95.95zm.95-8.547h13.296v6.648H31.34v-6.648zM4.748 25.176h7.598c.57 0 .95-.38.95-.95s-.38-.95-.95-.95H4.748c-.57 0-.95.38-.95.95s.38.95.95.95z"/><path d="M4.748 25.176h7.598c.57 0 .95-.38.95-.95s-.38-.95-.95-.95H4.748c-.57 0-.95.38-.95.95s.38.95.95.95zM16.146 25.176h7.597c.57 0 .95-.38.95-.95s-.38-.95-.95-.95h-7.597c-.57 0-.95.38-.95.95s.38.95.95.95z"/><path d="M16.146 25.176h7.597c.57 0 .95-.38.95-.95s-.38-.95-.95-.95h-7.597c-.57 0-.95.38-.95.95s.38.95.95.95zM4.748 28.975h12.346c.57 0 .95-.38.95-.95s-.38-.95-.95-.95H4.748c-.57 0-.95.38-.95.95s.38.95.95.95z"/><path d="M4.748 28.975h12.346c.57 0 .95-.38.95-.95s-.38-.95-.95-.95H4.748c-.57 0-.95.38-.95.95s.38.95.95.95zM23.743 27.075h-2.849c-.57 0-.95.38-.95.95s.38.95.95.95h2.85c.569 0 .949-.38.949-.95s-.38-.95-.95-.95z"/><path d="M23.743 27.075h-2.849c-.57 0-.95.38-.95.95s.38.95.95.95h2.85c.569 0 .949-.38.949-.95s-.38-.95-.95-.95z"/><path d="M56.127 15.3c-.664-.856-1.519-1.33-2.564-1.425l-2.279-.277V9.031a3.81 3.81 0 00-3.799-3.799H3.8a3.81 3.81 0 00-3.8 3.8v30.39a3.813 3.813 0 002.721 3.64 3.696 3.696 0 003.357 3.767l43.877 4.939h.38c1.899 0 3.608-1.425 3.798-3.23l2.85-30.485c.094-.95-.19-1.994-.855-2.754zM1.9 11.88h47.486v5.698H1.899V11.88zm1.9-4.748h43.686c1.045 0 1.9.854 1.9 1.9v.949H1.899v-.95c0-1.045.855-1.9 1.9-1.9zm-1.9 32.29V19.478h47.486v19.944a1.905 1.905 0 01-1.9 1.899H3.8c-1.045 0-1.9-.855-1.9-1.9zm53.184-21.749l-2.85 30.486c-.094 1.044-1.044 1.804-2.089 1.71l-43.781-4.94c-.95-.094-1.615-.854-1.71-1.709h42.832a3.81 3.81 0 003.799-3.798V15.394l2.184.19c.475 0 .95.285 1.235.665.285.38.475.95.38 1.424z"/><path d="M56.127 15.3c-.664-.856-1.519-1.33-2.564-1.425l-2.279-.277V9.031a3.81 3.81 0 00-3.799-3.799H3.8a3.81 3.81 0 00-3.8 3.8v30.39a3.813 3.813 0 002.721 3.64 3.696 3.696 0 003.357 3.767l43.877 4.939h.38c1.899 0 3.608-1.425 3.798-3.23l2.85-30.485c.094-.95-.19-1.994-.855-2.754zM1.9 11.88h47.486v5.698H1.899V11.88zm1.9-4.748h43.686c1.045 0 1.9.854 1.9 1.9v.949H1.899v-.95c0-1.045.855-1.9 1.9-1.9zm-1.9 32.29V19.478h47.486v19.944a1.905 1.905 0 01-1.9 1.899H3.8c-1.045 0-1.9-.855-1.9-1.9zm53.184-21.749l-2.85 30.486c-.094 1.044-1.044 1.804-2.089 1.71l-43.781-4.94c-.95-.094-1.615-.854-1.71-1.709h42.832a3.81 3.81 0 003.799-3.798V15.394l2.184.19c.475 0 .95.285 1.235.665.285.38.475.95.38 1.424z"/><defs><linearGradient id="gpaint0_linear" x1="37.989" y1="27.076" x2="37.989" y2="37.522" gradientUnits="userSpaceOnUse"><stop stop-color="#7B5F54"/><stop offset="1" stop-color="#5B433F"/></linearGradient><linearGradient id="gpaint1_linear" x1="8.547" y1="23.277" x2="8.547" y2="25.176" gradientUnits="userSpaceOnUse"><stop stop-color="#7B5F54"/><stop offset="1" stop-color="#5B433F"/></linearGradient><linearGradient id="gpaint2_linear" x1="19.945" y1="23.277" x2="19.945" y2="25.176" gradientUnits="userSpaceOnUse"><stop stop-color="#7B5F54"/><stop offset="1" stop-color="#5B433F"/></linearGradient><linearGradient id="gpaint3_linear" x1="10.921" y1="27.076" x2="10.921" y2="28.975" gradientUnits="userSpaceOnUse"><stop stop-color="#7B5F54"/><stop offset="1" stop-color="#5B433F"/></linearGradient><linearGradient id="gpaint4_linear" x1="22.319" y1="27.075" x2="22.319" y2="28.975" gradientUnits="userSpaceOnUse"><stop stop-color="#7B5F54"/><stop offset="1" stop-color="#5B433F"/></linearGradient><linearGradient id="gpaint5_linear" x1="28.5" y1="5.232" x2="28.5" y2="51.768" gradientUnits="userSpaceOnUse"><stop stop-color="#7B5F54"/><stop offset="1" stop-color="#5B433F"/></linearGradient></defs></symbol><symbol viewBox="0 0 58 58" id="production4" xmlns="http://www.w3.org/2000/svg"><path d="M47.902 0H10.098L0 16.156V58h58V16.156L47.902 0zm7.387 15.467H29.967V1.933H46.83l8.458 13.534zM11.17 1.933h16.864v13.534H2.711l8.458-13.534zM1.933 56.067V17.4h54.134v38.667H1.933z"/><path d="M34.8 22.233H23.2a2.904 2.904 0 00-2.9 2.9c0 1.6 1.301 2.9 2.9 2.9h11.6c1.599 0 2.9-1.3 2.9-2.9 0-1.599-1.301-2.9-2.9-2.9zm0 3.867H23.2a.968.968 0 010-1.933h11.6a.968.968 0 010 1.933zM36.733 50.267H21.267a.966.966 0 100 1.933h15.466a.966.966 0 100-1.933zM24.167 48.333a.966.966 0 00.966-.966V41l1.25 1.25a.964.964 0 001.367 0 .966.966 0 000-1.367l-2.899-2.899a.968.968 0 00-1.369 0l-2.899 2.9a.966.966 0 101.367 1.366L23.2 41v6.367c0 .534.433.966.967.966zM34.518 37.984a.968.968 0 00-1.369 0l-2.9 2.9a.966.966 0 101.368 1.366l1.25-1.25v6.367a.966.966 0 101.933 0V41l1.25 1.25a.964.964 0 001.367 0 .966.966 0 000-1.367l-2.9-2.899z"/><defs><linearGradient id="hpaint0_linear" x1="29" y1="0" x2="29" y2="58" gradientUnits="userSpaceOnUse"><stop stop-color="#7B5F54"/><stop offset="1" stop-color="#5B433F"/></linearGradient><linearGradient id="hpaint1_linear" x1="29" y1="22.233" x2="29" y2="28.033" gradientUnits="userSpaceOnUse"><stop stop-color="#7B5F54"/><stop offset="1" stop-color="#5B433F"/></linearGradient><linearGradient id="hpaint2_linear" x1="29" y1="50.267" x2="29" y2="52.2" gradientUnits="userSpaceOnUse"><stop stop-color="#7B5F54"/><stop offset="1" stop-color="#5B433F"/></linearGradient><linearGradient id="hpaint3_linear" x1="24.167" y1="37.701" x2="24.167" y2="48.333" gradientUnits="userSpaceOnUse"><stop stop-color="#7B5F54"/><stop offset="1" stop-color="#5B433F"/></linearGradient><linearGradient id="hpaint4_linear" x1="33.833" y1="37.701" x2="33.833" y2="48.333" gradientUnits="userSpaceOnUse"><stop stop-color="#7B5F54"/><stop offset="1" stop-color="#5B433F"/></linearGradient></defs></symbol><symbol viewBox="0 0 64 64" id="production5" xmlns="http://www.w3.org/2000/svg"><path d="M5 20h12a3 3 0 003-3V5a3 3 0 00-3-3H5a3 3 0 00-3 3v12a3 3 0 003 3zm5-16h2v4.586l-.293-.293a1 1 0 00-1.414 0L10 8.586V4zM4 5a1 1 0 011-1h3v7a1 1 0 001.707.707L11 10.414l1.293 1.293A1 1 0 0014 11V4h3a1 1 0 011 1v12a1 1 0 01-1 1H5a1 1 0 01-1-1V5zM59 40H47a3 3 0 00-3 3v12a3 3 0 003 3h12a3 3 0 003-3V43a3 3 0 00-3-3zm-7 2h2v4.586l-.293-.293a1 1 0 00-1.414 0l-.293.293V42zm8 13a1 1 0 01-1 1H47a1 1 0 01-1-1V43a1 1 0 011-1h3v7a1 1 0 001.707.707L53 48.414l1.293 1.293A1 1 0 0056 49v-7h3a1 1 0 011 1v12zM36 14a6 6 0 100 12 6 6 0 000-12zm0 10a4 4 0 110-8 4 4 0 010 8z"/><path d="M12.217 56.783A11.007 11.007 0 0120 38h35a8 8 0 000-16h-9.235A9.678 9.678 0 0046 20a10 10 0 00-20 0c.009.673.087 1.343.235 2H2v2h24.831c2.248 5.53 8.3 9.623 8.614 9.832a1 1 0 001.11 0c.313-.209 6.366-4.3 8.614-9.832H55a6 6 0 110 12H20a13 13 0 100 26h42v-2H20a10.935 10.935 0 01-7.783-3.217zM36 31.771c-1.9-1.408-8-6.358-8-11.771a8 8 0 0116 0c0 5.413-6.1 10.363-8 11.771z"/><defs><linearGradient id="ipaint0_linear" x1="11" y1="2" x2="11" y2="20" gradientUnits="userSpaceOnUse"><stop stop-color="#7B5F54"/><stop offset="1" stop-color="#5B433F"/></linearGradient><linearGradient id="ipaint1_linear" x1="53" y1="40" x2="53" y2="58" gradientUnits="userSpaceOnUse"><stop stop-color="#7B5F54"/><stop offset="1" stop-color="#5B433F"/></linearGradient><linearGradient id="ipaint2_linear" x1="36" y1="14" x2="36" y2="26" gradientUnits="userSpaceOnUse"><stop stop-color="#7B5F54"/><stop offset="1" stop-color="#5B433F"/></linearGradient><linearGradient id="ipaint3_linear" x1="32.5" y1="10" x2="32.5" y2="62" gradientUnits="userSpaceOnUse"><stop stop-color="#7B5F54"/><stop offset="1" stop-color="#5B433F"/></linearGradient></defs></symbol><symbol viewBox="0 0 60 60" id="production6" xmlns="http://www.w3.org/2000/svg"><path d="M41.596 17.985c0-.027.017-.053.017-.082v-5.806a4.844 4.844 0 00-4.839-4.839H23.226a4.844 4.844 0 00-4.839 4.839v5.806c0 .029.015.055.017.082C7.7 23.536 0 35.644 0 44.032c0 .535.433.968.968.968h18.097a11.599 11.599 0 0021.87 0h18.097a.968.968 0 00.968-.968c0-8.388-7.701-20.496-18.404-26.047zm-21.273-1.05v-4.838c0-1.604 1.3-2.903 2.903-2.903h13.548c1.603 0 2.903 1.3 2.903 2.903v4.839h-.355A24.332 24.332 0 0030 15a24.332 24.332 0 00-9.322 1.936h-.355zM30 50.806A9.703 9.703 0 0121.14 45h17.72A9.703 9.703 0 0130 50.806zM1.973 43.065C2.75 32.794 15.516 16.935 30 16.935c14.484 0 27.25 15.86 28.027 26.13H1.973z"/><path d="M30.968 12.097a.968.968 0 00-.968-.968h-7.742a.968.968 0 000 1.936H30a.968.968 0 00.968-.968zM32.903 13.065h.968a.968.968 0 100-1.936h-.968a.968.968 0 000 1.936z"/><defs><linearGradient id="jpaint0_linear" x1="30" y1="7.258" x2="30" y2="52.731" gradientUnits="userSpaceOnUse"><stop stop-color="#7B5F54"/><stop offset="1" stop-color="#5B433F"/></linearGradient><linearGradient id="jpaint1_linear" x1="26.129" y1="11.129" x2="26.129" y2="13.065" gradientUnits="userSpaceOnUse"><stop stop-color="#7B5F54"/><stop offset="1" stop-color="#5B433F"/></linearGradient><linearGradient id="jpaint2_linear" x1="33.387" y1="11.129" x2="33.387" y2="13.065" gradientUnits="userSpaceOnUse"><stop stop-color="#7B5F54"/><stop offset="1" stop-color="#5B433F"/></linearGradient></defs></symbol><symbol viewBox="0 0 14 14" id="s_facebook" xmlns="http://www.w3.org/2000/svg"><path d="M11.375 0h-8.75A2.625 2.625 0 000 2.625v8.75A2.625 2.625 0 002.625 14h8.75A2.625 2.625 0 0014 11.375v-8.75A2.625 2.625 0 0011.375 0zM8.809 7H7.662v4.2H6.087V7h-1.05V5.553l1.05-.001-.001-.852c0-1.182.32-1.9 1.71-1.9h1.159v1.448H8.23c-.541 0-.568.202-.568.58l-.001.724h1.302L8.81 6.999z"/></symbol><symbol viewBox="0 0 14 14" id="s_inst" xmlns="http://www.w3.org/2000/svg"><path d="M10.21 0H3.79C1.7 0 0 1.7 0 3.79v6.42C0 12.3 1.7 14 3.79 14h6.42C12.3 14 14 12.3 14 10.21V3.79C14 1.7 12.3 0 10.21 0zM7 10.828A3.832 3.832 0 013.172 7 3.832 3.832 0 017 3.172 3.832 3.832 0 0110.828 7 3.832 3.832 0 017 10.828zm3.92-6.753a1.132 1.132 0 010-2.263 1.132 1.132 0 010 2.262z"/><path d="M7 3.993A3.01 3.01 0 003.993 7 3.01 3.01 0 007 10.007 3.01 3.01 0 0010.007 7 3.01 3.01 0 007 3.993zm3.92-1.36a.31.31 0 100 .622.31.31 0 000-.622z"/></symbol><symbol viewBox="0 0 15 15" id="s_twitter" xmlns="http://www.w3.org/2000/svg"><path d="M15 3.489a5.823 5.823 0 01-1.674.459 2.927 2.927 0 001.281-1.612 5.876 5.876 0 01-1.852.708 2.915 2.915 0 00-4.967 2.658A8.276 8.276 0 011.78 2.656a2.914 2.914 0 00.902 3.891 2.915 2.915 0 01-1.32-.366v.037a2.918 2.918 0 002.337 2.858 2.953 2.953 0 01-.768.102c-.188 0-.37-.018-.548-.054a2.917 2.917 0 002.722 2.025 5.849 5.849 0 01-3.62 1.246c-.235 0-.467-.015-.695-.04a8.24 8.24 0 004.468 1.311c5.362 0 8.294-4.441 8.294-8.294l-.01-.377A5.823 5.823 0 0015 3.489z"/><defs><clipPath id="mclip0"><path transform="translate(.79 .79)" d="M0 0h14.21v14.21H0z"/></clipPath></defs></symbol><symbol viewBox="0 0 16 16" id="s_vk" xmlns="http://www.w3.org/2000/svg"><path fill-rule="evenodd" clip-rule="evenodd" d="M13.77 9.23c.531.518 1.091 1.006 1.567 1.576.21.254.41.515.562.81.216.418.02.878-.355.903l-2.33-.001c-.602.05-1.082-.193-1.485-.604-.322-.328-.621-.678-.932-1.018a2.206 2.206 0 00-.42-.373c-.317-.206-.593-.143-.775.189-.186.337-.228.711-.246 1.087-.025.55-.19.694-.742.719-1.178.055-2.296-.123-3.335-.718-.916-.524-1.626-1.263-2.245-2.1C1.831 8.067.91 6.276.081 4.433c-.187-.415-.05-.637.408-.645.76-.015 1.52-.014 2.282-.001.309.004.513.181.633.473A14.146 14.146 0 004.95 7.128c.169.237.34.475.585.642.27.185.476.123.603-.178.08-.19.116-.396.134-.6.06-.704.068-1.407-.037-2.108-.065-.437-.312-.72-.748-.803-.223-.042-.19-.125-.082-.253.187-.219.363-.355.715-.355h2.634c.415.082.507.268.564.685l.002 2.926c-.005.162.08.641.372.748.232.076.386-.11.526-.258.63-.67 1.08-1.46 1.483-2.28.178-.36.332-.734.48-1.107.11-.278.284-.414.596-.408l2.535.002c.075 0 .152.001.224.014.428.072.545.256.413.673-.208.655-.613 1.2-1.008 1.748-.423.585-.875 1.15-1.295 1.739-.385.537-.354.808.124 1.275z"/><defs><clipPath id="nclip0"><path d="M0 0h16v16H0z"/></clipPath></defs></symbol><symbol viewBox="0 0 18 18" id="search" xmlns="http://www.w3.org/2000/svg"><path d="M17.016 16.003l-4.142-4.141A7.262 7.262 0 007.26 0a7.26 7.26 0 100 14.52 7.221 7.221 0 004.598-1.642L16 17.016a.717.717 0 101.016-1.013zM7.26 13.075A5.822 5.822 0 011.44 7.26a5.825 5.825 0 015.82-5.82 5.828 5.828 0 015.818 5.819 5.825 5.825 0 01-5.818 5.815z"/></symbol></svg>