<svg width="89" height="103" viewBox="0 0 89 103" fill="none" xmlns="http://www.w3.org/2000/svg">
<path d="M59.1888 12.7275C58.1536 5.47204 51.8382 0 44.4993 0C39.7796 0 35.2973 2.2775 32.5104 6.09448C31.9411 6.87291 32.1114 7.96486 32.8898 8.53411C33.6657 9.10131 34.7602 8.93304 35.3285 8.15359C37.4617 5.23472 40.8895 3.49169 44.4988 3.49169C50.1115 3.49169 54.9401 7.67435 55.7319 13.22C55.8566 14.091 56.6039 14.7196 57.4585 14.7196C57.5398 14.7196 57.6237 14.7135 57.7071 14.7022C58.6615 14.5657 59.3248 13.6814 59.1888 12.7275Z" fill="url(#paint0_linear)"/>
<path d="M84.4019 32.2706L79.1646 23.5417C78.8496 23.0154 78.2814 22.6942 77.6676 22.6942H72.6487C71.6852 22.6942 70.9031 23.4762 70.9031 24.4398C70.9031 25.4034 71.6852 26.1854 72.6487 26.1854H76.6795L79.8219 31.4227H9.17433L12.3167 26.1854H14.1656C15.1292 26.1854 15.9112 25.4034 15.9112 24.4398C15.9112 23.4762 15.1292 22.6942 14.1656 22.6942H11.3286C10.7148 22.6942 10.1466 23.0154 9.83155 23.5417L4.59427 32.2706C4.27052 32.8107 4.26285 33.4823 4.57228 34.0295C4.88171 34.5768 5.4617 34.9154 6.09129 34.9154H82.9049C83.5345 34.9154 84.114 34.5768 84.4239 34.0295C84.7339 33.4823 84.7257 32.8097 84.4019 32.2706Z" fill="url(#paint1_linear)"/>
<path d="M75.6997 16.1737C75.4553 15.7794 75.065 15.4996 74.6139 15.3942L50.8155 9.82809C50.3649 9.72221 49.8903 9.80098 49.4965 10.0444C49.1037 10.2889 48.8234 10.6791 48.718 11.1302L46.9233 18.802C46.7034 19.7406 47.2865 20.6796 48.2255 20.8985C49.164 21.1184 50.1041 20.5354 50.323 19.5963L51.7203 13.6251L72.1185 18.3965L68.9133 32.1008C68.6933 33.0394 69.2764 33.9784 70.2154 34.1973C70.3499 34.2285 70.4834 34.2433 70.6154 34.2433C71.4081 34.2433 72.1257 33.7002 72.3124 32.8956L75.9156 17.4917C76.022 17.0411 75.9442 16.5665 75.6997 16.1737Z" fill="url(#paint2_linear)"/>
<path d="M45.4231 20.3006L43.8325 6.84682C43.7783 6.38702 43.5435 5.96712 43.1794 5.68071C42.8152 5.39429 42.3554 5.26336 41.8936 5.31757L12.6947 8.76886C11.7378 8.8824 11.0535 9.74983 11.1665 10.7078L13.8184 33.1468C13.9237 34.0352 14.6771 34.6883 15.5502 34.6883C15.6182 34.6883 15.6883 34.6837 15.7578 34.676C16.7142 34.5625 17.3986 33.695 17.286 32.7371L14.8387 12.0304L40.5705 8.9893L41.9555 20.7092C42.069 21.6667 42.9323 22.3469 43.8944 22.2385C44.8513 22.126 45.5356 21.258 45.4231 20.3006Z" fill="url(#paint3_linear)"/>
<path d="M59.2293 32.5059L55.7642 18.0962C55.6558 17.6467 55.373 17.2575 54.9786 17.0155C54.5843 16.7757 54.1112 16.7005 53.6586 16.8079L25.5353 23.5713C24.5978 23.7964 24.0209 24.7395 24.2459 25.677L25.9777 32.8793C26.2027 33.8178 27.1459 34.3952 28.0828 34.1687C29.0203 33.9436 29.5973 33.0005 29.3722 32.063L28.0481 26.5577L52.7768 20.6116L55.8338 33.3232C56.0256 34.1236 56.7416 34.6607 57.5298 34.6607C57.6653 34.6607 57.8024 34.6448 57.9399 34.6116C58.8774 34.386 59.4544 33.4434 59.2293 32.5059Z" fill="url(#paint4_linear)"/>
<path d="M84.6512 33.0803C84.6031 32.1525 83.8369 31.4242 82.9071 31.4242H6.09351C5.16369 31.4242 4.39754 32.152 4.34946 33.0803L0.857768 101.165C0.833219 101.643 1.00609 102.11 1.33547 102.457C1.66535 102.803 2.12259 103 2.60131 103H86.3978C86.876 103 87.3337 102.804 87.6652 102.457C87.994 102.11 88.1669 101.643 88.1429 101.165L84.6512 33.0803ZM4.43845 99.5083L7.75113 34.9154H81.2475L84.5601 99.5083H4.43845Z" fill="url(#paint5_linear)"/>
<path d="M57.5927 38.4066C54.7046 38.4066 52.3555 40.7557 52.3555 43.6438C52.3555 46.532 54.7046 48.8811 57.5927 48.8811C60.4809 48.8811 62.83 46.532 62.83 43.6438C62.83 40.7557 60.4809 38.4066 57.5927 38.4066ZM57.5927 45.3899C56.6297 45.3899 55.8472 44.6069 55.8472 43.6443C55.8472 42.6818 56.6302 41.8988 57.5927 41.8988C58.5553 41.8988 59.3383 42.6818 59.3383 43.6443C59.3383 44.6069 58.5553 45.3899 57.5927 45.3899Z" fill="url(#paint6_linear)"/>
<path d="M31.4072 38.4066C28.519 38.4066 26.1699 40.7557 26.1699 43.6438C26.1699 46.532 28.519 48.8811 31.4072 48.8811C34.2954 48.8811 36.6445 46.532 36.6445 43.6438C36.6445 40.7557 34.2954 38.4066 31.4072 38.4066ZM31.4072 45.3899C30.4446 45.3899 29.6616 44.6069 29.6616 43.6443C29.6616 42.6818 30.4446 41.8988 31.4072 41.8988C32.3698 41.8988 33.1528 42.6818 33.1528 43.6443C33.1528 44.6069 32.3698 45.3899 31.4072 45.3899Z" fill="url(#paint7_linear)"/>
<path d="M57.5921 43.6438H57.4576C56.4941 43.6438 55.712 44.4258 55.712 45.3894C55.712 45.6278 55.7591 45.8554 55.8466 46.0625V54.9909C55.8466 61.2475 50.7561 66.3385 44.4989 66.3385C38.2418 66.3385 33.1513 61.248 33.1513 54.9909V45.3899C33.1513 44.4264 32.3693 43.6443 31.4057 43.6443C30.4422 43.6443 29.6602 44.4264 29.6602 45.3899V54.9914C29.6602 63.1737 36.3167 69.8302 44.4989 69.8302C52.6812 69.8302 59.3377 63.1737 59.3377 54.9914V45.3899C59.3377 44.4264 58.5557 43.6438 57.5921 43.6438Z" fill="url(#paint8_linear)"/>
<defs>
<linearGradient id="paint0_linear" x1="45.6901" y1="0" x2="45.6901" y2="14.7196" gradientUnits="userSpaceOnUse">
<stop stop-color="#7B5F54"/>
<stop offset="1" stop-color="#5B433F"/>
</linearGradient>
<linearGradient id="paint1_linear" x1="44.4982" y1="22.6942" x2="44.4982" y2="34.9154" gradientUnits="userSpaceOnUse">
<stop stop-color="#7B5F54"/>
<stop offset="1" stop-color="#5B433F"/>
</linearGradient>
<linearGradient id="paint2_linear" x1="61.4195" y1="9.78207" x2="61.4195" y2="34.2433" gradientUnits="userSpaceOnUse">
<stop stop-color="#7B5F54"/>
<stop offset="1" stop-color="#5B433F"/>
</linearGradient>
<linearGradient id="paint3_linear" x1="28.2948" y1="5.30557" x2="28.2948" y2="34.6883" gradientUnits="userSpaceOnUse">
<stop stop-color="#7B5F54"/>
<stop offset="1" stop-color="#5B433F"/>
</linearGradient>
<linearGradient id="paint4_linear" x1="41.7376" y1="16.76" x2="41.7376" y2="34.6607" gradientUnits="userSpaceOnUse">
<stop stop-color="#7B5F54"/>
<stop offset="1" stop-color="#5B433F"/>
</linearGradient>
<linearGradient id="paint5_linear" x1="44.5003" y1="31.4242" x2="44.5003" y2="103" gradientUnits="userSpaceOnUse">
<stop stop-color="#7B5F54"/>
<stop offset="1" stop-color="#5B433F"/>
</linearGradient>
<linearGradient id="paint6_linear" x1="57.5927" y1="38.4066" x2="57.5927" y2="48.8811" gradientUnits="userSpaceOnUse">
<stop stop-color="#7B5F54"/>
<stop offset="1" stop-color="#5B433F"/>
</linearGradient>
<linearGradient id="paint7_linear" x1="31.4072" y1="38.4066" x2="31.4072" y2="48.8811" gradientUnits="userSpaceOnUse">
<stop stop-color="#7B5F54"/>
<stop offset="1" stop-color="#5B433F"/>
</linearGradient>
<linearGradient id="paint8_linear" x1="44.4989" y1="43.6438" x2="44.4989" y2="69.8302" gradientUnits="userSpaceOnUse">
<stop stop-color="#7B5F54"/>
<stop offset="1" stop-color="#5B433F"/>
</linearGradient>
</defs>
</svg>
