<svg width="88" height="151" viewBox="0 0 88 151" fill="none" xmlns="http://www.w3.org/2000/svg">
<path d="M25.5343 110.438C23.9325 109.424 20.6277 106.178 20.223 101.309C19.7172 95.2222 17.9467 87.6142 15.9234 84.3173C13.9 81.0205 6.5654 67.0725 3.78329 59.9716C1.00118 52.8708 -6.58639 23.7067 26.0402 5.95463C58.6667 -11.7974 87.4993 22.4387 86.9934 41.2052C86.4876 59.9716 77.6354 72.3981 76.1179 74.9341C74.6004 77.4701 67.0128 93.1934 67.2658 101.309C66.9285 103.76 65.5459 109.018 62.7132 110.438M25.5343 110.438L25.0284 115.003M25.5343 110.438H38.6859H50.6996H62.7132M62.7132 110.438V113.989M61.1957 119.568L62.7132 117.539V113.989M61.1957 119.568L62.7132 121.85L61.1957 124.386M61.1957 119.568L26.5458 121.85M61.1957 124.386L62.7132 127.43L61.1957 129.458M61.1957 124.386L26.5458 127.43M61.1957 129.458L62.7132 132.248L61.1957 134.53M61.1957 129.458L26.5458 132.248M61.1957 134.53L62.7132 136.813L49.5614 150H37.1684L25.5343 138.842L26.5458 136.813M61.1957 134.53L26.5458 136.813M26.5458 136.813L24.5225 134.53L26.5458 132.248M26.5458 132.248L24.5225 129.458L26.5458 127.43M26.5458 127.43L24.5225 124.386L26.5458 121.85M26.5458 121.85L24.5225 119.568L25.0284 115.003M25.0284 115.003L62.7132 113.989" stroke="#AFAFAF"/>
</svg>
