<svg width="358" height="239" viewBox="0 0 358 239" fill="none" xmlns="http://www.w3.org/2000/svg">
<path d="M10.2027 205.333C10.2027 206.613 9.16955 207.637 7.87807 207.637C6.58658 207.637 5.55339 206.613 5.55339 205.333C5.55339 204.052 6.58658 203.028 7.87807 203.028C9.16955 203.028 10.2027 204.052 10.2027 205.333ZM138.189 228.119C133.152 226.967 128.115 222.23 123.854 219.798C119.075 217.11 110.551 214.678 104.61 216.726C105.773 218.262 106.031 220.438 104.998 222.742C103.965 225.175 99.057 227.351 97.8947 223.766C96.7323 220.438 99.1861 217.878 102.027 216.47C101.123 215.958 100.09 215.574 99.1861 215.446C95.6991 215.062 92.083 216.982 88.9834 218.39C83.3009 220.95 77.7475 223.382 71.4192 224.022C67.4156 224.534 62.3788 223.254 60.829 219.03C59.5375 215.318 60.3124 210.965 63.6703 208.661C66.1241 206.997 71.8066 206.869 71.6775 211.349C71.5483 214.293 66.899 216.214 65.7367 212.629C65.3492 211.605 66.899 213.013 68.0613 213.013C70.2569 213.013 71.1609 210.325 68.7071 209.429C67.4156 208.917 65.6075 209.301 64.5743 210.069C63.1537 210.837 62.3788 212.629 62.1205 214.165C61.3456 217.622 63.2828 220.822 66.5115 222.102C72.5815 224.278 80.847 220.438 86.2713 218.006C90.404 216.086 95.57 213.013 100.348 214.037C101.769 214.293 102.931 214.934 103.835 215.702C103.835 215.702 103.835 215.702 103.965 215.702C109.905 213.397 116.363 214.806 122.045 217.238C125.791 218.774 129.019 221.206 132.377 223.51C133.669 226.071 135.735 227.479 138.189 228.119ZM103.061 217.494C101.64 218.006 100.478 219.03 99.7027 220.438C97.6364 224.022 101.898 225.303 103.577 222.102C104.352 220.438 104.223 218.646 103.061 217.494ZM1.29149 204.052C0.645743 204.052 0 204.564 0 205.333C0 205.973 0.516594 206.613 1.29149 206.613C1.93723 206.613 2.58297 206.101 2.58297 205.333C2.58297 204.692 1.93723 204.052 1.29149 204.052ZM265.917 210.709C267.983 211.477 270.05 212.373 271.729 213.269C272.374 213.525 272.891 213.781 273.408 214.037H273.537C276.895 215.574 281.673 217.878 285.806 218.262C283.352 216.982 281.544 214.421 281.544 211.605C281.544 211.221 281.544 210.837 281.544 210.453C278.574 210.581 267.983 210.709 265.917 210.709ZM16.2727 202.26C14.4646 202.26 13.044 203.668 13.044 205.461C13.044 207.253 14.4646 208.661 16.2727 208.661C18.0808 208.661 19.5014 207.253 19.5014 205.461C19.5014 203.668 18.0808 202.26 16.2727 202.26ZM187.136 206.741C218.778 206.613 333.591 205.973 333.591 205.333C333.591 204.564 180.033 203.924 179.129 203.924C178.354 203.924 24.6674 204.564 24.6674 205.333C24.6674 205.973 138.447 206.613 170.734 206.741C168.926 207.509 167.635 209.173 167.247 211.349C166.86 213.653 168.152 216.342 169.701 218.134C170.476 219.03 171.251 219.926 172.155 220.822C164.535 218.646 153.816 225.559 146.842 226.583C142.968 227.223 138.06 227.479 135.219 224.278C132.894 221.718 131.602 217.75 132.765 214.293C134.056 210.581 138.06 207.381 142.451 208.533C144.905 209.173 147.1 211.733 146.455 214.421C146.067 215.958 144.905 216.982 143.355 217.494C140.385 218.134 137.672 215.574 139.481 212.629C139.997 211.861 139.351 211.093 138.576 211.733C135.348 214.549 138.189 220.182 142.838 219.286C147.488 218.39 149.683 213.397 146.842 209.557C143.872 205.717 138.318 205.973 134.831 208.533C131.086 211.221 129.536 216.598 131.086 220.822C131.473 221.718 131.861 222.614 132.248 223.254C131.602 223.51 131.086 224.406 133.669 225.303C133.798 225.431 134.315 225.943 134.444 226.071C137.285 227.863 138.706 227.991 138.318 227.863C145.809 230.039 156.399 224.791 163.244 222.742C166.731 221.59 170.476 220.822 173.705 222.998C176.934 225.047 178.483 228.887 177.063 232.599C175.771 236.184 171.768 238.36 168.152 237.08C166.473 236.44 164.665 235.16 164.406 233.111C164.148 231.447 164.277 229.143 166.214 228.375C168.022 227.607 170.089 228.119 170.605 230.167C170.734 230.679 171.509 230.935 171.509 230.423C171.509 227.095 167.506 225.943 165.052 227.351C161.565 229.527 162.598 235.16 165.698 237.08C171.897 240.92 178.225 236.44 179.129 230.807C179 229.911 179 229.015 179.129 228.119C179 227.095 178.613 226.199 178.096 225.175C177.192 223.638 176.159 222.486 174.996 221.718C172.801 219.158 170.089 216.854 169.314 213.653C168.539 210.453 169.96 207.381 173.188 207.381C175.9 207.381 176.934 209.173 177.063 210.069C177.45 211.733 176.804 213.269 174.609 213.141C173.576 213.141 172.672 211.477 173.834 210.709C174.48 210.197 173.834 209.301 173.059 209.429C169.701 210.069 172.155 215.19 174.867 214.934C179.387 214.549 179.646 209.557 176.675 207.125C176.288 206.741 175.9 206.613 175.513 206.357C177.838 206.357 179.258 206.357 179.258 206.357C179.387 206.357 180.55 206.357 182.616 206.357C182.229 206.613 181.841 206.741 181.454 207.125C178.354 209.557 178.613 214.549 183.262 214.934C185.974 215.19 188.557 210.069 185.07 209.429C184.424 209.301 183.649 210.197 184.295 210.709C185.457 211.477 184.553 213.141 183.52 213.141C181.325 213.269 180.679 211.605 181.066 210.069C181.196 209.173 182.229 207.381 184.941 207.381C188.17 207.253 189.59 210.325 188.815 213.653C188.04 216.854 185.457 219.158 183.133 221.718C183.908 221.206 184.812 220.694 185.716 220.438C186.491 219.542 187.395 218.646 188.17 217.75C189.59 215.958 190.882 213.269 190.623 210.965C190.236 209.301 188.815 207.509 187.136 206.741ZM148.004 221.846C149.683 221.334 151.75 220.566 153.816 219.798C156.916 218.646 160.273 217.366 163.502 216.598C162.856 215.062 162.469 213.141 162.598 211.093C159.499 211.093 155.882 211.093 152.008 211.093C152.525 213.141 152.395 215.19 151.62 217.11C150.975 219.03 149.683 220.694 148.004 221.846ZM350.122 203.028C348.83 203.028 347.797 204.052 347.797 205.333C347.797 206.613 348.83 207.637 350.122 207.637C351.413 207.637 352.447 206.613 352.447 205.333C352.447 204.052 351.413 203.028 350.122 203.028ZM341.727 202.26C339.919 202.26 338.499 203.668 338.499 205.461C338.499 207.253 339.919 208.661 341.727 208.661C343.535 208.661 344.956 207.253 344.956 205.461C344.956 203.668 343.406 202.26 341.727 202.26ZM356.709 204.052C356.063 204.052 355.417 204.564 355.417 205.333C355.417 205.973 355.934 206.613 356.709 206.613C357.354 206.613 358 206.101 358 205.333C358 204.692 357.483 204.052 356.709 204.052ZM71.9358 218.39C76.0685 217.878 80.847 215.702 84.2049 214.165H84.3341C84.8507 213.909 85.4964 213.653 86.013 213.397C87.8211 212.501 89.7583 211.605 91.8247 210.837C89.7583 210.837 87.6919 210.837 85.4964 210.837C82.2677 210.837 79.1681 210.837 76.0685 210.709C76.0685 211.093 76.0685 211.477 76.0685 211.861C76.0685 214.549 74.3896 217.11 71.9358 218.39ZM234.146 213.141C236.471 212.117 238.796 211.349 240.862 210.965C237.246 210.965 233.759 210.965 230.401 210.965C230.918 212.117 231.305 213.269 231.563 214.421C232.338 213.909 233.242 213.525 234.146 213.141ZM126.178 214.421C126.437 213.269 126.824 212.117 127.341 210.965C123.854 210.965 120.367 210.965 116.88 210.965C119.075 211.477 121.271 212.245 123.724 213.141C124.37 213.525 125.274 213.909 126.178 214.421ZM203.797 219.798C205.863 220.566 207.929 221.334 209.608 221.846C207.929 220.694 206.638 219.03 205.863 217.11C205.088 215.19 204.959 213.013 205.475 211.093C201.601 211.093 197.985 211.093 194.885 211.093C195.144 213.141 194.627 215.062 193.981 216.598C197.468 217.366 200.697 218.646 203.797 219.798ZM185.716 220.95C193.335 218.774 204.055 225.687 211.029 226.711C214.903 227.351 219.811 227.607 222.652 224.406C224.977 221.846 226.268 217.878 225.106 214.421C223.815 210.709 219.811 207.509 215.42 208.661C212.966 209.301 210.771 211.861 211.416 214.549C211.804 216.086 212.966 217.11 214.516 217.622C217.486 218.262 220.198 215.702 218.261 212.757C217.745 211.989 218.39 211.221 219.165 211.861C222.394 214.678 219.553 220.31 214.903 219.414C210.254 218.518 208.058 213.525 210.9 209.685C213.87 205.845 219.424 206.101 222.911 208.661C226.656 211.349 228.206 216.726 226.656 220.95C226.268 221.846 225.881 222.742 225.494 223.382C228.851 221.206 232.08 218.646 235.825 217.11C241.508 214.806 247.965 213.269 253.906 215.574C253.906 215.574 253.906 215.574 254.035 215.574C254.939 214.806 256.102 214.293 257.522 213.909C262.172 212.885 267.467 215.958 271.6 217.878C276.895 220.31 285.289 224.278 291.359 221.974C294.717 220.822 296.654 217.622 295.75 214.037C295.363 212.501 294.717 210.837 293.297 209.941C292.263 209.173 290.455 208.789 289.164 209.301C286.71 210.197 287.485 213.013 289.81 212.885C290.843 212.885 292.392 211.477 292.134 212.501C290.843 216.086 286.193 214.165 286.193 211.221C286.064 206.613 291.747 206.741 294.201 208.533C297.558 210.837 298.333 215.19 297.042 218.902C295.621 223.126 290.455 224.406 286.452 223.894C280.123 223.126 274.699 220.822 268.887 218.262C265.917 216.854 262.172 214.934 258.685 215.318C257.652 215.446 256.747 215.702 255.843 216.342C258.556 217.878 261.009 220.31 259.976 223.638C258.814 227.223 253.906 224.919 252.873 222.614C251.84 220.31 252.098 218.134 253.26 216.598C247.19 214.421 238.796 216.854 234.017 219.67C229.755 222.102 224.848 226.839 219.682 227.991C212.191 230.167 201.601 224.919 194.756 222.87C191.269 221.718 187.524 220.95 184.295 223.126C181.066 225.175 179.517 229.015 180.937 232.727C182.229 236.312 186.232 238.488 189.848 237.208C191.527 236.568 193.335 235.288 193.594 233.239C193.852 231.575 193.723 229.271 191.786 228.503C189.978 227.735 187.911 228.247 187.395 230.295C187.266 230.807 186.491 231.063 186.491 230.551C186.491 227.223 190.494 226.071 192.948 227.479C196.435 229.655 195.402 235.288 192.302 237.208C186.103 241.048 179.775 236.568 178.871 230.935C179 230.039 179 229.143 178.871 228.247C179 227.223 179.387 226.327 179.904 225.303C180.808 223.766 181.841 222.614 183.004 221.846C184.166 221.206 184.553 220.438 185.716 220.95ZM254.035 221.974C255.714 225.175 259.976 223.894 257.781 220.31C257.006 219.03 255.843 218.006 254.423 217.366C253.39 218.646 253.26 220.438 254.035 221.974ZM132.119 223.51C131.99 223.766 130.957 224.663 133.54 225.559L132.119 223.51Z" fill="white"/>
<path d="M79.5556 160.144C76.7143 162.064 73.4856 162.961 69.7403 162.961C65.4784 162.961 61.9914 161.68 59.4084 158.992L58.2461 162.961H56.8254L55.9214 149.391H57.7295C59.2793 158.352 65.6075 161.168 69.8694 161.168C74.2605 161.168 77.3601 159.376 77.3601 155.792C77.3601 154.128 76.456 152.719 75.552 151.823C75.0354 151.439 74.3896 150.927 73.3565 150.543C72.4524 150.159 71.5484 149.775 70.9026 149.519C70.2569 149.263 69.3528 149.007 68.0614 148.623C65.3492 147.855 64.0578 147.343 61.8622 146.191C58.8918 144.527 57.342 142.222 57.0837 137.998C57.0837 131.213 61.8622 127.501 68.9654 127.501C72.969 127.501 76.1977 128.781 78.6515 131.213L79.943 127.629H81.3637L81.8803 140.174H80.0722C79.2973 136.078 77.4892 133.006 75.1645 131.469C72.969 129.933 71.0318 129.421 68.9654 129.421C65.7367 129.421 63.0246 131.341 63.0246 134.798C63.0246 136.462 63.9286 137.87 64.9618 138.766C65.4784 139.15 66.2533 139.662 67.2865 140.046L69.7403 141.07L72.7107 141.966C75.9394 142.863 77.7475 143.631 80.2013 145.167C82.526 146.703 83.8175 149.135 83.8175 152.335C83.8175 155.536 82.3969 158.224 79.5556 160.144ZM122.045 129.933H121.4C119.204 129.933 117.913 131.085 116.88 134.03L105.514 162.961H102.027L90.1458 133.006C89.2417 130.829 88.3377 130.061 86.5296 130.061H85.8839V128.269H101.898V130.061H99.4445C98.2821 130.061 97.6364 130.445 97.6364 131.085C97.6364 131.597 97.7655 132.237 98.0238 133.134L106.419 154.64L114.426 134.286C114.813 133.262 115.071 132.493 115.071 131.725C115.071 130.829 114.167 130.189 112.747 130.189H110.939V128.397H122.045V129.933ZM124.112 128.141H143.226C148.263 128.141 152.137 129.805 154.849 133.006C157.561 136.206 158.982 140.302 158.982 145.167C158.982 150.031 157.561 154.128 154.849 157.456C152.008 160.656 148.134 162.32 143.226 162.32H124.112V160.528H126.049C127.857 160.528 128.503 160.016 128.503 157.584V133.134C128.503 130.701 127.728 130.189 126.049 130.189H124.112V128.141ZM138.706 129.933C137.027 129.933 136.639 130.445 136.639 132.878V157.456C136.639 159.888 137.414 160.4 139.093 160.4H141.289C147.746 160.4 150.846 154.64 150.846 145.167C150.846 135.694 147.746 129.933 141.418 129.933H138.706ZM162.856 162.192V160.4H164.794C166.602 160.4 167.247 159.888 167.247 157.456V133.006C167.247 130.573 166.473 130.061 164.794 130.061H162.856V128.269H190.882L191.657 139.662H189.849C189.203 136.078 188.299 133.518 187.524 132.237C187.136 131.597 186.62 131.085 186.103 130.829C184.941 130.189 184.295 130.189 182.745 130.189H177.45C175.771 130.189 175.384 130.701 175.384 133.134V143.759H178.871C180.292 143.759 181.454 143.375 182.1 142.478C182.874 141.582 183.262 139.79 183.262 137.102H185.07V152.463H183.262C183.262 149.775 182.874 147.983 182.1 147.087C181.325 146.191 180.292 145.679 178.871 145.679H175.384V157.584C175.384 160.016 176.159 160.528 177.838 160.528H183.004C184.295 160.528 184.683 160.528 185.587 160.4C186.62 160.272 187.007 159.76 187.782 159.12C189.074 157.712 190.107 155.024 191.011 149.391H192.819L191.915 162.32H162.856V162.192ZM222.007 131.341L223.298 127.501H224.977L225.752 140.942H223.815C222.911 136.334 221.232 133.006 219.294 131.597C217.357 130.061 215.807 129.421 213.999 129.421C208.962 129.421 205.346 132.365 205.346 145.423C205.346 155.92 208.833 160.528 214.387 160.528C219.553 160.528 223.427 156.944 224.719 150.415H226.527C225.881 155.152 223.815 158.736 221.102 160.528C218.39 162.32 215.807 162.961 212.966 162.961C208.446 162.961 204.571 161.424 201.601 158.48C198.501 155.408 197.081 151.311 197.081 145.807C197.081 140.302 198.501 135.822 201.472 132.493C204.442 129.165 208.317 127.501 213.224 127.501C216.453 127.501 219.682 128.909 222.007 131.341ZM263.722 145.167C263.722 150.287 262.301 154.512 259.33 157.968C256.36 161.296 252.356 162.961 247.061 162.961C241.766 162.961 237.633 161.296 234.792 157.968C231.822 154.64 230.401 150.415 230.401 145.167C230.401 140.046 231.822 135.822 234.792 132.493C237.763 129.165 241.766 127.501 247.061 127.501C252.356 127.501 256.489 129.165 259.33 132.493C262.172 135.822 263.722 140.046 263.722 145.167ZM238.538 145.167C238.538 155.152 241.25 161.04 246.932 161.04C252.744 161.04 255.456 155.152 255.456 145.167C255.456 135.182 252.744 129.293 246.932 129.293C241.25 129.293 238.538 135.182 238.538 145.167ZM301.82 155.152C301.433 160.784 299.625 162.704 295.621 162.704C291.23 162.704 289.422 160.656 288.906 156.432C288.776 155.28 288.518 154.384 288.389 153.744C288.26 152.463 287.614 150.159 287.097 149.135C286.193 147.343 285.031 145.935 282.836 145.935H279.994V157.328C279.994 159.76 280.769 160.272 282.448 160.272H284.385V162.064H267.596V160.272H269.533C271.341 160.272 271.987 159.76 271.987 157.328V132.878C271.987 130.445 271.212 129.933 269.533 129.933H267.596V128.141H286.064C293.684 128.141 298.463 131.213 298.463 136.974C298.463 141.582 294.459 144.783 288.001 145.423C292.005 146.191 294.459 148.623 295.621 152.848C295.75 153.616 296.009 154.64 296.267 155.92C296.784 158.608 297.171 159.504 297.946 159.504C299.108 159.504 299.754 158.48 300.012 155.152H301.82ZM282.448 129.933C280.64 129.933 279.994 130.445 279.994 132.878V144.015H284.127C288.131 144.015 290.326 141.326 290.326 136.846C290.326 132.621 288.26 129.805 284.773 129.805H282.448V129.933Z" fill="white"/>
<path d="M40.2944 190.227V179.986H41.9734V188.435L46.6227 179.986H48.8182V190.227H47.1393V181.778L42.49 190.227H40.2944ZM57.8586 190.483C54.6299 190.483 52.951 188.307 52.951 185.235C52.951 181.778 54.8882 179.602 57.9878 179.602C60.5708 179.602 62.1206 180.882 62.3788 183.186H60.5708C60.3125 181.778 59.4084 181.01 57.9878 181.01C56.0506 181.01 54.7591 182.546 54.7591 184.979C54.7591 187.539 55.9214 188.947 57.8586 188.947C59.4084 188.947 60.4416 188.051 60.6999 186.259H62.3788C62.1206 188.947 60.4416 190.483 57.8586 190.483ZM73.3565 190.227L69.6112 185.107L67.9322 186.643V190.099H66.2533V179.858H67.9322V184.723L72.7107 179.858H75.0354L70.9027 183.954L75.6812 190.227H73.3565ZM82.9135 191.507C82.3969 192.915 81.7511 194.324 79.9431 194.324C79.5556 194.324 79.039 194.195 78.6516 194.195V192.659C79.1682 192.787 79.4265 192.915 79.8139 192.915C80.3305 192.915 80.8471 192.531 80.9762 192.019L81.7511 190.099L77.6184 179.858H79.5556L82.6552 188.179L85.6256 179.986H87.4337L82.9135 191.507ZM94.9243 190.483C91.6956 190.483 90.0167 188.307 90.0167 185.235C90.0167 181.778 91.9539 179.602 95.0534 179.602C97.6364 179.602 99.1862 180.882 99.4445 183.186H97.6364C97.3781 181.778 96.4741 181.01 95.0534 181.01C93.1162 181.01 91.8247 182.546 91.8247 184.979C91.8247 187.539 92.9871 188.947 94.9243 188.947C96.4741 188.947 97.5073 188.051 97.7656 186.259H99.4445C99.1862 188.947 97.5073 190.483 94.9243 190.483ZM107.71 190.483C104.481 190.483 102.802 188.307 102.802 185.235C102.802 181.778 104.74 179.602 107.839 179.602C110.422 179.602 111.972 180.882 112.23 183.186H110.422C110.164 181.778 109.26 181.01 107.839 181.01C105.902 181.01 104.61 182.546 104.61 184.979C104.61 187.539 105.773 188.947 107.71 188.947C109.26 188.947 110.293 188.051 110.551 186.259H112.23C111.972 188.947 110.293 190.483 107.71 190.483ZM120.367 181.394V190.227H118.688V181.394H114.942V179.858H124.112V181.394H120.367ZM127.47 179.986H132.248C134.056 179.986 135.864 180.37 135.864 182.418C135.864 183.57 135.348 184.211 134.315 184.595C135.477 184.851 136.252 185.747 136.252 187.155C136.252 188.947 134.96 190.227 133.152 190.227H127.47V179.986ZM134.056 182.674C134.056 181.778 133.54 181.394 132.119 181.394H129.149V184.082H132.119C133.54 184.082 134.056 183.57 134.056 182.674ZM129.149 188.819H132.765C133.798 188.819 134.444 188.051 134.444 187.155C134.444 186.259 133.798 185.619 132.377 185.619H129.149V188.819ZM149.812 184.979C149.812 188.435 148.004 190.483 144.776 190.483C141.547 190.483 139.739 188.435 139.739 185.107C139.739 181.778 141.676 179.602 144.776 179.602C148.004 179.602 149.812 181.65 149.812 184.979ZM141.547 185.107C141.547 187.667 142.709 189.075 144.905 189.075C146.971 189.075 148.134 187.539 148.134 184.979C148.134 182.546 146.842 181.01 144.905 181.01C142.838 181.01 141.547 182.674 141.547 185.107ZM170.089 190.227H168.41V181.394H164.665L164.535 185.875C164.406 189.203 163.115 190.355 161.694 190.355C161.178 190.355 160.661 190.227 160.532 190.099V188.691C160.79 188.819 161.178 188.819 161.436 188.819C162.082 188.819 162.856 188.179 162.986 186.003L163.115 179.73H170.218V190.227H170.089ZM179 190.611C175.9 190.611 174.092 188.563 174.092 185.235C174.092 181.906 176.03 179.602 178.871 179.602C182.229 179.602 183.52 182.29 183.52 185.235V185.491H175.771V185.619C175.771 187.795 177.063 189.075 179 189.075C180.55 189.075 181.325 188.435 181.841 186.899H183.52C183.004 189.331 181.454 190.611 179 190.611ZM178.871 181.01C177.192 181.01 176.03 182.162 175.771 184.082H181.841C181.712 182.29 180.55 181.01 178.871 181.01ZM187.395 190.227V179.986H196.048V190.227H194.369V181.394H189.203V190.227H187.395ZM200.568 190.227V179.986H202.247V184.082H207.413V179.986H209.092V190.227H207.413V185.491H202.247V190.227H200.568ZM223.298 184.979C223.298 188.435 221.49 190.483 218.261 190.483C215.033 190.483 213.224 188.435 213.224 185.107C213.224 181.778 215.162 179.602 218.261 179.602C221.49 179.602 223.298 181.65 223.298 184.979ZM215.033 185.107C215.033 187.667 216.195 189.075 218.39 189.075C220.457 189.075 221.619 187.539 221.619 184.979C221.619 182.546 220.328 181.01 218.39 181.01C216.324 181.01 215.033 182.674 215.033 185.107ZM229.11 181.394V190.227H227.431V179.986H234.534V181.522H229.11V181.394ZM246.803 184.979C246.803 188.435 244.995 190.483 241.766 190.483C238.538 190.483 236.73 188.435 236.73 185.107C236.73 181.778 238.667 179.602 241.766 179.602C244.866 179.602 246.803 181.65 246.803 184.979ZM238.538 185.107C238.538 187.667 239.7 189.075 241.895 189.075C243.962 189.075 245.124 187.539 245.124 184.979C245.124 182.546 243.833 181.01 241.895 181.01C239.829 181.01 238.538 182.674 238.538 185.107ZM262.818 190.483C259.589 190.483 257.91 188.307 257.91 185.235C257.91 181.778 259.847 179.602 262.947 179.602C265.53 179.602 267.079 180.882 267.338 183.186H265.53C265.271 181.778 264.367 181.01 262.947 181.01C261.009 181.01 259.718 182.546 259.718 184.979C259.718 187.539 260.88 188.947 262.818 188.947C264.367 188.947 265.4 188.051 265.659 186.259H267.338C267.079 188.947 265.4 190.483 262.818 190.483ZM271.212 179.986H275.991C277.799 179.986 279.607 180.37 279.607 182.418C279.607 183.57 279.09 184.211 278.057 184.595C279.219 184.851 279.994 185.747 279.994 187.155C279.994 188.947 278.703 190.227 276.895 190.227H271.212V179.986ZM277.799 182.674C277.799 181.778 277.282 181.394 275.862 181.394H272.891V184.082H275.862C277.282 184.082 277.799 183.57 277.799 182.674ZM272.891 188.819H276.507C277.54 188.819 278.186 188.051 278.186 187.155C278.186 186.259 277.54 185.619 276.12 185.619H272.762V188.819H272.891ZM288.389 190.611C285.289 190.611 283.481 188.563 283.481 185.235C283.481 181.906 285.419 179.602 288.26 179.602C291.618 179.602 292.909 182.29 292.909 185.235V185.491H285.16V185.619C285.16 187.795 286.452 189.075 288.389 189.075C289.939 189.075 290.714 188.435 291.23 186.899H292.909C292.393 189.331 290.843 190.611 288.389 190.611ZM288.26 181.01C286.581 181.01 285.419 182.162 285.16 184.082H291.23C291.101 182.29 290.068 181.01 288.26 181.01ZM300.787 181.394V190.227H299.108V181.394H295.363V179.858H304.533V181.394H300.787ZM316.672 190.227C316.285 190.355 315.898 190.483 315.51 190.483C314.606 190.483 313.96 189.971 313.96 188.947C312.927 190.099 311.765 190.611 310.215 190.611C308.149 190.611 306.857 189.459 306.857 187.667C306.857 185.875 308.02 184.723 310.473 184.467C312.927 184.211 313.831 184.211 313.831 182.802C313.831 181.65 313.056 181.138 311.507 181.138C309.957 181.138 309.053 181.778 308.924 183.186H307.374C307.374 181.01 309.053 179.73 311.765 179.73C313.185 179.73 314.348 180.114 314.994 180.754C315.768 181.394 315.639 182.546 315.639 183.442C315.639 184.979 315.51 186.515 315.51 188.051C315.51 188.819 315.639 189.075 316.156 189.075C316.285 189.075 316.414 189.075 316.543 189.075V190.227H316.672ZM311.636 185.491C310.344 185.619 308.665 185.747 308.665 187.411C308.665 188.435 309.44 189.075 310.732 189.075C312.281 189.075 313.831 187.923 313.831 186.643V184.723C313.315 185.363 312.411 185.363 311.636 185.491Z" fill="white"/>
<path d="M144.905 34.4357C143.355 33.2836 142.58 34.6918 141.16 35.4598C140.901 33.6677 142.968 32.2595 144.388 31.7475C145.809 31.2354 148.263 31.7475 149.296 32.8996C151.492 35.3318 151.621 38.9162 149.942 41.6044C149.554 42.2445 149.038 42.8846 148.909 43.6527C148.779 44.6768 149.425 44.8048 150.329 45.0608C151.104 45.3168 152.008 45.8289 150.975 46.4689C149.813 47.109 148.392 46.3409 147.101 46.2129C145.292 46.0849 143.355 46.3409 141.805 47.109C139.352 48.2611 137.673 49.6693 136.123 51.8455C133.798 55.0458 131.474 58.8862 131.474 62.9826C131.474 68.2311 134.831 74.2477 140.514 75.3998C144.13 76.1679 149.038 72.3275 148.65 68.3591C148.521 67.335 148.005 66.823 146.971 66.951C145.809 67.207 145.68 68.7432 145.292 69.6393C143.743 73.2236 138.706 72.4556 137.027 69.5113C135.219 66.567 136.252 61.1904 138.448 58.6302C139.997 56.838 141.289 55.4298 143.872 54.7898C146.067 54.2777 148.392 54.4057 150.458 55.0458C152.783 55.6859 154.075 56.838 155.366 58.8862C156.399 60.6784 157.303 62.2145 157.82 64.2627C158.982 68.7432 156.787 73.3516 153.687 76.68C150.588 80.0083 145.938 81.6725 141.418 80.6484C135.994 79.4963 131.474 74.3757 129.924 69.2552C129.407 67.7191 128.761 66.0549 128.374 64.3907C127.341 59.1422 128.116 53.8937 130.44 49.0292C131.474 46.853 133.023 45.3168 131.861 42.7566C131.344 41.6045 129.278 40.4523 130.311 38.9162C131.344 37.508 132.507 38.9162 133.152 39.8123C133.411 40.1963 133.798 41.4764 134.315 41.6044C137.802 42.3725 132.636 33.9237 132.119 33.1556C131.603 32.3875 131.603 31.8755 130.957 31.2354C130.311 30.7234 129.536 30.2113 128.891 29.8273C127.341 28.8032 125.791 28.1631 123.983 27.7791C122.175 27.395 120.238 27.523 118.43 28.1631C117.138 28.6752 115.33 30.4673 114.168 30.5953C113.522 31.3634 114.168 32.1315 115.072 31.6194C115.072 31.6194 113.651 35.0758 113.651 35.3318C114.813 34.8198 115.847 33.0276 116.751 32.1315C117.913 30.8514 119.075 30.0833 120.754 29.8273C122.175 29.6993 123.725 30.0833 125.145 30.5953C125.92 30.9794 127.212 30.7234 127.341 31.8755C127.728 34.9478 121.013 31.6194 119.721 31.6194C117.784 31.6194 116.751 33.2836 115.976 34.6918C115.588 35.3318 114.426 36.74 115.717 37.124C116.492 37.38 117.784 36.74 118.3 36.3559C119.721 35.4598 120.883 34.8198 122.562 35.4598C125.404 36.4839 128.632 38.9162 128.891 41.9885C129.02 43.0126 128.891 49.2852 127.47 49.0292C126.437 48.9012 126.953 46.597 126.953 45.9569C126.953 43.9087 125.274 41.3484 123.854 39.9403C123.079 39.1722 122.175 38.2761 120.883 38.5321C119.85 38.6602 118.688 39.8123 120.108 40.5803C120.883 40.9644 121.787 40.1963 122.691 40.4523C123.466 40.7084 123.854 41.4764 124.241 42.1165C126.953 46.4689 126.695 52.7416 126.178 57.6061C125.791 60.9344 125.791 64.5188 127.083 67.7191C129.665 73.3516 134.315 78.7282 140.256 81.0324C142.451 81.8005 144.388 82.1845 146.842 81.5445C147.488 81.4165 148.134 81.0324 148.779 80.7764C149.038 80.6484 149.425 80.5204 149.684 80.5204C153.429 80.0083 150.846 83.4647 148.392 83.7207C147.875 83.7207 147.359 83.5927 146.842 83.5927C144.259 83.4647 142.709 83.9767 140.256 82.9526C138.189 82.0565 136.123 81.2884 134.186 79.8803C130.311 77.064 127.212 73.0956 124.629 69.1272C122.95 66.4389 123.596 62.8546 122.433 59.9103C121.917 58.5021 121.142 57.478 119.721 56.838C117.655 55.8139 117.396 55.4298 117.655 52.7416C117.913 50.1813 117.655 47.7491 117.267 45.1888C117.138 44.2927 117.009 43.7807 115.976 43.6527C115.459 43.5246 114.943 43.6527 114.426 43.5246C113.909 43.2686 113.651 42.8846 113.134 42.6286C111.714 41.6044 109.647 40.4523 110.422 38.5321C110.681 37.7641 111.068 36.74 110.939 35.9719C110.681 34.3077 109.777 35.5878 108.743 35.4598C108.098 35.4598 107.194 34.5637 106.935 33.9237C106.806 33.5396 106.677 32.3875 107.194 32.1315C107.71 31.8755 107.452 32.3875 107.969 32.5155C108.227 32.5155 108.485 32.5155 108.873 32.3875C110.422 32.0035 111.456 30.3393 112.618 29.3152C113.393 28.6752 114.426 27.9071 115.33 27.395C116.363 26.883 117.267 26.1149 118.3 25.7309C120.625 24.8348 122.691 25.4748 125.016 26.1149C126.566 26.4989 127.987 26.883 129.407 27.651C131.732 28.9312 133.927 30.7234 135.348 33.0276C136.252 34.4357 136.64 35.9719 136.769 37.6361C136.898 39.1722 139.093 40.3243 140.514 40.4523C141.289 40.4523 142.064 40.4523 142.709 39.9403C143.226 39.5562 143.614 37.6361 143.355 37.7641C141.935 38.6602 141.289 36.996 142.451 36.2279C144.388 34.9478 144.001 37.252 144.647 38.2761C145.422 39.4282 145.68 38.5321 145.68 37.508C145.938 36.0999 145.68 34.9478 144.905 34.4357ZM213.095 34.5637C214.645 33.4116 215.42 34.8198 216.841 35.5878C217.099 33.7957 215.033 32.3875 213.612 31.8755C212.191 31.3634 209.738 31.8755 208.704 33.0276C206.509 35.4598 206.38 39.0442 208.059 41.7325C208.446 42.3725 208.963 43.0126 209.092 43.9087C209.221 44.9328 208.575 45.0608 207.671 45.3168C206.896 45.5728 205.992 46.0849 207.025 46.725C208.188 47.365 209.608 46.597 210.9 46.4689C212.708 46.3409 214.645 46.597 216.195 47.365C218.649 48.5171 220.328 49.9253 221.878 52.1015C224.202 55.3018 226.527 59.1422 226.527 63.2386C226.527 68.4872 223.169 74.5038 217.486 75.6559C213.87 76.4239 208.963 72.5836 209.35 68.6152C209.479 67.5911 209.996 67.079 211.029 67.207C212.191 67.4631 212.321 68.9992 212.708 69.8953C214.258 73.4797 219.295 72.7116 220.974 69.7673C222.782 66.823 221.748 61.4464 219.553 58.8862C218.003 57.094 216.712 55.6859 214.129 55.0458C211.933 54.5337 209.608 54.6618 207.542 55.3018C205.217 55.9419 203.926 57.094 202.634 59.1422C201.601 60.9344 200.697 62.4705 200.181 64.5188C199.018 68.9992 201.214 73.6077 204.313 76.936C207.413 80.2643 212.062 81.9285 216.582 80.9044C222.007 79.7523 226.527 74.6318 228.077 69.5113C228.593 67.9751 229.239 66.3109 229.626 64.6468C230.66 59.3982 229.885 54.1497 227.56 49.2852C226.527 47.109 224.977 45.5728 226.139 43.0126C226.656 41.8605 228.722 40.7084 227.689 39.1722C226.656 37.7641 225.494 39.1722 224.848 40.0683C224.59 40.4523 224.202 41.7325 223.686 41.8605C220.199 42.6286 225.365 34.1797 225.881 33.4116C226.398 32.6435 226.398 32.1315 227.044 31.4914C227.689 30.9794 228.464 30.4673 229.11 30.0833C230.66 29.0592 232.209 28.4191 234.018 28.0351C235.826 27.651 237.763 27.7791 239.571 28.4191C240.862 28.9312 242.67 30.7234 243.833 30.8514C244.479 31.6194 243.833 32.3875 242.929 31.8755C242.929 31.8755 244.349 35.3318 244.349 35.5878C243.187 35.0758 242.154 33.2836 241.25 32.3875C240.088 31.1074 238.925 30.3393 237.246 30.0833C235.826 29.9553 234.276 30.3393 232.855 30.8514C232.08 31.2354 230.789 30.9794 230.66 32.1315C230.272 35.2038 236.988 31.8755 238.279 31.8755C240.217 31.8755 241.25 33.5396 242.025 34.9478C242.412 35.5878 243.575 36.996 242.283 37.38C241.508 37.6361 240.217 36.996 239.7 36.6119C238.279 35.7159 237.117 35.0758 235.438 35.7159C232.597 36.74 229.368 39.1722 229.11 42.2445C228.981 43.2686 229.11 49.5412 230.531 49.2852C231.564 49.1572 231.047 46.853 231.047 46.2129C231.047 44.1647 232.726 41.6044 234.147 40.1963C234.922 39.4282 235.826 38.5321 237.117 38.7882C238.15 38.9162 239.313 40.0683 237.892 40.8364C237.117 41.2204 236.213 40.4523 235.309 40.7084C234.534 40.9644 234.147 41.7325 233.759 42.3725C231.047 46.725 231.305 52.9976 231.822 57.8621C232.209 61.1904 232.209 64.7748 230.918 67.9751C228.335 73.6077 223.686 78.9842 217.745 81.2884C215.549 82.0565 213.612 82.4406 211.158 81.8005C210.512 81.6725 209.867 81.2884 209.221 81.0324C208.963 80.9044 208.575 80.7764 208.317 80.7764C204.572 80.2643 207.155 83.7207 209.608 83.9767C210.125 83.9767 210.642 83.8487 211.158 83.8487C213.741 83.7207 215.291 84.2327 217.745 83.2086C219.811 82.3125 221.878 81.5445 223.815 80.1363C227.689 77.32 230.789 73.3516 233.372 69.3832C235.051 66.695 234.405 63.1106 235.567 60.1663C236.084 58.7582 236.859 57.7341 238.279 57.094C240.346 56.0699 240.604 55.6859 240.346 52.9976C240.088 50.4373 240.346 48.0051 240.733 45.4448C240.862 44.5487 240.992 44.0367 242.025 43.9087C242.541 43.7807 243.058 43.9087 243.575 43.7807C244.091 43.5246 244.479 43.1406 244.866 42.8846C246.287 41.8605 248.353 40.7084 247.578 38.7882C247.32 38.0201 246.932 36.996 247.062 36.2279C247.32 34.5637 248.224 35.8439 249.257 35.7159C249.903 35.7159 250.807 34.8198 251.065 34.1797C251.194 33.7957 251.323 32.6435 250.807 32.3875C250.29 32.1315 250.549 32.6435 250.032 32.7716C249.774 32.7716 249.515 32.7716 249.128 32.6435C247.578 32.2595 246.545 30.5953 245.383 29.5712C244.608 28.9312 243.575 28.1631 242.67 27.651C241.637 27.139 240.733 26.3709 239.7 25.9869C237.375 25.0908 235.309 25.7309 232.984 26.3709C231.435 26.755 230.014 27.139 228.593 27.9071C226.269 29.1872 224.073 30.9794 222.652 33.2836C221.748 34.6918 221.361 36.2279 221.232 37.8921C221.103 39.4282 218.907 40.5803 217.486 40.7084C216.712 40.7084 215.937 40.7084 215.291 40.1963C214.774 39.8123 214.387 37.8921 214.645 38.0201C216.066 38.9162 216.712 37.252 215.549 36.4839C213.612 35.2038 213.999 37.508 213.354 38.5321C212.579 39.6843 212.321 38.7882 212.321 37.7641C212.062 36.3559 212.321 35.0758 213.095 34.5637ZM199.535 76.552C198.631 75.6559 197.598 74.8878 196.306 74.2477C194.498 73.3516 192.432 73.0956 190.494 73.2236C190.107 73.2236 186.491 73.8637 186.62 74.5038C186.491 73.7357 186.103 72.8396 185.329 72.4555C184.941 72.3275 182.746 72.5836 183.004 73.0956C182.616 72.0715 182.487 71.6875 181.454 71.3034C179.904 70.7914 177.321 71.1754 177.45 73.3516C177.45 72.5836 175.255 72.5836 174.738 72.8396C174.093 73.2236 173.705 74.2477 173.576 75.0158C173.059 74.6318 172.155 74.3757 171.51 74.1197C169.185 73.3516 166.602 72.9676 164.277 73.7357C162.082 74.5038 160.274 75.1438 158.466 76.552C156.658 77.8321 156.012 79.6243 155.624 81.6725C155.366 82.9526 155.108 84.2327 155.366 85.6409C155.495 86.537 155.883 87.5611 156.141 88.4572C156.528 89.3532 156.787 90.1213 157.562 90.8894C158.982 92.2975 160.919 93.1936 162.986 93.5777C164.148 93.8337 165.31 93.7057 166.473 93.5777C167.248 93.4497 168.152 93.5777 168.797 93.3216C169.443 93.0656 170.089 92.6816 170.735 92.2975C171.639 91.9135 171.897 91.2734 172.543 90.6334C173.189 89.8653 173.834 89.0972 174.222 88.2011C174.867 87.049 175.126 85.6409 175.255 84.3607C175.255 83.9767 175.255 83.0806 175.772 82.9526C176.288 82.9526 176.159 83.8487 176.159 84.2327C176.159 85.2568 175.642 86.1529 175.513 87.049C175.255 88.2011 174.738 88.8412 174.222 89.8653C173.705 90.8894 173.189 91.9135 172.414 92.6816C172.026 93.1936 171.38 93.5777 170.993 93.9617C169.702 94.9858 168.152 96.0099 166.602 96.65C165.956 96.906 165.181 97.034 164.536 97.4181C164.148 97.6741 163.632 97.9301 163.244 98.3142C163.115 98.4422 162.986 98.5702 162.986 98.5702C162.598 99.0822 162.082 99.5943 162.082 100.234C161.953 101.002 162.34 101.771 162.986 102.155C163.502 102.411 164.148 102.539 164.665 102.667C165.052 102.795 165.698 103.051 166.215 102.923C166.731 102.667 166.215 102.283 165.956 102.155C165.31 101.642 164.277 101.514 163.89 100.618C163.502 99.7223 163.761 98.8262 164.406 98.0581C164.794 97.5461 165.956 97.29 166.215 97.9301C166.344 98.3141 166.215 98.6982 166.085 98.9542C165.827 99.3383 164.923 99.9783 165.181 100.618C165.31 101.13 166.215 101.642 166.731 101.77C167.248 102.027 167.893 101.514 167.764 100.874C168.281 100.618 169.443 101.386 169.831 101.899C170.347 102.539 170.735 103.179 171.38 103.563C171.768 103.819 172.155 103.691 172.543 103.563C172.543 103.563 172.543 103.563 172.672 103.691C172.543 104.075 172.026 104.075 171.897 104.459C172.026 104.459 172.155 104.459 172.284 104.459C172.543 104.459 172.801 104.331 173.059 104.075C173.576 103.819 173.834 103.947 174.093 104.459C174.093 104.587 174.222 104.715 174.222 104.843C174.867 105.995 174.093 105.227 173.705 105.867C172.93 106.763 174.738 107.787 175.384 107.915C175.901 108.043 177.58 108.683 178.096 108.171C177.838 107.531 176.546 107.787 176.03 107.403C175.642 107.147 174.867 106.507 175.255 105.995C176.03 104.971 177.838 105.867 178.613 104.587C178.742 104.331 178.871 103.563 179.388 103.819C180.163 104.203 178.225 105.739 180.163 105.227C180.55 105.099 180.679 104.971 181.196 104.971C181.583 104.971 182.1 105.227 182.487 105.355C183.908 105.483 183.262 103.819 183.004 103.051C182.616 101.386 182.1 99.8503 181.712 98.1861C181.454 97.29 181.325 96.1379 181.325 95.2418C181.325 94.6018 181.583 94.2177 181.971 94.7298C182.229 95.1138 182.229 95.7539 182.358 96.2659C182.616 97.5461 182.358 98.9542 182.875 100.234C183.262 101.386 183.779 102.539 184.037 103.691C184.295 104.587 184.295 105.867 185.458 105.995C185.716 105.995 186.103 106.123 186.362 106.123C186.62 106.123 186.749 106.379 186.62 106.635C186.491 106.891 186.233 107.019 185.974 107.147C185.587 107.403 185.199 107.659 184.683 107.787C184.554 107.787 183.779 107.915 184.166 108.171C184.554 108.427 185.845 107.659 186.362 107.403C187.266 106.891 187.911 106.123 188.17 105.099C188.428 104.203 187.911 103.307 187.524 102.539C187.266 102.155 187.137 101.642 186.749 101.258C186.233 100.746 185.716 100.106 185.458 99.4663C185.329 98.9542 184.812 97.8021 185.199 97.4181C185.716 97.6741 185.587 98.4422 185.845 98.9542C185.974 99.4663 186.491 100.234 186.749 100.746C187.395 101.77 188.816 104.075 190.236 102.923C190.494 102.667 190.882 102.539 191.14 102.539C191.528 102.539 191.786 102.411 191.915 102.027C192.173 101.642 192.432 101.386 192.819 101.258C193.207 101.258 193.852 101.642 194.111 101.13C194.756 99.8503 190.365 98.9542 189.72 98.6982C188.041 97.9301 186.233 96.906 185.07 95.3699C184.554 94.7298 181.067 89.9933 182.487 89.8653C183.391 89.7373 184.166 91.7855 184.424 92.4256C184.941 93.5777 185.587 94.3458 186.491 95.1138C187.266 95.7539 187.911 96.65 188.816 97.162C189.72 97.8021 190.624 98.1861 191.657 98.5702C192.432 98.9542 193.465 99.0822 194.24 99.4663C196.177 100.746 193.336 102.539 192.432 103.051C192.044 103.307 191.528 103.435 191.011 103.563C190.882 103.563 190.365 103.563 190.236 103.691C190.107 103.819 190.107 103.947 190.236 103.947C190.365 104.075 190.494 103.947 190.624 103.947C191.011 103.819 191.269 103.691 191.657 103.691C191.786 103.691 191.915 103.691 192.044 103.563C193.077 103.179 193.981 102.539 194.885 101.899C195.79 101.258 196.048 100.362 196.177 99.4663C196.306 98.8262 196.177 98.1861 195.66 97.6741C195.531 97.5461 195.402 97.4181 195.402 97.29C195.402 97.034 195.273 97.034 195.144 96.906C194.111 96.522 193.207 96.2659 192.173 95.8819C190.753 95.4979 189.461 94.7298 188.299 93.8337C186.749 92.5536 185.974 90.8894 184.941 89.3532C182.875 86.2809 183.262 82.8246 183.908 79.3682C184.037 78.9842 184.554 77.7041 185.07 77.7041C185.845 77.7041 185.716 79.6243 185.458 80.1363C185.07 81.2884 184.554 82.3125 184.554 83.5927C184.554 85.1288 184.812 86.409 185.458 87.8171C185.974 88.9692 186.62 90.1213 187.782 90.8894C188.816 91.6575 190.107 92.1695 191.398 92.5536C192.948 92.9376 194.498 92.9376 196.048 92.5536C197.21 92.2975 198.502 91.9135 199.535 91.2734C200.568 90.7614 201.214 89.8653 201.86 88.8412C202.634 87.8171 203.409 86.1529 203.538 84.8728C203.668 83.4647 203.28 82.3125 202.764 81.0324C202.376 79.7523 201.86 78.7282 201.085 77.5761C200.181 77.32 199.922 76.936 199.535 76.552ZM170.993 82.9526C170.864 84.3608 170.347 85.7689 169.572 86.921C168.281 88.8412 166.602 89.9933 164.148 90.1213C162.34 90.2493 160.919 89.7373 159.499 88.5852C158.853 88.0731 158.207 87.4331 157.949 86.665C157.691 85.8969 157.82 85.0008 158.853 85.3848C159.499 85.6409 160.015 86.409 160.661 86.793C161.307 87.177 162.082 87.6891 162.728 88.0731C165.31 89.7373 167.506 88.2011 169.056 86.1529C170.089 84.7448 170.089 83.7207 169.572 82.0565C169.314 81.1604 169.056 80.2643 168.281 79.4963C167.506 78.8562 164.665 78.0881 165.052 80.0083C165.181 80.5204 165.698 80.6484 166.085 81.0324C166.86 81.8005 167.119 82.9526 166.86 83.9767C166.602 85.2568 165.827 86.2809 164.536 86.665C161.953 87.305 159.757 83.9767 160.145 81.6725C160.661 77.5761 165.956 75.0158 169.185 78.0881C170.606 79.4963 171.122 81.2884 170.993 82.9526ZM195.79 87.049C195.66 86.793 196.048 86.665 196.306 86.665C197.081 86.2809 197.856 85.8969 198.631 85.3848C199.793 84.6168 200.826 83.2086 200.697 81.6725C200.697 81.1604 200.181 80.7764 200.181 80.2643C200.051 79.2402 200.826 80.1363 201.085 80.5204C202.118 82.3125 201.989 85.0008 200.181 86.1529C199.922 86.2809 199.664 86.537 199.406 86.665C198.502 87.049 197.598 87.177 196.694 87.305C196.177 87.177 195.919 87.305 195.79 87.049ZM191.657 89.2252C190.494 88.8412 189.72 88.2011 188.816 87.4331C188.557 87.177 188.299 86.793 188.041 86.409C187.524 85.6409 187.007 84.7448 186.749 83.7207C186.62 83.0806 186.362 82.4406 186.362 81.6725C186.362 81.5445 186.362 81.5445 186.362 81.4165C186.362 81.1604 186.362 80.9044 186.749 80.9044C187.007 80.9044 187.266 81.1604 187.266 81.4165C187.266 82.0565 187.524 82.5686 187.524 83.0806C187.524 83.5927 187.782 83.9767 188.041 84.3607C188.428 85.1288 188.816 85.8969 189.332 86.665C190.236 87.8171 191.528 88.5852 192.819 89.3532C192.948 89.3532 193.077 89.3532 193.077 89.6093C192.561 89.7373 192.173 89.3532 191.657 89.2252ZM174.609 94.3457C174.093 94.9858 173.576 95.1138 172.93 95.6259C172.414 96.0099 171.897 96.522 171.38 97.034C170.735 97.8021 170.089 98.3142 169.314 98.9542C168.798 99.3383 166.344 100.106 167.377 98.5702C167.764 97.9301 169.314 97.4181 169.96 97.034C170.347 96.778 170.864 96.65 171.122 96.2659C172.026 95.2418 173.318 94.4738 174.093 93.3216C174.609 92.5536 174.867 91.6575 175.255 90.8894C175.772 89.9933 175.901 89.2252 176.03 88.2011C176.417 86.537 176.546 85.0008 176.934 83.3366C177.192 82.3125 177.192 81.1604 176.934 80.1363C176.676 78.9842 176.288 78.3441 175.513 77.4481C175.126 77.064 174.738 76.1679 175.126 75.6559C175.642 75.0158 176.676 75.6559 176.934 76.1679C177.192 76.808 177.192 77.7041 177.321 78.3441C177.58 79.4963 177.58 80.5204 177.45 81.6725C177.45 82.4406 177.192 83.0806 177.063 83.8487C176.805 85.0008 176.805 86.0249 176.676 87.177C176.417 88.4572 176.159 89.8653 175.772 91.1454C175.772 91.9135 175.384 93.4497 174.609 94.3457ZM190.236 83.4647C190.753 84.3607 191.398 85.2568 192.303 85.6409C192.69 85.8969 193.594 85.6409 193.981 85.8969C194.498 86.2809 193.723 86.537 193.207 86.665C192.044 86.793 190.753 85.8969 190.107 85.0008C189.203 83.8487 188.945 82.4406 188.816 81.0324C188.816 80.3923 188.428 79.8803 188.686 79.3682C188.945 78.7282 189.461 78.2161 189.978 77.9601C190.753 77.5761 191.528 76.936 192.432 76.936C193.336 76.936 194.627 77.4481 195.402 77.8321C196.564 78.4722 197.598 79.7523 197.856 81.0324C198.114 82.1845 196.435 83.5927 195.531 83.7207C194.111 83.9767 192.432 83.8487 191.786 82.3125C191.269 81.1604 191.528 79.4963 192.819 79.1122C193.981 78.7282 194.24 79.7523 194.24 80.6484C194.24 81.0324 194.111 81.6725 194.24 82.0565C194.885 83.2086 196.306 82.3125 196.306 81.2884C196.435 80.2643 195.531 79.4963 194.756 78.8562C193.336 77.8321 190.882 77.8321 189.978 79.6243C189.461 80.7764 189.59 82.1845 190.236 83.4647ZM177.709 93.0656C178.096 91.6575 178.354 90.3773 178.484 88.9692C178.613 88.2011 178.354 87.6891 178.354 86.921C178.354 86.2809 178.484 85.5129 178.484 84.8728C178.484 83.8487 178.613 82.9526 178.871 81.9285C179.129 81.0324 179.259 80.1363 179.388 79.1122C179.388 78.6002 179.517 78.0881 179.517 77.5761C179.517 77.064 179.259 76.68 179.259 76.0399C179.259 75.1438 178.871 73.6077 180.033 73.4797C181.325 73.3516 180.679 75.0158 180.55 75.6559C180.292 76.68 179.904 77.7041 179.775 78.8562C179.646 80.1363 179.259 81.4164 179.259 82.8246C179.259 83.9767 179 85.1288 179 86.2809C179 87.6891 178.871 89.0972 178.613 90.3773C178.354 91.7855 177.838 93.1936 177.58 94.6018C177.192 96.394 176.03 98.1861 175.513 99.8503C175.384 100.362 175.513 102.411 174.738 102.667C174.093 102.795 174.093 102.027 174.222 101.77C174.48 101.386 174.609 101.13 174.738 100.618C174.867 100.234 174.867 99.8503 175.126 99.4663C175.513 98.6982 176.03 98.1861 176.288 97.29C176.546 96.2659 176.805 95.4979 177.192 94.4738C177.45 94.3458 177.58 93.7057 177.709 93.0656ZM174.997 95.3699C175.255 94.9858 176.03 93.9617 176.03 94.9858C176.03 95.4979 175.255 96.1379 174.997 96.522C174.738 97.034 174.351 97.5461 174.093 98.1861C173.576 99.2102 173.059 100.234 172.155 101.002C171.38 101.642 170.606 100.49 170.993 99.8503C171.38 99.2102 172.026 99.0822 172.543 98.5702C173.059 98.0581 173.447 97.4181 173.834 96.906C174.351 96.394 174.609 95.8819 174.997 95.3699ZM169.831 104.587C169.96 104.587 170.089 104.587 170.089 104.459C170.089 104.331 170.089 104.331 169.96 104.331C169.572 104.203 169.314 104.075 168.927 104.331C169.314 104.203 169.572 104.587 169.831 104.587ZM162.857 82.4406C162.598 83.0806 162.857 84.4888 163.373 85.0008C163.632 85.1288 164.019 85.2568 164.277 85.0008C164.406 84.8728 164.277 84.3607 164.277 84.1047C164.406 83.3366 164.794 82.9526 165.052 82.4406C165.31 82.0565 165.31 81.4165 164.794 81.0324C164.536 80.9044 164.277 80.9044 164.019 81.0324C163.632 81.1604 162.986 82.0565 162.857 82.4406Z" fill="white"/>
<path d="M210 19.1315C210 1.54079 188.563 0 178.936 0C169.308 0 148 1.54079 148 19.1315C148 27.8627 163.789 36.2086 167.126 42.115L168.025 43.5274V48.1498C168.025 55.0834 174.7 53.9278 179.449 53.9278C183.814 53.9278 190.104 54.1846 190.104 48.1498V43.6558L191.002 42.2434C194.211 36.337 210 27.8627 210 19.1315ZM204.609 19.1315C204.865 24.1391 190.104 35.4383 186.381 38.5198C184.455 40.189 181.118 38.0062 178.936 37.8778C176.24 37.8778 174.186 39.8038 171.362 38.1346C167.255 35.695 153.648 24.1391 153.391 19.0031C152.749 3.59519 173.416 4.49398 178.936 4.49398C184.455 4.49398 203.839 3.85198 204.609 19.1315Z" fill="url(#paint0_linear)"/>
<path d="M184.684 47H172.937L167 21.0407L172.558 17.6382L177.232 22.0488L182.158 16L185.316 22.1748L191 19.7805L184.684 47ZM175.968 43.2195H181.779L185.695 25.9553C184.305 26.2073 182.789 25.4512 182.158 24.1911L181.526 22.9309L180.011 24.8211C179.379 25.5772 178.495 25.9553 177.611 26.0813H177.358C176.474 26.0813 175.589 25.7033 174.958 25.1992L172.053 22.5528L171.295 23.0569L175.968 43.2195Z" fill="url(#paint1_linear)"/>
<path d="M186.888 57H171.112C169.994 57 169 57.9143 169 59.0571C169 60.2 169.87 61 171.112 61H186.888C188.006 61 189 60.0857 189 59.0571C189 57.9143 188.006 57 186.888 57Z" fill="url(#paint2_linear)"/>
<path d="M186.888 64H171.112C169.994 64 169 64.9143 169 66.0571C169 67.2 169.87 68 171.112 68H186.888C188.006 68 189 67.0857 189 66.0571C189 64.9143 188.006 64 186.888 64Z" fill="url(#paint3_linear)"/>
<defs>
<linearGradient id="paint0_linear" x1="178.59" y1="-3.72448" x2="179.874" y2="72.0318" gradientUnits="userSpaceOnUse">
<stop stop-color="#FFF33B"/>
<stop offset="0.0594872" stop-color="#FFE029"/>
<stop offset="0.1303" stop-color="#FFD218"/>
<stop offset="0.2032" stop-color="#FEC90F"/>
<stop offset="0.2809" stop-color="#FDC70C"/>
<stop offset="0.6685" stop-color="#F3903F"/>
<stop offset="0.8876" stop-color="#ED683C"/>
<stop offset="1" stop-color="#E93E3A"/>
</linearGradient>
<linearGradient id="paint1_linear" x1="178.542" y1="-3.02455" x2="179.8" y2="71.3255" gradientUnits="userSpaceOnUse">
<stop stop-color="#FFF33B"/>
<stop offset="0.0594872" stop-color="#FFE029"/>
<stop offset="0.1303" stop-color="#FFD218"/>
<stop offset="0.2032" stop-color="#FEC90F"/>
<stop offset="0.2809" stop-color="#FDC70C"/>
<stop offset="0.6685" stop-color="#F3903F"/>
<stop offset="0.8876" stop-color="#ED683C"/>
<stop offset="1" stop-color="#E93E3A"/>
</linearGradient>
<linearGradient id="paint2_linear" x1="177.949" y1="3.16949" x2="179" y2="70.6154" gradientUnits="userSpaceOnUse">
<stop stop-color="#FFF33B"/>
<stop offset="0.0594872" stop-color="#FFE029"/>
<stop offset="0.1303" stop-color="#FFD218"/>
<stop offset="0.2032" stop-color="#FEC90F"/>
<stop offset="0.2809" stop-color="#FDC70C"/>
<stop offset="0.6685" stop-color="#F3903F"/>
<stop offset="0.8876" stop-color="#ED683C"/>
<stop offset="1" stop-color="#E93E3A"/>
</linearGradient>
<linearGradient id="paint3_linear" x1="177.835" y1="3.99909" x2="178.887" y2="71.4447" gradientUnits="userSpaceOnUse">
<stop stop-color="#FFF33B"/>
<stop offset="0.0594872" stop-color="#FFE029"/>
<stop offset="0.1303" stop-color="#FFD218"/>
<stop offset="0.2032" stop-color="#FEC90F"/>
<stop offset="0.2809" stop-color="#FDC70C"/>
<stop offset="0.6685" stop-color="#F3903F"/>
<stop offset="0.8876" stop-color="#ED683C"/>
<stop offset="1" stop-color="#E93E3A"/>
</linearGradient>
</defs>
</svg>
