<svg width="369" height="323" viewBox="0 0 369 323" fill="none" xmlns="http://www.w3.org/2000/svg">
<path d="M160.5 258C160.5 259.526 160.5 261.621 159.92 263.5M160.5 258C161.961 258.175 163.644 258.244 165.5 258.169M160.5 258L155.5 7M199 63C200.386 64.8886 201.719 66.7974 203 68.7247M199 63L165.5 97M199 63C197.614 61.1111 196.264 59.2781 194.951 57.5M155.5 7L147.5 258M155.5 7C156.688 8.18757 159.427 11.3183 164.015 17M155.5 7C153.054 9.56484 149.86 13.0004 146.25 17M93.5001 216C94.788 219.381 96.8301 223.578 99.6151 228M93.5001 216L143.5 240M93.5001 216C92.2087 212.83 91.0429 209.662 89.9954 206.5M147.5 258C147.167 261.333 147.9 268 153.5 268C157.449 268 159.17 265.932 159.92 263.5M147.5 258C146.142 258 144.809 257.944 143.5 257.836M159.92 263.5C161.114 264.833 163.9 266.7 165.5 263.5V258.169M165.5 258.169C177.632 257.681 197.17 251.06 210.681 228M147.5 263.5C146.833 264.833 145.1 266.7 143.5 263.5C143.167 262.557 142.7 260.105 143.5 257.836M143.5 257.836C122.573 256.111 107.848 241.072 99.6151 228M165.5 249L210.681 228M210.681 228C212.38 225.1 213.983 221.94 215.465 218.5M165.5 240L215.465 218.5M215.465 218.5C215.817 217.683 216.162 216.849 216.5 216C217.738 212.889 218.886 209.72 219.941 206.5M165.5 232.5L219.941 206.5M219.941 206.5C221.175 202.732 222.282 198.894 223.254 195M165.5 224L223.254 195M223.254 195C224.036 191.868 224.731 188.699 225.336 185.5M165.5 214L225.336 185.5M225.336 185.5C225.93 182.361 226.437 179.192 226.854 176M165.5 206.5L226.854 176M226.854 176C227.223 173.183 227.521 170.349 227.747 167.5M165.5 198.5L227.747 167.5M227.747 167.5C228.037 163.853 228.209 160.184 228.258 156.5M165.5 189.5L228.258 156.5M228.258 156.5C228.303 153.176 228.248 149.841 228.09 146.5M165.5 181L228.09 146.5M228.09 146.5C227.917 142.837 227.62 139.167 227.196 135.5M165.5 173L227.196 135.5M227.196 135.5C226.828 132.33 226.366 129.162 225.805 126M165.5 167.5L225.805 126M225.805 126C225.212 122.657 224.508 119.321 223.692 116M165.5 160L223.692 116M223.692 116C222.91 112.818 222.024 109.65 221.031 106.5M165.5 151.5L221.031 106.5M221.031 106.5C220.026 103.312 218.912 100.144 217.686 97M165.5 143L217.686 97M217.686 97C216.704 94.483 215.65 91.982 214.523 89.5M165.5 133L214.523 89.5M214.523 89.5C213.378 86.9794 212.157 84.4784 210.859 82M165.5 124L210.859 82M210.859 82C209.714 79.815 208.51 77.6476 207.244 75.5M165.5 116L207.244 75.5M207.244 75.5C205.899 73.2184 204.485 70.9591 203 68.7247M165.5 106.5L203 68.7247M165.5 88L194.951 57.5M194.951 57.5C193.418 55.4237 191.935 53.4222 190.5 51.4933M163.5 79.5L190.5 51.4933M190.5 51.4933C189.122 49.6404 187.789 47.8547 186.5 46.1343M163.5 70L186.5 46.1343M186.5 46.1343C184.893 43.989 183.354 41.9454 181.883 40M162 61L181.883 40M181.883 40C180.424 38.0712 179.031 36.239 177.702 34.5M162 51.4933L177.702 34.5M177.702 34.5C176.356 32.7389 175.076 31.0733 173.861 29.5M162 42L173.861 29.5M173.861 29.5C172.864 28.2104 171.911 26.9828 171 25.8151M162 34.5L171 25.8151M171 25.8151C169.755 24.22 168.589 22.737 167.5 21.3611M162 28L167.5 21.3611M167.5 21.3611C166.237 19.7658 165.076 18.3146 164.015 17M162 20L164.015 17M143.5 249L99.6151 228M145 232.5L89.9954 206.5M89.9954 206.5C88.7216 202.655 87.6226 198.819 86.6854 195M145 224L86.6854 195M86.6854 195C85.905 191.82 85.2367 188.651 84.673 185.5M145 214L84.673 185.5M84.673 185.5C84.1032 182.314 83.6404 179.146 83.2766 176M145 198.5L82.5257 167.5M82.5257 167.5C82.6984 170.313 82.9468 173.147 83.2766 176M82.5257 167.5C82.298 163.792 82.2018 160.123 82.2237 156.5M145 206.5L83.2766 176M145 189.5L82.2237 156.5M82.2237 156.5C82.2442 153.124 82.3672 149.788 82.582 146.5M145 181L82.582 146.5M82.582 146.5C82.8257 142.769 83.1875 139.099 83.6518 135.5M145 173L83.6518 135.5M83.6518 135.5C84.0679 132.274 84.5664 129.105 85.1357 126M145 167.5L85.1357 126M85.1357 126C85.7618 122.586 86.4737 119.249 87.2562 116M145 160L87.2562 116M87.2562 116C88.0408 112.742 88.8963 109.573 89.8078 106.5M145 151.5L89.8078 106.5M89.8078 106.5C90.7812 103.218 91.8184 100.048 92.9008 97M145 143L92.9008 97M92.9008 97C94.0138 93.8658 95.1747 90.8615 96.3632 88M145 133L96.3632 88M96.3632 88C97.3924 85.5219 98.4424 83.1509 99.5 80.8954M145 124L99.5 80.8954M99.5 80.8954C100.382 79.0151 101.269 77.215 102.153 75.5M147 116L102.153 75.5M102.153 75.5C103.409 73.0656 104.66 70.8026 105.885 68.7247M147 106.5L105.885 68.7247M105.885 68.7247C107.124 66.6221 108.337 64.7091 109.5 63C109.92 62.3423 110.354 61.6753 110.801 61M147 97L110.801 61M110.801 61C111.953 59.2618 113.192 57.4688 114.5 55.6378M147 88L114.5 55.6378M114.5 55.6378C115.474 54.275 116.486 52.8912 117.529 51.4933M147 79.5L117.529 51.4933M117.529 51.4933C118.848 49.7248 120.217 47.9337 121.62 46.1343M147 70L121.62 46.1343M121.62 46.1343C123.211 44.0935 124.846 42.0419 126.503 40M147 61L126.503 40M126.503 40C128.001 38.1537 129.517 36.3153 131.034 34.5M147 51.4933L131.034 34.5M131.034 34.5C133.524 31.5203 136.017 28.6029 138.441 25.8151M147 42L134.5 29.5M147 34.5L138.441 25.8151M138.441 25.8151C141.166 22.6812 143.804 19.711 146.25 17M147 28L141 21.3611M149 20L146.25 17M82.2237 283H228.258M65 268V7" stroke="#AFAFAF"/>
<path d="M315 6.5V148M315 276.5V267.5M315 282.5H368.5M315 249.5V267.5M315 249.5V148M315 249.5C317.714 248.143 320.92 245.995 324.318 243M337 53.5C336.865 55.2011 336.761 56.8672 336.685 58.5M337 53.5L345.5 60M337 53.5C337.148 51.6388 337.329 49.8043 337.54 48M345.5 60C345.5 61.3259 345.524 62.6597 345.571 64M345.5 60C345.5 58.2985 345.565 56.5041 345.685 54.6417M355 226.5C354.014 228.226 353.072 229.852 352.171 231.384M355 226.5L343.166 217.5M355 226.5C355.887 224.947 356.72 223.342 357.5 221.692M315 267.5C324.169 261.95 329.612 259.544 334.813 255M315 148C326.444 157.167 348.099 183.9 343.166 217.5M343.166 217.5C342.303 219.261 341.412 220.947 340.5 222.56M343.166 217.5C343.877 216.05 344.568 214.551 345.237 213M324.318 243L334.813 255M324.318 243C325.521 241.94 326.747 240.774 327.984 239.5M334.813 255C336.204 253.785 337.577 252.417 339 250.795M327.984 239.5L339 250.795M327.984 239.5C329.15 238.299 330.326 237.001 331.5 235.605M339 250.795C340.107 249.533 341.244 248.117 342.442 246.5M331.5 235.605L342.442 246.5M331.5 235.605C332.609 234.287 333.717 232.88 334.813 231.384M342.442 246.5C343.566 244.984 344.743 243.29 346 241.38M334.813 231.384L346 241.38M334.813 231.384C335.937 229.851 337.05 228.224 338.142 226.5M346 241.38C347.143 239.644 348.352 237.729 349.646 235.605M338.142 226.5L349.646 235.605M338.142 226.5C338.941 225.238 339.728 223.926 340.5 222.56M349.646 235.605C350.453 234.282 351.293 232.877 352.171 231.384M340.5 222.56L352.171 231.384M345.237 213L357.5 221.692M345.237 213C345.999 211.233 346.731 209.4 347.429 207.5M357.5 221.692C358.402 219.783 359.235 217.813 360 215.792M347.429 207.5L360 215.792M347.429 207.5C348.08 205.726 348.702 203.892 349.288 202M360 215.792C360.716 213.903 361.373 211.969 361.974 210M349.288 202L361.974 210M349.288 202C349.888 200.063 350.452 198.063 350.975 196M361.974 210C362.575 208.033 363.121 206.03 363.614 204M350.975 196L363.614 204M350.975 196C351.508 193.899 351.998 191.733 352.44 189.5M363.614 204C364.133 201.861 364.594 199.691 365 197.5M352.44 189.5L365 197.5M352.44 189.5C352.826 187.551 353.176 185.551 353.486 183.5M365 197.5C365.399 195.35 365.744 193.18 366.039 191M353.486 183.5L366.039 191M353.486 183.5C353.805 181.388 354.082 179.221 354.314 177M366.039 191C366.376 188.509 366.648 186.005 366.86 183.5M354.314 177L366.86 183.5M354.314 177C354.535 174.883 354.714 172.717 354.849 170.5M366.86 183.5C367.043 181.33 367.18 179.161 367.275 177M354.849 170.5L367.275 177M354.849 170.5C354.997 168.061 355.091 165.562 355.128 163M367.275 177C367.371 174.821 367.423 172.652 367.436 170.5M355.128 163L367.436 170.5M355.128 163C355.158 160.876 355.148 158.71 355.096 156.5M367.436 170.5C367.45 167.97 367.409 165.465 367.317 163M355.096 156.5C355.073 155.509 355.041 154.509 355 153.5C354.965 152.659 354.87 151.478 354.696 150M355.096 156.5L367.317 163M367.317 163C367.235 160.798 367.113 158.627 366.954 156.5M354.696 150L366.954 156.5M354.696 150C354.489 148.234 354.17 146.043 353.71 143.5M366.954 156.5C366.788 154.283 366.582 152.112 366.34 150M353.71 143.5L366.34 150M353.71 143.5C353.369 141.613 352.949 139.531 352.44 137.286M366.34 150C366.084 147.763 365.788 145.591 365.456 143.5M352.44 137.286L365.456 143.5M352.44 137.286C352.016 135.421 351.53 133.442 350.975 131.367M365.456 143.5C365.113 141.338 364.731 139.261 364.317 137.286M350.975 131.367L364.317 137.286M350.975 131.367C350.472 129.484 349.911 127.523 349.288 125.495M364.317 137.286C363.879 135.193 363.403 133.213 362.897 131.367M349.288 125.495C349.036 124.674 348.773 123.842 348.5 123C348.23 122.169 347.957 121.336 347.681 120.5M349.288 125.495L362.897 131.367M362.897 131.367C362.31 129.221 361.681 127.254 361.021 125.495M347.681 120.5L361.021 125.495M347.681 120.5C346.967 118.341 346.233 116.162 345.5 113.945M361.021 125.495C360.688 124.609 360.347 123.776 360 123C359.412 121.685 358.836 120.351 358.272 119M345.5 113.945L358.272 119M345.5 113.945C344.802 111.835 344.105 109.692 343.424 107.5M358.272 119C357.386 116.873 356.532 114.704 355.716 112.5M343.424 107.5L355.716 112.5M343.424 107.5C342.766 105.383 342.125 103.221 341.514 101M355.716 112.5C354.864 110.202 354.052 107.865 353.286 105.5M341.514 101L353.286 105.5M341.514 101C341.021 99.2072 340.549 97.3762 340.104 95.5M353.286 105.5C352.645 103.519 352.035 101.517 351.46 99.5M340.104 95.5L351.46 99.5M340.104 95.5C339.642 93.5514 339.211 91.554 338.819 89.5M351.46 99.5C350.894 97.5131 350.361 95.5115 349.866 93.5M338.819 89.5L349.866 93.5M338.819 89.5C338.448 87.5531 338.111 85.5554 337.818 83.5M349.866 93.5C349.373 91.5022 348.917 89.4947 348.5 87.4824M337.818 83.5L348.5 87.4824M337.818 83.5C337.487 81.1811 337.211 78.7889 337 76.3138M348.5 87.4824C348.018 85.1589 347.589 82.8289 347.216 80.5M337 76.3138L347.216 80.5M337 76.3138C336.826 74.2677 336.696 72.1649 336.618 70M347.216 80.5C346.922 78.6648 346.663 76.8303 346.442 75M336.618 70L346.442 75M336.618 70C336.547 68.0516 336.518 66.0529 336.534 64M346.442 75C346.197 72.9851 345.998 70.9754 345.847 68.9758M336.534 64L345.847 68.9758M336.534 64C336.549 62.2088 336.598 60.3764 336.685 58.5M345.847 68.9758C345.721 67.3093 345.629 65.6497 345.571 64M336.685 58.5L345.571 64M337.54 48L345.685 54.6417M337.54 48C337.778 45.9599 338.054 43.9582 338.361 42M345.685 54.6417C345.823 52.5046 346.033 50.2782 346.301 48M338.361 42L346.301 48M338.361 42C338.683 39.9506 339.039 37.9487 339.423 36M346.301 48C346.558 45.8186 346.867 43.5898 347.216 41.3469M339.423 36L347.216 41.3469M339.423 36C339.829 33.9383 340.265 31.9361 340.724 30M347.216 41.3469C347.531 39.3262 347.877 37.2941 348.247 35.2748M340.724 30L348.247 35.2748M340.724 30C341.175 28.101 341.647 26.2656 342.132 24.5M348.247 35.2748C348.571 33.5012 348.913 31.7374 349.266 30M342.132 24.5L349.266 30M342.132 24.5C342.61 22.7638 343.101 21.0951 343.597 19.5M349.266 30C349.646 28.1293 350.039 26.2891 350.437 24.5M343.597 19.5L350.437 24.5M343.597 19.5C344.145 17.7413 344.7 16.072 345.252 14.5M350.437 24.5C350.819 22.7801 351.206 21.1073 351.589 19.5M345.252 14.5L351.589 19.5M345.252 14.5C345.815 12.8958 346.375 11.393 346.922 10M351.589 19.5C352.007 17.7477 352.422 16.0732 352.824 14.5M346.922 10L352.824 14.5M346.922 10C347.574 8.33898 348.206 6.83418 348.802 5.5M352.824 14.5C353.237 12.8846 353.637 11.3761 354.013 10M348.802 5.5C349.621 3.66465 350.369 2.15217 351 1L355 6.5C354.697 7.53617 354.365 8.70986 354.013 10M348.802 5.5L354.013 10" stroke="#AFAFAF"/>
<path d="M8.622 128.994V130.218H4.77L3.996 132.81C4.2 132.762 4.452 132.738 4.752 132.738C5.94 132.738 6.894 133.134 7.614 133.926C8.346 134.718 8.712 135.708 8.712 136.896C8.712 138.192 8.286 139.236 7.434 140.028C6.594 140.82 5.562 141.216 4.338 141.216C3.306 141.216 2.412 140.904 1.656 140.28C1.224 139.908 0.876 139.5 0.612 139.056L1.674 138.3C1.854 138.66 2.124 138.984 2.484 139.272C3.072 139.752 3.72 139.992 4.428 139.992C5.268 139.992 5.97 139.692 6.534 139.092C7.098 138.492 7.38 137.766 7.38 136.914C7.38 136.05 7.098 135.342 6.534 134.79C5.982 134.238 5.28 133.962 4.428 133.962C3.672 133.962 2.898 134.238 2.106 134.79L3.852 128.994H8.622ZM18.8525 128.994V130.218H15.0005L14.2265 132.81C14.4305 132.762 14.6825 132.738 14.9825 132.738C16.1705 132.738 17.1245 133.134 17.8445 133.926C18.5765 134.718 18.9425 135.708 18.9425 136.896C18.9425 138.192 18.5165 139.236 17.6645 140.028C16.8245 140.82 15.7925 141.216 14.5685 141.216C13.5365 141.216 12.6425 140.904 11.8865 140.28C11.4545 139.908 11.1065 139.5 10.8425 139.056L11.9045 138.3C12.0845 138.66 12.3545 138.984 12.7145 139.272C13.3025 139.752 13.9505 139.992 14.6585 139.992C15.4985 139.992 16.2005 139.692 16.7645 139.092C17.3285 138.492 17.6105 137.766 17.6105 136.914C17.6105 136.05 17.3285 135.342 16.7645 134.79C16.2125 134.238 15.5105 133.962 14.6585 133.962C13.9025 133.962 13.1285 134.238 12.3365 134.79L14.0825 128.994H18.8525ZM20.8929 143.394L22.3689 139.236L23.5569 139.668L21.7389 143.736L20.8929 143.394ZM34.0224 128.994V130.218H30.1704L29.3964 132.81C29.6004 132.762 29.8524 132.738 30.1524 132.738C31.3404 132.738 32.2944 133.134 33.0144 133.926C33.7464 134.718 34.1124 135.708 34.1124 136.896C34.1124 138.192 33.6864 139.236 32.8344 140.028C31.9944 140.82 30.9624 141.216 29.7384 141.216C28.7064 141.216 27.8124 140.904 27.0564 140.28C26.6244 139.908 26.2764 139.5 26.0124 139.056L27.0744 138.3C27.2544 138.66 27.5244 138.984 27.8844 139.272C28.4724 139.752 29.1204 139.992 29.8284 139.992C30.6684 139.992 31.3704 139.692 31.9344 139.092C32.4984 138.492 32.7804 137.766 32.7804 136.914C32.7804 136.05 32.4984 135.342 31.9344 134.79C31.3824 134.238 30.6804 133.962 29.8284 133.962C29.0724 133.962 28.2984 134.238 27.5064 134.79L29.2524 128.994H34.0224Z" fill="#AFAFAF"/>
<path d="M137.658 320H129.9L134.274 314.942C135.018 314.066 135.486 313.484 135.678 313.196C136.122 312.56 136.344 311.948 136.344 311.36C136.344 310.676 136.122 310.118 135.678 309.686C135.234 309.242 134.658 309.02 133.95 309.02C133.086 309.02 132.42 309.374 131.952 310.082C131.7 310.466 131.568 310.94 131.556 311.504H130.224C130.272 310.484 130.572 309.656 131.124 309.02C131.844 308.204 132.792 307.796 133.968 307.796C135.036 307.796 135.918 308.138 136.614 308.822C137.322 309.494 137.676 310.346 137.676 311.378C137.676 312.182 137.358 313.04 136.722 313.952C136.398 314.396 135.852 315.062 135.084 315.95L132.582 318.776H137.658V320ZM142.739 320.288L141.731 319.55L144.485 315.716C144.137 315.824 143.783 315.878 143.423 315.878C142.283 315.878 141.347 315.5 140.615 314.744C139.895 313.988 139.535 313.046 139.535 311.918C139.535 310.718 139.919 309.734 140.687 308.966C141.467 308.186 142.457 307.796 143.657 307.796C144.545 307.796 145.313 308.012 145.961 308.444C146.621 308.864 147.095 309.38 147.383 309.992C147.671 310.592 147.814 311.222 147.814 311.882C147.814 312.806 147.485 313.724 146.825 314.636L142.739 320.288ZM143.675 309.02C142.859 309.02 142.187 309.296 141.659 309.848C141.131 310.388 140.867 311.066 140.867 311.882C140.867 312.686 141.131 313.352 141.659 313.88C142.199 314.396 142.877 314.654 143.693 314.654C144.509 314.654 145.175 314.39 145.691 313.862C146.219 313.334 146.483 312.674 146.483 311.882C146.483 311.066 146.219 310.388 145.691 309.848C145.175 309.296 144.503 309.02 143.675 309.02ZM149.225 322.394L150.701 318.236L151.889 318.668L150.071 322.736L149.225 322.394ZM162.354 307.994V309.218H158.502L157.728 311.81C157.932 311.762 158.184 311.738 158.484 311.738C159.672 311.738 160.626 312.134 161.346 312.926C162.078 313.718 162.444 314.708 162.444 315.896C162.444 317.192 162.018 318.236 161.166 319.028C160.326 319.82 159.294 320.216 158.07 320.216C157.038 320.216 156.144 319.904 155.388 319.28C154.956 318.908 154.608 318.5 154.344 318.056L155.406 317.3C155.586 317.66 155.856 317.984 156.216 318.272C156.804 318.752 157.452 318.992 158.16 318.992C159 318.992 159.702 318.692 160.266 318.092C160.83 317.492 161.112 316.766 161.112 315.914C161.112 315.05 160.83 314.342 160.266 313.79C159.714 313.238 159.012 312.962 158.16 312.962C157.404 312.962 156.63 313.238 155.838 313.79L157.584 307.994H162.354Z" fill="#AFAFAF"/>
<path d="M341.176 321.288L340.168 320.55L342.922 316.716C342.574 316.824 342.22 316.878 341.86 316.878C340.72 316.878 339.784 316.5 339.052 315.744C338.332 314.988 337.972 314.046 337.972 312.918C337.972 311.718 338.356 310.734 339.124 309.966C339.904 309.186 340.894 308.796 342.094 308.796C342.982 308.796 343.75 309.012 344.398 309.444C345.058 309.864 345.532 310.38 345.82 310.992C346.108 311.592 346.252 312.222 346.252 312.882C346.252 313.806 345.922 314.724 345.262 315.636L341.176 321.288ZM342.112 310.02C341.296 310.02 340.624 310.296 340.096 310.848C339.568 311.388 339.304 312.066 339.304 312.882C339.304 313.686 339.568 314.352 340.096 314.88C340.636 315.396 341.314 315.654 342.13 315.654C342.946 315.654 343.612 315.39 344.128 314.862C344.656 314.334 344.92 313.674 344.92 312.882C344.92 312.066 344.656 311.388 344.128 310.848C343.612 310.296 342.94 310.02 342.112 310.02Z" fill="#AFAFAF"/>
</svg>
