<svg width="50" height="50" viewBox="0 0 50 50" fill="none" xmlns="http://www.w3.org/2000/svg">
<rect width="50" height="50" rx="7" fill="#614843"/>
<path d="M16.532 19.8236C16.156 20.1812 16.156 20.7764 16.532 21.1465C16.8953 21.5041 17.4999 21.5041 17.8623 21.1465L24.6766 14.4385L24.6766 36.5739C24.6774 37.0899 25.0941 37.5 25.6182 37.5C26.1424 37.5 26.5726 37.0899 26.5726 36.5739L26.5726 14.4385L33.3741 21.1465C33.7501 21.5041 34.3556 21.5041 34.718 21.1465C35.094 20.7764 35.094 20.1803 34.718 19.8236L26.2906 11.5276C25.9273 11.1575 25.3227 11.1575 24.9603 11.5276L16.532 19.8236Z" fill="white"/>
</svg>
