<svg width="43" height="43" viewBox="0 0 43 43" fill="none" xmlns="http://www.w3.org/2000/svg">
<circle cx="21.5" cy="21.5" r="21.5" transform="rotate(-180 21.5 21.5)" fill="white"/>
<circle cx="21.5" cy="21.5" r="21.5" transform="rotate(-180 21.5 21.5)" fill="url(#paint0_linear)"/>
<rect x="33.5" y="22" width="16" height="2" rx="1" transform="rotate(180 33.5 22)" fill="white"/>
<path d="M10.2929 20.2929C9.90237 20.6834 9.90237 21.3166 10.2929 21.7071L16.6569 28.0711C17.0474 28.4616 17.6805 28.4616 18.0711 28.0711C18.4616 27.6805 18.4616 27.0474 18.0711 26.6569L12.4142 21L18.0711 15.3431C18.4616 14.9526 18.4616 14.3195 18.0711 13.9289C17.6805 13.5384 17.0474 13.5384 16.6569 13.9289L10.2929 20.2929ZM11.5 20L11 20L11 22L11.5 22L11.5 20Z" fill="white"/>
<defs>
<linearGradient id="paint0_linear" x1="38.5" y1="43" x2="8.5" y2="1.64155e-06" gradientUnits="userSpaceOnUse">
<stop stop-color="#7B5F54"/>
<stop offset="0.921756" stop-color="#5B433F"/>
</linearGradient>
</defs>
</svg>
