<svg width="18" height="18" viewBox="0 0 18 18" fill="none" xmlns="http://www.w3.org/2000/svg">
<path d="M16.2001 15.5595L15.1694 3.95337C15.1473 3.69571 14.9301 3.50061 14.6761 3.50061H12.5559C12.5264 1.56442 10.9436 0 9.00007 0C7.05651 0 5.47369 1.56442 5.44424 3.50061H3.32399C3.06633 3.50061 2.85283 3.69571 2.83074 3.95337L1.80007 15.5595C1.80007 15.5742 1.79639 15.589 1.79639 15.6037C1.79639 16.9252 3.00743 18 4.49823 18H13.5019C14.9927 18 16.2037 16.9252 16.2037 15.6037C16.2037 15.589 16.2037 15.5742 16.2001 15.5595ZM9.00007 0.993865C10.3952 0.993865 11.5326 2.11288 11.562 3.50061H6.4381C6.46755 2.11288 7.60498 0.993865 9.00007 0.993865ZM13.5019 17.0061H4.49823C3.56326 17.0061 2.80498 16.3877 2.79025 15.6258L3.77675 4.49816H5.44056V6.00736C5.44056 6.28344 5.66142 6.50429 5.93749 6.50429C6.21356 6.50429 6.43442 6.28344 6.43442 6.00736V4.49816H11.562V6.00736C11.562 6.28344 11.7829 6.50429 12.059 6.50429C12.335 6.50429 12.5559 6.28344 12.5559 6.00736V4.49816H14.2197L15.2099 15.6258C15.1952 16.3877 14.4332 17.0061 13.5019 17.0061Z" fill="white"/>
</svg>
