<svg width="10" height="9" viewBox="0 0 10 9" fill="none" xmlns="http://www.w3.org/2000/svg">
<g clip-path="url(#clip0)">
<path d="M8.69059 3.69234H5.31337V0.31291C5.31337 0.14009 5.17338 0 5.00067 0C4.82796 0 4.68796 0.14009 4.68796 0.31291V3.69234H1.31075C1.13804 3.69234 0.998047 3.83243 0.998047 4.00525C0.998047 4.17807 1.13804 4.31816 1.31075 4.31816H4.68796V7.69758C4.68796 7.8704 4.82796 8.01049 5.00067 8.01049C5.17338 8.01049 5.31337 7.8704 5.31337 7.69758V4.31816H8.69059C8.86329 4.31816 9.00329 4.17807 9.00329 4.00525C9.00329 3.83243 8.86329 3.69234 8.69059 3.69234Z" fill="white"/>
</g>
<defs>
<clipPath id="clip0">
<rect width="8.00524" height="8.01049" fill="white" transform="translate(0.998047)"/>
</clipPath>
</defs>
</svg>
