<svg width="18" height="18" viewBox="0 0 18 18" fill="none" xmlns="http://www.w3.org/2000/svg">
<g clip-path="url(#clip0)">
<path d="M15.0914 11.0892L7.91567 3.91346C6.72158 2.72164 5.22196 2.62128 4.17896 3.66427C3.13597 4.70613 3.2352 6.20802 4.42702 7.40098L10.8811 13.8551C11.101 14.0739 11.4596 14.0739 11.6783 13.8551C11.8982 13.6352 11.8982 13.2767 11.6783 13.0579L5.22419 6.60381C4.64577 6.02539 4.27706 5.15942 4.975 4.46144C5.67185 3.7635 6.53891 4.13332 7.11736 4.71177L14.292 11.8864C16.3509 13.9476 16.8639 14.897 15.6372 16.1238C14.3957 17.3629 13.081 17.0551 11.1033 15.0774L3.13146 7.10219C1.84382 5.81451 0.941776 3.71163 2.63422 2.02029C4.6435 0.0110037 6.9381 1.98648 7.59208 2.64157L14.9167 9.96843C15.1354 10.1883 15.494 10.1883 15.7138 9.96843C15.9326 9.74854 15.9326 9.39111 15.7138 9.17012L8.38926 1.8444C6.17474 -0.370128 3.66369 -0.606903 1.83591 1.22312C-0.0110353 3.06893 0.18856 5.7525 2.33429 7.89936L10.3072 15.8712C10.9849 16.5511 12.436 18 14.1048 18C14.8535 18 15.6484 17.7068 16.4366 16.9187C18.677 14.6771 16.6046 12.6013 15.0914 11.0892Z" fill="white"/>
</g>
<defs>
<clipPath id="clip0">
<rect width="18" height="18" fill="white"/>
</clipPath>
</defs>
</svg>
