<svg width="54" height="54" viewBox="0 0 54 54" fill="none" xmlns="http://www.w3.org/2000/svg">
<g clip-path="url(#clip0)">
<path d="M2.13742 11.9149L26.6555 0.0785659C26.8729 -0.02627 27.126 -0.02627 27.3433 0.0785659L51.8615 11.9149C52.1349 12.0468 52.3086 12.3237 52.3086 12.6272V41.3726C52.3086 41.6762 52.1349 41.953 51.8615 42.085L27.3434 53.9213C27.2348 53.9737 27.1171 54 26.9995 54C26.8819 54 26.7643 53.9737 26.6555 53.9213L2.13742 42.085C1.86404 41.953 1.69034 41.6762 1.69034 41.3726V12.6273C1.69034 12.3236 1.86415 12.0469 2.13742 11.9149ZM26.9995 1.66935L4.30079 12.6272L10.8807 15.8037C10.9223 15.772 10.9663 15.7427 11.0146 15.7194L33.5591 4.83605L26.9995 1.66935ZM35.3455 5.73043L12.6799 16.6724L17.3221 18.9135L39.9783 7.97596L35.3455 5.73043ZM12.1496 18.173V26.4571L16.4857 28.5505V20.2663L12.1496 18.173ZM3.27237 40.8763L26.2084 51.9486V24.96L20.7375 22.3189C20.3441 22.1289 20.1791 21.6561 20.3691 21.2626C20.559 20.8693 21.0318 20.7041 21.4253 20.8942L26.9995 23.5852L29.1928 22.5263C29.5863 22.3362 30.0591 22.5013 30.2491 22.8947C30.439 23.2881 30.2741 23.761 29.8807 23.951L27.7905 24.96V51.9486L50.7266 40.8761V13.8875L33.2609 22.3192C33.1501 22.3728 33.0329 22.3981 32.9176 22.3981C32.6236 22.3981 32.3411 22.2333 32.2048 21.9508C32.0148 21.5574 32.1798 21.0845 32.5732 20.8945L49.6981 12.6272L41.8402 8.83374L18.0787 20.3048C18.0752 20.3097 18.0713 20.314 18.0677 20.3188V29.8108C18.0677 30.0831 17.9278 30.3361 17.6972 30.4809C17.5692 30.5612 17.4231 30.6019 17.2766 30.6019C17.1593 30.6019 17.0417 30.5758 16.9328 30.5232L11.0146 27.6661C10.7412 27.5342 10.5675 27.2574 10.5675 26.9538V17.4094L3.27237 13.8876V40.8763Z" fill="black"/>
<path d="M2.13742 11.9149L26.6555 0.0785659C26.8729 -0.02627 27.126 -0.02627 27.3433 0.0785659L51.8615 11.9149C52.1349 12.0468 52.3086 12.3237 52.3086 12.6272V41.3726C52.3086 41.6762 52.1349 41.953 51.8615 42.085L27.3434 53.9213C27.2348 53.9737 27.1171 54 26.9995 54C26.8819 54 26.7643 53.9737 26.6555 53.9213L2.13742 42.085C1.86404 41.953 1.69034 41.6762 1.69034 41.3726V12.6273C1.69034 12.3236 1.86415 12.0469 2.13742 11.9149ZM26.9995 1.66935L4.30079 12.6272L10.8807 15.8037C10.9223 15.772 10.9663 15.7427 11.0146 15.7194L33.5591 4.83605L26.9995 1.66935ZM35.3455 5.73043L12.6799 16.6724L17.3221 18.9135L39.9783 7.97596L35.3455 5.73043ZM12.1496 18.173V26.4571L16.4857 28.5505V20.2663L12.1496 18.173ZM3.27237 40.8763L26.2084 51.9486V24.96L20.7375 22.3189C20.3441 22.1289 20.1791 21.6561 20.3691 21.2626C20.559 20.8693 21.0318 20.7041 21.4253 20.8942L26.9995 23.5852L29.1928 22.5263C29.5863 22.3362 30.0591 22.5013 30.2491 22.8947C30.439 23.2881 30.2741 23.761 29.8807 23.951L27.7905 24.96V51.9486L50.7266 40.8761V13.8875L33.2609 22.3192C33.1501 22.3728 33.0329 22.3981 32.9176 22.3981C32.6236 22.3981 32.3411 22.2333 32.2048 21.9508C32.0148 21.5574 32.1798 21.0845 32.5732 20.8945L49.6981 12.6272L41.8402 8.83374L18.0787 20.3048C18.0752 20.3097 18.0713 20.314 18.0677 20.3188V29.8108C18.0677 30.0831 17.9278 30.3361 17.6972 30.4809C17.5692 30.5612 17.4231 30.6019 17.2766 30.6019C17.1593 30.6019 17.0417 30.5758 16.9328 30.5232L11.0146 27.6661C10.7412 27.5342 10.5675 27.2574 10.5675 26.9538V17.4094L3.27237 13.8876V40.8763Z" fill="url(#paint0_linear)"/>
<path d="M44.2004 37.8083L47.7985 36.0714C48.1921 35.8812 48.6648 36.0464 48.8547 36.4398C49.0447 36.8332 48.8797 37.3061 48.4863 37.4961L44.8883 39.233C44.7774 39.2866 44.6602 39.3119 44.545 39.3119C44.2509 39.3119 43.9685 39.1472 43.8321 38.8646C43.642 38.4711 43.807 37.9984 44.2004 37.8083Z" fill="black"/>
<path d="M44.2004 37.8083L47.7985 36.0714C48.1921 35.8812 48.6648 36.0464 48.8547 36.4398C49.0447 36.8332 48.8797 37.3061 48.4863 37.4961L44.8883 39.233C44.7774 39.2866 44.6602 39.3119 44.545 39.3119C44.2509 39.3119 43.9685 39.1472 43.8321 38.8646C43.642 38.4711 43.807 37.9984 44.2004 37.8083Z" fill="url(#paint1_linear)"/>
<path d="M40.8882 35.6528L47.7927 32.3196C48.1862 32.1296 48.659 32.2946 48.8489 32.6881C49.0388 33.0815 48.8738 33.5544 48.4804 33.7444L41.5759 37.0776C41.4651 37.1311 41.3479 37.1565 41.2326 37.1565C40.9386 37.1565 40.6561 36.9917 40.5198 36.7092C40.3298 36.3156 40.4948 35.8427 40.8882 35.6528Z" fill="black"/>
<path d="M40.8882 35.6528L47.7927 32.3196C48.1862 32.1296 48.659 32.2946 48.8489 32.6881C49.0388 33.0815 48.8738 33.5544 48.4804 33.7444L41.5759 37.0776C41.4651 37.1311 41.3479 37.1565 41.2326 37.1565C40.9386 37.1565 40.6561 36.9917 40.5198 36.7092C40.3298 36.3156 40.4948 35.8427 40.8882 35.6528Z" fill="url(#paint2_linear)"/>
</g>
<defs>
<linearGradient id="paint0_linear" x1="26.9995" y1="-6.10352e-05" x2="26.9995" y2="54" gradientUnits="userSpaceOnUse">
<stop stop-color="#7B5F54"/>
<stop offset="1" stop-color="#5B433F"/>
</linearGradient>
<linearGradient id="paint1_linear" x1="46.3434" y1="35.9924" x2="46.3434" y2="39.3119" gradientUnits="userSpaceOnUse">
<stop stop-color="#7B5F54"/>
<stop offset="1" stop-color="#5B433F"/>
</linearGradient>
<linearGradient id="paint2_linear" x1="44.6843" y1="32.2407" x2="44.6843" y2="37.1565" gradientUnits="userSpaceOnUse">
<stop stop-color="#7B5F54"/>
<stop offset="1" stop-color="#5B433F"/>
</linearGradient>
<clipPath id="clip0">
<rect width="54" height="54" fill="white" transform="matrix(-1 0 0 1 54 0)"/>
</clipPath>
</defs>
</svg>
