<svg width="58" height="58" viewBox="0 0 58 58" fill="none" xmlns="http://www.w3.org/2000/svg">
<g clip-path="url(#clip0)">
<path d="M55.0998 38.6665H45.7346L53.8409 33.9857C54.5091 33.6034 54.9976 32.971 55.1985 32.2276C55.3998 31.4842 55.2967 30.6917 54.9122 30.0248L48.1436 18.3047C47.7582 17.6382 47.1232 17.1524 46.3794 16.9546C45.6355 16.7528 44.8417 16.859 44.177 17.2488L36.069 21.931L40.7485 13.827C41.137 13.1605 41.2437 12.3667 41.0454 11.6211C40.8472 10.8754 40.3595 10.2396 39.6914 9.85458L27.9729 3.08603C27.3061 2.70282 26.5145 2.6006 25.7724 2.8015C25.0303 3.0024 24.3984 3.48959 24.0156 4.15645L19.3335 12.2671V2.90018C19.3317 1.29919 18.0343 0.00177002 16.4333 0H2.90018C1.29919 0.00177002 0.00177002 1.29919 0 2.90018V55.0998C0.00177002 56.7008 1.29919 57.9982 2.90018 58H55.0998C56.7008 57.9982 57.9982 56.7008 58 55.0998V41.5667C57.9982 39.9657 56.7008 38.6683 55.0998 38.6665ZM2.90018 38.6665C2.57007 38.6701 2.24306 38.7302 1.9333 38.8448V29H9.67227L4.0914 38.6665H2.90018ZM41.868 38.6665H28.6491L24.2205 31.0054L34.2649 25.2055L41.9946 38.5939L41.868 38.6665ZM32.7193 23.8652L21.2752 30.474L13.6092 26.0476L19.4069 16.0058L32.7945 23.7351L32.7193 23.8652ZM17.4002 15.6151L11.46 25.9042C11.4569 25.9091 11.452 25.9113 11.4489 25.9166L11.4436 25.9321L10.7887 27.0667H1.9333V15.4669H17.4002V15.6151ZM12.6428 27.722L19.3419 31.5904L7.0876 38.6665H6.32384L12.6428 27.722ZM21.746 32.4347L21.7584 32.4276L22.5465 31.9723L26.4162 38.6665H10.9542L21.746 32.4347ZM17.4002 40.5998H29V56.0667H17.4002V40.5998ZM30.9333 40.5998H42.5331V56.0667H30.9333V40.5998ZM45.1474 18.9211C45.3678 18.791 45.632 18.7551 45.8793 18.8215C46.1289 18.8888 46.3418 19.0516 46.4719 19.2751L53.2364 30.9891C53.3652 31.2116 53.3997 31.4763 53.332 31.7245C53.2643 31.9723 53.1006 32.1834 52.8767 32.3095L43.6686 37.6262L35.9394 24.2382L45.1474 18.9211ZM25.6918 5.12022C25.8184 4.89809 26.0286 4.73524 26.2759 4.66798C26.5229 4.60072 26.7866 4.63435 27.0087 4.7618L38.7209 11.5264C38.9462 11.656 39.1108 11.8698 39.1785 12.1207C39.2449 12.3698 39.2081 12.6348 39.0763 12.8565L33.7618 22.0606L20.3738 14.3314L25.6918 5.12022ZM2.90018 1.9333H16.4333C16.967 1.93419 17.3993 2.36652 17.4002 2.90018V13.5331H1.9333V2.90018C1.93419 2.36652 2.36652 1.93419 2.90018 1.9333ZM1.9333 55.0998V41.5667C1.93419 41.033 2.36652 40.6007 2.90018 40.5998H15.4669V56.0667H2.90018C2.36652 56.0658 1.93419 55.6335 1.9333 55.0998ZM56.0667 55.0998C56.0658 55.6335 55.6335 56.0658 55.0998 56.0667H44.4669V40.5998H55.0998C55.6335 40.6007 56.0658 41.033 56.0667 41.5667V55.0998Z" fill="black"/>
<path d="M55.0998 38.6665H45.7346L53.8409 33.9857C54.5091 33.6034 54.9976 32.971 55.1985 32.2276C55.3998 31.4842 55.2967 30.6917 54.9122 30.0248L48.1436 18.3047C47.7582 17.6382 47.1232 17.1524 46.3794 16.9546C45.6355 16.7528 44.8417 16.859 44.177 17.2488L36.069 21.931L40.7485 13.827C41.137 13.1605 41.2437 12.3667 41.0454 11.6211C40.8472 10.8754 40.3595 10.2396 39.6914 9.85458L27.9729 3.08603C27.3061 2.70282 26.5145 2.6006 25.7724 2.8015C25.0303 3.0024 24.3984 3.48959 24.0156 4.15645L19.3335 12.2671V2.90018C19.3317 1.29919 18.0343 0.00177002 16.4333 0H2.90018C1.29919 0.00177002 0.00177002 1.29919 0 2.90018V55.0998C0.00177002 56.7008 1.29919 57.9982 2.90018 58H55.0998C56.7008 57.9982 57.9982 56.7008 58 55.0998V41.5667C57.9982 39.9657 56.7008 38.6683 55.0998 38.6665ZM2.90018 38.6665C2.57007 38.6701 2.24306 38.7302 1.9333 38.8448V29H9.67227L4.0914 38.6665H2.90018ZM41.868 38.6665H28.6491L24.2205 31.0054L34.2649 25.2055L41.9946 38.5939L41.868 38.6665ZM32.7193 23.8652L21.2752 30.474L13.6092 26.0476L19.4069 16.0058L32.7945 23.7351L32.7193 23.8652ZM17.4002 15.6151L11.46 25.9042C11.4569 25.9091 11.452 25.9113 11.4489 25.9166L11.4436 25.9321L10.7887 27.0667H1.9333V15.4669H17.4002V15.6151ZM12.6428 27.722L19.3419 31.5904L7.0876 38.6665H6.32384L12.6428 27.722ZM21.746 32.4347L21.7584 32.4276L22.5465 31.9723L26.4162 38.6665H10.9542L21.746 32.4347ZM17.4002 40.5998H29V56.0667H17.4002V40.5998ZM30.9333 40.5998H42.5331V56.0667H30.9333V40.5998ZM45.1474 18.9211C45.3678 18.791 45.632 18.7551 45.8793 18.8215C46.1289 18.8888 46.3418 19.0516 46.4719 19.2751L53.2364 30.9891C53.3652 31.2116 53.3997 31.4763 53.332 31.7245C53.2643 31.9723 53.1006 32.1834 52.8767 32.3095L43.6686 37.6262L35.9394 24.2382L45.1474 18.9211ZM25.6918 5.12022C25.8184 4.89809 26.0286 4.73524 26.2759 4.66798C26.5229 4.60072 26.7866 4.63435 27.0087 4.7618L38.7209 11.5264C38.9462 11.656 39.1108 11.8698 39.1785 12.1207C39.2449 12.3698 39.2081 12.6348 39.0763 12.8565L33.7618 22.0606L20.3738 14.3314L25.6918 5.12022ZM2.90018 1.9333H16.4333C16.967 1.93419 17.3993 2.36652 17.4002 2.90018V13.5331H1.9333V2.90018C1.93419 2.36652 2.36652 1.93419 2.90018 1.9333ZM1.9333 55.0998V41.5667C1.93419 41.033 2.36652 40.6007 2.90018 40.5998H15.4669V56.0667H2.90018C2.36652 56.0658 1.93419 55.6335 1.9333 55.0998ZM56.0667 55.0998C56.0658 55.6335 55.6335 56.0658 55.0998 56.0667H44.4669V40.5998H55.0998C55.6335 40.6007 56.0658 41.033 56.0667 41.5667V55.0998Z" fill="url(#paint0_linear)"/>
<path d="M9.66739 44.4669C7.53186 44.4669 5.80078 46.1979 5.80078 48.3335C5.80078 50.469 7.53186 52.2001 9.66739 52.2001C11.8029 52.2001 13.534 50.469 13.534 48.3335C13.5318 46.1988 11.802 44.4691 9.66739 44.4669ZM9.66739 50.2668C8.59962 50.2668 7.73409 49.4012 7.73409 48.3335C7.73409 47.2657 8.59962 46.4002 9.66739 46.4002C10.7352 46.4002 11.6007 47.2657 11.6007 48.3335C11.5998 49.4008 10.7347 50.2654 9.66739 50.2668Z" fill="black"/>
<path d="M9.66739 44.4669C7.53186 44.4669 5.80078 46.1979 5.80078 48.3335C5.80078 50.469 7.53186 52.2001 9.66739 52.2001C11.8029 52.2001 13.534 50.469 13.534 48.3335C13.5318 46.1988 11.802 44.4691 9.66739 44.4669ZM9.66739 50.2668C8.59962 50.2668 7.73409 49.4012 7.73409 48.3335C7.73409 47.2657 8.59962 46.4002 9.66739 46.4002C10.7352 46.4002 11.6007 47.2657 11.6007 48.3335C11.5998 49.4008 10.7347 50.2654 9.66739 50.2668Z" fill="url(#paint1_linear)"/>
</g>
<defs>
<linearGradient id="paint0_linear" x1="29" y1="0" x2="29" y2="58" gradientUnits="userSpaceOnUse">
<stop stop-color="#7B5F54"/>
<stop offset="1" stop-color="#5B433F"/>
</linearGradient>
<linearGradient id="paint1_linear" x1="9.66739" y1="44.4669" x2="9.66739" y2="52.2001" gradientUnits="userSpaceOnUse">
<stop stop-color="#7B5F54"/>
<stop offset="1" stop-color="#5B433F"/>
</linearGradient>
<clipPath id="clip0">
</clipPath>
</defs>
</svg>
