<svg width="57" height="57" viewBox="0 0 57 57" fill="none" xmlns="http://www.w3.org/2000/svg">
<path d="M30.3911 37.5222H45.5863C46.1561 37.5222 46.536 37.1423 46.536 36.5725V28.0252C46.536 27.4553 46.1561 27.0755 45.5863 27.0755H30.3911C29.8212 27.0755 29.4414 27.4553 29.4414 28.0252V36.5725C29.4413 37.1422 29.8212 37.5222 30.3911 37.5222ZM31.3407 28.9748H44.6366V35.6227H31.3407V28.9748Z" fill="#C4C4C4"/>
<path d="M30.3911 37.5222H45.5863C46.1561 37.5222 46.536 37.1423 46.536 36.5725V28.0252C46.536 27.4553 46.1561 27.0755 45.5863 27.0755H30.3911C29.8212 27.0755 29.4414 27.4553 29.4414 28.0252V36.5725C29.4413 37.1422 29.8212 37.5222 30.3911 37.5222ZM31.3407 28.9748H44.6366V35.6227H31.3407V28.9748Z" fill="url(#paint0_linear)"/>
<path d="M4.74849 25.176H12.3462C12.916 25.176 13.2958 24.7962 13.2958 24.2263C13.2958 23.6565 12.916 23.2767 12.3462 23.2767H4.74849C4.17867 23.2767 3.79883 23.6565 3.79883 24.2263C3.79883 24.7962 4.17867 25.176 4.74849 25.176Z" fill="#C4C4C4"/>
<path d="M4.74849 25.176H12.3462C12.916 25.176 13.2958 24.7962 13.2958 24.2263C13.2958 23.6565 12.916 23.2767 12.3462 23.2767H4.74849C4.17867 23.2767 3.79883 23.6565 3.79883 24.2263C3.79883 24.7962 4.17867 25.176 4.74849 25.176Z" fill="url(#paint1_linear)"/>
<path d="M16.145 25.176H23.7426C24.3125 25.176 24.6923 24.7962 24.6923 24.2263C24.6923 23.6565 24.3125 23.2767 23.7426 23.2767H16.145C15.5752 23.2767 15.1953 23.6565 15.1953 24.2263C15.1953 24.7962 15.5752 25.176 16.145 25.176Z" fill="#C4C4C4"/>
<path d="M16.145 25.176H23.7426C24.3125 25.176 24.6923 24.7962 24.6923 24.2263C24.6923 23.6565 24.3125 23.2767 23.7426 23.2767H16.145C15.5752 23.2767 15.1953 23.6565 15.1953 24.2263C15.1953 24.7962 15.5752 25.176 16.145 25.176Z" fill="url(#paint2_linear)"/>
<path d="M4.74849 28.9748H17.0946C17.6644 28.9748 18.0443 28.595 18.0443 28.0252C18.0443 27.4553 17.6644 27.0755 17.0946 27.0755H4.74849C4.17867 27.0755 3.79883 27.4553 3.79883 28.0252C3.79883 28.595 4.17867 28.9748 4.74849 28.9748Z" fill="#C4C4C4"/>
<path d="M4.74849 28.9748H17.0946C17.6644 28.9748 18.0443 28.595 18.0443 28.0252C18.0443 27.4553 17.6644 27.0755 17.0946 27.0755H4.74849C4.17867 27.0755 3.79883 27.4553 3.79883 28.0252C3.79883 28.595 4.17867 28.9748 4.74849 28.9748Z" fill="url(#paint3_linear)"/>
<path d="M23.7421 27.0754H20.893C20.3232 27.0754 19.9434 27.4552 19.9434 28.025C19.9434 28.5949 20.3232 28.9747 20.893 28.9747H23.7421C24.312 28.9747 24.6918 28.5949 24.6918 28.025C24.6918 27.4552 24.312 27.0754 23.7421 27.0754Z" fill="#C4C4C4"/>
<path d="M23.7421 27.0754H20.893C20.3232 27.0754 19.9434 27.4552 19.9434 28.025C19.9434 28.5949 20.3232 28.9747 20.893 28.9747H23.7421C24.312 28.9747 24.6918 28.5949 24.6918 28.025C24.6918 27.4552 24.312 27.0754 23.7421 27.0754Z" fill="url(#paint4_linear)"/>
<path d="M56.1275 15.2991C55.4627 14.4444 54.608 13.9695 53.5633 13.8746L51.284 13.5983V10.9304V9.03108C51.284 6.94177 49.5745 5.2323 47.4852 5.2323H3.79878C1.70947 5.23219 0 6.94166 0 9.03108V10.9305V18.5282V39.4216C0 41.137 1.15267 42.5955 2.72146 43.0629C2.6736 44.9841 4.1272 46.6519 6.07817 46.8293L49.9545 51.7677C50.0494 51.7677 50.2394 51.7677 50.3343 51.7677C52.2337 51.7677 53.9432 50.3432 54.1331 48.5388L56.9822 18.0533C57.0771 17.1035 56.7922 16.0588 56.1275 15.2991ZM1.89944 11.8802H49.3846V14.3495V17.5784H1.89944V11.8802ZM3.79878 7.13163H47.4851C48.5298 7.13163 49.3845 7.98637 49.3845 9.03108V9.98074H1.89944V9.03108C1.89944 7.98637 2.75418 7.13163 3.79878 7.13163ZM1.89944 39.4215V19.4777H49.3846V39.4215C49.3846 40.4662 48.5299 41.321 47.4852 41.321H3.89382H3.79889C2.75418 41.321 1.89944 40.4662 1.89944 39.4215ZM55.0828 17.6733L52.2336 48.1588C52.1387 49.2035 51.1889 49.9632 50.1443 49.8683L6.36297 44.9299C5.41331 44.8349 4.74844 44.0751 4.65351 43.2204H47.4851C49.5744 43.2204 51.2839 41.5109 51.2839 39.4216V18.5281V15.3941L53.4682 15.584C53.9431 15.584 54.4179 15.8689 54.7028 16.2488C54.9878 16.6286 55.1778 17.1985 55.0828 17.6733Z" fill="#C4C4C4"/>
<path d="M56.1275 15.2991C55.4627 14.4444 54.608 13.9695 53.5633 13.8746L51.284 13.5983V10.9304V9.03108C51.284 6.94177 49.5745 5.2323 47.4852 5.2323H3.79878C1.70947 5.23219 0 6.94166 0 9.03108V10.9305V18.5282V39.4216C0 41.137 1.15267 42.5955 2.72146 43.0629C2.6736 44.9841 4.1272 46.6519 6.07817 46.8293L49.9545 51.7677C50.0494 51.7677 50.2394 51.7677 50.3343 51.7677C52.2337 51.7677 53.9432 50.3432 54.1331 48.5388L56.9822 18.0533C57.0771 17.1035 56.7922 16.0588 56.1275 15.2991ZM1.89944 11.8802H49.3846V14.3495V17.5784H1.89944V11.8802ZM3.79878 7.13163H47.4851C48.5298 7.13163 49.3845 7.98637 49.3845 9.03108V9.98074H1.89944V9.03108C1.89944 7.98637 2.75418 7.13163 3.79878 7.13163ZM1.89944 39.4215V19.4777H49.3846V39.4215C49.3846 40.4662 48.5299 41.321 47.4852 41.321H3.89382H3.79889C2.75418 41.321 1.89944 40.4662 1.89944 39.4215ZM55.0828 17.6733L52.2336 48.1588C52.1387 49.2035 51.1889 49.9632 50.1443 49.8683L6.36297 44.9299C5.41331 44.8349 4.74844 44.0751 4.65351 43.2204H47.4851C49.5744 43.2204 51.2839 41.5109 51.2839 39.4216V18.5281V15.3941L53.4682 15.584C53.9431 15.584 54.4179 15.8689 54.7028 16.2488C54.9878 16.6286 55.1778 17.1985 55.0828 17.6733Z" fill="url(#paint5_linear)"/>
<defs>
<linearGradient id="paint0_linear" x1="37.9887" y1="27.0755" x2="37.9887" y2="37.5222" gradientUnits="userSpaceOnUse">
<stop stop-color="#7B5F54"/>
<stop offset="1" stop-color="#5B433F"/>
</linearGradient>
<linearGradient id="paint1_linear" x1="8.54733" y1="23.2767" x2="8.54733" y2="25.176" gradientUnits="userSpaceOnUse">
<stop stop-color="#7B5F54"/>
<stop offset="1" stop-color="#5B433F"/>
</linearGradient>
<linearGradient id="paint2_linear" x1="19.9438" y1="23.2767" x2="19.9438" y2="25.176" gradientUnits="userSpaceOnUse">
<stop stop-color="#7B5F54"/>
<stop offset="1" stop-color="#5B433F"/>
</linearGradient>
<linearGradient id="paint3_linear" x1="10.9215" y1="27.0755" x2="10.9215" y2="28.9748" gradientUnits="userSpaceOnUse">
<stop stop-color="#7B5F54"/>
<stop offset="1" stop-color="#5B433F"/>
</linearGradient>
<linearGradient id="paint4_linear" x1="22.3176" y1="27.0754" x2="22.3176" y2="28.9747" gradientUnits="userSpaceOnUse">
<stop stop-color="#7B5F54"/>
<stop offset="1" stop-color="#5B433F"/>
</linearGradient>
<linearGradient id="paint5_linear" x1="28.5" y1="5.2323" x2="28.5" y2="51.7677" gradientUnits="userSpaceOnUse">
<stop stop-color="#7B5F54"/>
<stop offset="1" stop-color="#5B433F"/>
</linearGradient>
</defs>
</svg>
