<svg width="64" height="64" viewBox="0 0 64 64" fill="none" xmlns="http://www.w3.org/2000/svg">
<path d="M5 20H17C17.7956 20 18.5587 19.6839 19.1213 19.1213C19.6839 18.5587 20 17.7956 20 17V5C20 4.20435 19.6839 3.44129 19.1213 2.87868C18.5587 2.31607 17.7956 2 17 2H5C4.20435 2 3.44129 2.31607 2.87868 2.87868C2.31607 3.44129 2 4.20435 2 5V17C2 17.7956 2.31607 18.5587 2.87868 19.1213C3.44129 19.6839 4.20435 20 5 20ZM10 4H12V8.586L11.707 8.293C11.5195 8.10553 11.2652 8.00021 11 8.00021C10.7348 8.00021 10.4805 8.10553 10.293 8.293L10 8.586V4ZM4 5C4 4.73478 4.10536 4.48043 4.29289 4.29289C4.48043 4.10536 4.73478 4 5 4H8V11C8.00004 11.1978 8.05871 11.391 8.1686 11.5555C8.27848 11.7199 8.43465 11.848 8.61735 11.9237C8.80005 11.9993 9.00108 12.0192 9.19503 11.9806C9.38898 11.942 9.56715 11.8468 9.707 11.707L11 10.414L12.293 11.707C12.4805 11.8945 12.7348 11.9999 13 12C13.1315 12.0004 13.2617 11.9746 13.383 11.924C13.5657 11.8483 13.7218 11.72 13.8316 11.5556C13.9415 11.3911 14 11.1978 14 11V4H17C17.2652 4 17.5196 4.10536 17.7071 4.29289C17.8946 4.48043 18 4.73478 18 5V17C18 17.2652 17.8946 17.5196 17.7071 17.7071C17.5196 17.8946 17.2652 18 17 18H5C4.73478 18 4.48043 17.8946 4.29289 17.7071C4.10536 17.5196 4 17.2652 4 17V5Z" fill="url(#paint0_linear)"/>
<path d="M59 40H47C46.2044 40 45.4413 40.3161 44.8787 40.8787C44.3161 41.4413 44 42.2044 44 43V55C44 55.7956 44.3161 56.5587 44.8787 57.1213C45.4413 57.6839 46.2044 58 47 58H59C59.7956 58 60.5587 57.6839 61.1213 57.1213C61.6839 56.5587 62 55.7956 62 55V43C62 42.2044 61.6839 41.4413 61.1213 40.8787C60.5587 40.3161 59.7956 40 59 40ZM52 42H54V46.586L53.707 46.293C53.5195 46.1055 53.2652 46.0002 53 46.0002C52.7348 46.0002 52.4805 46.1055 52.293 46.293L52 46.586V42ZM60 55C60 55.2652 59.8946 55.5196 59.7071 55.7071C59.5196 55.8946 59.2652 56 59 56H47C46.7348 56 46.4804 55.8946 46.2929 55.7071C46.1054 55.5196 46 55.2652 46 55V43C46 42.7348 46.1054 42.4804 46.2929 42.2929C46.4804 42.1054 46.7348 42 47 42H50V49C50 49.1978 50.0587 49.391 50.1686 49.5555C50.2785 49.7199 50.4346 49.848 50.6173 49.9237C50.8 49.9993 51.0011 50.0192 51.195 49.9806C51.389 49.942 51.5671 49.8468 51.707 49.707L53 48.414L54.293 49.707C54.4805 49.8946 54.7348 49.9999 55 50C55.1315 50.0004 55.2617 49.9746 55.383 49.924C55.5657 49.8483 55.7218 49.72 55.8316 49.5556C55.9415 49.3911 56 49.1978 56 49V42H59C59.2652 42 59.5196 42.1054 59.7071 42.2929C59.8946 42.4804 60 42.7348 60 43V55Z" fill="url(#paint1_linear)"/>
<path d="M36 14C34.8133 14 33.6533 14.3519 32.6666 15.0112C31.6799 15.6705 30.9109 16.6075 30.4567 17.7039C30.0026 18.8003 29.8838 20.0067 30.1153 21.1705C30.3468 22.3344 30.9182 23.4035 31.7574 24.2426C32.5965 25.0818 33.6656 25.6532 34.8295 25.8847C35.9933 26.1162 37.1997 25.9974 38.2961 25.5433C39.3925 25.0891 40.3295 24.3201 40.9888 23.3334C41.6481 22.3467 42 21.1867 42 20C41.9984 18.4092 41.3658 16.884 40.2409 15.7591C39.116 14.6342 37.5908 14.0016 36 14ZM36 24C35.2089 24 34.4355 23.7654 33.7777 23.3259C33.1199 22.8863 32.6072 22.2616 32.3045 21.5307C32.0017 20.7998 31.9225 19.9956 32.0769 19.2196C32.2312 18.4437 32.6122 17.731 33.1716 17.1716C33.731 16.6122 34.4437 16.2312 35.2196 16.0769C35.9956 15.9225 36.7998 16.0017 37.5307 16.3045C38.2616 16.6072 38.8864 17.1199 39.3259 17.7777C39.7654 18.4355 40 19.2089 40 20C40 21.0609 39.5786 22.0783 38.8284 22.8284C38.0783 23.5786 37.0609 24 36 24Z" fill="url(#paint2_linear)"/>
<path d="M12.217 56.783C10.6801 55.2433 9.63392 53.2826 9.21062 51.1487C8.78731 49.0148 9.00585 46.8033 9.83864 44.7935C10.6714 42.7837 12.0811 41.0658 13.8897 39.8566C15.6982 38.6475 17.8245 38.0014 20 38H55C57.1217 38 59.1566 37.1571 60.6569 35.6569C62.1571 34.1566 63 32.1217 63 30C63 27.8783 62.1571 25.8434 60.6569 24.3431C59.1566 22.8429 57.1217 22 55 22H45.765C45.9127 21.3433 45.9914 20.673 46 20C46 17.3478 44.9464 14.8043 43.0711 12.9289C41.1957 11.0536 38.6522 10 36 10C33.3478 10 30.8043 11.0536 28.9289 12.9289C27.0536 14.8043 26 17.3478 26 20C26.0086 20.673 26.0873 21.3433 26.235 22H2V24H26.831C29.079 29.53 35.131 33.623 35.445 33.832C35.6093 33.9416 35.8025 34.0001 36 34.0001C36.1975 34.0001 36.3907 33.9416 36.555 33.832C36.868 33.623 42.921 29.532 45.169 24H55C56.5913 24 58.1174 24.6321 59.2426 25.7574C60.3679 26.8826 61 28.4087 61 30C61 31.5913 60.3679 33.1174 59.2426 34.2426C58.1174 35.3679 56.5913 36 55 36H20C16.5522 36 13.2456 37.3696 10.8076 39.8076C8.36964 42.2456 7 45.5522 7 49C7 52.4478 8.36964 55.7544 10.8076 58.1924C13.2456 60.6304 16.5522 62 20 62H62V60H20C18.5545 60.0048 17.1223 59.723 15.7864 59.1708C14.4505 58.6186 13.2373 57.807 12.217 56.783ZM36 31.771C34.1 30.363 28 25.413 28 20C28 17.8783 28.8429 15.8434 30.3431 14.3431C31.8434 12.8429 33.8783 12 36 12C38.1217 12 40.1566 12.8429 41.6569 14.3431C43.1571 15.8434 44 17.8783 44 20C44 25.413 37.9 30.363 36 31.771Z" fill="url(#paint3_linear)"/>
<defs>
<linearGradient id="paint0_linear" x1="11" y1="2" x2="11" y2="20" gradientUnits="userSpaceOnUse">
<stop stop-color="#7B5F54"/>
<stop offset="1" stop-color="#5B433F"/>
</linearGradient>
<linearGradient id="paint1_linear" x1="53" y1="40" x2="53" y2="58" gradientUnits="userSpaceOnUse">
<stop stop-color="#7B5F54"/>
<stop offset="1" stop-color="#5B433F"/>
</linearGradient>
<linearGradient id="paint2_linear" x1="36" y1="14" x2="36" y2="26" gradientUnits="userSpaceOnUse">
<stop stop-color="#7B5F54"/>
<stop offset="1" stop-color="#5B433F"/>
</linearGradient>
<linearGradient id="paint3_linear" x1="32.5" y1="10" x2="32.5" y2="62" gradientUnits="userSpaceOnUse">
<stop stop-color="#7B5F54"/>
<stop offset="1" stop-color="#5B433F"/>
</linearGradient>
</defs>
</svg>
