<svg width="58" height="58" viewBox="0 0 58 58" fill="none" xmlns="http://www.w3.org/2000/svg">
<path d="M47.9022 0H10.0978L0 16.1559V58H58V16.1559L47.9022 0ZM55.2895 15.4667H29.9667V1.93333H46.8311L55.2895 15.4667ZM11.1689 1.93333H28.0333V15.4667H2.71053L11.1689 1.93333ZM1.93333 56.0667V17.4H56.0667V56.0667H1.93333Z" fill="url(#paint0_linear)"/>
<path d="M34.8008 22.2333H23.2008C21.6019 22.2333 20.3008 23.5345 20.3008 25.1333C20.3008 26.7322 21.6019 28.0333 23.2008 28.0333H34.8008C36.3996 28.0333 37.7008 26.7322 37.7008 25.1333C37.7008 23.5345 36.3996 22.2333 34.8008 22.2333ZM34.8008 26.1H23.2008C22.6681 26.1 22.2341 25.6669 22.2341 25.1333C22.2341 24.5997 22.6681 24.1667 23.2008 24.1667H34.8008C35.3334 24.1667 35.7674 24.5997 35.7674 25.1333C35.7674 25.6669 35.3334 26.1 34.8008 26.1Z" fill="url(#paint1_linear)"/>
<path d="M36.7341 50.2667H21.2674C20.7338 50.2667 20.3008 50.6988 20.3008 51.2333C20.3008 51.7679 20.7338 52.2 21.2674 52.2H36.7341C37.2677 52.2 37.7008 51.7679 37.7008 51.2333C37.7008 50.6988 37.2677 50.2667 36.7341 50.2667Z" fill="url(#paint2_linear)"/>
<path d="M24.1677 48.3334C24.7013 48.3334 25.1344 47.9013 25.1344 47.3667V41.0002L26.3843 42.2501C26.5728 42.4386 26.8202 42.5334 27.0677 42.5334C27.3152 42.5334 27.5626 42.4386 27.7511 42.2501C28.1291 41.8722 28.1291 41.2612 27.7511 40.8833L24.8521 37.9842C24.7632 37.8943 24.6559 37.8238 24.537 37.7745C24.3011 37.6768 24.0343 37.6768 23.7984 37.7745C23.6795 37.8238 23.5732 37.8943 23.4833 37.9842L20.5843 40.8833C20.2063 41.2612 20.2063 41.8722 20.5843 42.2501C20.7728 42.4386 21.0202 42.5334 21.2677 42.5334C21.5152 42.5334 21.7626 42.4386 21.9511 42.2501L23.201 41.0002V47.3667C23.201 47.9013 23.6341 48.3334 24.1677 48.3334Z" fill="url(#paint3_linear)"/>
<path d="M34.5162 37.9842C34.4272 37.8943 34.3199 37.8238 34.201 37.7745C33.9652 37.6768 33.6984 37.6768 33.4625 37.7745C33.3436 37.8238 33.2373 37.8943 33.1474 37.9842L30.2483 40.8833C29.8704 41.2612 29.8704 41.8722 30.2483 42.2501C30.4368 42.4386 30.6843 42.5334 30.9318 42.5334C31.1792 42.5334 31.4267 42.4386 31.6152 42.2501L32.8651 41.0002V47.3667C32.8651 47.9013 33.2982 48.3334 33.8318 48.3334C34.3654 48.3334 34.7984 47.9013 34.7984 47.3667V41.0002L36.0483 42.2501C36.2368 42.4386 36.4843 42.5334 36.7318 42.5334C36.9792 42.5334 37.2267 42.4386 37.4152 42.2501C37.7932 41.8722 37.7932 41.2612 37.4152 40.8833L34.5162 37.9842Z" fill="url(#paint4_linear)"/>
<defs>
<linearGradient id="paint0_linear" x1="29" y1="0" x2="29" y2="58" gradientUnits="userSpaceOnUse">
<stop stop-color="#7B5F54"/>
<stop offset="1" stop-color="#5B433F"/>
</linearGradient>
<linearGradient id="paint1_linear" x1="29.0008" y1="22.2333" x2="29.0008" y2="28.0333" gradientUnits="userSpaceOnUse">
<stop stop-color="#7B5F54"/>
<stop offset="1" stop-color="#5B433F"/>
</linearGradient>
<linearGradient id="paint2_linear" x1="29.0008" y1="50.2667" x2="29.0008" y2="52.2" gradientUnits="userSpaceOnUse">
<stop stop-color="#7B5F54"/>
<stop offset="1" stop-color="#5B433F"/>
</linearGradient>
<linearGradient id="paint3_linear" x1="24.1677" y1="37.7012" x2="24.1677" y2="48.3334" gradientUnits="userSpaceOnUse">
<stop stop-color="#7B5F54"/>
<stop offset="1" stop-color="#5B433F"/>
</linearGradient>
<linearGradient id="paint4_linear" x1="33.8318" y1="37.7012" x2="33.8318" y2="48.3334" gradientUnits="userSpaceOnUse">
<stop stop-color="#7B5F54"/>
<stop offset="1" stop-color="#5B433F"/>
</linearGradient>
</defs>
</svg>
