<svg width="50" height="50" viewBox="0 0 50 50" fill="none" xmlns="http://www.w3.org/2000/svg">
<path d="M44.7273 2.42914H12.3956C9.58968 2.42914 7.30682 4.69065 7.30682 7.4614L7.09846 35.9312H0.788762C0.341599 35.9312 0 36.3265 0 36.7737V40.6918C0 44.3596 2.93522 47.3593 6.47773 47.5238V47.5708H33.7044V47.5179C33.9069 47.5262 34.0294 47.5708 34.1686 47.5708H34.188C37.9661 47.5487 41.0117 44.4692 40.9919 40.691V15.7895H49.2112C49.6584 15.7895 50 15.3846 50 14.9378V7.74883C50.0051 4.82705 47.6491 2.45009 44.7273 2.42914V2.42914ZM6.83198 45.9514H6.82645C3.94618 45.9514 1.61943 43.5709 1.61943 40.691V37.5506H27.3279V40.6776C27.3216 42.5002 28.0416 44.2501 29.3285 45.5406C29.4653 45.6782 29.6084 45.749 29.7547 45.9514H6.83198ZM39.3724 40.6902C39.3724 43.5709 37.0682 45.9514 34.1868 45.9514H34.1702C31.2745 45.9305 28.9406 43.5737 28.9474 40.678V36.7737C28.9497 36.3202 28.5911 35.947 28.1376 35.9312H8.71789L8.92625 7.46694C8.92625 5.58379 10.4824 4.04857 12.3956 4.04857H40.9045C39.9817 5.06072 39.3724 6.34132 39.3724 7.77058V40.6902ZM48.3805 7.76307V14.17H40.9919V7.769C40.9919 5.74233 42.6777 4.04857 44.7036 4.04857H44.7261C46.7572 4.06874 48.39 5.72573 48.3805 7.75714V7.76307Z" fill="black"/>
<path d="M44.7273 2.42914H12.3956C9.58968 2.42914 7.30682 4.69065 7.30682 7.4614L7.09846 35.9312H0.788762C0.341599 35.9312 0 36.3265 0 36.7737V40.6918C0 44.3596 2.93522 47.3593 6.47773 47.5238V47.5708H33.7044V47.5179C33.9069 47.5262 34.0294 47.5708 34.1686 47.5708H34.188C37.9661 47.5487 41.0117 44.4692 40.9919 40.691V15.7895H49.2112C49.6584 15.7895 50 15.3846 50 14.9378V7.74883C50.0051 4.82705 47.6491 2.45009 44.7273 2.42914V2.42914ZM6.83198 45.9514H6.82645C3.94618 45.9514 1.61943 43.5709 1.61943 40.691V37.5506H27.3279V40.6776C27.3216 42.5002 28.0416 44.2501 29.3285 45.5406C29.4653 45.6782 29.6084 45.749 29.7547 45.9514H6.83198ZM39.3724 40.6902C39.3724 43.5709 37.0682 45.9514 34.1868 45.9514H34.1702C31.2745 45.9305 28.9406 43.5737 28.9474 40.678V36.7737C28.9497 36.3202 28.5911 35.947 28.1376 35.9312H8.71789L8.92625 7.46694C8.92625 5.58379 10.4824 4.04857 12.3956 4.04857H40.9045C39.9817 5.06072 39.3724 6.34132 39.3724 7.77058V40.6902ZM48.3805 7.76307V14.17H40.9919V7.769C40.9919 5.74233 42.6777 4.04857 44.7036 4.04857H44.7261C46.7572 4.06874 48.39 5.72573 48.3805 7.75714V7.76307Z" fill="url(#paint0_linear)"/>
<path d="M19.0122 22.3597L23.1869 25.2139C23.4593 25.4017 23.8195 25.4017 24.0919 25.2139L28.2539 22.3605C29.6998 21.374 30.7677 19.3118 30.7677 17.5631V11.7883C30.7764 11.4831 30.608 11.2 30.336 11.0612L23.9796 7.93465C23.7566 7.82395 23.4949 7.82395 23.2719 7.93465L16.9274 11.0525C16.6554 11.1913 16.4874 11.4744 16.4964 11.7796V17.5631C16.4964 19.3118 17.5667 21.374 19.0122 22.3597ZM18.1159 12.2849L23.6321 9.56318L29.1483 12.2924V17.5631C29.1483 18.7828 28.3488 20.3342 27.3402 21.0218L23.6226 23.5644L19.9196 21.0222C18.911 20.3338 18.1159 18.7828 18.1159 17.5631V12.2849Z" fill="black"/>
<path d="M19.0122 22.3597L23.1869 25.2139C23.4593 25.4017 23.8195 25.4017 24.0919 25.2139L28.2539 22.3605C29.6998 21.374 30.7677 19.3118 30.7677 17.5631V11.7883C30.7764 11.4831 30.608 11.2 30.336 11.0612L23.9796 7.93465C23.7566 7.82395 23.4949 7.82395 23.2719 7.93465L16.9274 11.0525C16.6554 11.1913 16.4874 11.4744 16.4964 11.7796V17.5631C16.4964 19.3118 17.5667 21.374 19.0122 22.3597ZM18.1159 12.2849L23.6321 9.56318L29.1483 12.2924V17.5631C29.1483 18.7828 28.3488 20.3342 27.3402 21.0218L23.6226 23.5644L19.9196 21.0222C18.911 20.3338 18.1159 18.7828 18.1159 17.5631V12.2849Z" fill="url(#paint1_linear)"/>
<path d="M22.2675 18.7856C22.4185 18.9398 22.6249 19.0272 22.8408 19.0284H22.8428C23.0578 19.0276 23.2638 18.9414 23.4153 18.7888L26.6363 15.5665C26.953 15.2502 26.953 14.737 26.6367 14.4207C26.3208 14.104 25.8076 14.104 25.4913 14.4203L22.8455 17.0658L21.7879 15.9979C21.4728 15.68 20.96 15.6776 20.6421 15.9927C20.3243 16.3078 20.3223 16.8206 20.637 17.1385L22.2675 18.7856Z" fill="black"/>
<path d="M22.2675 18.7856C22.4185 18.9398 22.6249 19.0272 22.8408 19.0284H22.8428C23.0578 19.0276 23.2638 18.9414 23.4153 18.7888L26.6363 15.5665C26.953 15.2502 26.953 14.737 26.6367 14.4207C26.3208 14.104 25.8076 14.104 25.4913 14.4203L22.8455 17.0658L21.7879 15.9979C21.4728 15.68 20.96 15.6776 20.6421 15.9927C20.3243 16.3078 20.3223 16.8206 20.637 17.1385L22.2675 18.7856Z" fill="url(#paint2_linear)"/>
<path d="M33.7039 27.5303H14.2707C13.8235 27.5303 13.4609 27.8929 13.4609 28.3401C13.4609 28.7872 13.8235 29.1498 14.2707 29.1498H33.7039C34.151 29.1498 34.5136 28.7872 34.5136 28.3401C34.5136 27.8929 34.151 27.5303 33.7039 27.5303Z" fill="black"/>
<path d="M33.7039 27.5303H14.2707C13.8235 27.5303 13.4609 27.8929 13.4609 28.3401C13.4609 28.7872 13.8235 29.1498 14.2707 29.1498H33.7039C34.151 29.1498 34.5136 28.7872 34.5136 28.3401C34.5136 27.8929 34.151 27.5303 33.7039 27.5303Z" fill="url(#paint3_linear)"/>
<path d="M33.7039 31.2753H14.2707C13.8235 31.2753 13.4609 31.6379 13.4609 32.085C13.4609 32.5322 13.8235 32.8948 14.2707 32.8948H33.7039C34.151 32.8948 34.5136 32.5322 34.5136 32.085C34.5136 31.6379 34.151 31.2753 33.7039 31.2753Z" fill="black"/>
<path d="M33.7039 31.2753H14.2707C13.8235 31.2753 13.4609 31.6379 13.4609 32.085C13.4609 32.5322 13.8235 32.8948 14.2707 32.8948H33.7039C34.151 32.8948 34.5136 32.5322 34.5136 32.085C34.5136 31.6379 34.151 31.2753 33.7039 31.2753Z" fill="url(#paint4_linear)"/>
<defs>
<linearGradient id="paint0_linear" x1="25" y1="2.42914" x2="25" y2="47.5708" gradientUnits="userSpaceOnUse">
<stop stop-color="#7B5F54"/>
<stop offset="1" stop-color="#5B433F"/>
</linearGradient>
<linearGradient id="paint1_linear" x1="23.6321" y1="7.85162" x2="23.6321" y2="25.3547" gradientUnits="userSpaceOnUse">
<stop stop-color="#7B5F54"/>
<stop offset="1" stop-color="#5B433F"/>
</linearGradient>
<linearGradient id="paint2_linear" x1="23.6381" y1="14.1832" x2="23.6381" y2="19.0284" gradientUnits="userSpaceOnUse">
<stop stop-color="#7B5F54"/>
<stop offset="1" stop-color="#5B433F"/>
</linearGradient>
<linearGradient id="paint3_linear" x1="23.9873" y1="27.5303" x2="23.9873" y2="29.1498" gradientUnits="userSpaceOnUse">
<stop stop-color="#7B5F54"/>
<stop offset="1" stop-color="#5B433F"/>
</linearGradient>
<linearGradient id="paint4_linear" x1="23.9873" y1="31.2753" x2="23.9873" y2="32.8948" gradientUnits="userSpaceOnUse">
<stop stop-color="#7B5F54"/>
<stop offset="1" stop-color="#5B433F"/>
</linearGradient>
</defs>
</svg>
