<svg width="58" height="58" viewBox="0 0 58 58" fill="none" xmlns="http://www.w3.org/2000/svg">
<path d="M54.375 27.1875V45.3125C54.375 50.3176 50.3176 54.375 45.3125 54.375H12.6875C7.68239 54.375 3.625 50.3176 3.625 45.3125V12.6875C3.625 7.68239 7.68239 3.625 12.6875 3.625H30.8125V0H12.6875C5.68038 0 0 5.68038 0 12.6875V45.3125C0 52.3196 5.68038 58 12.6875 58H45.3125C52.3196 58 58 52.3196 58 45.3125V27.1875H54.375Z" fill="black"/>
<path d="M54.375 27.1875V45.3125C54.375 50.3176 50.3176 54.375 45.3125 54.375H12.6875C7.68239 54.375 3.625 50.3176 3.625 45.3125V12.6875C3.625 7.68239 7.68239 3.625 12.6875 3.625H30.8125V0H12.6875C5.68038 0 0 5.68038 0 12.6875V45.3125C0 52.3196 5.68038 58 12.6875 58H45.3125C52.3196 58 58 52.3196 58 45.3125V27.1875H54.375Z" fill="url(#paint0_linear)"/>
<path d="M13.9722 24.0881L11.3984 26.6619L24.0859 39.3494C24.7929 40.0522 25.9346 40.0522 26.6416 39.3494L55.6416 10.3494L53.0859 7.77563L25.3728 35.5069L13.9722 24.0881Z" fill="black"/>
<path d="M13.9722 24.0881L11.3984 26.6619L24.0859 39.3494C24.7929 40.0522 25.9346 40.0522 26.6416 39.3494L55.6416 10.3494L53.0859 7.77563L25.3728 35.5069L13.9722 24.0881Z" fill="url(#paint1_linear)"/>
<defs>
<linearGradient id="paint0_linear" x1="29" y1="0" x2="29" y2="58" gradientUnits="userSpaceOnUse">
<stop stop-color="#7B5F54"/>
<stop offset="1" stop-color="#5B433F"/>
</linearGradient>
<linearGradient id="paint1_linear" x1="33.52" y1="7.77563" x2="33.52" y2="39.8765" gradientUnits="userSpaceOnUse">
<stop stop-color="#7B5F54"/>
<stop offset="1" stop-color="#5B433F"/>
</linearGradient>
</defs>
</svg>
