<svg width="71" height="71" viewBox="0 0 71 71" fill="none" xmlns="http://www.w3.org/2000/svg">
<path d="M60.4849 2.69093C60.1962 2.40221 59.8037 2.24176 59.3954 2.24609C58.9885 2.24897 58.5989 2.40798 58.3063 2.69093L36.3343 24.662L36.2733 24.7239L36.2426 24.7547C36.2123 24.8008 36.1662 24.8469 36.1354 24.8925C36.1354 24.9079 36.1201 24.9079 36.1201 24.9233C36.0893 24.9689 36.0735 25.0002 36.0432 25.0458C36.0273 25.0612 36.0273 25.077 36.0125 25.0919C35.9971 25.138 35.9822 25.1688 35.9663 25.2149C35.9663 25.2303 35.951 25.2303 35.951 25.2452L32.0382 37.0445C31.8509 37.5935 31.9935 38.2022 32.4071 38.6096C32.6968 38.8954 33.0883 39.0554 33.4957 39.0544C33.6624 39.051 33.8281 39.0256 33.9871 38.9775L45.7557 35.0499C45.7706 35.0499 45.7706 35.0499 45.786 35.0345C45.8345 35.0206 45.8816 34.9999 45.9238 34.9735C45.9358 34.9716 45.9469 34.9663 45.9551 34.9576C46.0007 34.9274 46.0622 34.8966 46.1083 34.8654C46.1539 34.8347 46.2001 34.7886 46.2462 34.7583C46.262 34.7434 46.2769 34.7434 46.2769 34.7275C46.2923 34.7122 46.323 34.6968 46.3389 34.6665L68.3248 12.6796C68.6126 12.3924 68.774 12.0033 68.774 11.5978C68.774 11.1919 68.6126 10.8023 68.3248 10.516L60.4849 2.69093ZM38.0839 28.5901L42.4261 32.9323L35.9202 35.0955L38.0839 28.5901ZM45.2647 31.4287L39.5875 25.752L59.3954 5.94364L65.0721 11.6204L45.2647 31.4287Z" fill="black"/>
<path d="M60.4849 2.69093C60.1962 2.40221 59.8037 2.24176 59.3954 2.24609C58.9885 2.24897 58.5989 2.40798 58.3063 2.69093L36.3343 24.662L36.2733 24.7239L36.2426 24.7547C36.2123 24.8008 36.1662 24.8469 36.1354 24.8925C36.1354 24.9079 36.1201 24.9079 36.1201 24.9233C36.0893 24.9689 36.0735 25.0002 36.0432 25.0458C36.0273 25.0612 36.0273 25.077 36.0125 25.0919C35.9971 25.138 35.9822 25.1688 35.9663 25.2149C35.9663 25.2303 35.951 25.2303 35.951 25.2452L32.0382 37.0445C31.8509 37.5935 31.9935 38.2022 32.4071 38.6096C32.6968 38.8954 33.0883 39.0554 33.4957 39.0544C33.6624 39.051 33.8281 39.0256 33.9871 38.9775L45.7557 35.0499C45.7706 35.0499 45.7706 35.0499 45.786 35.0345C45.8345 35.0206 45.8816 34.9999 45.9238 34.9735C45.9358 34.9716 45.9469 34.9663 45.9551 34.9576C46.0007 34.9274 46.0622 34.8966 46.1083 34.8654C46.1539 34.8347 46.2001 34.7886 46.2462 34.7583C46.262 34.7434 46.2769 34.7434 46.2769 34.7275C46.2923 34.7122 46.323 34.6968 46.3389 34.6665L68.3248 12.6796C68.6126 12.3924 68.774 12.0033 68.774 11.5978C68.774 11.1919 68.6126 10.8023 68.3248 10.516L60.4849 2.69093ZM38.0839 28.5901L42.4261 32.9323L35.9202 35.0955L38.0839 28.5901ZM45.2647 31.4287L39.5875 25.752L59.3954 5.94364L65.0721 11.6204L45.2647 31.4287Z" fill="url(#paint0_linear)"/>
<path d="M56.8672 30.9224C56.0207 30.9248 55.3352 31.6103 55.3328 32.4568V61.1335C55.3256 63.6724 53.2696 65.7284 50.7297 65.7366H9.88664C7.34779 65.7284 5.29077 63.6724 5.28356 61.1335V20.2895C5.29077 17.7506 7.34779 15.6941 9.88664 15.6864H38.5625C39.4103 15.6864 40.0968 14.9994 40.0968 14.152C40.0968 13.3046 39.4103 12.6177 38.5625 12.6177H9.88664C5.6501 12.6196 2.21677 16.0534 2.21484 20.2895V61.1335C2.21677 65.3696 5.6501 68.8034 9.88664 68.8048H50.7297C54.9663 68.8034 58.4001 65.3696 58.4015 61.1335V32.4568C58.3991 31.6103 57.7136 30.9248 56.8672 30.9224Z" fill="black"/>
<path d="M56.8672 30.9224C56.0207 30.9248 55.3352 31.6103 55.3328 32.4568V61.1335C55.3256 63.6724 53.2696 65.7284 50.7297 65.7366H9.88664C7.34779 65.7284 5.29077 63.6724 5.28356 61.1335V20.2895C5.29077 17.7506 7.34779 15.6941 9.88664 15.6864H38.5625C39.4103 15.6864 40.0968 14.9994 40.0968 14.152C40.0968 13.3046 39.4103 12.6177 38.5625 12.6177H9.88664C5.6501 12.6196 2.21677 16.0534 2.21484 20.2895V61.1335C2.21677 65.3696 5.6501 68.8034 9.88664 68.8048H50.7297C54.9663 68.8034 58.4001 65.3696 58.4015 61.1335V32.4568C58.3991 31.6103 57.7136 30.9248 56.8672 30.9224Z" fill="url(#paint1_linear)"/>
<defs>
<linearGradient id="paint0_linear" x1="50.3655" y1="2.246" x2="50.3655" y2="39.0544" gradientUnits="userSpaceOnUse">
<stop stop-color="#7B5F54"/>
<stop offset="1" stop-color="#5B433F"/>
</linearGradient>
<linearGradient id="paint1_linear" x1="30.3082" y1="12.6177" x2="30.3082" y2="68.8048" gradientUnits="userSpaceOnUse">
<stop stop-color="#7B5F54"/>
<stop offset="1" stop-color="#5B433F"/>
</linearGradient>
</defs>
</svg>
