<svg width="71" height="71" viewBox="0 0 71 71" fill="none" xmlns="http://www.w3.org/2000/svg">
<g clip-path="url(#clip0)">
<path d="M35.4848 71C19.4284 70.9278 6.36086 58.0619 6.04018 42.0089C5.71892 25.9559 18.2612 12.577 34.3015 11.8628V1.18333C34.3015 0.529842 34.8314 0 35.4848 0C36.1383 0 36.6682 0.529842 36.6682 1.18333V11.8628C52.7085 12.577 65.2508 25.9559 64.9295 42.0089C64.6083 58.0619 51.5407 70.9278 35.4848 71ZM35.4848 26.0333C34.8314 26.0333 34.3015 25.5035 34.3015 24.85V23.9954C33.3736 24.5311 32.9212 25.6231 33.1985 26.6579C33.4758 27.6922 34.4136 28.4121 35.4848 28.4121C36.5555 28.4121 37.4933 27.6922 37.7706 26.6579C38.048 25.6231 37.5955 24.5311 36.6682 23.9954V24.85C36.6682 25.5035 36.1383 26.0333 35.4848 26.0333ZM36.6682 14.2295V21.4681C38.9759 22.0639 40.4805 24.2832 40.18 26.6475C39.8802 29.0119 37.8683 30.7846 35.4848 30.7846C33.1008 30.7846 31.0895 29.0119 30.7891 26.6475C30.4886 24.2832 31.9932 22.0639 34.3015 21.4681V14.2295C19.5145 14.8731 7.9527 27.2149 8.27453 42.0124C8.59636 56.8098 20.6839 68.6374 35.4848 68.6374C50.2852 68.6374 62.3727 56.8098 62.6946 42.0124C63.0164 27.2149 51.4546 14.8731 36.6682 14.2295Z" fill="url(#paint0_linear)"/>
<path d="M43.2939 58.9297C42.7716 59.3221 42.0297 59.2163 41.6374 58.6934L27.4373 39.7601C27.0456 39.2372 27.1513 38.4953 27.6742 38.1035C28.1972 37.7112 28.9385 37.817 29.3308 38.3399L43.5308 57.2732C43.9231 57.7961 43.8168 58.538 43.2939 58.9297Z" fill="url(#paint1_linear)"/>
<path d="M41.4014 47.3333C38.7869 47.3333 36.6681 45.2139 36.6681 42.6C36.6681 39.986 38.7869 37.8666 41.4014 37.8666C44.0154 37.8666 46.1348 39.986 46.1348 42.6C46.1348 45.2139 44.0154 47.3333 41.4014 47.3333ZM41.4014 40.2333C40.0939 40.2333 39.0348 41.293 39.0348 42.6C39.0348 43.907 40.0939 44.9666 41.4014 44.9666C42.7084 44.9666 43.7681 43.907 43.7681 42.6C43.7681 41.293 42.7084 40.2333 41.4014 40.2333Z" fill="url(#paint2_linear)"/>
<path d="M34.3008 54.4333C34.3008 57.0473 32.1814 59.1667 29.5674 59.1667C26.9529 59.1667 24.8341 57.0473 24.8341 54.4333C24.8341 51.8194 26.9529 49.7 29.5674 49.7C32.1814 49.7 34.3008 51.8194 34.3008 54.4333ZM27.2008 54.4333C27.2008 55.7403 28.2599 56.8 29.5674 56.8C30.8744 56.8 31.9341 55.7403 31.9341 54.4333C31.9341 53.1264 30.8744 52.0667 29.5674 52.0667C28.2599 52.0667 27.2008 53.1264 27.2008 54.4333Z" fill="url(#paint3_linear)"/>
</g>
<defs>
<linearGradient id="paint0_linear" x1="35.4848" y1="0" x2="35.4848" y2="71" gradientUnits="userSpaceOnUse">
<stop stop-color="#7B5F54"/>
<stop offset="1" stop-color="#5B433F"/>
</linearGradient>
<linearGradient id="paint1_linear" x1="35.4842" y1="37.8666" x2="35.4842" y2="59.1667" gradientUnits="userSpaceOnUse">
<stop stop-color="#7B5F54"/>
<stop offset="1" stop-color="#5B433F"/>
</linearGradient>
<linearGradient id="paint2_linear" x1="41.4014" y1="37.8666" x2="41.4014" y2="47.3333" gradientUnits="userSpaceOnUse">
<stop stop-color="#7B5F54"/>
<stop offset="1" stop-color="#5B433F"/>
</linearGradient>
<linearGradient id="paint3_linear" x1="29.5674" y1="49.7" x2="29.5674" y2="59.1667" gradientUnits="userSpaceOnUse">
<stop stop-color="#7B5F54"/>
<stop offset="1" stop-color="#5B433F"/>
</linearGradient>
<clipPath id="clip0">
<rect width="71" height="71" fill="white" transform="matrix(-1 0 0 1 71 0)"/>
</clipPath>
</defs>
</svg>
