<svg width="60" height="60" viewBox="0 0 60 60" fill="none" xmlns="http://www.w3.org/2000/svg">
<path d="M41.5964 17.9854C41.5964 17.9576 41.6129 17.932 41.6129 17.9032V12.0968C41.6096 9.42555 39.4454 7.26136 36.7742 7.25806H23.2258C20.5546 7.26136 18.3904 9.42555 18.3871 12.0968V17.9032C18.3871 17.932 18.4017 17.9576 18.4036 17.9854C7.7013 23.5362 0 35.6439 0 44.0322C0 44.5667 0.43331 45 0.967742 45H19.0647C20.7034 49.6336 25.0847 52.7315 30 52.7315C34.9153 52.7315 39.2966 49.6336 40.9353 45H59.0323C59.5667 45 60 44.5667 60 44.0322C60 35.6439 52.2987 23.5362 41.5964 17.9854ZM20.3226 16.9355V12.0968C20.3226 10.4935 21.6225 9.19354 23.2258 9.19354H36.7742C38.3775 9.19354 39.6774 10.4935 39.6774 12.0968V16.9355H39.3221C36.3725 15.6828 33.2047 15.025 30 15C26.7953 15.025 23.6275 15.6828 20.6779 16.9355H20.3226ZM30 50.8064C26.1574 50.796 22.6829 48.5194 21.1396 45H38.8604C37.3171 48.5194 33.8426 50.796 30 50.8064ZM1.97329 43.0645C2.75013 32.7941 15.516 16.9355 30 16.9355C44.484 16.9355 57.2499 32.7941 58.0267 43.0645H1.97329Z" fill="url(#paint0_linear)"/>
<path d="M30.9684 12.0968C30.9684 11.5623 30.5351 11.129 30.0007 11.129H22.2588C21.7243 11.129 21.291 11.5623 21.291 12.0968C21.291 12.6312 21.7243 13.0645 22.2588 13.0645H30.0007C30.5351 13.0645 30.9684 12.6312 30.9684 12.0968Z" fill="url(#paint1_linear)"/>
<path d="M32.9033 13.0645H33.871C34.4055 13.0645 34.8388 12.6312 34.8388 12.0968C34.8388 11.5623 34.4055 11.129 33.871 11.129H32.9033C32.3689 11.129 31.9355 11.5623 31.9355 12.0968C31.9355 12.6312 32.3689 13.0645 32.9033 13.0645Z" fill="url(#paint2_linear)"/>
<defs>
<linearGradient id="paint0_linear" x1="30" y1="7.25806" x2="30" y2="52.7315" gradientUnits="userSpaceOnUse">
<stop stop-color="#7B5F54"/>
<stop offset="1" stop-color="#5B433F"/>
</linearGradient>
<linearGradient id="paint1_linear" x1="26.1297" y1="11.129" x2="26.1297" y2="13.0645" gradientUnits="userSpaceOnUse">
<stop stop-color="#7B5F54"/>
<stop offset="1" stop-color="#5B433F"/>
</linearGradient>
<linearGradient id="paint2_linear" x1="33.3872" y1="11.129" x2="33.3872" y2="13.0645" gradientUnits="userSpaceOnUse">
<stop stop-color="#7B5F54"/>
<stop offset="1" stop-color="#5B433F"/>
</linearGradient>
</defs>
</svg>
