<svg width="65" height="65" viewBox="0 0 65 65" fill="none" xmlns="http://www.w3.org/2000/svg">
<g clip-path="url(#clip0)">
<path d="M64.6489 21.3697L44.0821 0.803074C43.8574 0.578189 43.5526 0.451965 43.2349 0.451965C42.9169 0.451965 42.6124 0.578189 42.3875 0.803074L38.9824 4.20831C38.5145 4.67625 38.5145 5.43499 38.9824 5.90273L39.0817 6.002L29.9048 16.0813L29.9045 16.0815C29.9043 16.0817 29.9042 16.0821 29.904 16.0823L18.468 28.6427C18.456 28.6537 18.4426 28.6613 18.431 28.6727C18.4001 28.7038 18.3765 28.739 18.3495 28.7725L5.46556 42.9233C5.13622 43.2852 5.05973 43.8111 5.27283 44.2516L7.49412 48.8454L6.14701 50.1925L5.41384 49.4602C4.94929 48.9964 4.19734 48.9926 3.7286 49.452L0.359911 52.7517C0.131231 52.9756 0.0016127 53.2818 1.49392e-05 53.602C-0.00158282 53.9221 0.12504 54.2295 0.351523 54.4556L10.1039 64.1975C10.3377 64.431 10.6441 64.548 10.9507 64.548C11.2535 64.548 11.5562 64.4342 11.7893 64.2057L15.1574 60.9059C15.3861 60.682 15.5157 60.3759 15.5173 60.0557C15.5189 59.7356 15.3923 59.4282 15.1658 59.2019L14.4909 58.5277L15.8364 57.1821L20.4626 59.4264C20.8954 59.6363 21.4116 59.5672 21.7739 59.2506L59.4328 26.3533L59.5486 26.4691C59.7735 26.694 60.0781 26.8202 60.3961 26.8202C60.7138 26.8202 61.0186 26.694 61.2433 26.4691L64.6487 23.0637C64.8736 22.839 64.9998 22.5342 64.9998 22.2165C65 21.8989 64.8738 21.5944 64.6489 21.3697ZM35.5259 44.0559L20.9411 29.4861L30.7943 18.6641L46.5616 34.4152L35.5259 44.0559ZM10.9589 61.6643L2.90215 53.6161L4.55883 51.9934L12.6152 60.0417L10.9589 61.6643ZM7.84284 51.8864L8.94429 50.7847L13.8974 55.7324L12.7957 56.8342L7.84284 51.8864ZM20.7951 56.9243L16.2966 54.742L9.93411 48.3861L7.78312 43.9377L19.3258 31.2602L33.7166 45.6363L20.7951 56.9243ZM48.3705 32.835L32.4094 16.89L40.7687 7.70861L57.7334 24.6557L48.3705 32.835ZM60.3963 23.9277L41.5245 5.05552L43.2349 3.34491L62.1071 22.2169L60.3963 23.9277Z" fill="black"/>
<path d="M64.6489 21.3697L44.0821 0.803074C43.8574 0.578189 43.5526 0.451965 43.2349 0.451965C42.9169 0.451965 42.6124 0.578189 42.3875 0.803074L38.9824 4.20831C38.5145 4.67625 38.5145 5.43499 38.9824 5.90273L39.0817 6.002L29.9048 16.0813L29.9045 16.0815C29.9043 16.0817 29.9042 16.0821 29.904 16.0823L18.468 28.6427C18.456 28.6537 18.4426 28.6613 18.431 28.6727C18.4001 28.7038 18.3765 28.739 18.3495 28.7725L5.46556 42.9233C5.13622 43.2852 5.05973 43.8111 5.27283 44.2516L7.49412 48.8454L6.14701 50.1925L5.41384 49.4602C4.94929 48.9964 4.19734 48.9926 3.7286 49.452L0.359911 52.7517C0.131231 52.9756 0.0016127 53.2818 1.49392e-05 53.602C-0.00158282 53.9221 0.12504 54.2295 0.351523 54.4556L10.1039 64.1975C10.3377 64.431 10.6441 64.548 10.9507 64.548C11.2535 64.548 11.5562 64.4342 11.7893 64.2057L15.1574 60.9059C15.3861 60.682 15.5157 60.3759 15.5173 60.0557C15.5189 59.7356 15.3923 59.4282 15.1658 59.2019L14.4909 58.5277L15.8364 57.1821L20.4626 59.4264C20.8954 59.6363 21.4116 59.5672 21.7739 59.2506L59.4328 26.3533L59.5486 26.4691C59.7735 26.694 60.0781 26.8202 60.3961 26.8202C60.7138 26.8202 61.0186 26.694 61.2433 26.4691L64.6487 23.0637C64.8736 22.839 64.9998 22.5342 64.9998 22.2165C65 21.8989 64.8738 21.5944 64.6489 21.3697ZM35.5259 44.0559L20.9411 29.4861L30.7943 18.6641L46.5616 34.4152L35.5259 44.0559ZM10.9589 61.6643L2.90215 53.6161L4.55883 51.9934L12.6152 60.0417L10.9589 61.6643ZM7.84284 51.8864L8.94429 50.7847L13.8974 55.7324L12.7957 56.8342L7.84284 51.8864ZM20.7951 56.9243L16.2966 54.742L9.93411 48.3861L7.78312 43.9377L19.3258 31.2602L33.7166 45.6363L20.7951 56.9243ZM48.3705 32.835L32.4094 16.89L40.7687 7.70861L57.7334 24.6557L48.3705 32.835ZM60.3963 23.9277L41.5245 5.05552L43.2349 3.34491L62.1071 22.2169L60.3963 23.9277Z" fill="url(#paint0_linear)"/>
</g>
<defs>
<linearGradient id="paint0_linear" x1="32.4999" y1="0.451965" x2="32.4999" y2="64.548" gradientUnits="userSpaceOnUse">
<stop stop-color="#7B5F54"/>
<stop offset="1" stop-color="#5B433F"/>
</linearGradient>
<clipPath id="clip0">
</clipPath>
</defs>
</svg>
