<svg width="53" height="53" viewBox="0 0 53 53" fill="none" xmlns="http://www.w3.org/2000/svg">
<path d="M26.5117 53C38.4975 52.9461 48.2521 43.342 48.4915 31.3588C48.7313 19.3755 39.3687 9.38844 27.395 8.85533V0.883333C27.395 0.395516 26.9995 0 26.5117 0C26.0239 0 25.6283 0.395516 25.6283 0.883333V8.85533C13.6546 9.38844 4.29204 19.3755 4.53185 31.3588C4.77166 43.342 14.5263 52.9461 26.5117 53ZM26.5117 19.4333C26.9995 19.4333 27.395 19.0378 27.395 18.55V17.9121C28.0877 18.3119 28.4254 19.1271 28.2184 19.8996C28.0114 20.6716 27.3113 21.2091 26.5117 21.2091C25.7124 21.2091 25.0124 20.6716 24.8054 19.8996C24.5984 19.1271 24.9361 18.3119 25.6283 17.9121V18.55C25.6283 19.0378 26.0239 19.4333 26.5117 19.4333ZM25.6283 10.622V16.0255C23.9057 16.4702 22.7825 18.1269 23.0068 19.8918C23.2307 21.6568 24.7325 22.98 26.5117 22.98C28.2913 22.98 29.7927 21.6568 30.017 19.8918C30.2412 18.1269 29.1181 16.4702 27.395 16.0255V10.622C38.4332 11.1025 47.0638 20.3154 46.8236 31.3614C46.5833 42.4073 37.5602 51.2364 26.5117 51.2364C15.4635 51.2364 6.44042 42.4073 6.20018 31.3614C5.95993 20.3154 14.5905 11.1025 25.6283 10.622Z" fill="black"/>
<path d="M26.5117 53C38.4975 52.9461 48.2521 43.342 48.4915 31.3588C48.7313 19.3755 39.3687 9.38844 27.395 8.85533V0.883333C27.395 0.395516 26.9995 0 26.5117 0C26.0239 0 25.6283 0.395516 25.6283 0.883333V8.85533C13.6546 9.38844 4.29204 19.3755 4.53185 31.3588C4.77166 43.342 14.5263 52.9461 26.5117 53ZM26.5117 19.4333C26.9995 19.4333 27.395 19.0378 27.395 18.55V17.9121C28.0877 18.3119 28.4254 19.1271 28.2184 19.8996C28.0114 20.6716 27.3113 21.2091 26.5117 21.2091C25.7124 21.2091 25.0124 20.6716 24.8054 19.8996C24.5984 19.1271 24.9361 18.3119 25.6283 17.9121V18.55C25.6283 19.0378 26.0239 19.4333 26.5117 19.4333ZM25.6283 10.622V16.0255C23.9057 16.4702 22.7825 18.1269 23.0068 19.8918C23.2307 21.6568 24.7325 22.98 26.5117 22.98C28.2913 22.98 29.7927 21.6568 30.017 19.8918C30.2412 18.1269 29.1181 16.4702 27.395 16.0255V10.622C38.4332 11.1025 47.0638 20.3154 46.8236 31.3614C46.5833 42.4073 37.5602 51.2364 26.5117 51.2364C15.4635 51.2364 6.44042 42.4073 6.20018 31.3614C5.95993 20.3154 14.5905 11.1025 25.6283 10.622Z" fill="url(#paint0_linear)"/>
<path d="M20.6817 43.9898C21.0716 44.2827 21.6254 44.2037 21.9183 43.8134L32.5183 29.6801C32.8107 29.2897 32.7318 28.7359 32.3415 28.4435C31.9511 28.1506 31.3977 28.2296 31.1049 28.6199L20.5049 42.7532C20.212 43.1436 20.2914 43.6974 20.6817 43.9898Z" fill="black"/>
<path d="M20.6817 43.9898C21.0716 44.2827 21.6254 44.2037 21.9183 43.8134L32.5183 29.6801C32.8107 29.2897 32.7318 28.7359 32.3415 28.4435C31.9511 28.1506 31.3977 28.2296 31.1049 28.6199L20.5049 42.7532C20.212 43.1436 20.2914 43.6974 20.6817 43.9898Z" fill="url(#paint1_linear)"/>
<path d="M22.0958 35.3333C24.0475 35.3333 25.6292 33.7513 25.6292 31.8C25.6292 29.8487 24.0475 28.2667 22.0958 28.2667C20.1446 28.2667 18.5625 29.8487 18.5625 31.8C18.5625 33.7513 20.1446 35.3333 22.0958 35.3333ZM22.0958 30.0333C23.0719 30.0333 23.8625 30.8244 23.8625 31.8C23.8625 32.7756 23.0719 33.5667 22.0958 33.5667C21.1202 33.5667 20.3292 32.7756 20.3292 31.8C20.3292 30.8244 21.1202 30.0333 22.0958 30.0333Z" fill="black"/>
<path d="M22.0958 35.3333C24.0475 35.3333 25.6292 33.7513 25.6292 31.8C25.6292 29.8487 24.0475 28.2667 22.0958 28.2667C20.1446 28.2667 18.5625 29.8487 18.5625 31.8C18.5625 33.7513 20.1446 35.3333 22.0958 35.3333ZM22.0958 30.0333C23.0719 30.0333 23.8625 30.8244 23.8625 31.8C23.8625 32.7756 23.0719 33.5667 22.0958 33.5667C21.1202 33.5667 20.3292 32.7756 20.3292 31.8C20.3292 30.8244 21.1202 30.0333 22.0958 30.0333Z" fill="url(#paint2_linear)"/>
<path d="M27.3945 40.6333C27.3945 42.5846 28.9766 44.1666 30.9279 44.1666C32.8796 44.1666 34.4612 42.5846 34.4612 40.6333C34.4612 38.682 32.8796 37.1 30.9279 37.1C28.9766 37.1 27.3945 38.682 27.3945 40.6333ZM32.6945 40.6333C32.6945 41.6089 31.9039 42.4 30.9279 42.4C29.9522 42.4 29.1612 41.6089 29.1612 40.6333C29.1612 39.6577 29.9522 38.8666 30.9279 38.8666C31.9039 38.8666 32.6945 39.6577 32.6945 40.6333Z" fill="black"/>
<path d="M27.3945 40.6333C27.3945 42.5846 28.9766 44.1666 30.9279 44.1666C32.8796 44.1666 34.4612 42.5846 34.4612 40.6333C34.4612 38.682 32.8796 37.1 30.9279 37.1C28.9766 37.1 27.3945 38.682 27.3945 40.6333ZM32.6945 40.6333C32.6945 41.6089 31.9039 42.4 30.9279 42.4C29.9522 42.4 29.1612 41.6089 29.1612 40.6333C29.1612 39.6577 29.9522 38.8666 30.9279 38.8666C31.9039 38.8666 32.6945 39.6577 32.6945 40.6333Z" fill="url(#paint3_linear)"/>
<defs>
<linearGradient id="paint0_linear" x1="26.5117" y1="0" x2="26.5117" y2="53" gradientUnits="userSpaceOnUse">
<stop stop-color="#7B5F54"/>
<stop offset="1" stop-color="#5B433F"/>
</linearGradient>
<linearGradient id="paint1_linear" x1="26.5115" y1="28.2666" x2="26.5115" y2="44.1667" gradientUnits="userSpaceOnUse">
<stop stop-color="#7B5F54"/>
<stop offset="1" stop-color="#5B433F"/>
</linearGradient>
<linearGradient id="paint2_linear" x1="22.0958" y1="28.2667" x2="22.0958" y2="35.3333" gradientUnits="userSpaceOnUse">
<stop stop-color="#7B5F54"/>
<stop offset="1" stop-color="#5B433F"/>
</linearGradient>
<linearGradient id="paint3_linear" x1="30.9279" y1="37.1" x2="30.9279" y2="44.1666" gradientUnits="userSpaceOnUse">
<stop stop-color="#7B5F54"/>
<stop offset="1" stop-color="#5B433F"/>
</linearGradient>
</defs>
</svg>
