<svg width="70" height="70" viewBox="0 0 70 70" fill="none" xmlns="http://www.w3.org/2000/svg">
<g clip-path="url(#clip0)">
<path d="M37.9392 55.9755C37.4986 54.7644 36.3367 53.9509 35.0486 53.9509C34.6898 53.9509 34.336 54.0135 33.9967 54.1369C32.4029 54.7171 31.5784 56.4858 32.1582 58.0797C32.599 59.2906 33.7608 60.1041 35.049 60.1041C35.4077 60.1041 35.7616 60.0414 36.1008 59.9181C37.6946 59.338 38.5193 57.5693 37.9392 55.9755ZM35.3995 57.9911C35.2859 58.0325 35.1679 58.0534 35.0491 58.0534C34.6196 58.0534 34.2322 57.7822 34.0853 57.3783C33.8919 56.847 34.1669 56.2574 34.698 56.064C34.8116 56.0226 34.9296 56.0017 35.0484 56.0017C35.4779 56.0017 35.8652 56.2729 36.0122 56.6769C36.2056 57.2081 35.9308 57.7976 35.3995 57.9911Z" fill="url(#paint0_linear)"/>
<path d="M69.9378 46.5201L68.5348 42.666C68.4388 42.4023 68.2458 42.2022 68.0109 42.0907C68.0088 42.0897 68.0068 42.0885 68.0047 42.0875C67.9894 42.0803 67.9734 42.0747 67.9577 42.0682C67.9429 42.0622 67.9284 42.0554 67.9134 42.0501C67.9099 42.0487 67.906 42.0479 67.9023 42.0468C67.6886 41.9736 67.4495 41.9697 67.2208 42.0531L63.8678 43.2725L56.7351 23.6742C56.7349 23.6737 56.7345 23.6733 56.7344 23.6728L53.9298 15.9663C53.7821 15.563 53.3952 15.2922 52.9659 15.2922C52.847 15.2922 52.728 15.3127 52.6159 15.3537C52.0841 15.5465 51.8093 16.1371 52.002 16.6676L54.4576 23.4121L41.2896 28.2046C41.2895 28.2046 41.2892 28.2046 41.289 28.2048C41.2885 28.2049 41.2883 28.2052 41.2879 28.2052L33.2601 31.1268L27.8821 16.3538L34.9487 13.7821L36.4684 17.9567C36.6147 18.36 37.0016 18.6322 37.4309 18.6322C37.5512 18.6322 37.6688 18.6117 37.7823 18.5692L42.9214 16.6989C43.1784 16.6059 43.3835 16.4172 43.4997 16.1698C43.5855 15.9857 43.6136 15.7852 43.585 15.5893C43.5849 15.5882 43.5849 15.5871 43.5847 15.5861C43.5808 15.5595 43.575 15.5327 43.5689 15.5063C43.5671 15.4988 43.5661 15.4916 43.5644 15.4841C43.556 15.4509 43.5459 15.418 43.534 15.3851L42.0148 11.2105L49.0798 8.63921L50.5993 12.8133C50.747 13.2167 51.1339 13.4887 51.5632 13.4887C51.6821 13.4887 51.8011 13.4682 51.9145 13.4258C52.445 13.2331 52.7198 12.6437 52.527 12.112L50.6567 6.97289C50.5275 6.62002 50.2153 6.36859 49.8515 6.31117C49.7995 6.30297 49.7465 6.29873 49.6929 6.29873C49.5739 6.29873 49.455 6.31924 49.3429 6.36025L40.3545 9.63205C40.353 9.6326 40.3513 9.63274 40.3498 9.63328C40.3471 9.63424 40.3446 9.63561 40.3419 9.63656L35.2198 11.5011C35.2168 11.5022 35.2138 11.5025 35.2108 11.5036C35.2057 11.5055 35.2009 11.508 35.1958 11.5099L26.2177 14.7778C25.9607 14.8708 25.7556 15.0595 25.6394 15.3069C25.5232 15.5558 25.5109 15.8345 25.6052 16.0917L31.6834 32.7925L37.5285 48.853C36.7875 48.6266 36.0095 48.4995 35.2127 48.484L20.4049 7.79921C19.438 5.14292 16.4904 3.76849 13.8338 4.73509C13.8334 4.73522 13.833 4.7355 13.8326 4.73564L0.677163 9.4803C0.677026 9.48043 0.676752 9.48043 0.676479 9.48057C0.675795 9.48084 0.675112 9.48098 0.674291 9.48125C0.650639 9.48987 0.628218 9.50012 0.605659 9.51024C0.597046 9.51406 0.588022 9.51721 0.579546 9.52131C0.557398 9.53184 0.536343 9.54414 0.515289 9.55617C0.506675 9.5611 0.497515 9.56533 0.489039 9.57067C0.468804 9.58297 0.449937 9.59664 0.430797 9.61018C0.42232 9.61619 0.413297 9.62166 0.405094 9.62781C0.387321 9.64135 0.370778 9.65598 0.353961 9.67061C0.345485 9.67813 0.336325 9.68482 0.328122 9.69248C0.312262 9.70697 0.29777 9.72297 0.283005 9.73842C0.274938 9.74703 0.266325 9.75483 0.258532 9.76358C0.244587 9.7793 0.231872 9.79611 0.218884 9.81266C0.211501 9.82195 0.203435 9.83098 0.196462 9.84068C0.184705 9.85682 0.174314 9.87377 0.163513 9.89059C0.156541 9.90152 0.148884 9.91191 0.142322 9.92299C0.132478 9.93967 0.124002 9.95717 0.115115 9.97439C0.108963 9.98629 0.102127 9.99791 0.0963847 10.0101C0.0884551 10.027 0.0820294 10.0445 0.07492 10.0619C0.069588 10.0752 0.0635724 10.0877 0.058924 10.1011C0.0529084 10.1181 0.04826 10.1356 0.0432015 10.1528C0.0389632 10.167 0.0340413 10.1811 0.03035 10.1956C0.0261117 10.2126 0.0232406 10.2301 0.0198227 10.2473C0.0168149 10.2623 0.0131235 10.2774 0.0107993 10.2925C0.00806494 10.31 0.00710791 10.3278 0.00533058 10.3454C0.00382668 10.3608 0.00150248 10.3761 0.000682171 10.3915C-0.000274855 10.4096 0.000408735 10.4276 0.000408735 10.4457C0.000408735 10.4611 -0.000411573 10.4766 0.000272017 10.492C0.00109232 10.5103 0.00368997 10.5288 0.0054673 10.5471C0.0069712 10.5623 0.0077915 10.5776 0.00997899 10.5929C0.0127133 10.6111 0.0170883 10.6293 0.0207797 10.6475C0.0239242 10.6629 0.0262484 10.6785 0.0300765 10.6939C0.0345882 10.7121 0.041014 10.73 0.0466194 10.7481C0.0512678 10.763 0.0549592 10.7782 0.0602912 10.7931C0.0604279 10.7933 0.0605646 10.7937 0.0607014 10.794C0.0608381 10.7947 0.0609748 10.7952 0.0612482 10.7959L1.46411 14.65C1.47464 14.679 1.48913 14.7054 1.50185 14.7329C1.51183 14.7542 1.51989 14.7769 1.53124 14.7973C1.54724 14.8261 1.56651 14.8518 1.58497 14.8787C1.59659 14.8956 1.60643 14.914 1.61901 14.93C1.64102 14.9583 1.66618 14.9835 1.69079 15.0089C1.70227 15.0208 1.71239 15.0343 1.72442 15.0457C1.75218 15.0718 1.78266 15.0945 1.81288 15.1172C1.82382 15.1255 1.83366 15.1352 1.84487 15.1429C1.87755 15.1654 1.91255 15.1844 1.94755 15.2029C1.95794 15.2084 1.96751 15.2155 1.97803 15.2207C2.01385 15.2382 2.05145 15.2517 2.08905 15.2648C2.09999 15.2687 2.11024 15.2741 2.12131 15.2777C2.15987 15.2899 2.19952 15.2976 2.23944 15.3053C2.25038 15.3074 2.26104 15.3112 2.27211 15.3128C2.32325 15.3209 2.37534 15.3249 2.42784 15.3249C2.45682 15.3249 2.48594 15.3235 2.5152 15.3212C2.52121 15.3206 2.52709 15.3194 2.53311 15.3188C2.55635 15.3164 2.57946 15.3138 2.6027 15.3098C2.61336 15.3079 2.62403 15.305 2.63469 15.3028C2.65315 15.299 2.6716 15.2955 2.68992 15.2905C2.70947 15.2855 2.72875 15.2788 2.74817 15.2724C2.75733 15.2695 2.76649 15.267 2.77551 15.2637L2.7766 15.2633C2.77715 15.2632 2.7777 15.2629 2.77824 15.2628C2.77865 15.2626 2.77906 15.2624 2.77947 15.2622L14.9729 10.8643L29.4326 50.5908C26.8533 52.847 25.7791 56.5416 27.0198 59.9501C28.2443 63.3141 31.4712 65.5744 35.0498 65.5744C36.0454 65.5744 37.0284 65.4004 37.9716 65.0571C40.1163 64.2764 41.8286 62.7076 42.7933 60.6391C43.306 59.5394 43.5721 58.369 43.5943 57.1913L69.3247 47.8345C69.3247 47.8345 69.3249 47.8345 69.325 47.8343H69.3252C69.332 47.8319 69.3383 47.8286 69.345 47.826C69.3711 47.8159 69.3969 47.8056 69.4217 47.7936C69.4322 47.7885 69.4419 47.7824 69.4523 47.7769C69.4725 47.7664 69.4928 47.7561 69.512 47.7444C69.523 47.7375 69.5331 47.7296 69.5438 47.7226C69.5613 47.7109 69.5792 47.6995 69.5959 47.687C69.6012 47.6828 69.6058 47.6782 69.611 47.6741C69.6321 47.6573 69.653 47.6405 69.6726 47.6223C69.6758 47.6187 69.6788 47.6153 69.6821 47.6122C69.7028 47.5922 69.723 47.5721 69.742 47.5508C69.7458 47.5465 69.749 47.5418 69.7528 47.5374C69.7706 47.5166 69.7879 47.4955 69.8039 47.4735C69.8057 47.4712 69.8071 47.4686 69.8087 47.4662C69.8261 47.4417 69.8428 47.4168 69.8579 47.391C69.8607 47.3863 69.8629 47.3812 69.8656 47.3765C69.8791 47.3527 69.8921 47.3288 69.9037 47.304C69.9083 47.2943 69.9118 47.284 69.9159 47.2742C69.9247 47.254 69.9336 47.2337 69.9411 47.2129C69.9461 47.1986 69.9498 47.1838 69.9542 47.1693C69.9594 47.1525 69.9653 47.1358 69.9695 47.1187C69.9758 47.0935 69.9804 47.0678 69.9848 47.042C69.9859 47.0352 69.9878 47.0287 69.9888 47.0219C70.0133 46.8584 69.9984 46.6864 69.9378 46.5201ZM40.088 11.9118L41.2563 15.1233L38.0445 16.2923L36.8756 13.0809L40.088 11.9118ZM46.1665 28.6125L47.3356 31.8237L44.1228 32.9929L42.9542 29.7815L46.1665 28.6125ZM33.962 33.054L41.0274 30.4828L42.5472 34.6573C42.6935 35.0606 43.0804 35.3326 43.511 35.3326C43.63 35.3326 43.7476 35.3108 43.861 35.2697L49.0001 33.3994C49.532 33.2066 49.8068 32.6173 49.6126 32.0855L48.093 27.9112L55.1595 25.3394L61.9414 43.9723L41.4831 51.4121C41.0989 50.9734 40.673 50.575 40.2109 50.2246L33.962 33.054ZM16.5507 9.2018C16.5446 9.18539 16.5371 9.16995 16.5304 9.15381C16.5237 9.13809 16.5177 9.12182 16.5103 9.10637C16.5036 9.09229 16.4957 9.07944 16.4885 9.0659C16.4794 9.04909 16.4708 9.03186 16.461 9.01573C16.4541 9.00465 16.4463 8.99454 16.4391 8.98374C16.4275 8.96624 16.4163 8.94846 16.4036 8.93192C16.397 8.92317 16.3895 8.91538 16.3826 8.90676C16.3684 8.88913 16.3543 8.87149 16.3389 8.85495C16.3327 8.84825 16.3258 8.84223 16.3193 8.83567C16.3024 8.81844 16.2856 8.80122 16.2675 8.78522C16.2623 8.78071 16.2567 8.77674 16.2515 8.77237C16.2316 8.75528 16.2113 8.73846 16.1901 8.72315C16.1871 8.72096 16.1838 8.71932 16.1808 8.717C16.1571 8.70005 16.1327 8.68391 16.1076 8.66901C16.1056 8.66792 16.1036 8.66696 16.1017 8.666C15.9617 8.58466 15.8031 8.53667 15.639 8.52805C15.6375 8.52805 15.6362 8.52819 15.6347 8.52805C15.6029 8.52655 15.5711 8.52641 15.5389 8.52792C15.5331 8.52819 15.5272 8.52928 15.5213 8.5297C15.4937 8.53147 15.4661 8.53366 15.4385 8.53776C15.4252 8.53981 15.4121 8.54309 15.3988 8.54569C15.3786 8.54938 15.3582 8.5528 15.338 8.55786C15.315 8.5636 15.2922 8.57139 15.2693 8.57864C15.2592 8.58192 15.249 8.58438 15.2389 8.58794L15.2375 8.58848C15.2371 8.58862 15.2365 8.58876 15.236 8.58889C15.2356 8.58903 15.2352 8.5893 15.2348 8.58944L3.04129 12.9874L2.33979 11.0602L14.5317 6.66281C14.532 6.66267 14.5322 6.66254 14.5324 6.66254C14.5331 6.66226 14.5338 6.66213 14.5346 6.66185C16.1288 6.08176 17.8972 6.90644 18.4773 8.50044L33.1108 48.706C32.7785 48.7837 32.4497 48.8801 32.1258 48.9981C31.7995 49.1169 31.4864 49.2556 31.184 49.4088L16.5507 9.2018ZM40.9343 59.772C40.2012 61.3441 38.8999 62.5366 37.27 63.1298C36.5522 63.3911 35.8051 63.5235 35.0496 63.5235C32.3298 63.5235 29.8772 61.8055 28.9467 59.2485C27.722 55.8839 29.4631 52.15 32.8279 50.9251C33.5457 50.6638 34.2927 50.5314 35.0483 50.5314C37.7679 50.5314 40.2206 52.2494 41.1511 54.8065C41.7445 56.4365 41.6675 58.2 40.9343 59.772ZM43.3698 55.0905C43.2919 54.7591 43.1964 54.4301 43.0782 54.1053C42.9601 53.7806 42.8227 53.4664 42.6687 53.1632L66.9583 44.3304L67.6598 46.2576L43.3698 55.0905Z" fill="url(#paint1_linear)"/>
</g>
<defs>
<linearGradient id="paint0_linear" x1="35.0488" y1="53.9509" x2="35.0488" y2="60.1041" gradientUnits="userSpaceOnUse">
<stop stop-color="#7B5F54"/>
<stop offset="1" stop-color="#5B433F"/>
</linearGradient>
<linearGradient id="paint1_linear" x1="35" y1="4.42572" x2="35" y2="65.5744" gradientUnits="userSpaceOnUse">
<stop stop-color="#7B5F54"/>
<stop offset="1" stop-color="#5B433F"/>
</linearGradient>
<clipPath id="clip0">
</clipPath>
</defs>
</svg>
