<svg width="37" height="47" viewBox="0 0 37 47" fill="none" xmlns="http://www.w3.org/2000/svg">
<path d="M0.469727 5.48046V46.1933C0.469727 46.6258 0.820282 46.9763 1.25275 46.9763H31.0045C31.4367 46.9763 31.7872 46.6258 31.7872 46.1933V13.3101C31.7872 13.2927 31.7788 13.2778 31.7772 13.2607C31.7733 13.192 31.7598 13.1243 31.7372 13.0595C31.7285 13.0343 31.7224 13.0102 31.7114 12.9856C31.6734 12.9005 31.6205 12.8228 31.5547 12.7563L23.7254 4.92705C23.659 4.86094 23.5809 4.80805 23.4951 4.77032C23.4716 4.76032 23.4477 4.75193 23.4232 4.74452C23.3578 4.72194 23.2897 4.7084 23.2204 4.70388C23.2071 4.70614 23.1917 4.69775 23.1752 4.69775H1.25275C0.820282 4.69775 0.469727 5.04799 0.469727 5.48046ZM29.1143 12.527H23.9579V7.37062L29.1143 12.527ZM2.03546 6.26348H22.3922V13.3101C22.3922 13.7422 22.7427 14.0928 23.1749 14.0928H30.2215V45.4106H2.03546V6.26348Z" fill="black"/>
<path d="M0.469727 5.48046V46.1933C0.469727 46.6258 0.820282 46.9763 1.25275 46.9763H31.0045C31.4367 46.9763 31.7872 46.6258 31.7872 46.1933V13.3101C31.7872 13.2927 31.7788 13.2778 31.7772 13.2607C31.7733 13.192 31.7598 13.1243 31.7372 13.0595C31.7285 13.0343 31.7224 13.0102 31.7114 12.9856C31.6734 12.9005 31.6205 12.8228 31.5547 12.7563L23.7254 4.92705C23.659 4.86094 23.5809 4.80805 23.4951 4.77032C23.4716 4.76032 23.4477 4.75193 23.4232 4.74452C23.3578 4.72194 23.2897 4.7084 23.2204 4.70388C23.2071 4.70614 23.1917 4.69775 23.1752 4.69775H1.25275C0.820282 4.69775 0.469727 5.04799 0.469727 5.48046ZM29.1143 12.527H23.9579V7.37062L29.1143 12.527ZM2.03546 6.26348H22.3922V13.3101C22.3922 13.7422 22.7427 14.0928 23.1749 14.0928H30.2215V45.4106H2.03546V6.26348Z" fill="url(#paint0_linear)"/>
<path d="M33.353 40.7128V42.2786H35.7018C36.1342 42.2786 36.4848 41.9283 36.4848 41.4958V0.783026C36.4848 0.350556 36.1342 0 35.7018 0H5.95002C5.51755 0 5.16699 0.350556 5.16699 0.783026V3.13178H6.73304V1.56573H34.9187V40.7128H33.353Z" fill="black"/>
<path d="M33.353 40.7128V42.2786H35.7018C36.1342 42.2786 36.4848 41.9283 36.4848 41.4958V0.783026C36.4848 0.350556 36.1342 0 35.7018 0H5.95002C5.51755 0 5.16699 0.350556 5.16699 0.783026V3.13178H6.73304V1.56573H34.9187V40.7128H33.353Z" fill="url(#paint1_linear)"/>
<path d="M6.7334 15.6587H25.5238V17.2244H6.7334V15.6587Z" fill="black"/>
<path d="M6.7334 15.6587H25.5238V17.2244H6.7334V15.6587Z" fill="url(#paint2_linear)"/>
<path d="M6.7334 10.9614H12.997V12.5275H6.7334V10.9614Z" fill="black"/>
<path d="M6.7334 10.9614H12.997V12.5275H6.7334V10.9614Z" fill="url(#paint3_linear)"/>
<path d="M6.7334 20.3564H19.2605V21.9225H6.7334V20.3564Z" fill="black"/>
<path d="M6.7334 20.3564H19.2605V21.9225H6.7334V20.3564Z" fill="url(#paint4_linear)"/>
<path d="M20.8262 20.3564H25.5237V21.9225H20.8262V20.3564Z" fill="black"/>
<path d="M20.8262 20.3564H25.5237V21.9225H20.8262V20.3564Z" fill="url(#paint5_linear)"/>
<path d="M6.7334 25.0537H25.5238V26.6198H6.7334V25.0537Z" fill="black"/>
<path d="M6.7334 25.0537H25.5238V26.6198H6.7334V25.0537Z" fill="url(#paint6_linear)"/>
<path d="M6.7334 34.4492H25.5238V36.0153H6.7334V34.4492Z" fill="black"/>
<path d="M6.7334 34.4492H25.5238V36.0153H6.7334V34.4492Z" fill="url(#paint7_linear)"/>
<path d="M13.7803 29.752H25.5243V31.3177H13.7803V29.752Z" fill="black"/>
<path d="M13.7803 29.752H25.5243V31.3177H13.7803V29.752Z" fill="url(#paint8_linear)"/>
<path d="M6.7334 29.752H12.2139V31.3177H6.7334V29.752Z" fill="black"/>
<path d="M6.7334 29.752H12.2139V31.3177H6.7334V29.752Z" fill="url(#paint9_linear)"/>
<path d="M6.7334 39.147H9.86518V40.7127H6.7334V39.147Z" fill="black"/>
<path d="M6.7334 39.147H9.86518V40.7127H6.7334V39.147Z" fill="url(#paint10_linear)"/>
<path d="M11.4307 39.147H25.5235V40.7127H11.4307V39.147Z" fill="black"/>
<path d="M11.4307 39.147H25.5235V40.7127H11.4307V39.147Z" fill="url(#paint11_linear)"/>
<defs>
<linearGradient id="paint0_linear" x1="16.1285" y1="4.69775" x2="16.1285" y2="46.9763" gradientUnits="userSpaceOnUse">
<stop stop-color="#7B5F54"/>
<stop offset="1" stop-color="#5B433F"/>
</linearGradient>
<linearGradient id="paint1_linear" x1="20.8259" y1="0" x2="20.8259" y2="42.2786" gradientUnits="userSpaceOnUse">
<stop stop-color="#7B5F54"/>
<stop offset="1" stop-color="#5B433F"/>
</linearGradient>
<linearGradient id="paint2_linear" x1="16.1286" y1="15.6587" x2="16.1286" y2="17.2244" gradientUnits="userSpaceOnUse">
<stop stop-color="#7B5F54"/>
<stop offset="1" stop-color="#5B433F"/>
</linearGradient>
<linearGradient id="paint3_linear" x1="9.86518" y1="10.9614" x2="9.86518" y2="12.5275" gradientUnits="userSpaceOnUse">
<stop stop-color="#7B5F54"/>
<stop offset="1" stop-color="#5B433F"/>
</linearGradient>
<linearGradient id="paint4_linear" x1="12.997" y1="20.3564" x2="12.997" y2="21.9225" gradientUnits="userSpaceOnUse">
<stop stop-color="#7B5F54"/>
<stop offset="1" stop-color="#5B433F"/>
</linearGradient>
<linearGradient id="paint5_linear" x1="23.1749" y1="20.3564" x2="23.1749" y2="21.9225" gradientUnits="userSpaceOnUse">
<stop stop-color="#7B5F54"/>
<stop offset="1" stop-color="#5B433F"/>
</linearGradient>
<linearGradient id="paint6_linear" x1="16.1286" y1="25.0537" x2="16.1286" y2="26.6198" gradientUnits="userSpaceOnUse">
<stop stop-color="#7B5F54"/>
<stop offset="1" stop-color="#5B433F"/>
</linearGradient>
<linearGradient id="paint7_linear" x1="16.1286" y1="34.4492" x2="16.1286" y2="36.0153" gradientUnits="userSpaceOnUse">
<stop stop-color="#7B5F54"/>
<stop offset="1" stop-color="#5B433F"/>
</linearGradient>
<linearGradient id="paint8_linear" x1="19.6523" y1="29.752" x2="19.6523" y2="31.3177" gradientUnits="userSpaceOnUse">
<stop stop-color="#7B5F54"/>
<stop offset="1" stop-color="#5B433F"/>
</linearGradient>
<linearGradient id="paint9_linear" x1="9.47366" y1="29.752" x2="9.47366" y2="31.3177" gradientUnits="userSpaceOnUse">
<stop stop-color="#7B5F54"/>
<stop offset="1" stop-color="#5B433F"/>
</linearGradient>
<linearGradient id="paint10_linear" x1="8.29929" y1="39.147" x2="8.29929" y2="40.7127" gradientUnits="userSpaceOnUse">
<stop stop-color="#7B5F54"/>
<stop offset="1" stop-color="#5B433F"/>
</linearGradient>
<linearGradient id="paint11_linear" x1="18.4771" y1="39.147" x2="18.4771" y2="40.7127" gradientUnits="userSpaceOnUse">
<stop stop-color="#7B5F54"/>
<stop offset="1" stop-color="#5B433F"/>
</linearGradient>
</defs>
</svg>
