<svg width="101" height="35" viewBox="0 0 101 35" fill="none" xmlns="http://www.w3.org/2000/svg">
<path d="M41.7051 15.5845V7.88037H44.9071C47.2776 7.88037 49.0243 9.31167 49.0243 11.7114C49.0243 14.111 47.3192 15.5424 44.9488 15.5424H41.7051V15.5845ZM47.0281 11.7535C47.0281 10.5747 46.3212 9.64847 44.9488 9.64847H43.7012V13.8584H44.9488C46.238 13.8584 47.0281 12.8901 47.0281 11.7535Z" fill="#3E4148"/>
<path d="M49.7727 11.7537C49.7727 9.39609 51.5194 7.79639 53.8483 7.79639C56.177 7.79639 57.8821 9.43819 57.8821 11.7537C57.8821 14.0691 56.1355 15.711 53.8483 15.711C51.4778 15.711 49.7727 14.0691 49.7727 11.7537ZM55.8859 11.7537C55.8859 10.4907 55.0958 9.52239 53.8483 9.52239C52.6007 9.52239 51.7689 10.4907 51.7689 11.7537C51.7689 13.0166 52.559 13.9849 53.8483 13.9849C55.0542 13.9849 55.8859 12.9745 55.8859 11.7537Z" fill="#3E4148"/>
<path d="M63.2884 15.5845L61.9993 13.0164H61.0012V15.5845H59.0466V7.88037H62.831C64.4945 7.88037 65.451 9.01697 65.451 10.4484C65.451 11.7956 64.6608 12.5112 63.9538 12.7638L65.4925 15.5845H63.2884ZM63.4964 10.4484C63.4964 9.94317 63.0805 9.64847 62.5399 9.64847H61.0012V11.2904H62.5399C63.0389 11.2904 63.4964 10.9957 63.4964 10.4484Z" fill="#3E4148"/>
<path d="M66.241 11.7537C66.241 9.39609 67.9876 7.79639 70.3164 7.79639C72.6453 7.79639 74.3503 9.43819 74.3503 11.7537C74.3503 14.0691 72.6036 15.711 70.3164 15.711C67.9876 15.711 66.241 14.0691 66.241 11.7537ZM72.3958 11.7537C72.3958 10.4907 71.6056 9.52239 70.358 9.52239C69.1104 9.52239 68.2786 10.4907 68.2786 11.7537C68.2786 13.0166 69.0688 13.9849 70.358 13.9849C71.564 13.9849 72.3958 12.9745 72.3958 11.7537Z" fill="#3E4148"/>
<path d="M80.6293 15.5845V12.5112H77.4692V15.5845H75.5146V7.88037H77.4692V10.7852H80.6293V7.92247H82.5843V15.5845H80.6293Z" fill="#3E4148"/>
<path d="M83.7493 11.7537C83.7493 9.39609 85.4954 7.79639 87.824 7.79639C90.1536 7.79639 91.8588 9.43819 91.8588 11.7537C91.8588 14.0691 90.1116 15.711 87.824 15.711C85.4954 15.711 83.7493 14.0691 83.7493 11.7537ZM89.8619 11.7537C89.8619 10.4907 89.0717 9.52239 87.7831 9.52239C86.5354 9.52239 85.7032 10.4907 85.7032 11.7537C85.7032 13.0166 86.4934 13.9849 87.7831 13.9849C89.0717 13.9849 89.8619 12.9745 89.8619 11.7537Z" fill="#3E4148"/>
<path d="M94.7697 15.5845L91.8997 7.88037H94.1044L95.9754 13.4374L97.8465 7.88037H100.051L97.1812 15.5424H94.7697V15.5845Z" fill="#3E4148"/>
<path d="M41.7051 27.078V19.416H44.9071C47.2776 19.416 49.0243 20.8474 49.0243 23.247C49.0243 25.6466 47.3192 27.078 44.9488 27.078H41.7051ZM47.0281 23.247C47.0281 22.0682 46.3212 21.1421 44.9488 21.1421H43.7012V25.3519H44.9488C46.238 25.3519 47.0281 24.3837 47.0281 23.247Z" fill="#3E4148"/>
<path d="M50.1887 27.078V19.416H55.7198V21.1421H52.1017V22.3208H55.6365V24.0469H52.1017V25.3519H55.7198V27.078H50.1887Z" fill="#3E4148"/>
<path d="M56.5928 26.0253L57.6324 24.5518C58.173 25.0991 59.0048 25.5622 60.0445 25.5622C60.7098 25.5622 61.1256 25.3096 61.1256 24.9307C61.1256 23.8782 56.8423 24.7202 56.8423 21.7733C56.8423 20.4682 57.9235 19.3315 59.878 19.3315C61.0841 19.3315 62.1654 19.7104 62.9554 20.384L61.8743 21.8154C61.2504 21.2681 60.4187 21.0155 59.6702 21.0155C59.088 21.0155 58.8384 21.226 58.8384 21.5628C58.8384 22.5311 63.1219 21.8154 63.1219 24.6781C63.1219 26.2357 61.999 27.2461 59.9613 27.2461C58.4226 27.2461 57.3413 26.7409 56.5928 26.0253Z" fill="#3E4148"/>
<path d="M64.2449 27.078V19.416H66.1994V27.078H64.2449Z" fill="#3E4148"/>
<path d="M67.3638 23.2467C67.3638 20.805 69.1936 19.2896 71.4809 19.2896C73.1859 19.2896 74.184 20.2156 74.7246 21.1418L73.1027 21.9837C72.8116 21.4785 72.2294 21.0154 71.4809 21.0154C70.2333 21.0154 69.3599 21.9839 69.3599 23.2467C69.3599 24.5097 70.2333 25.4781 71.4809 25.4781C72.0214 25.4781 72.6037 25.2675 72.8948 25.0149V24.4254H71.1897V22.6996H74.8494V25.7728C74.0176 26.699 72.9364 27.2882 71.4809 27.2882C69.2351 27.2462 67.3638 25.6885 67.3638 23.2467Z" fill="#3E4148"/>
<path d="M81.3788 27.078L78.1765 22.6576V27.1201H76.2219V19.416H78.218L81.2958 23.6259V19.416H83.2498V27.078H81.3788Z" fill="#3E4148"/>
<path d="M13.8837 0.89209H0.908691V34.0239H13.9668C24.9457 34.0239 32.0154 27.4986 32.0154 17.4369C31.9737 7.37529 24.9041 0.89209 13.8837 0.89209ZM13.5509 27.3723H7.77044V8.00679H13.6341C20.4128 8.00679 25.1535 10.7011 25.1535 17.479C25.1535 22.9098 20.8285 27.3723 13.5509 27.3723Z" fill="#3E4148"/>
<path d="M14.8819 13.522H13.3848V21.3945H14.8819C17.8345 21.3945 19.5811 19.5842 19.5811 17.353C19.5396 14.6165 17.6265 13.522 14.8819 13.522Z" fill="#3E4148"/>
</svg>
