<svg width="38" height="34" viewBox="0 0 38 34" fill="none" xmlns="http://www.w3.org/2000/svg">
<path d="M32.2848 11.1062C31.9504 5.4062 27.2517 0.85 21.5865 0.85C18.1475 0.85 14.8175 2.53657 12.7547 5.2884C12.7072 5.2637 12.6572 5.2466 12.609 5.2238C12.4836 5.163 12.3563 5.10537 12.2265 5.05343C12.1543 5.02493 12.0821 4.99897 12.0093 4.97363C11.8807 4.92867 11.7502 4.88877 11.6172 4.85267C11.5444 4.83303 11.4722 4.81277 11.3987 4.7963C11.2562 4.764 11.1106 4.7393 10.9636 4.71713C10.8997 4.70763 10.837 4.69497 10.7724 4.688C10.5621 4.66457 10.3493 4.65 10.1333 4.65C6.9901 4.65 4.43333 7.20677 4.43333 10.35C4.43333 10.4317 4.4384 10.5115 4.4441 10.5913C1.80943 12.0271 0 15.036 0 18.0475C0 22.5334 3.64927 26.1833 8.13517 26.1833H11.4C11.7502 26.1833 12.0333 25.9002 12.0333 25.55C12.0333 25.1998 11.7502 24.9167 11.4 24.9167H8.13517C4.34783 24.9167 1.26667 21.8355 1.26667 18.0475C1.26667 15.4167 2.97983 12.6857 5.3409 11.554L5.7 11.3823V10.9833C5.7 10.9073 5.70507 10.8301 5.7095 10.7522L5.71647 10.635L5.70823 10.5121C5.70443 10.4583 5.7 10.4045 5.7 10.35C5.7 7.90597 7.6893 5.91667 10.1333 5.91667C10.329 5.91667 10.5222 5.93377 10.7141 5.9591C10.7635 5.96543 10.8129 5.97367 10.8617 5.9819C11.0308 6.00977 11.1973 6.0465 11.3614 6.094C11.3835 6.10033 11.4063 6.10477 11.4285 6.1111C11.609 6.1662 11.7851 6.23587 11.9573 6.3144C12.0023 6.33467 12.046 6.35683 12.0903 6.37837C12.2423 6.45373 12.3912 6.53607 12.5349 6.62917C13.7554 7.41957 14.5667 8.79073 14.5667 10.35C14.5667 10.7002 14.8498 10.9833 15.2 10.9833C15.5502 10.9833 15.8333 10.7002 15.8333 10.35C15.8333 8.6058 15.0442 7.04463 13.8067 5.99837C15.6224 3.62337 18.6124 2.11667 21.5865 2.11667C26.4917 2.11667 30.5659 6.00217 30.9909 10.9124C30.3443 10.8668 29.3746 10.8434 28.405 10.9909C28.0592 11.0435 27.8217 11.3665 27.8743 11.7123C27.9218 12.0258 28.1916 12.2506 28.4994 12.2506C28.531 12.2506 28.5633 12.2481 28.595 12.243C30.0054 12.0296 31.4754 12.2297 31.5615 12.2418C34.5103 12.8023 36.7333 15.5186 36.7333 18.5656C36.7333 22.0673 33.884 24.9167 30.3823 24.9167H27.8667C27.5164 24.9167 27.2333 25.1998 27.2333 25.55C27.2333 25.9002 27.5164 26.1833 27.8667 26.1833H30.3823C34.5825 26.1833 38 22.7659 38 18.5656C38 15.0892 35.5762 11.9713 32.2848 11.1062Z" fill="url(#paint0_linear)"/>
<path d="M24.2522 27.0022L20.2666 30.9878V17.95C20.2666 17.5998 19.9835 17.3167 19.6333 17.3167C19.283 17.3167 18.9999 17.5998 18.9999 17.95V30.9878L15.0144 27.0022C14.7667 26.7546 14.3665 26.7546 14.1188 27.0022C13.8712 27.2499 13.8712 27.6501 14.1188 27.8978L19.1849 32.9638C19.2431 33.0227 19.3134 33.0689 19.3913 33.1012C19.4686 33.1335 19.5509 33.15 19.6333 33.15C19.7156 33.15 19.7979 33.1335 19.8752 33.1012C19.9531 33.0689 20.0234 33.0227 20.0817 32.9638L25.1477 27.8978C25.3953 27.6501 25.3953 27.2499 25.1477 27.0022C24.9001 26.7546 24.4998 26.7546 24.2522 27.0022Z" fill="url(#paint1_linear)"/>
<defs>
<linearGradient id="paint0_linear" x1="19" y1="0.85" x2="19" y2="26.1833" gradientUnits="userSpaceOnUse">
<stop stop-color="#7B5F54"/>
<stop offset="1" stop-color="#5B433F"/>
</linearGradient>
<linearGradient id="paint1_linear" x1="19.6333" y1="17.3167" x2="19.6333" y2="33.15" gradientUnits="userSpaceOnUse">
<stop stop-color="#7B5F54"/>
<stop offset="1" stop-color="#5B433F"/>
</linearGradient>
</defs>
</svg>
