<svg width="119" height="28" viewBox="0 0 119 28" fill="none" xmlns="http://www.w3.org/2000/svg">
<path d="M67.2423 13.504C66.5335 12.7932 65.6919 12.2158 64.7174 11.816C63.7428 11.4162 62.6797 11.1941 61.5723 11.1941C60.4649 11.1941 59.4017 11.4162 58.4272 11.816C57.4527 12.2158 56.6111 12.7932 55.9023 13.504C55.1936 14.2147 54.6177 15.0587 54.219 16.0359C53.8204 16.9687 53.5989 18.0348 53.5989 19.1009C53.5989 20.2114 53.8204 21.2331 54.219 22.2103C54.6177 23.1876 55.1936 24.0316 55.9023 24.7423C56.6111 25.453 57.4527 26.0305 58.4272 26.4303C59.4017 26.8301 60.4649 27.0522 61.5723 27.0522C62.6797 27.0522 63.7428 26.8301 64.7174 26.4303C65.6919 26.0305 66.5335 25.453 67.2423 24.7423C67.951 24.0316 68.5269 23.1876 68.9255 22.2103C69.3242 21.2331 69.5457 20.2114 69.5457 19.1009C69.5457 17.9904 69.3242 16.9687 68.9255 16.0359C68.5269 15.0587 67.951 14.2147 67.2423 13.504ZM65.7362 21.0554C65.5147 21.6329 65.2489 22.1215 64.8502 22.5657C64.4516 22.9655 64.0086 23.3208 63.4327 23.5429C62.9012 23.765 62.2367 23.8983 61.5723 23.8983C60.8635 23.8983 60.2434 23.765 59.7118 23.5429C59.1803 23.3208 58.693 22.9655 58.2943 22.5657C57.8957 22.1659 57.6299 21.6773 57.4084 21.0554C57.1869 20.4779 57.0983 19.8116 57.0983 19.1009C57.0983 18.3902 57.1869 17.7683 57.4084 17.1464C57.6299 16.569 57.8957 16.0803 58.2943 15.6361C58.693 15.2363 59.136 14.9254 59.7118 14.6589C60.2434 14.4368 60.9078 14.3035 61.5723 14.3035C62.281 14.3035 62.9012 14.4368 63.4327 14.6589C63.9643 14.881 64.4516 15.2363 64.8502 15.6361C65.2489 16.0359 65.5147 16.5245 65.7362 17.1464C65.9577 17.7239 66.0463 18.3902 66.0463 19.1009C66.0463 19.8116 65.9134 20.4335 65.7362 21.0554Z" fill="white"/>
<path d="M46.3786 11.6825C44.1638 10.7496 41.6389 11.1494 39.867 12.5709V6.21875H36.3232V26.6521H39.867V18.612C39.867 17.1017 40.2657 14.5254 43.1892 14.5254C45.8913 14.5254 46.5115 16.7464 46.5115 18.612V26.6521H50.0552V17.5015C50.0552 15.1028 48.682 12.6597 46.3786 11.6825Z" fill="white"/>
<path d="M90.3652 23.987V26.6522H103.211V23.5428H94.8392L102.768 14.3922V11.5493H90.8082V14.6587H98.4715L90.3652 23.7649" fill="white"/>
<path d="M105.869 23.987V26.6522H118.715V23.5428H110.343L118.272 14.3922V11.5493H106.312V14.6587H113.976L105.869 23.7649" fill="white"/>
<path d="M83.2781 11.5493V19.8115C83.2781 20.2557 83.2338 20.7443 83.1009 21.1885C82.968 21.6327 82.7908 22.0769 82.5251 22.4767C82.2593 22.8765 81.9492 23.1874 81.5062 23.4096C81.1076 23.6317 80.576 23.7649 79.9558 23.7649C79.3357 23.7649 78.8041 23.6317 78.4055 23.4096C78.0068 23.1874 77.6524 22.8321 77.3866 22.4767C77.1208 22.0769 76.9437 21.6327 76.8108 21.1885C76.6779 20.6999 76.6336 20.2113 76.6336 19.8115V11.5493H73.0898V20.1224C73.0898 23.3207 74.463 25.4529 77.2537 26.519C78.0954 26.8299 78.9813 27.0076 79.9558 27.0076C80.9304 27.0076 81.8163 26.8299 82.6579 26.519C86.0688 25.1864 86.8218 22.299 86.8218 20.1224V11.5493H83.2781Z" fill="white"/>
<path d="M15.0609 26.6522H23.9202V11.3272L6.20154 6.21885V0H0V26.6522H8.85935V17.7681H15.0609V26.6522Z" fill="white"/>
</svg>
