<svg width="51" height="22" viewBox="0 0 51 22" fill="none" xmlns="http://www.w3.org/2000/svg">
<path d="M49.8409 0.526855C47.7335 0.526855 46.0777 2.18269 46.0777 4.29011V7.67703C45.1745 7.30071 44.196 7.07491 43.2176 7.07491C41.9381 7.07491 40.7338 7.45124 39.6801 8.05336C39.5296 8.12862 39.3791 8.20388 39.2285 8.35441C37.4974 9.55865 36.2932 11.6661 36.2932 13.9993C36.2932 15.5799 36.8201 17.0852 37.7985 18.2141C37.8738 18.3647 37.949 18.4399 38.0996 18.5905C39.3791 20.0205 41.1854 20.9237 43.2176 20.9237C46.9809 20.9237 50.142 17.8378 50.142 13.9993V0.602114H49.8409V0.526855ZM43.2176 16.7841C41.637 16.7841 40.3575 15.5046 40.3575 13.924C40.3575 12.3435 41.637 11.064 43.2176 11.064C44.7982 11.064 46.0777 12.3435 46.0777 13.924C46.0777 15.5046 44.7982 16.7841 43.2176 16.7841Z" fill="black"/>
<path d="M39.2283 7.75236V0.45166H39.0025C36.8951 0.45166 35.2393 2.10749 35.2393 4.21491V7.60184C34.3361 7.22551 33.3577 6.99971 32.3792 6.99971C31.0997 6.99971 29.8955 7.37604 28.8418 7.97816C28.6912 8.05343 28.5407 8.12869 28.3902 8.27922C26.5838 9.48346 25.4548 11.5909 25.4548 13.9241C25.4548 15.5047 25.9817 17.01 26.9601 18.1389C27.0354 18.2895 27.1107 18.3647 27.2612 18.5153C28.5407 19.9453 30.3471 20.8485 32.3792 20.8485C34.4114 20.8485 36.293 19.9453 37.4972 18.5153C36.5188 17.2358 35.9167 15.6552 35.9167 13.9241C35.8414 11.3651 37.1962 9.10713 39.2283 7.75236ZM32.3792 16.4078C31.0245 16.4078 29.8955 15.2789 29.8955 13.9241C29.8955 12.5693 31.0245 11.5156 32.3792 11.5156C33.734 11.5156 34.7877 12.6446 34.7877 13.9241C34.7877 15.2036 33.6587 16.4078 32.3792 16.4078Z" fill="black"/>
<path d="M28.3902 7.75236V0.45166H28.1644C26.057 0.45166 24.4012 2.10749 24.4012 4.21491V7.60184C23.498 7.22551 22.5195 6.99971 21.5411 6.99971C18.2294 6.99971 15.4446 9.4082 14.7672 12.5693C14.692 13.0209 14.6167 13.4725 14.6167 13.9241C14.6167 15.1283 14.9177 16.3326 15.5199 17.311C16.7241 19.4184 18.9068 20.7732 21.5411 20.7732C23.5732 20.7732 25.4549 19.87 26.6591 18.44C25.6807 17.1605 25.0785 15.5799 25.0785 13.8488C25.0033 11.3651 26.358 9.10713 28.3902 7.75236ZM21.4658 16.7842C19.8853 16.7842 18.6057 15.5047 18.6057 13.9241C18.6057 12.3435 19.8853 11.064 21.4658 11.064C23.0464 11.064 24.3259 12.3435 24.3259 13.9241C24.3259 15.5047 23.0464 16.7842 21.4658 16.7842Z" fill="black"/>
<path d="M14.391 12.0424C13.7888 11.1392 13.1867 10.6124 13.1867 10.6124C13.1867 10.6124 15.6705 8.35442 15.6705 5.34381C15.6705 2.33321 13.1867 0 7.84291 0C2.4991 0 0.0153565 3.01059 0.0153565 3.01059C-0.135174 4.66643 0.843253 5.34381 1.97223 5.64487C3.02594 5.94593 4.15493 5.72014 5.20864 5.26855C6.86447 4.44063 10.1009 3.23639 10.5525 5.34381C11.0793 7.67703 7.54184 8.35442 6.1118 8.58021C5.81074 8.65548 5.58496 8.88128 5.58496 9.18234V12.0424C5.58496 12.4187 5.81075 12.6445 6.18707 12.7198C7.61711 12.9456 11.0793 13.623 10.5525 15.9562C10.1009 18.0636 6.86447 16.8594 5.20864 16.0314C4.23019 15.5799 3.1012 15.3541 1.97223 15.6551C0.918518 15.9562 -0.135174 16.6336 0.0153565 18.2894C0.0153565 18.2894 2.4991 21.3 7.84291 21.3C11.9072 21.3 14.391 19.9452 15.2941 17.9131C14.5415 16.7841 14.1652 15.4293 14.1652 13.9993C14.1652 13.2466 14.2404 12.6445 14.391 12.0424Z" fill="black"/>
</svg>
