<svg width="16" height="20" viewBox="0 0 16 20" fill="none" xmlns="http://www.w3.org/2000/svg">
<path d="M11.0975 13.921C13.6277 12.8934 15.2676 10.4179 15.2269 7.68725C15.2269 3.93426 11.9845 0.881042 7.99908 0.881042C4.01365 0.881042 0.771247 3.93426 0.771247 7.68725C0.73059 10.4179 2.3704 12.8934 4.90069 13.921L4.9567 13.9514L5.33936 14.5792C4.65621 14.9746 4.42299 15.849 4.81835 16.5321C4.87033 16.6219 4.93195 16.7058 5.00212 16.7823C4.46641 17.3695 4.50816 18.2798 5.09536 18.8156C5.36212 19.0589 5.71063 19.1931 6.07166 19.1915H9.9265C10.7214 19.195 11.3686 18.5534 11.3721 17.7586C11.3736 17.3975 11.2394 17.049 10.9961 16.7823C11.5297 16.2006 11.4907 15.2965 10.909 14.763C10.8325 14.6928 10.7487 14.6312 10.6588 14.5792L11.0415 13.9514L11.0975 13.921ZM9.92644 18.2278H6.07159C5.80549 18.2278 5.58974 18.0121 5.58974 17.746C5.58974 17.4799 5.80549 17.2641 6.07159 17.2641H9.92644C10.1925 17.2641 10.4083 17.4799 10.4083 17.746C10.4083 18.0121 10.1925 18.2278 9.92644 18.2278ZM9.92644 16.3004H6.07159C5.80549 16.3004 5.58974 16.0847 5.58974 15.8186C5.58974 15.5524 5.80549 15.3367 6.07159 15.3367H9.92644C10.1925 15.3367 10.4083 15.5524 10.4083 15.8186C10.4083 16.0847 10.1925 16.3004 9.92644 16.3004ZM10.6601 13.0618L10.4674 13.1665C10.3928 13.2071 10.3302 13.2667 10.286 13.3392L9.65588 14.373H9.44458V10.7176L11.7127 8.44954L11.0313 7.76814L8.62206 10.1774C8.53171 10.2678 8.48093 10.3903 8.48087 10.5181V14.3729H7.51716V10.5181C7.5171 10.3903 7.46633 10.2678 7.37598 10.1774L4.9667 7.76814L4.28536 8.44948L6.55345 10.7176V14.3729H6.34216L5.71207 13.3391C5.6678 13.2666 5.60522 13.2071 5.53065 13.1664L5.33797 13.0617C5.32249 13.0535 5.30665 13.046 5.29045 13.0394C3.11192 12.163 1.6984 10.0351 1.7349 7.68725C1.7349 4.4658 4.54484 1.84475 7.99902 1.84475C11.4532 1.84475 14.2631 4.4658 14.2631 7.68725C14.2996 10.0351 12.8861 12.163 10.7076 13.0394C10.6914 13.0461 10.6755 13.0535 10.6601 13.0618Z" fill="white"/>
</svg>
