<svg width="163" height="109" viewBox="0 0 163 109" fill="none" xmlns="http://www.w3.org/2000/svg">
<path d="M4.64538 93.6454C4.64538 94.2292 4.17496 94.6963 3.58694 94.6963C2.99892 94.6963 2.5285 94.2292 2.5285 93.6454C2.5285 93.0616 2.99892 92.5945 3.58694 92.5945C4.17496 92.5945 4.64538 93.0616 4.64538 93.6454ZM62.9185 104.037C60.6252 103.512 58.3319 101.352 56.3914 100.243C54.2157 99.0166 50.3348 97.9073 47.6299 98.8415C48.1591 99.5421 48.2767 100.535 47.8063 101.585C47.3359 102.695 45.1014 103.687 44.5722 102.052C44.0429 100.535 45.1602 99.3669 46.4538 98.7247C46.0422 98.4912 45.5718 98.316 45.1602 98.2576C43.5725 98.0825 41.926 98.9582 40.5148 99.6004C37.9275 100.768 35.399 101.877 32.5177 102.169C30.6948 102.403 28.4015 101.819 27.6959 99.8923C27.1079 98.1993 27.4607 96.2143 28.9895 95.1634C30.1068 94.4044 32.6941 94.346 32.6353 96.3894C32.5765 97.7322 30.4596 98.6079 29.9304 96.9732C29.754 96.5062 30.4596 97.1484 30.9888 97.1484C31.9885 97.1484 32.4001 95.9223 31.2828 95.5137C30.6948 95.2801 29.8716 95.4553 29.4012 95.8056C28.7543 96.1559 28.4015 96.9732 28.2839 97.6738C27.9311 99.2501 28.8131 100.71 30.2832 101.294C33.0469 102.286 36.8102 100.535 39.2799 99.4253C41.1616 98.5496 43.5137 97.1484 45.6894 97.6154C46.3362 97.7322 46.8654 98.0241 47.2771 98.3744C47.2771 98.3744 47.2771 98.3744 47.3359 98.3744C50.0408 97.3235 52.9809 97.9657 55.5682 99.075C57.2734 99.7756 58.7435 100.885 60.2724 101.936C60.8604 103.103 61.8012 103.746 62.9185 104.037ZM46.9242 99.1918C46.2774 99.4253 45.7482 99.8923 45.3954 100.535C44.4545 102.169 46.395 102.753 47.1594 101.294C47.5123 100.535 47.4535 99.7172 46.9242 99.1918ZM0.588023 93.0616C0.294012 93.0616 0 93.2951 0 93.6454C0 93.9373 0.235209 94.2292 0.588023 94.2292C0.882035 94.2292 1.17605 93.9957 1.17605 93.6454C1.17605 93.3535 0.882035 93.0616 0.588023 93.0616ZM121.074 96.0975C122.015 96.4478 122.956 96.8565 123.72 97.2651C124.014 97.3819 124.249 97.4987 124.484 97.6154H124.543C126.072 98.316 128.248 99.3669 130.13 99.542C129.012 98.9582 128.189 97.7906 128.189 96.5062C128.189 96.331 128.189 96.1559 128.189 95.9807C126.837 96.0391 122.015 96.0975 121.074 96.0975ZM7.40909 92.2442C6.58586 92.2442 5.93903 92.8865 5.93903 93.7038C5.93903 94.5212 6.58586 95.1634 7.40909 95.1634C8.23232 95.1634 8.87915 94.5212 8.87915 93.7038C8.87915 92.8865 8.23232 92.2442 7.40909 92.2442ZM85.2045 94.2876C99.6111 94.2292 151.886 93.9373 151.886 93.6454C151.886 93.2951 81.9704 93.0032 81.5588 93.0032C81.206 93.0032 11.2312 93.2951 11.2312 93.6454C11.2312 93.9373 63.0361 94.2292 77.7366 94.2876C76.9134 94.6379 76.3254 95.3969 76.149 96.3894C75.9726 97.4403 76.5606 98.6663 77.2662 99.4837C77.619 99.8923 77.9719 100.301 78.3835 100.71C74.9141 99.7172 70.0335 102.87 66.8582 103.337C65.0942 103.629 62.8597 103.746 61.566 102.286C60.5076 101.118 59.9196 99.3085 60.4488 97.7322C61.0368 96.0391 62.8597 94.5795 64.8589 95.105C65.9762 95.3969 66.9758 96.5645 66.6818 97.7906C66.5054 98.4912 65.9762 98.9582 65.2706 99.1918C63.9181 99.4837 62.6833 98.316 63.5065 96.9732C63.7417 96.6229 63.4477 96.2726 63.0949 96.5645C61.6248 97.849 62.9185 100.418 65.0353 100.009C67.1522 99.6004 68.1519 97.3235 66.8582 95.572C65.5058 93.8206 62.9773 93.9373 61.3896 95.105C59.6843 96.331 58.9787 98.7831 59.6843 100.71C59.8607 101.118 60.0372 101.527 60.2136 101.819C59.9196 101.936 59.6843 102.344 60.8604 102.753C60.9192 102.811 61.1544 103.045 61.2132 103.103C62.5069 103.921 63.1537 103.979 62.9773 103.921C66.3878 104.913 71.2096 102.52 74.3261 101.585C75.9138 101.06 77.619 100.71 79.0891 101.702C80.5592 102.636 81.2648 104.388 80.618 106.081C80.0299 107.716 78.2071 108.708 76.5606 108.124C75.7962 107.832 74.9729 107.249 74.8553 106.314C74.7377 105.555 74.7965 104.505 75.6786 104.154C76.5018 103.804 77.4426 104.037 77.6778 104.972C77.7367 105.205 78.0895 105.322 78.0895 105.088C78.0895 103.57 76.2666 103.045 75.1494 103.687C73.5617 104.68 74.0321 107.249 75.4434 108.124C78.2659 109.876 81.1472 107.832 81.5588 105.264C81.5 104.855 81.5 104.446 81.5588 104.037C81.5 103.57 81.3236 103.162 81.0884 102.695C80.6768 101.994 80.2063 101.469 79.6771 101.118C78.6775 99.9507 77.4426 98.8998 77.0898 97.4403C76.737 95.9807 77.3838 94.5795 78.8539 94.5795C80.0887 94.5795 80.5592 95.3969 80.618 95.8056C80.7944 96.5645 80.5004 97.2651 79.5007 97.2068C79.0303 97.2068 78.6187 96.4478 79.1479 96.0975C79.4419 95.864 79.1479 95.4553 78.7951 95.5137C77.2662 95.8056 78.3835 98.1409 79.6183 98.0241C81.6764 97.849 81.794 95.572 80.4416 94.4628C80.2652 94.2876 80.0887 94.2292 79.9123 94.1125C80.9708 94.1125 81.6176 94.1125 81.6176 94.1125C81.6764 94.1125 82.2056 94.1125 83.1465 94.1125C82.9701 94.2292 82.7936 94.2876 82.6172 94.4628C81.206 95.572 81.3236 97.849 83.4405 98.0241C84.6753 98.1409 85.8514 95.8056 84.2637 95.5137C83.9697 95.4553 83.6169 95.864 83.9109 96.0975C84.4401 96.4478 84.0285 97.2068 83.5581 97.2068C82.5584 97.2651 82.2644 96.5062 82.4408 95.8056C82.4996 95.3969 82.9701 94.5795 84.2049 94.5795C85.675 94.5212 86.3218 95.9223 85.969 97.4403C85.6162 98.8998 84.4401 99.9507 83.3817 101.118C83.7345 100.885 84.1461 100.651 84.5577 100.535C84.9105 100.126 85.3221 99.7172 85.675 99.3085C86.3218 98.4912 86.9098 97.2651 86.7922 96.2143C86.6158 95.4553 85.969 94.6379 85.2045 94.2876ZM67.3874 101.177C68.1519 100.943 69.0927 100.593 70.0335 100.243C71.4448 99.7172 72.9737 99.1334 74.4437 98.7831C74.1497 98.0825 73.9733 97.2067 74.0321 96.2726C72.6208 96.2726 70.9744 96.2726 69.2103 96.2726C69.4455 97.2067 69.3867 98.1409 69.0339 99.0166C68.7399 99.8923 68.1519 100.651 67.3874 101.177ZM159.413 92.5945C158.825 92.5945 158.355 93.0616 158.355 93.6454C158.355 94.2292 158.825 94.6963 159.413 94.6963C160.001 94.6963 160.471 94.2292 160.471 93.6454C160.471 93.0616 160.001 92.5945 159.413 92.5945ZM155.591 92.2442C154.768 92.2442 154.121 92.8865 154.121 93.7038C154.121 94.5212 154.768 95.1634 155.591 95.1634C156.414 95.1634 157.061 94.5212 157.061 93.7038C157.061 92.8865 156.355 92.2442 155.591 92.2442ZM162.412 93.0616C162.118 93.0616 161.824 93.2951 161.824 93.6454C161.824 93.9373 162.059 94.2292 162.412 94.2292C162.706 94.2292 163 93.9957 163 93.6454C163 93.3535 162.765 93.0616 162.412 93.0616ZM32.7529 99.6004C34.6346 99.3669 36.8102 98.3744 38.3391 97.6738H38.3979C38.6331 97.557 38.9271 97.4403 39.1623 97.3235C39.9856 96.9148 40.8676 96.5062 41.8084 96.1559C40.8676 96.1559 39.9268 96.1559 38.9271 96.1559C37.4571 96.1559 36.0458 96.1559 34.6346 96.0975C34.6346 96.2726 34.6346 96.4478 34.6346 96.6229C34.6346 97.849 33.8701 99.0166 32.7529 99.6004ZM106.609 97.2068C107.667 96.7397 108.725 96.3894 109.666 96.2143C108.02 96.2143 106.432 96.2143 104.903 96.2143C105.139 96.7397 105.315 97.2651 105.433 97.7906C105.785 97.557 106.197 97.3819 106.609 97.2068ZM57.4499 97.7906C57.5675 97.2651 57.7439 96.7397 57.9791 96.2143C56.3914 96.2143 54.8037 96.2143 53.2161 96.2143C54.2157 96.4478 55.2154 96.7981 56.3326 97.2068C56.6266 97.3819 57.0382 97.557 57.4499 97.7906ZM92.79 100.243C93.7309 100.593 94.6717 100.943 95.4361 101.177C94.6717 100.651 94.0837 99.8923 93.7309 99.0166C93.3781 98.1409 93.3193 97.1484 93.5545 96.2726C91.7904 96.2726 90.1439 96.2726 88.7327 96.2726C88.8503 97.2067 88.6151 98.0825 88.3211 98.7831C89.9087 99.1334 91.3788 99.7172 92.79 100.243ZM84.5577 100.768C88.0271 99.7756 92.9076 102.928 96.083 103.395C97.847 103.687 100.082 103.804 101.375 102.344C102.434 101.177 103.022 99.3669 102.492 97.7906C101.904 96.0975 100.082 94.6379 98.0823 95.1634C96.965 95.4553 95.9654 96.6229 96.2594 97.849C96.4358 98.5496 96.965 99.0166 97.6706 99.2501C99.0231 99.542 100.258 98.3744 99.3759 97.0316C99.1407 96.6813 99.4347 96.331 99.7875 96.6229C101.258 97.9073 99.9639 100.476 97.847 100.067C95.7301 99.6588 94.7305 97.3819 96.0242 95.6304C97.3766 93.879 99.9051 93.9957 101.493 95.1634C103.198 96.3894 103.904 98.8415 103.198 100.768C103.022 101.177 102.845 101.585 102.669 101.877C104.198 100.885 105.668 99.7172 107.373 99.0166C109.96 97.9657 112.9 97.2651 115.605 98.316C115.605 98.316 115.605 98.316 115.664 98.316C116.076 97.9657 116.605 97.7322 117.252 97.5571C119.369 97.09 121.78 98.4912 123.661 99.3669C126.072 100.476 129.894 102.286 132.658 101.235C134.187 100.71 135.069 99.2501 134.657 97.6154C134.481 96.9148 134.187 96.1559 133.54 95.7472C133.07 95.3969 132.246 95.2218 131.658 95.4553C130.541 95.864 130.894 97.1484 131.952 97.09C132.423 97.09 133.128 96.4478 133.011 96.9148C132.423 98.5495 130.306 97.6738 130.306 96.331C130.247 94.2292 132.834 94.2876 133.952 95.105C135.481 96.1559 135.833 98.1409 135.245 99.834C134.598 101.761 132.246 102.344 130.424 102.111C127.542 101.761 125.073 100.71 122.426 99.542C121.074 98.8998 119.369 98.0241 117.781 98.1993C117.311 98.2576 116.899 98.3744 116.487 98.6663C117.722 99.3669 118.839 100.476 118.369 101.994C117.84 103.629 115.605 102.578 115.135 101.527C114.664 100.476 114.782 99.4837 115.311 98.7831C112.548 97.7906 108.725 98.8998 106.55 100.184C104.609 101.294 102.375 103.454 100.023 103.979C96.6122 104.972 91.7904 102.578 88.6739 101.644C87.0862 101.118 85.381 100.768 83.9109 101.761C82.4408 102.695 81.7352 104.446 82.382 106.139C82.9701 107.774 84.7929 108.766 86.4394 108.183C87.2038 107.891 88.027 107.307 88.1447 106.373C88.2623 105.614 88.2035 104.563 87.3214 104.213C86.4982 103.862 85.5574 104.096 85.3222 105.03C85.2634 105.264 84.9105 105.38 84.9105 105.147C84.9105 103.629 86.7334 103.103 87.8506 103.746C89.4383 104.738 88.9679 107.307 87.5566 108.183C84.7341 109.934 81.8528 107.891 81.4412 105.322C81.5 104.913 81.5 104.505 81.4412 104.096C81.5 103.629 81.6764 103.22 81.9116 102.753C82.3232 102.052 82.7936 101.527 83.3229 101.177C83.8521 100.885 84.0285 100.535 84.5577 100.768ZM115.664 101.235C116.429 102.695 118.369 102.111 117.369 100.476C117.017 99.8923 116.487 99.4253 115.841 99.1334C115.37 99.7172 115.311 100.535 115.664 101.235ZM60.1548 101.936C60.096 102.052 59.6255 102.461 60.8016 102.87L60.1548 101.936Z" fill="white"/>
<path d="M36.2222 73.0364C34.9286 73.9121 33.4585 74.3208 31.7533 74.3208C29.8128 74.3208 28.2251 73.737 27.0491 72.511L26.5199 74.3208H25.873L25.4614 68.1323H26.2847C26.9903 72.219 29.8716 73.5035 31.8121 73.5035C33.8114 73.5035 35.2226 72.6861 35.2226 71.0514C35.2226 70.2924 34.811 69.6502 34.3994 69.2415C34.1642 69.0664 33.8702 68.8329 33.3997 68.6577C32.9881 68.4826 32.5765 68.3074 32.2825 68.1907C31.9885 68.0739 31.5769 67.9571 30.9888 67.782C29.754 67.4317 29.166 67.1982 28.1663 66.6727C26.8139 65.9138 26.1083 64.8629 25.9906 62.9363C25.9906 59.842 28.1663 58.1489 31.4005 58.1489C33.2233 58.1489 34.6934 58.7327 35.8106 59.842L36.3987 58.2073H37.0455L37.2807 63.9288H36.4575C36.1046 62.0605 35.2814 60.6593 34.223 59.9587C33.2233 59.2582 32.3413 59.0246 31.4005 59.0246C29.9304 59.0246 28.6956 59.9004 28.6956 61.4767C28.6956 62.2357 29.1072 62.8779 29.5776 63.2865C29.8128 63.4617 30.1656 63.6952 30.636 63.8704L31.7533 64.3374L33.1057 64.7461C34.5758 65.1548 35.399 65.5051 36.5163 66.2057C37.5747 66.9063 38.1627 68.0155 38.1627 69.4751C38.1627 70.9346 37.5159 72.1607 36.2222 73.0364ZM55.5682 59.2582H55.2742C54.2746 59.2582 53.6865 59.7836 53.2161 61.1264L48.0415 74.3208H46.4539L41.044 60.6593C40.6324 59.6668 40.2208 59.3165 39.3976 59.3165H39.1036V58.4992H46.3951V59.3165H45.2778C44.7486 59.3165 44.4546 59.4917 44.4546 59.7836C44.4546 60.0171 44.5134 60.309 44.631 60.7177L48.4531 70.526L52.0989 61.2432C52.2753 60.7761 52.3929 60.4258 52.3929 60.0755C52.3929 59.6668 51.9813 59.3749 51.3344 59.3749H50.5112V58.5576H55.5682V59.2582ZM56.509 58.4408H65.2118C67.5051 58.4408 69.2692 59.1998 70.504 60.6593C71.7388 62.1189 72.3857 63.9871 72.3857 66.2057C72.3857 68.4242 71.7388 70.2924 70.504 71.8104C69.2104 73.2699 67.4463 74.0289 65.2118 74.0289H56.509V73.2115H57.3911C58.2143 73.2115 58.5083 72.978 58.5083 71.8688V60.7177C58.5083 59.6085 58.1555 59.3749 57.3911 59.3749H56.509V58.4408ZM63.1537 59.2582C62.3893 59.2582 62.2129 59.4917 62.2129 60.601V71.8104C62.2129 72.9196 62.5657 73.1532 63.3301 73.1532H64.3298C67.2699 73.1532 68.6811 70.526 68.6811 66.2057C68.6811 61.8854 67.2699 59.2582 64.3886 59.2582H63.1537ZM74.1497 73.9705V73.1532H75.0318C75.855 73.1532 76.149 72.9196 76.149 71.8104V60.6593C76.149 59.5501 75.7962 59.3165 75.0318 59.3165H74.1497V58.4992H86.9098L87.2626 63.6952H86.4394C86.1454 62.0605 85.7338 60.8929 85.381 60.309C85.2046 60.0171 84.9694 59.7836 84.7342 59.6668C84.2049 59.3749 83.9109 59.3749 83.2053 59.3749H80.7944C80.03 59.3749 79.8536 59.6085 79.8536 60.7177V65.5635H81.4412C82.0881 65.5635 82.6173 65.3883 82.9113 64.9796C83.2641 64.571 83.4405 63.7536 83.4405 62.5276H84.2637V69.5335H83.4405C83.4405 68.3074 83.2641 67.4901 82.9113 67.0814C82.5585 66.6727 82.0881 66.4392 81.4412 66.4392H79.8536V71.8688C79.8536 72.978 80.2064 73.2115 80.9708 73.2115H83.3229C83.9109 73.2115 84.0873 73.2116 84.4989 73.1532C84.9694 73.0948 85.1458 72.8613 85.4986 72.5693C86.0866 71.9271 86.557 70.7011 86.9686 68.1323H87.7919L87.3803 74.0289H74.1497V73.9705ZM101.081 59.9004L101.669 58.1489H102.434L102.786 64.279H101.904C101.493 62.1773 100.728 60.6593 99.8464 60.0171C98.9643 59.3165 98.2587 59.0246 97.4355 59.0246C95.1422 59.0246 93.4957 60.3674 93.4957 66.3224C93.4957 71.1098 95.0834 73.2115 97.6119 73.2115C99.964 73.2115 101.728 71.5768 102.316 68.5993H103.139C102.845 70.7595 101.904 72.3942 100.67 73.2115C99.4347 74.0289 98.2587 74.3208 96.965 74.3208C94.907 74.3208 93.1429 73.6202 91.7904 72.2774C90.3792 70.8763 89.7324 69.008 89.7324 66.4976C89.7324 63.9871 90.3792 61.9438 91.7316 60.4258C93.0841 58.9079 94.8482 58.1489 97.0826 58.1489C98.5527 58.1489 100.023 58.7911 101.081 59.9004ZM120.074 66.2057C120.074 68.541 119.428 70.4676 118.075 72.0439C116.723 73.5618 114.9 74.3208 112.489 74.3208C110.078 74.3208 108.196 73.5618 106.903 72.0439C105.55 70.526 104.903 68.5993 104.903 66.2057C104.903 63.8704 105.55 61.9438 106.903 60.4258C108.255 58.9079 110.078 58.1489 112.489 58.1489C114.9 58.1489 116.781 58.9079 118.075 60.4258C119.369 61.9438 120.074 63.8704 120.074 66.2057ZM108.608 66.2057C108.608 70.7595 109.843 73.4451 112.43 73.4451C115.076 73.4451 116.311 70.7595 116.311 66.2057C116.311 61.6518 115.076 58.9662 112.43 58.9662C109.843 58.9662 108.608 61.6518 108.608 66.2057ZM137.421 70.7595C137.245 73.3283 136.421 74.204 134.599 74.204C132.599 74.204 131.776 73.2699 131.541 71.3433C131.482 70.8179 131.364 70.4092 131.306 70.1173C131.247 69.5335 130.953 68.4826 130.718 68.0155C130.306 67.1982 129.777 66.556 128.777 66.556H127.483V71.752C127.483 72.8613 127.836 73.0948 128.601 73.0948H129.483V73.9121H121.838V73.0948H122.72C123.544 73.0948 123.838 72.8613 123.838 71.752V60.601C123.838 59.4917 123.485 59.2582 122.72 59.2582H121.838V58.4408H130.247C133.716 58.4408 135.892 59.842 135.892 62.4692C135.892 64.571 134.069 66.0305 131.129 66.3224C132.952 66.6727 134.069 67.782 134.599 69.7086C134.657 70.0589 134.775 70.526 134.893 71.1098C135.128 72.3358 135.304 72.7445 135.657 72.7445C136.186 72.7445 136.48 72.2774 136.598 70.7595H137.421ZM128.601 59.2582C127.777 59.2582 127.483 59.4917 127.483 60.601V65.6802H129.365C131.188 65.6802 132.188 64.4542 132.188 62.4108C132.188 60.4842 131.247 59.1998 129.659 59.1998H128.601V59.2582Z" fill="white"/>
<path d="M18.3464 86.7563V82.0857H19.1109V85.9389L21.2277 82.0857H22.2274V86.7563H21.463V82.9031L19.3461 86.7563H18.3464ZM26.3435 86.8731C24.8735 86.8731 24.1091 85.8806 24.1091 84.4794C24.1091 82.903 24.9911 81.9106 26.4024 81.9106C27.5784 81.9106 28.284 82.4944 28.4016 83.5453H27.5784C27.4608 82.9031 27.0492 82.5528 26.4024 82.5528C25.5203 82.5528 24.9323 83.2533 24.9323 84.3626C24.9323 85.5303 25.4615 86.1725 26.3435 86.1725C27.0492 86.1725 27.5196 85.7638 27.6372 84.9464H28.4016C28.284 86.1725 27.5196 86.8731 26.3435 86.8731ZM33.3998 86.7563L31.6946 84.421L30.9301 85.1216V86.6979H30.1657V82.0273H30.9301V84.2458L33.1058 82.0273H34.1643L32.2826 83.8956L34.4583 86.7563H33.3998ZM37.7512 87.3401C37.516 87.9823 37.222 88.6245 36.3987 88.6245C36.2223 88.6245 35.9871 88.5661 35.8107 88.5661V87.8656C36.0459 87.9239 36.1635 87.9823 36.3399 87.9823C36.5751 87.9823 36.8104 87.8072 36.8692 87.5736L37.222 86.6979L35.3403 82.0273H36.2223L37.6336 85.8222L38.986 82.0857H39.8093L37.7512 87.3401ZM43.2198 86.8731C41.7498 86.8731 40.9853 85.8806 40.9853 84.4794C40.9853 82.903 41.8674 81.9106 43.2786 81.9106C44.4547 81.9106 45.1603 82.4944 45.2779 83.5453H44.4547C44.3371 82.9031 43.9254 82.5528 43.2786 82.5528C42.3966 82.5528 41.8086 83.2533 41.8086 84.3626C41.8086 85.5303 42.3378 86.1725 43.2198 86.1725C43.9254 86.1725 44.3959 85.7638 44.5135 84.9464H45.2779C45.1603 86.1725 44.3959 86.8731 43.2198 86.8731ZM49.0412 86.8731C47.5712 86.8731 46.8067 85.8806 46.8067 84.4794C46.8067 82.903 47.6888 81.9106 49.1 81.9106C50.2761 81.9106 50.9817 82.4944 51.0993 83.5453H50.2761C50.1585 82.9031 49.7469 82.5528 49.1 82.5528C48.218 82.5528 47.63 83.2533 47.63 84.3626C47.63 85.5303 48.1592 86.1725 49.0412 86.1725C49.7469 86.1725 50.2173 85.7638 50.3349 84.9464H51.0993C50.9817 86.1725 50.2173 86.8731 49.0412 86.8731ZM54.8039 82.7279V86.7563H54.0394V82.7279H52.3342V82.0273H56.5091V82.7279H54.8039ZM58.038 82.0857H60.2137C61.0369 82.0857 61.8601 82.2608 61.8601 83.195C61.8601 83.7204 61.6249 84.0123 61.1545 84.1875C61.6837 84.3042 62.0365 84.7129 62.0365 85.3551C62.0365 86.1725 61.4485 86.7563 60.6253 86.7563H58.038V82.0857ZM61.0369 83.3117C61.0369 82.903 60.8017 82.7279 60.1549 82.7279H58.8024V83.9539H60.1549C60.8017 83.9539 61.0369 83.7204 61.0369 83.3117ZM58.8024 86.1141H60.4489C60.9193 86.1141 61.2133 85.7638 61.2133 85.3551C61.2133 84.9464 60.9193 84.6545 60.2725 84.6545H58.8024V86.1141ZM68.2108 84.3626C68.2108 85.9389 67.3876 86.8731 65.9175 86.8731C64.4474 86.8731 63.6242 85.9389 63.6242 84.421C63.6242 82.9031 64.5062 81.9106 65.9175 81.9106C67.3876 81.9106 68.2108 82.8447 68.2108 84.3626ZM64.4474 84.421C64.4474 85.5886 64.9767 86.2308 65.9763 86.2308C66.9171 86.2308 67.4464 85.5303 67.4464 84.3626C67.4464 83.2533 66.8583 82.5528 65.9763 82.5528C65.0355 82.5528 64.4474 83.3117 64.4474 84.421ZM77.4427 86.7563H76.6783V82.7279H74.9731L74.9142 84.7713C74.8554 86.2892 74.2674 86.8147 73.6206 86.8147C73.3854 86.8147 73.1502 86.7563 73.0914 86.6979V86.0557C73.209 86.1141 73.3854 86.1141 73.503 86.1141C73.797 86.1141 74.1498 85.8222 74.2086 84.8297L74.2674 81.9689H77.5016V86.7563H77.4427ZM81.5001 86.9314C80.0889 86.9314 79.2656 85.9973 79.2656 84.4794C79.2656 82.9614 80.1477 81.9106 81.4413 81.9106C82.9702 81.9106 83.5582 83.1366 83.5582 84.4794V84.5961H80.0301V84.6545C80.0301 85.647 80.6181 86.2308 81.5001 86.2308C82.2057 86.2308 82.5585 85.9389 82.7938 85.2383H83.5582C83.323 86.3476 82.6174 86.9314 81.5001 86.9314ZM81.4413 82.5528C80.6769 82.5528 80.1477 83.0782 80.0301 83.9539H82.7938C82.735 83.1366 82.2057 82.5528 81.4413 82.5528ZM85.3223 86.7563V82.0857H89.262V86.7563H88.4976V82.7279H86.1455V86.7563H85.3223ZM91.3201 86.7563V82.0857H92.0845V83.9539H94.4366V82.0857H95.201V86.7563H94.4366V84.5961H92.0845V86.7563H91.3201ZM101.669 84.3626C101.669 85.9389 100.846 86.8731 99.376 86.8731C97.906 86.8731 97.0827 85.9389 97.0827 84.421C97.0827 82.9031 97.9648 81.9106 99.376 81.9106C100.846 81.9106 101.669 82.8447 101.669 84.3626ZM97.906 84.421C97.906 85.5886 98.4352 86.2308 99.4348 86.2308C100.376 86.2308 100.905 85.5303 100.905 84.3626C100.905 83.2533 100.317 82.5528 99.4348 82.5528C98.494 82.5528 97.906 83.3117 97.906 84.421ZM104.315 82.7279V86.7563H103.551V82.0857H106.785V82.7863H104.315V82.7279ZM112.371 84.3626C112.371 85.9389 111.548 86.8731 110.078 86.8731C108.608 86.8731 107.785 85.9389 107.785 84.421C107.785 82.9031 108.667 81.9106 110.078 81.9106C111.489 81.9106 112.371 82.8447 112.371 84.3626ZM108.608 84.421C108.608 85.5886 109.137 86.2308 110.137 86.2308C111.078 86.2308 111.607 85.5303 111.607 84.3626C111.607 83.2533 111.019 82.5528 110.137 82.5528C109.196 82.5528 108.608 83.3117 108.608 84.421ZM119.663 86.8731C118.193 86.8731 117.428 85.8806 117.428 84.4794C117.428 82.903 118.31 81.9106 119.722 81.9106C120.898 81.9106 121.603 82.4944 121.721 83.5453H120.898C120.78 82.9031 120.368 82.5528 119.722 82.5528C118.84 82.5528 118.252 83.2533 118.252 84.3626C118.252 85.5303 118.781 86.1725 119.663 86.1725C120.368 86.1725 120.839 85.7638 120.956 84.9464H121.721C121.603 86.1725 120.839 86.8731 119.663 86.8731ZM123.485 82.0857H125.661C126.484 82.0857 127.307 82.2608 127.307 83.195C127.307 83.7204 127.072 84.0123 126.601 84.1875C127.131 84.3042 127.484 84.7129 127.484 85.3551C127.484 86.1725 126.895 86.7563 126.072 86.7563H123.485V82.0857ZM126.484 83.3117C126.484 82.903 126.249 82.7279 125.602 82.7279H124.249V83.9539H125.602C126.249 83.9539 126.484 83.7204 126.484 83.3117ZM124.249 86.1141H125.896C126.366 86.1141 126.66 85.7638 126.66 85.3551C126.66 84.9464 126.366 84.6545 125.719 84.6545H124.191V86.1141H124.249ZM131.306 86.9314C129.894 86.9314 129.071 85.9973 129.071 84.4794C129.071 82.9614 129.953 81.9106 131.247 81.9106C132.776 81.9106 133.364 83.1366 133.364 84.4794V84.5961H129.836V84.6545C129.836 85.647 130.424 86.2308 131.306 86.2308C132.011 86.2308 132.364 85.9389 132.599 85.2383H133.364C133.129 86.3476 132.423 86.9314 131.306 86.9314ZM131.247 82.5528C130.482 82.5528 129.953 83.0782 129.836 83.9539H132.599C132.541 83.1366 132.07 82.5528 131.247 82.5528ZM136.951 82.7279V86.7563H136.186V82.7279H134.481V82.0273H138.656V82.7279H136.951ZM144.183 86.7563C144.007 86.8147 143.831 86.8731 143.654 86.8731C143.243 86.8731 142.949 86.6395 142.949 86.1725C142.478 86.6979 141.949 86.9314 141.243 86.9314C140.302 86.9314 139.714 86.406 139.714 85.5886C139.714 84.7713 140.244 84.2458 141.361 84.1291C142.478 84.0123 142.89 84.0123 142.89 83.3701C142.89 82.8447 142.537 82.6111 141.831 82.6111C141.126 82.6111 140.714 82.9031 140.655 83.5453H139.95C139.95 82.5528 140.714 81.9689 141.949 81.9689C142.596 81.9689 143.125 82.1441 143.419 82.436C143.772 82.7279 143.713 83.2533 143.713 83.662C143.713 84.3626 143.654 85.0632 143.654 85.7638C143.654 86.1141 143.713 86.2308 143.948 86.2308C144.007 86.2308 144.066 86.2308 144.125 86.2308V86.7563H144.183ZM141.89 84.5961C141.302 84.6545 140.538 84.7129 140.538 85.4719C140.538 85.9389 140.89 86.2308 141.478 86.2308C142.184 86.2308 142.89 85.7054 142.89 85.1216V84.2458C142.655 84.5378 142.243 84.5378 141.89 84.5961Z" fill="white"/>
<path d="M84.0871 21.4847H78.6184L75.8547 9.45795L78.442 7.88162L80.6177 9.92501L82.911 7.12265L84.3811 9.98339L87.0272 8.87412L84.0871 21.4847ZM80.0297 19.7333H82.7346L84.5575 11.7349C83.9107 11.8516 83.205 11.5013 82.911 10.9175L82.617 10.3337L81.9114 11.2094C81.6174 11.5597 81.2057 11.7349 80.7941 11.7932H80.6765C80.2649 11.7932 79.8533 11.6181 79.5593 11.3846L78.2068 10.1585L77.854 10.3921L80.0297 19.7333Z" fill="white"/>
<path d="M65.9762 15.7049C65.2706 15.1794 64.9178 15.8216 64.2709 16.1719C64.1533 15.3546 65.0942 14.7124 65.741 14.4788C66.3878 14.2453 67.5051 14.4788 67.9755 15.0043C68.9751 16.1135 69.0339 17.7482 68.2695 18.9743C68.0931 19.2662 67.8579 19.5581 67.7991 19.9084C67.7403 20.3755 68.0343 20.4338 68.4459 20.5506C68.7987 20.6674 69.2103 20.9009 68.7399 21.1928C68.2107 21.4847 67.5639 21.1344 66.9758 21.076C66.1526 21.0177 65.2706 21.1344 64.565 21.4847C63.4477 22.0102 62.6833 22.6524 61.9777 23.6449C60.9192 25.1044 59.8608 26.8559 59.8608 28.7241C59.8608 31.1178 61.3896 33.8618 63.9769 34.3872C65.6234 34.7375 67.8579 32.9861 67.6815 31.1762C67.6227 30.7091 67.3875 30.4756 66.917 30.534C66.3878 30.6508 66.329 31.3514 66.1526 31.76C65.447 33.3947 63.1537 33.0444 62.3893 31.7016C61.566 30.3588 62.0365 27.9068 63.0361 26.7391C63.7417 25.9218 64.3297 25.2796 65.5058 24.9877C66.5054 24.7541 67.5639 24.8125 68.5047 25.1044C69.5631 25.3963 70.1512 25.9218 70.7392 26.8559C71.2096 27.6733 71.6212 28.3738 71.8564 29.308C72.3857 31.3513 71.386 33.4531 69.9748 34.9711C68.5635 36.489 66.4466 37.248 64.3885 36.7809C61.9188 36.2555 59.8608 33.9202 59.1551 31.5849C58.9199 30.8843 58.6259 30.1253 58.4495 29.3663C57.9791 26.9727 58.3319 24.579 59.3904 22.3605C59.8608 21.368 60.5664 20.6674 60.0372 19.4997C59.802 18.9743 58.8611 18.4488 59.3315 17.7482C59.802 17.106 60.3312 17.7482 60.6252 18.1569C60.7428 18.3321 60.9192 18.9159 61.1544 18.9743C62.7421 19.3246 60.39 15.4713 60.1548 15.121C59.9196 14.7707 59.9196 14.5372 59.6256 14.2453C59.3315 14.0118 58.9787 13.7782 58.6847 13.6031C57.9791 13.136 57.2735 12.8441 56.4502 12.669C55.627 12.4938 54.745 12.5522 53.9217 12.8441C53.3337 13.0776 52.5105 13.895 51.9813 13.9534C51.6873 14.3037 51.9813 14.654 52.3929 14.4204C52.3929 14.4204 51.7461 15.9968 51.7461 16.1135C52.2753 15.88 52.7457 15.0627 53.1573 14.654C53.6865 14.0701 54.2158 13.7199 54.9802 13.6031C55.627 13.5447 56.3326 13.7199 56.9795 13.9534C57.3323 14.1285 57.9203 14.0118 57.9791 14.5372C58.1555 15.9384 55.0978 14.4204 54.5098 14.4204C53.6277 14.4204 53.1573 15.1794 52.8045 15.8216C52.6281 16.1135 52.0989 16.7557 52.6869 16.9309C53.0397 17.0477 53.6277 16.7557 53.8629 16.5806C54.5098 16.1719 55.039 15.88 55.8034 16.1719C57.0971 16.639 58.5671 17.7482 58.6847 19.1494C58.7435 19.6165 58.6847 22.4772 58.0379 22.3605C57.5675 22.3021 57.8027 21.2512 57.8027 20.9593C57.8027 20.0252 57.0383 18.8575 56.3914 18.2153C56.0386 17.865 55.627 17.4563 55.039 17.5731C54.5686 17.6315 54.0393 18.1569 54.6862 18.5072C55.039 18.6824 55.4506 18.3321 55.8622 18.4488C56.215 18.5656 56.3914 18.9159 56.5678 19.2078C57.8027 21.1928 57.6851 24.0535 57.4499 26.2721C57.2735 27.79 57.2735 29.4247 57.8615 30.8843C59.0375 33.4531 61.1544 35.9052 63.8593 36.9561C64.859 37.3064 65.741 37.4815 66.8582 37.1896C67.1523 37.1312 67.4463 36.9561 67.7403 36.8393C67.8579 36.7809 68.0343 36.7225 68.1519 36.7225C69.8572 36.489 68.6811 38.0653 67.5639 38.1821C67.3287 38.1821 67.0934 38.1237 66.8582 38.1237C65.6822 38.0653 64.9766 38.2989 63.8593 37.8318C62.9185 37.4231 61.9777 37.0728 61.0956 36.4306C59.3315 35.1462 57.9203 33.3364 56.7442 31.5265C55.9798 30.3005 56.2738 28.6658 55.7446 27.323C55.5094 26.6808 55.1566 26.2137 54.5098 25.9218C53.5689 25.4547 53.4513 25.2796 53.5689 24.0535C53.6865 22.8859 53.5689 21.7766 53.3925 20.609C53.3337 20.2003 53.2749 19.9668 52.8045 19.9084C52.5693 19.85 52.3341 19.9084 52.0989 19.85C51.8637 19.7332 51.7461 19.5581 51.5108 19.4413C50.864 18.9743 49.9232 18.4488 50.276 17.5731C50.3936 17.2228 50.57 16.7557 50.5112 16.4054C50.3936 15.6465 49.982 16.2303 49.5116 16.1719C49.2176 16.1719 48.8059 15.7632 48.6883 15.4713C48.6295 15.2962 48.5707 14.7707 48.8059 14.654C49.0411 14.5372 48.9235 14.7707 49.1588 14.8291C49.2764 14.8291 49.394 14.8291 49.5704 14.7707C50.276 14.5956 50.7464 13.8366 51.2756 13.3696C51.6284 13.0776 52.0989 12.7274 52.5105 12.4938C52.9809 12.2603 53.3925 11.91 53.8629 11.7349C54.9214 11.3262 55.8622 11.6181 56.9207 11.91C57.6263 12.0851 58.2731 12.2603 58.9199 12.6106C59.9784 13.1944 60.978 14.0118 61.6248 15.0626C62.0365 15.7049 62.2129 16.4054 62.2717 17.1644C62.3305 17.865 63.3301 18.3904 63.9769 18.4488C64.3297 18.4488 64.6826 18.4488 64.9766 18.2153C65.2118 18.0402 65.3882 17.1644 65.2706 17.2228C64.6238 17.6315 64.3297 16.8725 64.859 16.5222C65.741 15.9384 65.5646 16.9893 65.8586 17.4563C66.2114 17.9818 66.329 17.5731 66.329 17.106C66.4466 16.4638 66.329 15.9384 65.9762 15.7049ZM97.0238 15.7632C97.7294 15.2378 98.0823 15.88 98.7291 16.2303C98.8467 15.4129 97.9058 14.7707 97.259 14.5372C96.6122 14.3037 95.495 14.5372 95.0245 15.0626C94.0249 16.1719 93.9661 17.8066 94.7305 19.0327C94.9069 19.3246 95.1421 19.6165 95.2009 20.0252C95.2597 20.4922 94.9657 20.5506 94.5541 20.6674C94.2013 20.7841 93.7897 21.0177 94.2601 21.3096C94.7893 21.6015 95.4362 21.2512 96.0242 21.1928C96.8474 21.1344 97.7294 21.2512 98.4351 21.6015C99.5523 22.1269 100.317 22.7691 101.022 23.7616C102.081 25.2212 103.139 26.9727 103.139 28.8409C103.139 31.2346 101.61 33.9786 99.0231 34.504C97.3766 34.8543 95.1421 33.1028 95.3186 31.293C95.3774 30.8259 95.6126 30.5924 96.083 30.6508C96.6122 30.7675 96.671 31.4681 96.8474 31.8768C97.553 33.5115 99.8463 33.1612 100.611 31.8184C101.434 30.4756 100.964 28.0236 99.9639 26.8559C99.2583 26.0385 98.6703 25.3963 97.4942 25.1044C96.4946 24.8709 95.4361 24.9293 94.4953 25.2212C93.4369 25.5131 92.8488 26.0385 92.2608 26.9727C91.7904 27.79 91.3788 28.4906 91.1436 29.4247C90.6144 31.4681 91.614 33.5699 93.0253 35.0878C94.4365 36.6058 96.5534 37.3647 98.6115 36.8977C101.081 36.3722 103.139 34.0369 103.845 31.7016C104.08 31.0011 104.374 30.2421 104.551 29.4831C105.021 27.0894 104.668 24.6958 103.61 22.4772C103.139 21.4847 102.434 20.7841 102.963 19.6165C103.198 19.091 104.139 18.5656 103.668 17.865C103.198 17.2228 102.669 17.865 102.375 18.2737C102.257 18.4488 102.081 19.0327 101.846 19.091C100.258 19.4413 102.61 15.5881 102.845 15.2378C103.08 14.8875 103.08 14.654 103.374 14.3621C103.668 14.1285 104.021 13.895 104.315 13.7199C105.021 13.2528 105.727 12.9609 106.55 12.7857C107.373 12.6106 108.255 12.669 109.078 12.9609C109.666 13.1944 110.49 14.0118 111.019 14.0701C111.313 14.4204 111.019 14.7707 110.607 14.5372C110.607 14.5372 111.254 16.1135 111.254 16.2303C110.725 15.9968 110.254 15.1794 109.843 14.7707C109.313 14.1869 108.784 13.8366 108.02 13.7199C107.373 13.6615 106.667 13.8366 106.021 14.0701C105.668 14.2453 105.08 14.1285 105.021 14.654C104.845 16.0552 107.902 14.5372 108.49 14.5372C109.372 14.5372 109.843 15.2962 110.196 15.9384C110.372 16.2303 110.901 16.8725 110.313 17.0477C109.96 17.1644 109.372 16.8725 109.137 16.6974C108.49 16.2887 107.961 15.9968 107.197 16.2887C105.903 16.7557 104.433 17.865 104.315 19.2662C104.256 19.7332 104.315 22.594 104.962 22.4772C105.433 22.4188 105.197 21.368 105.197 21.076C105.197 20.1419 105.962 18.9743 106.609 18.3321C106.961 17.9818 107.373 17.5731 107.961 17.6899C108.431 17.7482 108.961 18.2737 108.314 18.624C107.961 18.7991 107.549 18.4488 107.138 18.5656C106.785 18.6824 106.609 19.0327 106.432 19.3246C105.197 21.3096 105.315 24.1703 105.55 26.3888C105.727 27.9068 105.727 29.5415 105.139 31.0011C103.962 33.5699 101.846 36.0219 99.1407 37.0728C98.1411 37.4231 97.259 37.5983 96.1418 37.3064C95.8478 37.248 95.5538 37.0728 95.2597 36.9561C95.1421 36.8977 94.9657 36.8393 94.8481 36.8393C93.1429 36.6058 94.3189 38.1821 95.4362 38.2989C95.6714 38.2989 95.9066 38.2405 96.1418 38.2405C97.3178 38.1821 98.0235 38.4156 99.1407 37.9486C100.082 37.5399 101.022 37.1896 101.904 36.5474C103.668 35.263 105.08 33.4531 106.256 31.6433C107.02 30.4172 106.726 28.7825 107.255 27.4397C107.491 26.7975 107.843 26.3305 108.49 26.0385C109.431 25.5715 109.549 25.3963 109.431 24.1703C109.313 23.0027 109.431 21.8934 109.607 20.7257C109.666 20.3171 109.725 20.0835 110.196 20.0252C110.431 19.9668 110.666 20.0252 110.901 19.9668C111.136 19.85 111.313 19.6749 111.489 19.5581C112.136 19.091 113.077 18.5656 112.724 17.6899C112.606 17.3396 112.43 16.8725 112.489 16.5222C112.606 15.7632 113.018 16.3471 113.488 16.2887C113.782 16.2887 114.194 15.88 114.312 15.5881C114.37 15.4129 114.429 14.8875 114.194 14.7707C113.959 14.654 114.076 14.8875 113.841 14.9459C113.724 14.9459 113.606 14.9459 113.43 14.8875C112.724 14.7124 112.254 13.9534 111.724 13.4863C111.372 13.1944 110.901 12.8441 110.49 12.6106C110.019 12.3771 109.608 12.0268 109.137 11.8516C108.079 11.4429 107.138 11.7349 106.079 12.0268C105.374 12.2019 104.727 12.3771 104.08 12.7274C103.022 13.3112 102.022 14.1285 101.375 15.1794C100.964 15.8216 100.787 16.5222 100.728 17.2812C100.67 17.9818 99.6699 18.5072 99.0231 18.5656C98.6703 18.5656 98.3175 18.5656 98.0234 18.3321C97.7882 18.1569 97.6118 17.2812 97.7294 17.3396C98.3763 17.7482 98.6703 16.9893 98.1411 16.639C97.259 16.0552 97.4354 17.106 97.1414 17.5731C96.7886 18.0985 96.671 17.6899 96.671 17.2228C96.5534 16.5806 96.671 15.9968 97.0238 15.7632ZM90.8496 34.9127C90.438 34.504 89.9675 34.1537 89.3795 33.8618C88.5563 33.4531 87.6154 33.3364 86.7334 33.3947C86.557 33.3947 84.9105 33.6866 84.9693 33.9786C84.9105 33.6283 84.7341 33.2196 84.3813 33.0444C84.2049 32.9861 83.2053 33.1028 83.3229 33.3364C83.1465 32.8693 83.0877 32.6941 82.6173 32.519C81.9116 32.2855 80.7356 32.4606 80.7944 33.4531C80.7944 33.1028 79.7947 33.1028 79.5595 33.2196C79.2655 33.3947 79.0891 33.8618 79.0303 34.2121C78.7951 34.0369 78.3835 33.9202 78.0895 33.8034C77.031 33.4531 75.855 33.278 74.7965 33.6283C73.7969 33.9786 72.9737 34.2705 72.1504 34.9127C71.3272 35.4965 71.0332 36.3139 70.8568 37.248C70.7392 37.8318 70.6216 38.4156 70.7392 39.0578C70.798 39.4665 70.9744 39.9336 71.092 40.3422C71.2684 40.7509 71.386 41.1012 71.7388 41.4515C72.3857 42.0937 73.2677 42.5024 74.2085 42.6775C74.7377 42.7943 75.267 42.7359 75.7962 42.6775C76.149 42.6192 76.5606 42.6775 76.8546 42.5608C77.1486 42.444 77.4426 42.2689 77.7367 42.0937C78.1483 41.9186 78.2659 41.6267 78.5599 41.3347C78.8539 40.9845 79.1479 40.6342 79.3243 40.2255C79.6183 39.7 79.7359 39.0578 79.7947 38.474C79.7947 38.2989 79.7947 37.8902 80.03 37.8318C80.2652 37.8318 80.2064 38.2405 80.2064 38.4156C80.2064 38.8827 79.9711 39.2914 79.9123 39.7C79.7947 40.2255 79.5595 40.5174 79.3243 40.9844C79.0891 41.4515 78.8539 41.9186 78.5011 42.2689C78.3247 42.5024 78.0307 42.6775 77.8543 42.8527C77.2662 43.3197 76.5606 43.7868 75.855 44.0787C75.561 44.1955 75.2082 44.2539 74.9142 44.429C74.7377 44.5458 74.5025 44.6625 74.3261 44.8377C74.2673 44.8961 74.2085 44.9545 74.2085 44.9545C74.0321 45.188 73.7969 45.4215 73.7969 45.7134C73.7381 46.0637 73.9145 46.414 74.2085 46.5892C74.4437 46.7059 74.7377 46.7643 74.973 46.8227C75.1494 46.8811 75.4434 46.9978 75.6786 46.9395C75.9138 46.8227 75.6786 46.6475 75.561 46.5892C75.267 46.3556 74.7965 46.2973 74.6201 45.8886C74.4437 45.4799 74.5613 45.0712 74.8554 44.7209C75.0318 44.4874 75.561 44.3706 75.6786 44.6625C75.7374 44.8377 75.6786 45.0128 75.6198 45.1296C75.5022 45.3048 75.0906 45.5967 75.2082 45.8886C75.267 46.1221 75.6786 46.3556 75.9138 46.414C76.149 46.5308 76.443 46.2973 76.3842 46.0053C76.6194 45.8886 77.1486 46.2389 77.325 46.4724C77.5603 46.7643 77.7367 47.0562 78.0307 47.2314C78.2071 47.3481 78.3835 47.2898 78.5599 47.2314C78.5599 47.2314 78.5599 47.2314 78.6187 47.2898C78.5599 47.4649 78.3247 47.4649 78.2659 47.64C78.3247 47.64 78.3835 47.64 78.4423 47.64C78.5599 47.64 78.6775 47.5817 78.7951 47.4649C79.0303 47.3481 79.1479 47.4065 79.2655 47.64C79.2655 47.6984 79.3243 47.7568 79.3243 47.8152C79.6183 48.3406 79.2655 47.9903 79.0891 48.2823C78.7363 48.6909 79.5595 49.158 79.8535 49.2164C80.0888 49.2748 80.8532 49.5667 81.0884 49.3331C80.9708 49.0412 80.3828 49.158 80.1476 48.9828C79.9712 48.8661 79.6183 48.5742 79.7947 48.3406C80.1476 47.8736 80.9708 48.2823 81.3236 47.6984C81.3824 47.5817 81.4412 47.2314 81.6764 47.3481C82.0292 47.5233 81.1472 48.2239 82.0292 47.9903C82.2056 47.932 82.2644 47.8736 82.4996 47.8736C82.6761 47.8736 82.9113 47.9903 83.0877 48.0487C83.7345 48.1071 83.4405 47.3481 83.3229 46.9978C83.1465 46.2389 82.9113 45.5383 82.7349 44.7793C82.6172 44.3706 82.5584 43.8452 82.5584 43.4365C82.5584 43.1446 82.6761 42.9695 82.8525 43.203C82.9701 43.3781 82.9701 43.67 83.0289 43.9036C83.1465 44.4874 83.0289 45.1296 83.2641 45.7134C83.4405 46.2389 83.6757 46.7643 83.7933 47.2898C83.9109 47.6984 83.9109 48.2823 84.4401 48.3406C84.5577 48.3406 84.7341 48.399 84.8517 48.399C84.9693 48.399 85.0281 48.5158 84.9693 48.6326C84.9105 48.7493 84.7929 48.8077 84.6753 48.8661C84.4989 48.9828 84.3225 49.0996 84.0873 49.158C84.0285 49.158 83.6757 49.2164 83.8521 49.3331C84.0285 49.4499 84.6165 49.0996 84.8517 48.9828C85.2634 48.7493 85.5574 48.399 85.675 47.932C85.7926 47.5233 85.5574 47.1146 85.381 46.7643C85.2634 46.5892 85.2046 46.3556 85.0281 46.1805C84.7929 45.947 84.5577 45.655 84.4401 45.3631C84.3813 45.1296 84.1461 44.6042 84.3225 44.429C84.5577 44.5458 84.4989 44.8961 84.6165 45.1296C84.6753 45.3631 84.9105 45.7134 85.0281 45.947C85.3222 46.414 85.969 47.4649 86.6158 46.9395C86.7334 46.8227 86.9098 46.7643 87.0274 46.7643C87.2038 46.7643 87.3214 46.7059 87.3802 46.5308C87.4978 46.3556 87.6155 46.2389 87.7919 46.1805C87.9683 46.1805 88.2623 46.3556 88.3799 46.1221C88.6739 45.5383 86.6746 45.1296 86.3806 45.0128C85.6162 44.6625 84.7929 44.1955 84.2637 43.4949C84.0285 43.203 82.4408 41.0428 83.0877 40.9844C83.4993 40.9261 83.8521 41.8602 83.9697 42.1521C84.2049 42.6775 84.4989 43.0278 84.9105 43.3781C85.2634 43.67 85.5574 44.0787 85.969 44.3123C86.3806 44.6042 86.7922 44.7793 87.2626 44.9545C87.6154 45.1296 88.0859 45.188 88.4387 45.3631C89.3207 45.947 88.0271 46.7643 87.6154 46.9978C87.439 47.1146 87.2038 47.173 86.9686 47.2314C86.9098 47.2314 86.6746 47.2314 86.6158 47.2898C86.557 47.3481 86.557 47.4065 86.6158 47.4065C86.6746 47.4649 86.7334 47.4065 86.7922 47.4065C86.9686 47.3481 87.0862 47.2898 87.2626 47.2898C87.3214 47.2898 87.3802 47.2898 87.439 47.2314C87.9095 47.0562 88.3211 46.7643 88.7327 46.4724C89.1443 46.1805 89.2619 45.7718 89.3207 45.3631C89.3795 45.0712 89.3207 44.7793 89.0855 44.5458C89.0267 44.4874 88.9679 44.429 88.9679 44.3706C88.9679 44.2539 88.9091 44.2539 88.8503 44.1955C88.3799 44.0203 87.9683 43.9036 87.4978 43.7284C86.851 43.5533 86.263 43.203 85.7338 42.7943C85.0281 42.2105 84.6753 41.4515 84.2049 40.7509C83.2641 39.3497 83.4405 37.7734 83.7345 36.1971C83.7933 36.0219 84.0285 35.4381 84.2637 35.4381C84.6165 35.4381 84.5577 36.3139 84.4401 36.5474C84.2637 37.0728 84.0285 37.5399 84.0285 38.1237C84.0285 38.8243 84.1461 39.4081 84.4401 40.0503C84.6753 40.5758 84.9693 41.1012 85.4986 41.4515C85.969 41.8018 86.557 42.0353 87.145 42.2105C87.8507 42.3856 88.5563 42.3856 89.2619 42.2105C89.7911 42.0937 90.3792 41.9186 90.8496 41.6267C91.32 41.3931 91.614 40.9845 91.908 40.5174C92.2608 40.0503 92.6136 39.2914 92.6724 38.7075C92.7313 38.0653 92.5548 37.5399 92.3196 36.9561C92.1432 36.3722 91.908 35.9052 91.5552 35.3797C91.1436 35.263 91.026 35.0878 90.8496 34.9127ZM77.8543 37.8318C77.7955 38.474 77.5603 39.1162 77.2074 39.6417C76.6194 40.5174 75.855 41.0428 74.7377 41.1012C73.9145 41.1596 73.2677 40.9261 72.6209 40.4006C72.3269 40.1671 72.0328 39.8752 71.9152 39.5249C71.7976 39.1746 71.8564 38.7659 72.3269 38.9411C72.6209 39.0578 72.8561 39.4081 73.1501 39.5833C73.4441 39.7584 73.7969 39.992 74.0909 40.1671C75.267 40.9261 76.2666 40.2255 76.9722 39.2914C77.4426 38.6492 77.4427 38.1821 77.2074 37.4231C77.0898 37.0144 76.9722 36.6058 76.6194 36.2555C76.2666 35.9636 74.973 35.6133 75.1494 36.489C75.2082 36.7225 75.4434 36.7809 75.6198 36.9561C75.9726 37.3064 76.0902 37.8318 75.9726 38.2989C75.855 38.8827 75.5022 39.3497 74.9142 39.5249C73.7381 39.8168 72.7385 38.2989 72.9149 37.248C73.1501 35.3797 75.561 34.2121 77.031 35.6133C77.6779 36.2555 77.9131 37.0728 77.8543 37.8318ZM89.1443 39.7C89.0855 39.5833 89.2619 39.5249 89.3795 39.5249C89.7323 39.3497 90.0851 39.1746 90.438 38.9411C90.9672 38.5908 91.4376 37.9486 91.3788 37.248C91.3788 37.0144 91.1436 36.8393 91.1436 36.6058C91.0848 36.1387 91.4376 36.5474 91.5552 36.7225C92.0256 37.5399 91.9668 38.7659 91.1436 39.2914C91.026 39.3497 90.9084 39.4665 90.7908 39.5249C90.3792 39.7 89.9675 39.7584 89.5559 39.8168C89.3207 39.7584 89.2031 39.8168 89.1443 39.7ZM87.2626 40.6925C86.7334 40.5174 86.3806 40.2255 85.969 39.8752C85.8514 39.7584 85.7338 39.5833 85.6162 39.4081C85.381 39.0578 85.1458 38.6492 85.0281 38.1821C84.9693 37.8902 84.8517 37.5983 84.8517 37.248C84.8517 37.1896 84.8517 37.1896 84.8517 37.1312C84.8517 37.0144 84.8517 36.8977 85.0281 36.8977C85.1458 36.8977 85.2634 37.0144 85.2634 37.1312C85.2634 37.4231 85.381 37.6567 85.381 37.8902C85.381 38.1237 85.4986 38.2989 85.6162 38.474C85.7926 38.8243 85.969 39.1746 86.2042 39.5249C86.6158 40.0503 87.2038 40.4006 87.7919 40.7509C87.8507 40.7509 87.9095 40.7509 87.9095 40.8677C87.6743 40.9261 87.4978 40.7509 87.2626 40.6925ZM79.5007 43.0278C79.2655 43.3197 79.0303 43.3781 78.7363 43.6117C78.5011 43.7868 78.2659 44.0203 78.0307 44.2539C77.7367 44.6042 77.4427 44.8377 77.0898 45.1296C76.8546 45.3048 75.7374 45.655 76.2078 44.9545C76.3842 44.6625 77.0898 44.429 77.3839 44.2539C77.5603 44.1371 77.7955 44.0787 77.9131 43.9036C78.3247 43.4365 78.9127 43.0862 79.2655 42.5608C79.5007 42.2105 79.6183 41.8018 79.7947 41.4515C80.0299 41.0428 80.0888 40.6925 80.1476 40.2255C80.324 39.4665 80.3828 38.7659 80.5592 38.0069C80.6768 37.5399 80.6768 37.0144 80.5592 36.5474C80.4416 36.0219 80.2652 35.73 79.9123 35.3214C79.7359 35.1462 79.5595 34.7375 79.7359 34.504C79.9712 34.2121 80.4416 34.504 80.5592 34.7375C80.6768 35.0294 80.6768 35.4381 80.7356 35.73C80.8532 36.2555 80.8532 36.7225 80.7944 37.248C80.7944 37.5983 80.6768 37.8902 80.618 38.2405C80.5004 38.7659 80.5004 39.233 80.4416 39.7584C80.324 40.3422 80.2064 40.9844 80.03 41.5683C80.03 41.9186 79.8535 42.6192 79.5007 43.0278ZM86.6158 38.0653C86.851 38.474 87.145 38.8827 87.5566 39.0578C87.7331 39.1746 88.1447 39.0578 88.3211 39.1746C88.5563 39.3497 88.2035 39.4665 87.9683 39.5249C87.439 39.5833 86.851 39.1746 86.557 38.7659C86.1454 38.2405 86.0278 37.5983 85.969 36.9561C85.969 36.6642 85.7926 36.4306 85.9102 36.1971C86.0278 35.9052 86.263 35.6717 86.4982 35.5549C86.851 35.3797 87.2038 35.0878 87.6154 35.0878C88.0271 35.0878 88.6151 35.3214 88.9679 35.4965C89.4971 35.7884 89.9675 36.3722 90.0851 36.9561C90.2027 37.4815 89.4383 38.1237 89.0267 38.1821C88.3799 38.2989 87.6154 38.2405 87.3214 37.5399C87.0862 37.0144 87.2038 36.2555 87.7919 36.0803C88.3211 35.9052 88.4387 36.3722 88.4387 36.7809C88.4387 36.9561 88.3799 37.248 88.4387 37.4231C88.7327 37.9486 89.3795 37.5399 89.3795 37.0728C89.4383 36.6058 89.0267 36.2555 88.6739 35.9636C88.0271 35.4965 86.9098 35.4965 86.4982 36.3139C86.263 36.8393 86.3218 37.4815 86.6158 38.0653ZM80.912 42.444C81.0884 41.8018 81.206 41.218 81.2648 40.5758C81.3236 40.2255 81.206 39.992 81.206 39.6417C81.206 39.3497 81.2648 38.9995 81.2648 38.7075C81.2648 38.2405 81.3236 37.8318 81.4412 37.3647C81.5588 36.9561 81.6176 36.5474 81.6764 36.0803C81.6764 35.8468 81.7352 35.6133 81.7352 35.3797C81.7352 35.1462 81.6176 34.9711 81.6176 34.6791C81.6176 34.2705 81.4412 33.5699 81.9704 33.5115C82.5584 33.4531 82.2644 34.2121 82.2056 34.504C82.088 34.9711 81.9116 35.4381 81.8528 35.9636C81.794 36.5474 81.6176 37.1312 81.6176 37.7734C81.6176 38.2989 81.5 38.8243 81.5 39.3497C81.5 39.992 81.4412 40.6342 81.3236 41.218C81.206 41.8602 80.9708 42.5024 80.8532 43.1446C80.6768 43.962 80.1476 44.7793 79.9123 45.5383C79.8535 45.7718 79.9123 46.7059 79.5595 46.8227C79.2655 46.8811 79.2655 46.5308 79.3243 46.414C79.4419 46.2389 79.5007 46.1221 79.5595 45.8886C79.6183 45.7134 79.6183 45.5383 79.7359 45.3631C79.9124 45.0128 80.1476 44.7793 80.2652 44.3706C80.3828 43.9036 80.5004 43.5533 80.6768 43.0862C80.7944 43.0278 80.8532 42.7359 80.912 42.444ZM79.6771 43.4949C79.7947 43.3197 80.1476 42.8527 80.1476 43.3197C80.1476 43.5533 79.7947 43.8452 79.6771 44.0203C79.5595 44.2539 79.3831 44.4874 79.2655 44.7793C79.0303 45.2464 78.7951 45.7134 78.3835 46.0637C78.0307 46.3556 77.6779 45.8302 77.8543 45.5383C78.0307 45.2464 78.3247 45.188 78.5599 44.9545C78.7951 44.7209 78.9715 44.429 79.1479 44.1955C79.3831 43.962 79.5007 43.7284 79.6771 43.4949ZM77.325 47.6984C77.3838 47.6984 77.4426 47.6984 77.4426 47.64C77.4426 47.5817 77.4427 47.5817 77.3839 47.5817C77.2074 47.5233 77.0898 47.4649 76.9134 47.5817C77.0898 47.5233 77.2074 47.6984 77.325 47.6984ZM74.1497 37.5983C74.0321 37.8902 74.1497 38.5324 74.3849 38.7659C74.5025 38.8243 74.6789 38.8827 74.7965 38.7659C74.8553 38.7075 74.7965 38.474 74.7965 38.3572C74.8553 38.0069 75.0318 37.8318 75.1494 37.5983C75.267 37.4231 75.267 37.1312 75.0318 36.9561C74.9142 36.8977 74.7965 36.8977 74.6789 36.9561C74.5025 37.0144 74.2085 37.4231 74.1497 37.5983Z" fill="white"/>
<path d="M95.7299 8.69898C95.7299 0.700589 85.9099 0 81.4997 0C77.0896 0 67.3284 0.700589 67.3284 8.69898C67.3284 12.669 74.5611 16.4638 76.0899 19.1494L76.5015 19.7916V21.8934C76.5015 25.0461 79.5593 24.5206 81.7349 24.5206C83.7342 24.5206 86.6155 24.6374 86.6155 21.8934V19.85L87.0272 19.2078C88.4972 16.5222 95.7299 12.669 95.7299 8.69898ZM93.2602 8.69898C93.3778 10.9759 86.6155 16.1136 84.9103 17.5147C84.0282 18.2737 82.4994 17.2812 81.4997 17.2228C80.2649 17.2228 79.324 18.0986 78.0304 17.3396C76.1487 16.2303 69.9157 10.9759 69.7981 8.6406C69.5041 1.63471 78.9712 2.04339 81.4997 2.04339C84.0282 2.04339 92.9074 1.75147 93.2602 8.69898Z" fill="white"/>
<path d="M85.2629 25.805H77.795C77.2658 25.805 76.7954 26.2721 76.7954 26.8559C76.7954 27.4397 77.207 27.8484 77.795 27.8484H85.2629C85.7922 27.8484 86.2626 27.3813 86.2626 26.8559C86.2626 26.2721 85.7922 25.805 85.2629 25.805Z" fill="white"/>
<path d="M85.2629 28.9577H77.795C77.2658 28.9577 76.7954 29.4247 76.7954 30.0086C76.7954 30.5924 77.207 31.0011 77.795 31.0011H85.2629C85.7922 31.0011 86.2626 30.534 86.2626 30.0086C86.2626 29.4247 85.7922 28.9577 85.2629 28.9577Z" fill="white"/>
</svg>
