<svg width="58" height="58" viewBox="0 0 58 58" fill="none" xmlns="http://www.w3.org/2000/svg">
<path d="M47.9022 0H10.0978L0 16.1559V58H58V16.1559L47.9022 0ZM55.2895 15.4667H29.9667V1.93333H46.8311L55.2895 15.4667ZM11.1689 1.93333H28.0333V15.4667H2.71053L11.1689 1.93333ZM1.93333 56.0667V17.4H56.0667V56.0667H1.93333Z" fill="url(#paint0_linear)"/>
<path d="M34.8 22.2333H23.2C21.6012 22.2333 20.3 23.5344 20.3 25.1333C20.3 26.7321 21.6012 28.0333 23.2 28.0333H34.8C36.3989 28.0333 37.7 26.7321 37.7 25.1333C37.7 23.5344 36.3989 22.2333 34.8 22.2333ZM34.8 26.0999H23.2C22.6674 26.0999 22.2334 25.6669 22.2334 25.1333C22.2334 24.5997 22.6674 24.1666 23.2 24.1666H34.8C35.3327 24.1666 35.7667 24.5997 35.7667 25.1333C35.7667 25.6669 35.3327 26.0999 34.8 26.0999Z" fill="url(#paint1_linear)"/>
<path d="M36.7334 50.2667H21.2667C20.7331 50.2667 20.3 50.6988 20.3 51.2334C20.3 51.768 20.7331 52.2001 21.2667 52.2001H36.7334C37.267 52.2001 37.7 51.768 37.7 51.2334C37.7 50.6988 37.267 50.2667 36.7334 50.2667Z" fill="url(#paint2_linear)"/>
<path d="M24.1667 48.3333C24.7003 48.3333 25.1334 47.9012 25.1334 47.3666V41.0002L26.3833 42.2501C26.5718 42.4386 26.8192 42.5333 27.0667 42.5333C27.3142 42.5333 27.5616 42.4386 27.7501 42.2501C28.1281 41.8721 28.1281 41.2612 27.7501 40.8832L24.8511 37.9842C24.7622 37.8943 24.6549 37.8237 24.536 37.7744C24.3001 37.6768 24.0333 37.6768 23.7974 37.7744C23.6785 37.8237 23.5722 37.8943 23.4823 37.9842L20.5833 40.8832C20.2053 41.2612 20.2053 41.8721 20.5833 42.2501C20.7718 42.4386 21.0192 42.5333 21.2667 42.5333C21.5142 42.5333 21.7616 42.4386 21.9501 42.2501L23.2 41.0002V47.3666C23.2 47.9012 23.6331 48.3333 24.1667 48.3333Z" fill="url(#paint3_linear)"/>
<path d="M34.5176 37.9842C34.4287 37.8943 34.3214 37.8237 34.2025 37.7744C33.9666 37.6768 33.6998 37.6768 33.464 37.7744C33.3451 37.8237 33.2387 37.8943 33.1488 37.9842L30.2498 40.8832C29.8718 41.2612 29.8718 41.8721 30.2498 42.2501C30.4383 42.4386 30.6858 42.5333 30.9332 42.5333C31.1807 42.5333 31.4282 42.4386 31.6167 42.2501L32.8666 41.0002V47.3666C32.8666 47.9012 33.2996 48.3333 33.8332 48.3333C34.3668 48.3333 34.7999 47.9012 34.7999 47.3666V41.0002L36.0498 42.2501C36.2383 42.4386 36.4858 42.5333 36.7332 42.5333C36.9807 42.5333 37.2282 42.4386 37.4167 42.2501C37.7946 41.8721 37.7946 41.2612 37.4167 40.8832L34.5176 37.9842Z" fill="url(#paint4_linear)"/>
<defs>
<linearGradient id="paint0_linear" x1="29" y1="0" x2="29" y2="58" gradientUnits="userSpaceOnUse">
<stop stop-color="#7B5F54"/>
<stop offset="1" stop-color="#5B433F"/>
</linearGradient>
<linearGradient id="paint1_linear" x1="29" y1="22.2333" x2="29" y2="28.0333" gradientUnits="userSpaceOnUse">
<stop stop-color="#7B5F54"/>
<stop offset="1" stop-color="#5B433F"/>
</linearGradient>
<linearGradient id="paint2_linear" x1="29" y1="50.2667" x2="29" y2="52.2001" gradientUnits="userSpaceOnUse">
<stop stop-color="#7B5F54"/>
<stop offset="1" stop-color="#5B433F"/>
</linearGradient>
<linearGradient id="paint3_linear" x1="24.1667" y1="37.7012" x2="24.1667" y2="48.3333" gradientUnits="userSpaceOnUse">
<stop stop-color="#7B5F54"/>
<stop offset="1" stop-color="#5B433F"/>
</linearGradient>
<linearGradient id="paint4_linear" x1="33.8332" y1="37.7012" x2="33.8332" y2="48.3333" gradientUnits="userSpaceOnUse">
<stop stop-color="#7B5F54"/>
<stop offset="1" stop-color="#5B433F"/>
</linearGradient>
</defs>
</svg>
