<svg width="59" height="71" viewBox="0 0 59 71" fill="none" xmlns="http://www.w3.org/2000/svg">
<path d="M29.4851 71C13.4286 70.9278 0.361103 58.0619 0.0404243 42.0089C-0.280834 25.9559 12.2615 12.577 28.3018 11.8628V1.18333C28.3018 0.529842 28.8316 0 29.4851 0C30.1386 0 30.6684 0.529842 30.6684 1.18333V11.8628C46.7087 12.577 59.251 25.9559 58.9298 42.0089C58.6085 58.0619 45.541 70.9278 29.4851 71ZM29.4851 26.0333C28.8316 26.0333 28.3018 25.5035 28.3018 24.85V23.9954C27.3738 24.5311 26.9214 25.6231 27.1987 26.6579C27.4761 27.6922 28.4138 28.4121 29.4851 28.4121C30.5558 28.4121 31.4935 27.6922 31.7709 26.6579C32.0482 25.6231 31.5958 24.5311 30.6684 23.9954V24.85C30.6684 25.5035 30.1386 26.0333 29.4851 26.0333ZM30.6684 14.2295V21.4681C32.9762 22.0639 34.4807 24.2832 34.1803 26.6475C33.8804 29.0119 31.8685 30.7846 29.4851 30.7846C27.1011 30.7846 25.0898 29.0119 24.7893 26.6475C24.4889 24.2832 25.9934 22.0639 28.3018 21.4681V14.2295C13.5147 14.8731 1.95294 27.2149 2.27478 42.0124C2.59661 56.8098 14.6842 68.6374 29.4851 68.6374C44.2854 68.6374 56.373 56.8098 56.6948 42.0124C57.0167 27.2149 45.4549 14.8731 30.6684 14.2295Z" fill="url(#paint0_linear)"/>
<path d="M37.2946 58.9297C36.7723 59.3221 36.0304 59.2163 35.6381 58.6934L21.4381 39.7601C21.0463 39.2372 21.1521 38.4953 21.675 38.1035C22.1979 37.7112 22.9392 37.817 23.3315 38.3399L37.5315 57.2732C37.9239 57.7961 37.8176 58.538 37.2946 58.9297Z" fill="url(#paint1_linear)"/>
<path d="M35.4017 47.3334C32.7871 47.3334 30.6683 45.214 30.6683 42.6C30.6683 39.9861 32.7871 37.8667 35.4017 37.8667C38.0156 37.8667 40.135 39.9861 40.135 42.6C40.135 45.214 38.0156 47.3334 35.4017 47.3334ZM35.4017 40.2334C34.0941 40.2334 33.035 41.2931 33.035 42.6C33.035 43.907 34.0941 44.9667 35.4017 44.9667C36.7087 44.9667 37.7683 43.907 37.7683 42.6C37.7683 41.2931 36.7087 40.2334 35.4017 40.2334Z" fill="url(#paint2_linear)"/>
<path d="M28.3015 54.4333C28.3015 57.0472 26.1821 59.1666 23.5682 59.1666C20.9536 59.1666 18.8348 57.0472 18.8348 54.4333C18.8348 51.8193 20.9536 49.7 23.5682 49.7C26.1821 49.7 28.3015 51.8193 28.3015 54.4333ZM21.2015 54.4333C21.2015 55.7403 22.2606 56.8 23.5682 56.8C24.8752 56.8 25.9348 55.7403 25.9348 54.4333C25.9348 53.1263 24.8752 52.0666 23.5682 52.0666C22.2606 52.0666 21.2015 53.1263 21.2015 54.4333Z" fill="url(#paint3_linear)"/>
<defs>
<linearGradient id="paint0_linear" x1="29.4851" y1="0" x2="29.4851" y2="71" gradientUnits="userSpaceOnUse">
<stop stop-color="#7B5F54"/>
<stop offset="1" stop-color="#5B433F"/>
</linearGradient>
<linearGradient id="paint1_linear" x1="29.4849" y1="37.8666" x2="29.4849" y2="59.1667" gradientUnits="userSpaceOnUse">
<stop stop-color="#7B5F54"/>
<stop offset="1" stop-color="#5B433F"/>
</linearGradient>
<linearGradient id="paint2_linear" x1="35.4017" y1="37.8667" x2="35.4017" y2="47.3334" gradientUnits="userSpaceOnUse">
<stop stop-color="#7B5F54"/>
<stop offset="1" stop-color="#5B433F"/>
</linearGradient>
<linearGradient id="paint3_linear" x1="23.5682" y1="49.7" x2="23.5682" y2="59.1666" gradientUnits="userSpaceOnUse">
<stop stop-color="#7B5F54"/>
<stop offset="1" stop-color="#5B433F"/>
</linearGradient>
</defs>
</svg>
