<svg width="57" height="57" viewBox="0 0 57 57" fill="none" xmlns="http://www.w3.org/2000/svg">
<path d="M30.3911 37.5222H45.5863C46.1561 37.5222 46.536 37.1424 46.536 36.5726V28.0252C46.536 27.4554 46.1561 27.0756 45.5863 27.0756H30.3911C29.8212 27.0756 29.4414 27.4554 29.4414 28.0252V36.5726C29.4413 37.1423 29.8212 37.5222 30.3911 37.5222ZM31.3407 28.9749H44.6366V35.6228H31.3407V28.9749Z" fill="#C4C4C4"/>
<path d="M30.3911 37.5222H45.5863C46.1561 37.5222 46.536 37.1424 46.536 36.5726V28.0252C46.536 27.4554 46.1561 27.0756 45.5863 27.0756H30.3911C29.8212 27.0756 29.4414 27.4554 29.4414 28.0252V36.5726C29.4413 37.1423 29.8212 37.5222 30.3911 37.5222ZM31.3407 28.9749H44.6366V35.6228H31.3407V28.9749Z" fill="url(#paint0_linear)"/>
<path d="M4.74801 25.1759H12.3457C12.9155 25.1759 13.2953 24.7961 13.2953 24.2263C13.2953 23.6565 12.9155 23.2766 12.3457 23.2766H4.74801C4.17818 23.2766 3.79834 23.6565 3.79834 24.2263C3.79834 24.7961 4.17818 25.1759 4.74801 25.1759Z" fill="#C4C4C4"/>
<path d="M4.74801 25.1759H12.3457C12.9155 25.1759 13.2953 24.7961 13.2953 24.2263C13.2953 23.6565 12.9155 23.2766 12.3457 23.2766H4.74801C4.17818 23.2766 3.79834 23.6565 3.79834 24.2263C3.79834 24.7961 4.17818 25.1759 4.74801 25.1759Z" fill="url(#paint1_linear)"/>
<path d="M16.1457 25.1759H23.7434C24.3132 25.1759 24.693 24.7961 24.693 24.2263C24.693 23.6565 24.3132 23.2766 23.7434 23.2766H16.1457C15.5759 23.2766 15.196 23.6565 15.196 24.2263C15.196 24.7961 15.5759 25.1759 16.1457 25.1759Z" fill="#C4C4C4"/>
<path d="M16.1457 25.1759H23.7434C24.3132 25.1759 24.693 24.7961 24.693 24.2263C24.693 23.6565 24.3132 23.2766 23.7434 23.2766H16.1457C15.5759 23.2766 15.196 23.6565 15.196 24.2263C15.196 24.7961 15.5759 25.1759 16.1457 25.1759Z" fill="url(#paint2_linear)"/>
<path d="M4.74801 28.9749H17.0941C17.6639 28.9749 18.0438 28.595 18.0438 28.0252C18.0438 27.4554 17.6639 27.0756 17.0941 27.0756H4.74801C4.17818 27.0756 3.79834 27.4554 3.79834 28.0252C3.79834 28.595 4.17818 28.9749 4.74801 28.9749Z" fill="#C4C4C4"/>
<path d="M4.74801 28.9749H17.0941C17.6639 28.9749 18.0438 28.595 18.0438 28.0252C18.0438 27.4554 17.6639 27.0756 17.0941 27.0756H4.74801C4.17818 27.0756 3.79834 27.4554 3.79834 28.0252C3.79834 28.595 4.17818 28.9749 4.74801 28.9749Z" fill="url(#paint3_linear)"/>
<path d="M23.7431 27.0754H20.894C20.3242 27.0754 19.9443 27.4553 19.9443 28.0251C19.9443 28.5949 20.3242 28.9748 20.894 28.9748H23.7431C24.3129 28.9748 24.6928 28.5949 24.6928 28.0251C24.6928 27.4553 24.3129 27.0754 23.7431 27.0754Z" fill="#C4C4C4"/>
<path d="M23.7431 27.0754H20.894C20.3242 27.0754 19.9443 27.4553 19.9443 28.0251C19.9443 28.5949 20.3242 28.9748 20.894 28.9748H23.7431C24.3129 28.9748 24.6928 28.5949 24.6928 28.0251C24.6928 27.4553 24.3129 27.0754 23.7431 27.0754Z" fill="url(#paint4_linear)"/>
<path d="M56.1275 15.2991C55.4627 14.4444 54.608 13.9695 53.5633 13.8746L51.284 13.5983V10.9304V9.03108C51.284 6.94177 49.5745 5.2323 47.4852 5.2323H3.79878C1.70947 5.23219 0 6.94166 0 9.03108V10.9305V18.5282V39.4216C0 41.137 1.15267 42.5955 2.72146 43.0629C2.6736 44.9841 4.1272 46.6519 6.07817 46.8293L49.9545 51.7677C50.0494 51.7677 50.2394 51.7677 50.3343 51.7677C52.2337 51.7677 53.9432 50.3432 54.1331 48.5388L56.9822 18.0533C57.0771 17.1035 56.7922 16.0588 56.1275 15.2991ZM1.89944 11.8802H49.3846V14.3495V17.5784H1.89944V11.8802ZM3.79878 7.13163H47.4851C48.5298 7.13163 49.3845 7.98637 49.3845 9.03108V9.98074H1.89944V9.03108C1.89944 7.98637 2.75418 7.13163 3.79878 7.13163ZM1.89944 39.4215V19.4777H49.3846V39.4215C49.3846 40.4662 48.5299 41.321 47.4852 41.321H3.89382H3.79889C2.75418 41.321 1.89944 40.4662 1.89944 39.4215ZM55.0828 17.6733L52.2336 48.1588C52.1387 49.2035 51.1889 49.9632 50.1443 49.8683L6.36297 44.9299C5.41331 44.8349 4.74844 44.0751 4.65351 43.2204H47.4851C49.5744 43.2204 51.2839 41.5109 51.2839 39.4216V18.5281V15.3941L53.4682 15.584C53.9431 15.584 54.4179 15.8689 54.7028 16.2488C54.9878 16.6286 55.1778 17.1985 55.0828 17.6733Z" fill="#C4C4C4"/>
<path d="M56.1275 15.2991C55.4627 14.4444 54.608 13.9695 53.5633 13.8746L51.284 13.5983V10.9304V9.03108C51.284 6.94177 49.5745 5.2323 47.4852 5.2323H3.79878C1.70947 5.23219 0 6.94166 0 9.03108V10.9305V18.5282V39.4216C0 41.137 1.15267 42.5955 2.72146 43.0629C2.6736 44.9841 4.1272 46.6519 6.07817 46.8293L49.9545 51.7677C50.0494 51.7677 50.2394 51.7677 50.3343 51.7677C52.2337 51.7677 53.9432 50.3432 54.1331 48.5388L56.9822 18.0533C57.0771 17.1035 56.7922 16.0588 56.1275 15.2991ZM1.89944 11.8802H49.3846V14.3495V17.5784H1.89944V11.8802ZM3.79878 7.13163H47.4851C48.5298 7.13163 49.3845 7.98637 49.3845 9.03108V9.98074H1.89944V9.03108C1.89944 7.98637 2.75418 7.13163 3.79878 7.13163ZM1.89944 39.4215V19.4777H49.3846V39.4215C49.3846 40.4662 48.5299 41.321 47.4852 41.321H3.89382H3.79889C2.75418 41.321 1.89944 40.4662 1.89944 39.4215ZM55.0828 17.6733L52.2336 48.1588C52.1387 49.2035 51.1889 49.9632 50.1443 49.8683L6.36297 44.9299C5.41331 44.8349 4.74844 44.0751 4.65351 43.2204H47.4851C49.5744 43.2204 51.2839 41.5109 51.2839 39.4216V18.5281V15.3941L53.4682 15.584C53.9431 15.584 54.4179 15.8689 54.7028 16.2488C54.9878 16.6286 55.1778 17.1985 55.0828 17.6733Z" fill="url(#paint5_linear)"/>
<defs>
<linearGradient id="paint0_linear" x1="37.9887" y1="27.0756" x2="37.9887" y2="37.5222" gradientUnits="userSpaceOnUse">
<stop stop-color="#7B5F54"/>
<stop offset="1" stop-color="#5B433F"/>
</linearGradient>
<linearGradient id="paint1_linear" x1="8.54684" y1="23.2766" x2="8.54684" y2="25.1759" gradientUnits="userSpaceOnUse">
<stop stop-color="#7B5F54"/>
<stop offset="1" stop-color="#5B433F"/>
</linearGradient>
<linearGradient id="paint2_linear" x1="19.9445" y1="23.2766" x2="19.9445" y2="25.1759" gradientUnits="userSpaceOnUse">
<stop stop-color="#7B5F54"/>
<stop offset="1" stop-color="#5B433F"/>
</linearGradient>
<linearGradient id="paint3_linear" x1="10.9211" y1="27.0756" x2="10.9211" y2="28.9749" gradientUnits="userSpaceOnUse">
<stop stop-color="#7B5F54"/>
<stop offset="1" stop-color="#5B433F"/>
</linearGradient>
<linearGradient id="paint4_linear" x1="22.3186" y1="27.0754" x2="22.3186" y2="28.9748" gradientUnits="userSpaceOnUse">
<stop stop-color="#7B5F54"/>
<stop offset="1" stop-color="#5B433F"/>
</linearGradient>
<linearGradient id="paint5_linear" x1="28.5" y1="5.2323" x2="28.5" y2="51.7677" gradientUnits="userSpaceOnUse">
<stop stop-color="#7B5F54"/>
<stop offset="1" stop-color="#5B433F"/>
</linearGradient>
</defs>
</svg>
