<svg width="71" height="71" viewBox="0 0 71 71" fill="none" xmlns="http://www.w3.org/2000/svg">
<g clip-path="url(#clip0)">
<path d="M35.4851 71C19.4286 70.9278 6.3611 58.0619 6.04042 42.0089C5.71917 25.9559 18.2615 12.577 34.3018 11.8628V1.18333C34.3018 0.529842 34.8316 0 35.4851 0C36.1386 0 36.6684 0.529842 36.6684 1.18333V11.8628C52.7087 12.577 65.251 25.9559 64.9298 42.0089C64.6085 58.0619 51.541 70.9278 35.4851 71ZM35.4851 26.0333C34.8316 26.0333 34.3018 25.5035 34.3018 24.85V23.9954C33.3738 24.5311 32.9214 25.6231 33.1987 26.6579C33.4761 27.6922 34.4138 28.4121 35.4851 28.4121C36.5558 28.4121 37.4935 27.6922 37.7709 26.6579C38.0482 25.6231 37.5958 24.5311 36.6684 23.9954V24.85C36.6684 25.5035 36.1386 26.0333 35.4851 26.0333ZM36.6684 14.2295V21.4681C38.9762 22.0639 40.4807 24.2832 40.1803 26.6475C39.8804 29.0119 37.8685 30.7846 35.4851 30.7846C33.1011 30.7846 31.0898 29.0119 30.7893 26.6475C30.4889 24.2832 31.9934 22.0639 34.3018 21.4681V14.2295C19.5147 14.8731 7.95294 27.2149 8.27478 42.0124C8.59661 56.8098 20.6842 68.6374 35.4851 68.6374C50.2854 68.6374 62.373 56.8098 62.6948 42.0124C63.0167 27.2149 51.4549 14.8731 36.6684 14.2295Z" fill="url(#paint0_linear)"/>
<path d="M43.2946 58.9297C42.7723 59.3221 42.0304 59.2163 41.6381 58.6934L27.4381 39.7601C27.0463 39.2372 27.1521 38.4953 27.675 38.1035C28.1979 37.7112 28.9392 37.817 29.3315 38.3399L43.5315 57.2732C43.9239 57.7961 43.8176 58.538 43.2946 58.9297Z" fill="url(#paint1_linear)"/>
<path d="M41.4017 47.3334C38.7871 47.3334 36.6683 45.214 36.6683 42.6C36.6683 39.9861 38.7871 37.8667 41.4017 37.8667C44.0156 37.8667 46.135 39.9861 46.135 42.6C46.135 45.214 44.0156 47.3334 41.4017 47.3334ZM41.4017 40.2334C40.0941 40.2334 39.035 41.2931 39.035 42.6C39.035 43.907 40.0941 44.9667 41.4017 44.9667C42.7087 44.9667 43.7683 43.907 43.7683 42.6C43.7683 41.2931 42.7087 40.2334 41.4017 40.2334Z" fill="url(#paint2_linear)"/>
<path d="M34.3015 54.4333C34.3015 57.0472 32.1821 59.1666 29.5682 59.1666C26.9536 59.1666 24.8348 57.0472 24.8348 54.4333C24.8348 51.8193 26.9536 49.7 29.5682 49.7C32.1821 49.7 34.3015 51.8193 34.3015 54.4333ZM27.2015 54.4333C27.2015 55.7403 28.2606 56.8 29.5682 56.8C30.8752 56.8 31.9348 55.7403 31.9348 54.4333C31.9348 53.1263 30.8752 52.0666 29.5682 52.0666C28.2606 52.0666 27.2015 53.1263 27.2015 54.4333Z" fill="url(#paint3_linear)"/>
</g>
<defs>
<linearGradient id="paint0_linear" x1="35.4851" y1="0" x2="35.4851" y2="71" gradientUnits="userSpaceOnUse">
<stop stop-color="#7B5F54"/>
<stop offset="1" stop-color="#5B433F"/>
</linearGradient>
<linearGradient id="paint1_linear" x1="35.4849" y1="37.8666" x2="35.4849" y2="59.1667" gradientUnits="userSpaceOnUse">
<stop stop-color="#7B5F54"/>
<stop offset="1" stop-color="#5B433F"/>
</linearGradient>
<linearGradient id="paint2_linear" x1="41.4017" y1="37.8667" x2="41.4017" y2="47.3334" gradientUnits="userSpaceOnUse">
<stop stop-color="#7B5F54"/>
<stop offset="1" stop-color="#5B433F"/>
</linearGradient>
<linearGradient id="paint3_linear" x1="29.5682" y1="49.7" x2="29.5682" y2="59.1666" gradientUnits="userSpaceOnUse">
<stop stop-color="#7B5F54"/>
<stop offset="1" stop-color="#5B433F"/>
</linearGradient>
<clipPath id="clip0">
<rect width="71" height="71" fill="white" transform="matrix(-1 0 0 1 71 0)"/>
</clipPath>
</defs>
</svg>
