<svg width="70" height="70" viewBox="0 0 70 70" fill="none" xmlns="http://www.w3.org/2000/svg">
<g clip-path="url(#clip0)">
<path d="M37.9395 55.9755C37.4988 54.7644 36.337 53.9509 35.0488 53.9509C34.6901 53.9509 34.3362 54.0135 33.9969 54.1369C32.4032 54.7171 31.5786 56.4858 32.1585 58.0797C32.5992 59.2906 33.7611 60.1041 35.0492 60.1041C35.408 60.1041 35.7618 60.0414 36.101 59.9181C37.6949 59.338 38.5195 57.5693 37.9395 55.9755ZM35.3998 57.9911C35.2862 58.0325 35.1682 58.0534 35.0494 58.0534C34.6198 58.0534 34.2325 57.7822 34.0855 57.3783C33.8922 56.847 34.1671 56.2574 34.6983 56.064C34.8119 56.0226 34.9299 56.0017 35.0487 56.0017C35.4781 56.0017 35.8654 56.2729 36.0124 56.6769C36.2059 57.2081 35.9311 57.7976 35.3998 57.9911Z" fill="url(#paint0_linear)"/>
<path d="M69.9378 46.0943L68.5348 42.2403C68.4388 41.9765 68.2458 41.7765 68.0109 41.665C68.0088 41.664 68.0068 41.6628 68.0047 41.6618C67.9894 41.6546 67.9734 41.649 67.9577 41.6425C67.9429 41.6365 67.9284 41.6297 67.9134 41.6243C67.9099 41.623 67.906 41.6222 67.9023 41.6211C67.6886 41.5479 67.4495 41.544 67.2208 41.6274L63.8678 42.8467L56.7351 23.2485C56.7349 23.2479 56.7345 23.2475 56.7344 23.2471L53.9298 15.5406C53.7821 15.1373 53.3952 14.8665 52.9659 14.8665C52.847 14.8665 52.728 14.887 52.6159 14.928C52.0841 15.1208 51.8093 15.7114 52.002 16.2418L54.4576 22.9864L41.2896 27.7789C41.2895 27.7789 41.2892 27.7789 41.289 27.7791C41.2885 27.7792 41.2883 27.7795 41.2879 27.7795L33.2601 30.7011L27.8821 15.9281L34.9487 13.3564L36.4684 17.531C36.6147 17.9343 37.0016 18.2065 37.4309 18.2065C37.5512 18.2065 37.6688 18.186 37.7823 18.1434L42.9214 16.2731C43.1784 16.1802 43.3835 15.9915 43.4997 15.744C43.5855 15.56 43.6136 15.3595 43.585 15.1635C43.5849 15.1624 43.5849 15.1614 43.5847 15.1604C43.5808 15.1337 43.575 15.1069 43.5689 15.0806C43.5671 15.073 43.5661 15.0659 43.5644 15.0584C43.556 15.0252 43.5459 14.9922 43.534 14.9594L42.0148 10.7847L49.0798 8.21349L50.5993 12.3876C50.747 12.7909 51.1339 13.063 51.5632 13.063C51.6821 13.063 51.8011 13.0425 51.9145 13.0001C52.445 12.8073 52.7198 12.218 52.527 11.6863L50.6567 6.54717C50.5275 6.1943 50.2153 5.94287 49.8515 5.88545C49.7995 5.87725 49.7465 5.87301 49.6929 5.87301C49.5739 5.87301 49.455 5.89352 49.3429 5.93453L40.3545 9.20633C40.353 9.20688 40.3513 9.20702 40.3498 9.20756C40.3471 9.20852 40.3446 9.20989 40.3419 9.21084L35.2198 11.0754C35.2168 11.0765 35.2138 11.0768 35.2108 11.0779C35.2057 11.0798 35.2009 11.0822 35.1958 11.0842L26.2177 14.3521C25.9607 14.4451 25.7556 14.6338 25.6394 14.8812C25.5232 15.13 25.5109 15.4088 25.6052 15.666L31.6834 32.3668L37.5285 48.4273C36.7875 48.2009 36.0095 48.0737 35.2127 48.0583L20.4049 7.37349C19.438 4.7172 16.4904 3.34277 13.8338 4.30937C13.8334 4.3095 13.833 4.30978 13.8326 4.30991L0.677163 9.05458C0.677026 9.05471 0.676752 9.05471 0.676479 9.05485C0.675795 9.05512 0.675112 9.05526 0.674291 9.05553C0.650639 9.06415 0.628218 9.0744 0.605659 9.08452C0.597046 9.08834 0.588022 9.09149 0.579546 9.09559C0.557398 9.10612 0.536343 9.11842 0.515289 9.13045C0.506675 9.13538 0.497515 9.13961 0.489039 9.14495C0.468804 9.15725 0.449937 9.17092 0.430797 9.18446C0.42232 9.19047 0.413297 9.19594 0.405094 9.20209C0.387321 9.21563 0.370778 9.23026 0.353961 9.24489C0.345485 9.25241 0.336325 9.2591 0.328122 9.26676C0.312262 9.28125 0.29777 9.29725 0.283005 9.3127C0.274938 9.32131 0.266325 9.3291 0.258532 9.33785C0.244587 9.35358 0.231872 9.37039 0.218884 9.38694C0.211501 9.39623 0.203435 9.40526 0.196462 9.41496C0.184705 9.4311 0.174314 9.44805 0.163513 9.46487C0.156541 9.4758 0.148884 9.48619 0.142322 9.49727C0.132478 9.51395 0.124002 9.53145 0.115115 9.54867C0.108963 9.56057 0.102127 9.57219 0.0963847 9.58436C0.0884551 9.60131 0.0820294 9.61881 0.07492 9.63617C0.069588 9.64944 0.0635724 9.66201 0.058924 9.67541C0.0529084 9.69236 0.04826 9.70986 0.0432015 9.72709C0.0389632 9.74131 0.0340413 9.75539 0.03035 9.76988C0.0261117 9.78684 0.0232406 9.80434 0.0198227 9.82156C0.0168149 9.8366 0.0131235 9.85164 0.0107993 9.86682C0.00806494 9.88432 0.00710791 9.90209 0.00533058 9.91973C0.00382668 9.93504 0.00150248 9.95035 0.000682171 9.9658C-0.000274855 9.98385 0.000408735 10.0019 0.000408735 10.0199C0.000408735 10.0354 -0.000411573 10.0508 0.000272017 10.0663C0.00109232 10.0846 0.00368997 10.1031 0.0054673 10.1214C0.0069712 10.1366 0.0077915 10.1519 0.00997899 10.1672C0.0127133 10.1854 0.0170883 10.2036 0.0207797 10.2217C0.0239242 10.2372 0.0262484 10.2528 0.0300765 10.2682C0.0345882 10.2864 0.041014 10.3043 0.0466194 10.3224C0.0512678 10.3373 0.0549592 10.3524 0.0602912 10.3673C0.0604279 10.3676 0.0605646 10.368 0.0607014 10.3683C0.0608381 10.369 0.0609748 10.3695 0.0612482 10.3702L1.46411 14.2243C1.47464 14.2533 1.48913 14.2797 1.50185 14.3071C1.51183 14.3285 1.51989 14.3512 1.53124 14.3715C1.54724 14.4004 1.56651 14.4261 1.58497 14.453C1.59659 14.4698 1.60643 14.4883 1.61901 14.5043C1.64102 14.5326 1.66618 14.5577 1.69079 14.5832C1.70227 14.5951 1.71239 14.6086 1.72442 14.62C1.75218 14.6461 1.78266 14.6688 1.81288 14.6915C1.82382 14.6998 1.83366 14.7095 1.84487 14.7172C1.87755 14.7397 1.91255 14.7587 1.94755 14.7772C1.95794 14.7826 1.96751 14.7898 1.97803 14.795C2.01385 14.8125 2.05145 14.826 2.08905 14.8391C2.09999 14.8429 2.11024 14.8484 2.12131 14.852C2.15987 14.8641 2.19952 14.8719 2.23944 14.8796C2.25038 14.8816 2.26104 14.8855 2.27211 14.8871C2.32325 14.8952 2.37534 14.8991 2.42784 14.8991C2.45682 14.8991 2.48594 14.8978 2.5152 14.8954C2.52121 14.8949 2.52709 14.8937 2.53311 14.8931C2.55635 14.8907 2.57946 14.8881 2.6027 14.8841C2.61336 14.8822 2.62403 14.8793 2.63469 14.8771C2.65315 14.8733 2.6716 14.8697 2.68992 14.8648C2.70947 14.8598 2.72875 14.8531 2.74817 14.8466C2.75733 14.8438 2.76649 14.8413 2.77551 14.838L2.7766 14.8376C2.77715 14.8375 2.7777 14.8372 2.77824 14.8371C2.77865 14.8369 2.77906 14.8367 2.77947 14.8365L14.9729 10.4386L29.4326 50.1651C26.8533 52.4212 25.7791 56.1159 27.0198 59.5244C28.2443 62.8884 31.4712 65.1487 35.0498 65.1487C36.0454 65.1487 37.0284 64.9747 37.9716 64.6314C40.1163 63.8507 41.8286 62.2819 42.7933 60.2133C43.306 59.1137 43.5721 57.9433 43.5943 56.7656L69.3247 47.4087C69.3247 47.4087 69.3249 47.4087 69.325 47.4086H69.3252C69.332 47.4062 69.3383 47.4029 69.345 47.4003C69.3711 47.3902 69.3969 47.3799 69.4217 47.3679C69.4322 47.3628 69.4419 47.3567 69.4523 47.3512C69.4725 47.3407 69.4928 47.3304 69.512 47.3186C69.523 47.3118 69.5331 47.3039 69.5438 47.2969C69.5613 47.2852 69.5792 47.2738 69.5959 47.2612C69.6012 47.2571 69.6058 47.2525 69.611 47.2484C69.6321 47.2316 69.653 47.2147 69.6726 47.1966C69.6758 47.193 69.6788 47.1896 69.6821 47.1864C69.7028 47.1665 69.723 47.1464 69.742 47.1251C69.7458 47.1208 69.749 47.116 69.7528 47.1117C69.7706 47.0909 69.7879 47.0698 69.8039 47.0478C69.8057 47.0455 69.8071 47.0429 69.8087 47.0404C69.8261 47.016 69.8428 46.9911 69.8579 46.9652C69.8607 46.9606 69.8629 46.9555 69.8656 46.9507C69.8791 46.927 69.8921 46.903 69.9037 46.8783C69.9083 46.8686 69.9118 46.8583 69.9159 46.8485C69.9247 46.8282 69.9336 46.808 69.9411 46.7872C69.9461 46.7729 69.9498 46.7581 69.9542 46.7436C69.9594 46.7268 69.9653 46.7101 69.9695 46.693C69.9758 46.6677 69.9804 46.642 69.9848 46.6163C69.9859 46.6095 69.9878 46.6029 69.9888 46.5962C70.0133 46.4327 69.9984 46.2607 69.9378 46.0943ZM40.088 11.4861L41.2563 14.6976L38.0445 15.8665L36.8756 12.6552L40.088 11.4861ZM46.1665 28.1868L47.3356 31.398L44.1228 32.5672L42.9542 29.3558L46.1665 28.1868ZM33.962 32.6283L41.0274 30.0571L42.5472 34.2316C42.6935 34.6349 43.0804 34.9068 43.511 34.9068C43.63 34.9068 43.7476 34.8851 43.861 34.844L49.0001 32.9737C49.532 32.7809 49.8068 32.1916 49.6126 31.6598L48.093 27.4855L55.1595 24.9137L61.9414 43.5466L41.4831 50.9864C41.0989 50.5477 40.673 50.1493 40.2109 49.7989L33.962 32.6283ZM16.5507 8.77608C16.5446 8.75967 16.5371 8.74423 16.5304 8.72809C16.5237 8.71237 16.5177 8.6961 16.5103 8.68065C16.5036 8.66657 16.4957 8.65372 16.4885 8.64018C16.4794 8.62337 16.4708 8.60614 16.461 8.59001C16.4541 8.57893 16.4463 8.56882 16.4391 8.55802C16.4275 8.54052 16.4163 8.52274 16.4036 8.5062C16.397 8.49745 16.3895 8.48966 16.3826 8.48104C16.3684 8.46341 16.3543 8.44577 16.3389 8.42923C16.3327 8.42253 16.3258 8.41651 16.3193 8.40995C16.3024 8.39272 16.2856 8.3755 16.2675 8.3595C16.2623 8.35499 16.2567 8.35102 16.2515 8.34665C16.2316 8.32956 16.2113 8.31274 16.1901 8.29743C16.1871 8.29524 16.1838 8.2936 16.1808 8.29128C16.1571 8.27433 16.1327 8.25819 16.1076 8.24329C16.1056 8.2422 16.1036 8.24124 16.1017 8.24028C15.9617 8.15894 15.8031 8.11095 15.639 8.10233C15.6375 8.10233 15.6362 8.10247 15.6347 8.10233C15.6029 8.10083 15.5711 8.10069 15.5389 8.1022C15.5331 8.10247 15.5272 8.10356 15.5213 8.10397C15.4937 8.10575 15.4661 8.10794 15.4385 8.11204C15.4252 8.11409 15.4121 8.11737 15.3988 8.11997C15.3786 8.12366 15.3582 8.12708 15.338 8.13214C15.315 8.13788 15.2922 8.14567 15.2693 8.15292C15.2592 8.1562 15.249 8.15866 15.2389 8.16222L15.2375 8.16276C15.2371 8.1629 15.2365 8.16304 15.236 8.16317C15.2356 8.16331 15.2352 8.16358 15.2348 8.16372L3.04129 12.5617L2.33979 10.6345L14.5317 6.23709C14.532 6.23695 14.5322 6.23682 14.5324 6.23682C14.5331 6.23654 14.5338 6.23641 14.5346 6.23613C16.1288 5.65604 17.8972 6.48072 18.4773 8.07472L33.1108 48.2803C32.7785 48.358 32.4497 48.4544 32.1258 48.5724C31.7995 48.6912 31.4864 48.8299 31.184 48.9831L16.5507 8.77608ZM40.9343 59.3463C40.2012 60.9184 38.8999 62.1109 37.27 62.7041C36.5522 62.9653 35.8051 63.0978 35.0496 63.0978C32.3298 63.0978 29.8772 61.3798 28.9467 58.8228C27.722 55.4582 29.4631 51.7243 32.8279 50.4994C33.5457 50.2381 34.2927 50.1056 35.0483 50.1056C37.7679 50.1056 40.2206 51.8236 41.1511 54.3808C41.7445 56.0108 41.6675 57.7743 40.9343 59.3463ZM43.3698 54.6648C43.2919 54.3334 43.1964 54.0044 43.0782 53.6796C42.9601 53.3549 42.8227 53.0407 42.6687 52.7375L66.9583 43.9047L67.6598 45.8318L43.3698 54.6648Z" fill="url(#paint1_linear)"/>
</g>
<defs>
<linearGradient id="paint0_linear" x1="35.049" y1="53.9509" x2="35.049" y2="60.1041" gradientUnits="userSpaceOnUse">
<stop stop-color="#7B5F54"/>
<stop offset="1" stop-color="#5B433F"/>
</linearGradient>
<linearGradient id="paint1_linear" x1="35" y1="4" x2="35" y2="65.1487" gradientUnits="userSpaceOnUse">
<stop stop-color="#7B5F54"/>
<stop offset="1" stop-color="#5B433F"/>
</linearGradient>
<clipPath id="clip0">
<rect width="70" height="70" fill="white"/>
</clipPath>
</defs>
</svg>
