<svg width="16" height="16" viewBox="0 0 16 16" fill="none" xmlns="http://www.w3.org/2000/svg">
<g clip-path="url(#clip0)">
<path fill-rule="evenodd" clip-rule="evenodd" d="M8.88177 8.0891L15.4228 1.54381C15.7158 1.25062 15.7158 0.775308 15.4228 0.482116C15.1298 0.188924 14.6548 0.188924 14.3618 0.482116L7.82077 7.02741L1.27977 0.483117C0.986773 0.189925 0.511773 0.189925 0.218773 0.483117C-0.0742266 0.776309 -0.0742266 1.25162 0.218773 1.54481L6.75977 8.0901L0.219773 14.6344C-0.0732266 14.9276 -0.0732266 15.4029 0.219773 15.6961C0.366773 15.8422 0.557773 15.9162 0.749773 15.9162C0.941773 15.9162 1.13377 15.8432 1.27977 15.6961L7.82077 9.1508L14.3618 15.6961C14.5088 15.8422 14.6998 15.9162 14.8918 15.9162C15.0838 15.9162 15.2758 15.8432 15.4218 15.6961C15.7148 15.4029 15.7148 14.9276 15.4218 14.6344L8.88177 8.0891Z" fill="white"/>
</g>
<defs>
<clipPath id="clip0">
<rect width="15.642" height="15.6523" fill="white" transform="translate(0 0.26297)"/>
</clipPath>
</defs>
</svg>
