<svg width="14" height="14" viewBox="0 0 14 14" fill="none" xmlns="http://www.w3.org/2000/svg">
<path d="M11.375 0H2.62499C1.17511 0 0 1.17511 0 2.62499V11.375C0 12.8249 1.17511 14 2.62499 14H11.375C12.8249 14 14 12.8248 14 11.375V2.62499C14 1.17511 12.8249 0 11.375 0ZM8.8095 6.99911L7.66236 6.99997L7.6615 11.2H6.08737V7H5.03738V5.55274L6.08737 5.55188L6.08561 4.69963C6.08561 3.51839 6.40585 2.80002 7.79623 2.80002H8.95474V4.24814H8.23023C7.68861 4.24814 7.66236 4.45025 7.66236 4.82737L7.66061 5.55188H8.96259L8.8095 6.99911Z" fill="white"/>
</svg>
