<svg width="15" height="15" viewBox="0 0 15 15" fill="none" xmlns="http://www.w3.org/2000/svg">
<g clip-path="url(#clip0)">
<path d="M15.0001 3.48895C14.477 3.72071 13.9158 3.87788 13.3262 3.94805C13.9283 3.58752 14.3891 3.01566 14.6075 2.33634C14.0428 2.67022 13.4194 2.91266 12.7552 3.04408C12.2233 2.47666 11.4667 2.12323 10.6276 2.12323C9.01763 2.12323 7.71228 3.42858 7.71228 5.03762C7.71228 5.26582 7.73803 5.48871 7.78777 5.70185C5.36534 5.58017 3.2173 4.41958 1.77964 2.65601C1.52834 3.08581 1.38537 3.58661 1.38537 4.1212C1.38537 5.13263 1.90041 6.02507 2.68185 6.54719C2.2041 6.53121 1.75478 6.39979 1.36141 6.18133V6.21774C1.36141 7.62965 2.36662 8.80801 3.69948 9.0762C3.45528 9.14191 3.19777 9.17832 2.93137 9.17832C2.74313 9.17832 2.56108 9.15967 2.38259 9.12414C2.75376 10.283 3.83002 11.1257 5.10519 11.1488C4.10796 11.9302 2.85056 12.3946 1.48484 12.3946C1.24954 12.3946 1.01776 12.3804 0.789551 12.3547C2.07981 13.1832 3.61159 13.6662 5.25793 13.6662C10.6205 13.6662 13.5518 9.2245 13.5518 5.3724L13.542 4.99501C14.1147 4.5865 14.6102 4.07325 15.0001 3.48895Z" fill="white"/>
</g>
<defs>
<clipPath id="clip0">
<rect width="14.2105" height="14.2105" fill="white" transform="translate(0.789551 0.78949)"/>
</clipPath>
</defs>
</svg>
