<svg width="18" height="18" viewBox="0 0 18 18" fill="none" xmlns="http://www.w3.org/2000/svg">
<path d="M17.0156 16.0031L12.8742 11.8617C13.9008 10.6102 14.5195 9.00703 14.5195 7.25977C14.5195 3.25195 11.2676 0 7.25977 0C3.24844 0 0 3.25195 0 7.25977C0 11.2676 3.24844 14.5195 7.25977 14.5195C9.00703 14.5195 10.6066 13.9043 11.8582 12.8777L15.9996 17.0156C16.2809 17.2969 16.7344 17.2969 17.0156 17.0156C17.2969 16.7379 17.2969 16.2809 17.0156 16.0031ZM7.25977 13.0746C4.05 13.0746 1.44141 10.466 1.44141 7.25977C1.44141 4.05352 4.05 1.44141 7.25977 1.44141C10.466 1.44141 13.0781 4.05352 13.0781 7.25977C13.0781 10.466 10.466 13.0746 7.25977 13.0746Z" fill="white"/>
</svg>
