<svg width="16" height="18" fill="none" xmlns="http://www.w3.org/2000/svg"><path d="M15.2 15.56L14.17 3.953a.496.496 0 00-.494-.452h-2.12A3.559 3.559 0 008 0a3.559 3.559 0 00-3.556 3.5h-2.12a.493.493 0 00-.493.453L.8 15.56c0 .014-.005.029-.005.044C.796 16.925 2.007 18 3.498 18h9.004c1.49 0 2.702-1.075 2.702-2.396 0-.015 0-.03-.004-.044zM8 .993A2.565 2.565 0 0110.562 3.5H5.438A2.565 2.565 0 018 .994zm4.502 16.012H3.498c-.935 0-1.693-.618-1.708-1.38l.987-11.128H4.44v1.51c0 .275.22.496.496.496.277 0 .497-.22.497-.497V4.498h5.128v1.51c0 .275.22.496.497.496.276 0 .497-.22.497-.497V4.498h1.664l.99 11.128c-.015.762-.777 1.38-1.708 1.38z" fill="#fff"/></svg>