<svg width="89" height="103" fill="none" xmlns="http://www.w3.org/2000/svg"><path d="M59.189 12.727C58.154 5.472 51.839 0 44.499 0c-4.72 0-9.202 2.277-11.989 6.094a1.746 1.746 0 102.819 2.06 11.398 11.398 0 019.17-4.662c5.612 0 10.441 4.182 11.233 9.728a1.747 1.747 0 001.975 1.482 1.746 1.746 0 001.482-1.975z" fill="url(#paint0_linear)"/><path d="M84.402 32.27l-5.237-8.728a1.743 1.743 0 00-1.497-.848h-5.02a1.746 1.746 0 000 3.491h4.032l3.142 5.238H9.174l3.143-5.238h1.849a1.746 1.746 0 000-3.49h-2.837c-.614 0-1.182.32-1.497.847L4.594 32.27a1.748 1.748 0 001.497 2.644h76.814a1.745 1.745 0 001.497-2.644z" fill="url(#paint1_linear)"/><path d="M75.7 16.174a1.743 1.743 0 00-1.086-.78L50.815 9.828a1.747 1.747 0 00-2.097 1.302l-1.795 7.672a1.745 1.745 0 103.4.794l1.397-5.97 20.398 4.77-3.205 13.705a1.744 1.744 0 001.702 2.142c.793 0 1.51-.543 1.697-1.347l3.604-15.404c.106-.45.028-.925-.216-1.318z" fill="url(#paint2_linear)"/><path d="M45.423 20.3l-1.59-13.453a1.743 1.743 0 00-1.94-1.53L12.696 8.77a1.746 1.746 0 00-1.529 1.939l2.652 22.439a1.746 1.746 0 103.468-.41L14.839 12.03 40.57 8.99l1.385 11.72a1.746 1.746 0 103.468-.409z" fill="url(#paint3_linear)"/><path d="M59.23 32.506l-3.466-14.41a1.75 1.75 0 00-.785-1.08 1.757 1.757 0 00-1.32-.208L25.535 23.57a1.746 1.746 0 00-1.29 2.106l1.733 7.202a1.746 1.746 0 003.395-.816l-1.325-5.505 24.729-5.946 3.057 12.711a1.746 1.746 0 103.395-.817z" fill="url(#paint4_linear)"/><path d="M84.651 33.08a1.746 1.746 0 00-1.744-1.656H6.094c-.93 0-1.696.728-1.745 1.656L.858 101.165A1.747 1.747 0 002.6 103h83.797c.478 0 .936-.196 1.267-.543a1.75 1.75 0 00.478-1.292L84.65 33.08zM4.438 99.508l3.313-64.593h73.496l3.313 64.593H4.438z" fill="url(#paint5_linear)"/><path d="M57.593 38.407a5.243 5.243 0 00-5.238 5.237 5.243 5.243 0 005.238 5.237 5.243 5.243 0 005.237-5.237 5.243 5.243 0 00-5.237-5.237zm0 6.983a1.747 1.747 0 01-1.746-1.746c0-.962.783-1.745 1.746-1.745.962 0 1.745.783 1.745 1.745 0 .963-.783 1.746-1.745 1.746z" fill="url(#paint6_linear)"/><path d="M31.407 38.407a5.243 5.243 0 00-5.237 5.237 5.243 5.243 0 005.237 5.237 5.243 5.243 0 005.238-5.237 5.243 5.243 0 00-5.238-5.237zm0 6.983a1.747 1.747 0 01-1.745-1.746c0-.962.783-1.745 1.745-1.745.963 0 1.746.783 1.746 1.745 0 .963-.783 1.746-1.746 1.746z" fill="url(#paint7_linear)"/><path d="M57.592 43.644h-.134a1.746 1.746 0 00-1.611 2.419v8.928c0 6.257-5.09 11.347-11.348 11.347-6.257 0-11.348-5.09-11.348-11.347V45.39a1.746 1.746 0 00-3.49 0v9.601c0 8.183 6.656 14.84 14.838 14.84 8.182 0 14.839-6.657 14.839-14.84V45.39c0-.964-.782-1.746-1.746-1.746z" fill="url(#paint8_linear)"/><defs><linearGradient id="paint0_linear" x1="45.69" y1="0" x2="45.69" y2="14.72" gradientUnits="userSpaceOnUse"><stop stop-color="#7B5F54"/><stop offset="1" stop-color="#5B433F"/></linearGradient><linearGradient id="paint1_linear" x1="44.498" y1="22.694" x2="44.498" y2="34.915" gradientUnits="userSpaceOnUse"><stop stop-color="#7B5F54"/><stop offset="1" stop-color="#5B433F"/></linearGradient><linearGradient id="paint2_linear" x1="61.419" y1="9.782" x2="61.419" y2="34.243" gradientUnits="userSpaceOnUse"><stop stop-color="#7B5F54"/><stop offset="1" stop-color="#5B433F"/></linearGradient><linearGradient id="paint3_linear" x1="28.295" y1="5.306" x2="28.295" y2="34.688" gradientUnits="userSpaceOnUse"><stop stop-color="#7B5F54"/><stop offset="1" stop-color="#5B433F"/></linearGradient><linearGradient id="paint4_linear" x1="41.738" y1="16.76" x2="41.738" y2="34.661" gradientUnits="userSpaceOnUse"><stop stop-color="#7B5F54"/><stop offset="1" stop-color="#5B433F"/></linearGradient><linearGradient id="paint5_linear" x1="44.5" y1="31.424" x2="44.5" y2="103" gradientUnits="userSpaceOnUse"><stop stop-color="#7B5F54"/><stop offset="1" stop-color="#5B433F"/></linearGradient><linearGradient id="paint6_linear" x1="57.593" y1="38.407" x2="57.593" y2="48.881" gradientUnits="userSpaceOnUse"><stop stop-color="#7B5F54"/><stop offset="1" stop-color="#5B433F"/></linearGradient><linearGradient id="paint7_linear" x1="31.407" y1="38.407" x2="31.407" y2="48.881" gradientUnits="userSpaceOnUse"><stop stop-color="#7B5F54"/><stop offset="1" stop-color="#5B433F"/></linearGradient><linearGradient id="paint8_linear" x1="44.499" y1="43.644" x2="44.499" y2="69.83" gradientUnits="userSpaceOnUse"><stop stop-color="#7B5F54"/><stop offset="1" stop-color="#5B433F"/></linearGradient></defs></svg>