<svg width="88" height="151" fill="none" xmlns="http://www.w3.org/2000/svg"><path d="M25.534 110.438c-1.601-1.014-4.906-4.26-5.311-9.129-.506-6.087-2.276-13.695-4.3-16.992-2.023-3.296-9.358-17.244-12.14-24.345C1.001 52.87-6.587 23.707 26.04 5.955c32.627-17.752 61.46 16.484 60.953 35.25-.505 18.767-9.358 31.193-10.875 33.73-1.518 2.535-9.105 18.258-8.852 26.374-.338 2.451-1.72 7.709-4.553 9.129m-37.179 0l-.506 4.565m.506-4.565h37.179m0 0v3.551m-1.517 5.579l1.517-2.029v-3.55m-1.517 5.579l1.517 2.282-1.517 2.536m0-4.818l-34.65 2.282m34.65 2.536l1.517 3.044-1.517 2.028m0-5.072l-34.65 3.044m34.65 2.028l1.517 2.79-1.517 2.282m0-5.072l-34.65 2.79m34.65 2.282l1.517 2.283L49.561 150H37.168l-11.634-11.158 1.012-2.029m34.65-2.283l-34.65 2.283m0 0l-2.023-2.283 2.023-2.282m0 0l-2.023-2.79 2.023-2.028m0 0l-2.023-3.044 2.023-2.536m0 0l-2.023-2.282.505-4.565m0 0l37.685-1.014" stroke="#AFAFAF"/></svg>