<svg width="358" height="239" fill="none" xmlns="http://www.w3.org/2000/svg"><path d="M10.203 205.333a2.305 2.305 0 01-2.325 2.304 2.305 2.305 0 110-4.609 2.305 2.305 0 012.325 2.305zm127.986 22.786c-5.037-1.152-10.074-5.889-14.335-8.321-4.779-2.688-13.303-5.12-19.244-3.072 1.163 1.536 1.421 3.712.388 6.016-1.033 2.433-5.941 4.609-7.103 1.024-1.163-3.328 1.291-5.888 4.132-7.296-.904-.512-1.937-.896-2.84-1.024-3.488-.384-7.104 1.536-10.204 2.944-5.682 2.56-11.236 4.992-17.564 5.632-4.003.512-9.04-.768-10.59-4.992-1.291-3.712-.517-8.065 2.841-10.369 2.454-1.664 8.137-1.792 8.007 2.688-.129 2.944-4.778 4.865-5.94 1.28-.388-1.024 1.162.384 2.324.384 2.196 0 3.1-2.688.646-3.584-1.291-.512-3.1-.128-4.133.64-1.42.768-2.195 2.56-2.453 4.096-.775 3.457 1.162 6.657 4.39 7.937 6.07 2.176 14.336-1.664 19.76-4.096 4.133-1.92 9.299-4.993 14.077-3.969a7.38 7.38 0 013.487 1.665h.13c5.94-2.305 12.398-.896 18.08 1.536 3.746 1.536 6.974 3.968 10.332 6.272 1.292 2.561 3.358 3.969 5.812 4.609zm-35.128-10.625c-1.421.512-2.583 1.536-3.358 2.944-2.067 3.584 2.195 4.865 3.874 1.664.775-1.664.646-3.456-.516-4.608zM1.291 204.052c-.645 0-1.291.512-1.291 1.281 0 .64.517 1.28 1.291 1.28.646 0 1.292-.512 1.292-1.28 0-.641-.646-1.281-1.292-1.281zm264.626 6.657c2.066.768 4.133 1.664 5.812 2.56.645.256 1.162.512 1.679.768h.129c3.358 1.537 8.136 3.841 12.269 4.225-2.454-1.28-4.262-3.841-4.262-6.657v-1.152c-2.97.128-13.561.256-15.627.256zM16.273 202.26c-1.808 0-3.229 1.408-3.229 3.201 0 1.792 1.42 3.2 3.229 3.2 1.808 0 3.228-1.408 3.228-3.2 0-1.793-1.42-3.201-3.228-3.201zm170.863 4.481c31.642-.128 146.455-.768 146.455-1.408 0-.769-153.558-1.409-154.462-1.409-.775 0-154.462.64-154.462 1.409 0 .64 113.78 1.28 146.067 1.408-1.808.768-3.099 2.432-3.487 4.608-.387 2.304.905 4.993 2.454 6.785.775.896 1.55 1.792 2.454 2.688-7.62-2.176-18.339 4.737-25.313 5.761-3.874.64-8.782.896-11.623-2.305-2.325-2.56-3.617-6.528-2.454-9.985 1.291-3.712 5.295-6.912 9.686-5.76 2.454.64 4.649 3.2 4.004 5.888-.388 1.537-1.55 2.561-3.1 3.073-2.97.64-5.683-1.92-3.874-4.865.516-.768-.13-1.536-.905-.896-3.228 2.816-.387 8.449 4.262 7.553 4.65-.896 6.845-5.889 4.004-9.729-2.97-3.84-8.524-3.584-12.011-1.024-3.745 2.688-5.295 8.065-3.745 12.289.387.896.775 1.792 1.162 2.432-.646.256-1.162 1.152 1.421 2.049l.775.768c2.841 1.792 4.262 1.92 3.874 1.792 7.491 2.176 18.081-3.072 24.926-5.121 3.487-1.152 7.232-1.92 10.461.256 3.229 2.049 4.778 5.889 3.358 9.601-1.292 3.585-5.295 5.761-8.911 4.481-1.679-.64-3.487-1.92-3.746-3.969-.258-1.664-.129-3.968 1.808-4.736 1.808-.768 3.875-.256 4.391 1.792.129.512.904.768.904.256 0-3.328-4.003-4.48-6.457-3.072-3.487 2.176-2.454 7.809.646 9.729 6.199 3.84 12.527-.64 13.431-6.273a9.383 9.383 0 010-2.688c-.129-1.024-.516-1.92-1.033-2.944-.904-1.537-1.937-2.689-3.1-3.457-2.195-2.56-4.907-4.864-5.682-8.065-.775-3.2.646-6.272 3.874-6.272 2.712 0 3.746 1.792 3.875 2.688.387 1.664-.259 3.2-2.454 3.072-1.033 0-1.937-1.664-.775-2.432.646-.512 0-1.408-.775-1.28-3.358.64-.904 5.761 1.808 5.505 4.52-.385 4.779-5.377 1.808-7.809-.387-.384-.775-.512-1.162-.768h7.103c-.387.256-.775.384-1.162.768-3.1 2.432-2.841 7.424 1.808 7.809 2.712.256 5.295-4.865 1.808-5.505-.646-.128-1.421.768-.775 1.28 1.162.768.258 2.432-.775 2.432-2.195.128-2.841-1.536-2.454-3.072.13-.896 1.163-2.688 3.875-2.688 3.229-.128 4.649 2.944 3.874 6.272-.775 3.201-3.358 5.505-5.682 8.065.775-.512 1.679-1.024 2.583-1.28.775-.896 1.679-1.792 2.454-2.688 1.42-1.792 2.712-4.481 2.453-6.785-.387-1.664-1.808-3.456-3.487-4.224zm-39.132 15.105c1.679-.512 3.746-1.28 5.812-2.048 3.1-1.152 6.457-2.432 9.686-3.2-.646-1.536-1.033-3.457-.904-5.505h-10.59c.517 2.048.387 4.097-.388 6.017-.645 1.92-1.937 3.584-3.616 4.736zm202.118-18.818a2.305 2.305 0 100 4.609 2.305 2.305 0 002.325-2.304 2.306 2.306 0 00-2.325-2.305zm-8.395-.768c-1.808 0-3.228 1.408-3.228 3.201 0 1.792 1.42 3.2 3.228 3.2 1.808 0 3.229-1.408 3.229-3.2 0-1.793-1.55-3.201-3.229-3.201zm14.982 1.792c-.646 0-1.292.512-1.292 1.281 0 .64.517 1.28 1.292 1.28.645 0 1.291-.512 1.291-1.28 0-.641-.517-1.281-1.291-1.281zM71.936 218.39c4.132-.512 8.911-2.688 12.269-4.225h.13c.516-.256 1.161-.512 1.678-.768 1.808-.896 3.745-1.792 5.812-2.56h-6.329c-3.228 0-6.328 0-9.427-.128v1.152c0 2.688-1.68 5.249-4.133 6.529zm162.21-5.249c2.325-1.024 4.65-1.792 6.716-2.176h-10.461a18.092 18.092 0 011.162 3.456c.775-.512 1.679-.896 2.583-1.28zm-107.968 1.28a18.166 18.166 0 011.163-3.456H116.88c2.195.512 4.391 1.28 6.844 2.176.646.384 1.55.768 2.454 1.28zm77.619 5.377c2.066.768 4.132 1.536 5.811 2.048-1.679-1.152-2.97-2.816-3.745-4.736-.775-1.92-.904-4.097-.388-6.017h-10.59c.259 2.048-.258 3.969-.904 5.505 3.487.768 6.716 2.048 9.816 3.2zm-18.081 1.152c7.619-2.176 18.339 4.737 25.313 5.761 3.874.64 8.782.896 11.623-2.305 2.325-2.56 3.616-6.528 2.454-9.985-1.291-3.712-5.295-6.912-9.686-5.76-2.454.64-4.649 3.2-4.004 5.888.388 1.537 1.55 2.561 3.1 3.073 2.97.64 5.682-1.92 3.745-4.865-.516-.768.129-1.536.904-.896 3.229 2.817.388 8.449-4.262 7.553-4.649-.896-6.845-5.889-4.003-9.729 2.97-3.84 8.524-3.584 12.011-1.024 3.745 2.688 5.295 8.065 3.745 12.289-.388.896-.775 1.792-1.162 2.432 3.357-2.176 6.586-4.736 10.331-6.272 5.683-2.304 12.14-3.841 18.081-1.536h.129c.904-.768 2.067-1.281 3.487-1.665 4.65-1.024 9.945 2.049 14.078 3.969 5.295 2.432 13.689 6.4 19.759 4.096 3.358-1.152 5.295-4.352 4.391-7.937-.387-1.536-1.033-3.2-2.453-4.096-1.034-.768-2.842-1.152-4.133-.64-2.454.896-1.679 3.712.646 3.584 1.033 0 2.582-1.408 2.324-.384-1.291 3.585-5.941 1.664-5.941-1.28-.129-4.608 5.554-4.48 8.008-2.688 3.357 2.304 4.132 6.657 2.841 10.369-1.421 4.224-6.587 5.504-10.59 4.992-6.329-.768-11.753-3.072-17.565-5.632-2.97-1.408-6.715-3.328-10.202-2.944-1.033.128-1.938.384-2.842 1.024 2.713 1.536 5.166 3.968 4.133 7.296-1.162 3.585-6.07 1.281-7.103-1.024-1.033-2.304-.775-4.48.387-6.016-6.07-2.177-14.464.256-19.243 3.072-4.262 2.432-9.169 7.169-14.335 8.321-7.491 2.176-18.081-3.072-24.926-5.121-3.487-1.152-7.232-1.92-10.461.256-3.229 2.049-4.778 5.889-3.358 9.601 1.292 3.585 5.295 5.761 8.911 4.481 1.679-.64 3.487-1.92 3.746-3.969.258-1.664.129-3.968-1.808-4.736-1.808-.768-3.875-.256-4.391 1.792-.129.512-.904.768-.904.256 0-3.328 4.003-4.48 6.457-3.072 3.487 2.176 2.454 7.809-.646 9.729-6.199 3.84-12.527-.64-13.431-6.273a9.383 9.383 0 000-2.688c.129-1.024.516-1.92 1.033-2.944.904-1.537 1.937-2.689 3.1-3.457 1.162-.64 1.549-1.408 2.712-.896zm68.319 1.024c1.679 3.201 5.941 1.92 3.746-1.664a7.503 7.503 0 00-3.358-2.944c-1.033 1.28-1.163 3.072-.388 4.608zm-121.916 1.536c-.129.256-1.162 1.153 1.421 2.049l-1.421-2.049zm-52.563-63.366c-2.842 1.92-6.07 2.817-9.816 2.817-4.262 0-7.749-1.281-10.332-3.969l-1.162 3.969h-1.42l-.905-13.57h1.809c1.55 8.961 7.878 11.777 12.14 11.777 4.39 0 7.49-1.792 7.49-5.376 0-1.664-.904-3.073-1.808-3.969-.517-.384-1.162-.896-2.196-1.28-.904-.384-1.808-.768-2.453-1.024-.646-.256-1.55-.512-2.842-.896-2.712-.768-4.003-1.28-6.199-2.432-2.97-1.664-4.52-3.969-4.778-8.193 0-6.785 4.778-10.497 11.881-10.497 4.004 0 7.233 1.28 9.686 3.712l1.292-3.584h1.42l.517 12.545h-1.808c-.775-4.096-2.583-7.168-4.907-8.705-2.196-1.536-4.133-2.048-6.2-2.048-3.228 0-5.94 1.92-5.94 5.377 0 1.664.904 3.072 1.937 3.968a9.316 9.316 0 002.325 1.28l2.453 1.024 2.97.896c3.23.897 5.038 1.665 7.491 3.201 2.325 1.536 3.617 3.968 3.617 7.168 0 3.201-1.421 5.889-4.262 7.809zm42.489-30.211h-.645c-2.196 0-3.487 1.152-4.52 4.097l-11.366 28.931h-3.487l-11.881-29.955c-.904-2.177-1.808-2.945-3.616-2.945h-.646v-1.792h16.014v1.792h-2.453c-1.163 0-1.809.384-1.809 1.024 0 .512.13 1.152.388 2.049l8.395 21.506 8.007-20.354c.387-1.024.645-1.793.645-2.561 0-.896-.904-1.536-2.324-1.536h-1.808v-1.792h11.106v1.536zm2.067-1.792h19.114c5.037 0 8.911 1.664 11.623 4.865 2.712 3.2 4.133 7.296 4.133 12.161 0 4.864-1.421 8.961-4.133 12.289-2.841 3.2-6.715 4.864-11.623 4.864h-19.114v-1.792h1.937c1.808 0 2.454-.512 2.454-2.944v-24.45c0-2.433-.775-2.945-2.454-2.945h-1.937v-2.048zm14.594 1.792c-1.679 0-2.067.512-2.067 2.945v24.578c0 2.432.775 2.944 2.454 2.944h2.196c6.457 0 9.557-5.76 9.557-15.233s-3.1-15.234-9.428-15.234h-2.712zm24.15 32.259V160.4h1.938c1.808 0 2.453-.512 2.453-2.944v-24.45c0-2.433-.774-2.945-2.453-2.945h-1.938v-1.792h28.026l.775 11.393h-1.808c-.646-3.584-1.55-6.144-2.325-7.425-.388-.64-.904-1.152-1.421-1.408-1.162-.64-1.808-.64-3.358-.64h-5.295c-1.679 0-2.066.512-2.066 2.945v10.625h3.487c1.421 0 2.583-.384 3.229-1.281.774-.896 1.162-2.688 1.162-5.376h1.808v15.361h-1.808c0-2.688-.388-4.48-1.162-5.376-.775-.896-1.808-1.408-3.229-1.408h-3.487v11.905c0 2.432.775 2.944 2.454 2.944h5.166c1.291 0 1.679 0 2.583-.128 1.033-.128 1.42-.64 2.195-1.28 1.292-1.408 2.325-4.096 3.229-9.729h1.808l-.904 12.929h-29.059v-.128zm59.151-30.851l1.291-3.84h1.679l.775 13.441h-1.937c-.904-4.608-2.583-7.936-4.521-9.345-1.937-1.536-3.487-2.176-5.295-2.176-5.037 0-8.653 2.944-8.653 16.002 0 10.497 3.487 15.105 9.041 15.105 5.166 0 9.04-3.584 10.332-10.113h1.808c-.646 4.737-2.712 8.321-5.425 10.113-2.712 1.792-5.295 2.433-8.136 2.433-4.52 0-8.395-1.537-11.365-4.481-3.1-3.072-4.52-7.169-4.52-12.673 0-5.505 1.42-9.985 4.391-13.314 2.97-3.328 6.845-4.992 11.752-4.992 3.229 0 6.458 1.408 8.783 3.84zm41.715 13.826c0 5.12-1.421 9.345-4.392 12.801-2.97 3.328-6.974 4.993-12.269 4.993s-9.428-1.665-12.269-4.993c-2.97-3.328-4.391-7.553-4.391-12.801 0-5.121 1.421-9.345 4.391-12.674 2.971-3.328 6.974-4.992 12.269-4.992s9.428 1.664 12.269 4.992c2.842 3.329 4.392 7.553 4.392 12.674zm-25.184 0c0 9.985 2.712 15.873 8.394 15.873 5.812 0 8.524-5.888 8.524-15.873s-2.712-15.874-8.524-15.874c-5.682 0-8.394 5.889-8.394 15.874zm63.282 9.985c-.387 5.632-2.195 7.552-6.199 7.552-4.391 0-6.199-2.048-6.715-6.272-.13-1.152-.388-2.048-.517-2.688-.129-1.281-.775-3.585-1.292-4.609-.904-1.792-2.066-3.2-4.261-3.2h-2.842v11.393c0 2.432.775 2.944 2.454 2.944h1.937v1.792h-16.789v-1.792h1.937c1.808 0 2.454-.512 2.454-2.944v-24.45c0-2.433-.775-2.945-2.454-2.945h-1.937v-1.792h18.468c7.62 0 12.399 3.072 12.399 8.833 0 4.608-4.004 7.809-10.462 8.449 4.004.768 6.458 3.2 7.62 7.425.129.768.388 1.792.646 3.072.517 2.688.904 3.584 1.679 3.584 1.162 0 1.808-1.024 2.066-4.352h1.808zm-19.372-25.219c-1.808 0-2.454.512-2.454 2.945v11.137h4.133c4.004 0 6.199-2.689 6.199-7.169 0-4.225-2.066-7.041-5.553-7.041h-2.325v.128zM40.294 190.227v-10.241h1.68v8.449l4.649-8.449h2.195v10.241H47.14v-8.449l-4.649 8.449h-2.196zm17.565.256c-3.23 0-4.908-2.176-4.908-5.248 0-3.457 1.937-5.633 5.037-5.633 2.583 0 4.133 1.28 4.39 3.584h-1.807c-.258-1.408-1.163-2.176-2.583-2.176-1.937 0-3.229 1.536-3.229 3.969 0 2.56 1.162 3.968 3.1 3.968 1.55 0 2.583-.896 2.84-2.688h1.68c-.258 2.688-1.937 4.224-4.52 4.224zm15.497-.256l-3.745-5.12-1.679 1.536v3.456h-1.679v-10.241h1.68v4.865l4.778-4.865h2.324l-4.132 4.096 4.778 6.273h-2.325zm9.558 1.28c-.517 1.408-1.163 2.817-2.97 2.817-.388 0-.905-.129-1.292-.129v-1.536c.516.128.775.256 1.162.256.517 0 1.033-.384 1.162-.896l.775-1.92-4.133-10.241h1.938l3.1 8.321 2.97-8.193h1.808l-4.52 11.521zm12.01-1.024c-3.228 0-4.907-2.176-4.907-5.248 0-3.457 1.937-5.633 5.036-5.633 2.583 0 4.133 1.28 4.392 3.584h-1.809c-.258-1.408-1.162-2.176-2.583-2.176-1.937 0-3.228 1.536-3.228 3.969 0 2.56 1.162 3.968 3.1 3.968 1.55 0 2.582-.896 2.84-2.688h1.68c-.259 2.688-1.938 4.224-4.52 4.224zm12.786 0c-3.229 0-4.908-2.176-4.908-5.248 0-3.457 1.938-5.633 5.037-5.633 2.583 0 4.133 1.28 4.391 3.584h-1.808c-.258-1.408-1.162-2.176-2.583-2.176-1.937 0-3.229 1.536-3.229 3.969 0 2.56 1.163 3.968 3.1 3.968 1.55 0 2.583-.896 2.841-2.688h1.679c-.258 2.688-1.937 4.224-4.52 4.224zm12.657-9.089v8.833h-1.679v-8.833h-3.746v-1.536h9.17v1.536h-3.745zm7.103-1.408h4.778c1.808 0 3.616.384 3.616 2.432 0 1.152-.516 1.793-1.549 2.177 1.162.256 1.937 1.152 1.937 2.56 0 1.792-1.292 3.072-3.1 3.072h-5.682v-10.241zm6.586 2.688c0-.896-.516-1.28-1.937-1.28h-2.97v2.688h2.97c1.421 0 1.937-.512 1.937-1.408zm-4.907 6.145h3.616c1.033 0 1.679-.768 1.679-1.664 0-.896-.646-1.536-2.067-1.536h-3.228v3.2zm20.663-3.84c0 3.456-1.808 5.504-5.036 5.504-3.229 0-5.037-2.048-5.037-5.376 0-3.329 1.937-5.505 5.037-5.505 3.228 0 5.036 2.048 5.036 5.377zm-8.265.128c0 2.56 1.162 3.968 3.358 3.968 2.066 0 3.229-1.536 3.229-4.096 0-2.433-1.292-3.969-3.229-3.969-2.067 0-3.358 1.664-3.358 4.097zm28.542 5.12h-1.679v-8.833h-3.745l-.13 4.481c-.129 3.328-1.42 4.48-2.841 4.48-.516 0-1.033-.128-1.162-.256v-1.408c.258.128.646.128.904.128.646 0 1.42-.64 1.55-2.816l.129-6.273h7.103v10.497h-.129zm8.911.384c-3.1 0-4.908-2.048-4.908-5.376 0-3.329 1.938-5.633 4.779-5.633 3.358 0 4.649 2.688 4.649 5.633v.256h-7.749v.128c0 2.176 1.292 3.456 3.229 3.456 1.55 0 2.325-.64 2.841-2.176h1.679c-.516 2.432-2.066 3.712-4.52 3.712zm-.129-9.601c-1.679 0-2.841 1.152-3.1 3.072h6.07c-.129-1.792-1.291-3.072-2.97-3.072zm8.524 9.217v-10.241h8.653v10.241h-1.679v-8.833h-5.166v8.833h-1.808zm13.173 0v-10.241h1.679v4.096h5.166v-4.096h1.679v10.241h-1.679v-4.736h-5.166v4.736h-1.679zm22.73-5.248c0 3.456-1.808 5.504-5.037 5.504-3.228 0-5.037-2.048-5.037-5.376 0-3.329 1.938-5.505 5.037-5.505 3.229 0 5.037 2.048 5.037 5.377zm-8.265.128c0 2.56 1.162 3.968 3.357 3.968 2.067 0 3.229-1.536 3.229-4.096 0-2.433-1.291-3.969-3.229-3.969-2.066 0-3.357 1.664-3.357 4.097zm14.077-3.713v8.833h-1.679v-10.241h7.103v1.536h-5.424v-.128zm17.693 3.585c0 3.456-1.808 5.504-5.037 5.504-3.228 0-5.036-2.048-5.036-5.376 0-3.329 1.937-5.505 5.036-5.505 3.1 0 5.037 2.048 5.037 5.377zm-8.265.128c0 2.56 1.162 3.968 3.357 3.968 2.067 0 3.229-1.536 3.229-4.096 0-2.433-1.291-3.969-3.229-3.969-2.066 0-3.357 1.664-3.357 4.097zm24.28 5.376c-3.229 0-4.908-2.176-4.908-5.248 0-3.457 1.937-5.633 5.037-5.633 2.583 0 4.132 1.28 4.391 3.584h-1.808c-.259-1.408-1.163-2.176-2.583-2.176-1.938 0-3.229 1.536-3.229 3.969 0 2.56 1.162 3.968 3.1 3.968 1.549 0 2.582-.896 2.841-2.688h1.679c-.259 2.688-1.938 4.224-4.52 4.224zm8.394-10.497h4.779c1.808 0 3.616.384 3.616 2.432 0 1.152-.517 1.793-1.55 2.177 1.162.256 1.937 1.152 1.937 2.56 0 1.792-1.291 3.072-3.099 3.072h-5.683v-10.241zm6.587 2.688c0-.896-.517-1.28-1.937-1.28h-2.971v2.688h2.971c1.42 0 1.937-.512 1.937-1.408zm-4.908 6.145h3.616c1.033 0 1.679-.768 1.679-1.664 0-.896-.646-1.536-2.066-1.536h-3.358v3.2h.129zm15.498 1.792c-3.1 0-4.908-2.048-4.908-5.376 0-3.329 1.938-5.633 4.779-5.633 3.358 0 4.649 2.688 4.649 5.633v.256h-7.749v.128c0 2.176 1.292 3.456 3.229 3.456 1.55 0 2.325-.64 2.841-2.176h1.679c-.516 2.432-2.066 3.712-4.52 3.712zm-.129-9.601c-1.679 0-2.841 1.152-3.1 3.072h6.07c-.129-1.792-1.162-3.072-2.97-3.072zm12.527.384v8.833h-1.679v-8.833h-3.745v-1.536h9.17v1.536h-3.746zm15.885 8.833c-.387.128-.774.256-1.162.256-.904 0-1.55-.512-1.55-1.536-1.033 1.152-2.195 1.664-3.745 1.664-2.066 0-3.358-1.152-3.358-2.944s1.163-2.944 3.616-3.2c2.454-.256 3.358-.256 3.358-1.665 0-1.152-.775-1.664-2.324-1.664-1.55 0-2.454.64-2.583 2.048h-1.55c0-2.176 1.679-3.456 4.391-3.456 1.42 0 2.583.384 3.229 1.024.774.64.645 1.792.645 2.688 0 1.537-.129 3.073-.129 4.609 0 .768.129 1.024.646 1.024h.387v1.152h.129zm-5.036-4.736c-1.292.128-2.971.256-2.971 1.92 0 1.024.775 1.664 2.067 1.664 1.549 0 3.099-1.152 3.099-2.432v-1.92c-.516.64-1.42.64-2.195.768zM144.905 34.436c-1.55-1.152-2.325.256-3.745 1.024-.259-1.792 1.808-3.2 3.228-3.713 1.421-.512 3.875 0 4.908 1.153 2.196 2.432 2.325 6.016.646 8.704-.388.64-.904 1.28-1.033 2.049-.13 1.024.516 1.152 1.42 1.408.775.256 1.679.768.646 1.408-1.162.64-2.583-.128-3.874-.256-1.809-.128-3.746.128-5.296.896-2.453 1.152-4.132 2.56-5.682 4.736-2.325 3.2-4.649 7.041-4.649 11.138 0 5.248 3.357 11.265 9.04 12.417 3.616.768 8.524-3.073 8.136-7.04-.129-1.025-.645-1.537-1.679-1.409-1.162.256-1.291 1.792-1.679 2.688-1.549 3.585-6.586 2.817-8.265-.128-1.808-2.944-.775-8.32 1.421-10.88 1.549-1.793 2.841-3.201 5.424-3.841 2.195-.512 4.52-.384 6.586.256 2.325.64 3.617 1.792 4.908 3.84 1.033 1.792 1.937 3.328 2.454 5.377 1.162 4.48-1.033 9.089-4.133 12.417-3.099 3.328-7.749 4.992-12.269 3.968-5.424-1.152-9.944-6.272-11.494-11.393-.517-1.536-1.163-3.2-1.55-4.864-1.033-5.249-.258-10.497 2.066-15.362 1.034-2.176 2.583-3.712 1.421-6.272-.517-1.152-2.583-2.305-1.55-3.84 1.033-1.409 2.196 0 2.841.895.259.384.646 1.664 1.163 1.792 3.487.769-1.679-7.68-2.196-8.448-.516-.768-.516-1.28-1.162-1.92a19.816 19.816 0 00-2.066-1.409 13.791 13.791 0 00-4.908-2.048 10.299 10.299 0 00-5.553.384c-1.292.512-3.1 2.304-4.262 2.432-.646.768 0 1.537.904 1.024 0 0-1.421 3.457-1.421 3.713 1.162-.512 2.196-2.304 3.1-3.2 1.162-1.28 2.324-2.049 4.003-2.305 1.421-.128 2.971.256 4.391.768.775.384 2.067.128 2.196 1.28.387 3.073-6.328-.256-7.62-.256-1.937 0-2.97 1.665-3.745 3.073-.388.64-1.55 2.048-.259 2.432.775.256 2.067-.384 2.583-.768 1.421-.896 2.583-1.536 4.262-.896 2.842 1.024 6.07 3.456 6.329 6.529.129 1.024 0 7.296-1.421 7.04-1.033-.128-.517-2.432-.517-3.072 0-2.048-1.679-4.609-3.099-6.017-.775-.768-1.679-1.664-2.971-1.408-1.033.128-2.195 1.28-.775 2.048.775.384 1.679-.384 2.583-.128.775.256 1.163 1.024 1.55 1.665 2.712 4.352 2.454 10.625 1.937 15.49-.387 3.327-.387 6.912.905 10.112 2.582 5.633 7.232 11.01 13.173 13.313 2.195.769 4.132 1.153 6.586.513.646-.129 1.292-.513 1.937-.769.259-.128.646-.256.905-.256 3.745-.512 1.162 2.945-1.292 3.2-.517 0-1.033-.127-1.55-.127-2.583-.128-4.133.384-6.586-.64-2.067-.897-4.133-1.665-6.07-3.073-3.875-2.816-6.974-6.784-9.557-10.753-1.679-2.688-1.033-6.272-2.196-9.217-.516-1.408-1.291-2.432-2.712-3.072-2.066-1.024-2.325-1.408-2.066-4.096.258-2.56 0-4.993-.388-7.553-.129-.896-.258-1.408-1.291-1.536-.517-.128-1.033 0-1.55-.128-.517-.256-.775-.64-1.292-.896-1.42-1.025-3.487-2.177-2.712-4.097.259-.768.646-1.792.517-2.56-.258-1.664-1.162-.384-2.196-.512-.645 0-1.549-.896-1.808-1.536-.129-.384-.258-1.536.259-1.792.516-.256.258.256.775.384.258 0 .516 0 .904-.128 1.549-.384 2.583-2.049 3.745-3.073.775-.64 1.808-1.408 2.712-1.92 1.033-.512 1.937-1.28 2.97-1.664 2.325-.896 4.391-.256 6.716.384 1.55.384 2.971.768 4.391 1.536 2.325 1.28 4.52 3.072 5.941 5.377.904 1.408 1.292 2.944 1.421 4.608.129 1.536 2.324 2.688 3.745 2.816.775 0 1.55 0 2.195-.512.517-.384.905-2.304.646-2.176-1.42.896-2.066-.768-.904-1.536 1.937-1.28 1.55 1.024 2.196 2.048.775 1.152 1.033.256 1.033-.768.258-1.408 0-2.56-.775-3.072zm68.19.128c1.55-1.152 2.325.256 3.746 1.024.258-1.792-1.808-3.2-3.229-3.713-1.421-.512-3.874 0-4.908 1.153-2.195 2.432-2.324 6.016-.645 8.705.387.64.904 1.28 1.033 2.176.129 1.024-.517 1.152-1.421 1.408-.775.256-1.679.768-.646 1.408 1.163.64 2.583-.128 3.875-.256 1.808-.128 3.745.128 5.295.896 2.454 1.152 4.133 2.56 5.683 4.736 2.324 3.2 4.649 7.041 4.649 11.138 0 5.248-3.358 11.265-9.041 12.417-3.616.768-8.523-3.072-8.136-7.04.129-1.025.646-1.537 1.679-1.409 1.162.256 1.292 1.792 1.679 2.688 1.55 3.585 6.587 2.817 8.266-.128 1.808-2.944.774-8.32-1.421-10.88-1.55-1.793-2.841-3.201-5.424-3.841-2.196-.512-4.521-.384-6.587.256-2.325.64-3.616 1.792-4.908 3.84-1.033 1.792-1.937 3.328-2.453 5.377-1.163 4.48 1.033 9.089 4.132 12.417 3.1 3.328 7.749 4.992 12.269 3.968 5.425-1.152 9.945-6.272 11.495-11.393.516-1.536 1.162-3.2 1.549-4.864 1.034-5.249.259-10.497-2.066-15.362-1.033-2.176-2.583-3.712-1.421-6.272.517-1.152 2.583-2.305 1.55-3.84-1.033-1.409-2.195 0-2.841.895-.258.384-.646 1.665-1.162 1.793-3.487.768 1.679-7.681 2.195-8.45.517-.767.517-1.28 1.163-1.92a19.607 19.607 0 012.066-1.408 13.784 13.784 0 014.908-2.048 10.3 10.3 0 015.553.384c1.291.512 3.099 2.304 4.262 2.432.646.768 0 1.537-.904 1.024 0 0 1.42 3.457 1.42 3.713-1.162-.512-2.195-2.304-3.099-3.2-1.162-1.28-2.325-2.049-4.004-2.305-1.42-.128-2.97.256-4.391.768-.775.384-2.066.128-2.195 1.28-.388 3.073 6.328-.256 7.619-.256 1.938 0 2.971 1.665 3.746 3.073.387.64 1.55 2.048.258 2.432-.775.256-2.066-.384-2.583-.768-1.421-.896-2.583-1.536-4.262-.896-2.841 1.024-6.07 3.456-6.328 6.529-.129 1.024 0 7.296 1.421 7.04 1.033-.128.516-2.432.516-3.072 0-2.048 1.679-4.609 3.1-6.017.775-.768 1.679-1.664 2.97-1.408 1.033.128 2.196 1.28.775 2.048-.775.384-1.679-.384-2.583-.128-.775.256-1.162 1.025-1.55 1.665-2.712 4.352-2.454 10.625-1.937 15.49.387 3.327.387 6.912-.904 10.112-2.583 5.633-7.232 11.01-13.173 13.313-2.196.769-4.133 1.153-6.587.513-.646-.129-1.291-.513-1.937-.769-.258-.128-.646-.256-.904-.256-3.745-.512-1.162 2.945 1.291 3.2.517 0 1.034-.127 1.55-.127 2.583-.128 4.133.384 6.587-.64 2.066-.897 4.133-1.665 6.07-3.073 3.874-2.816 6.974-6.784 9.557-10.753 1.679-2.688 1.033-6.272 2.195-9.217.517-1.408 1.292-2.432 2.712-3.072 2.067-1.024 2.325-1.408 2.067-4.096-.258-2.56 0-4.993.387-7.553.129-.896.259-1.408 1.292-1.536.516-.128 1.033 0 1.55-.128.516-.256.904-.64 1.291-.896 1.421-1.024 3.487-2.177 2.712-4.097-.258-.768-.646-1.792-.516-2.56.258-1.664 1.162-.384 2.195-.512.646 0 1.55-.896 1.808-1.536.129-.384.258-1.536-.258-1.792-.517-.256-.258.256-.775.384-.258 0-.517 0-.904-.128-1.55-.384-2.583-2.049-3.745-3.073-.775-.64-1.808-1.408-2.713-1.92-1.033-.512-1.937-1.28-2.97-1.664-2.325-.896-4.391-.256-6.716.384-1.549.384-2.97.768-4.391 1.536-2.324 1.28-4.52 3.072-5.941 5.377-.904 1.408-1.291 2.944-1.42 4.608-.129 1.536-2.325 2.688-3.746 2.816-.774 0-1.549 0-2.195-.512-.517-.384-.904-2.304-.646-2.176 1.421.896 2.067-.768.904-1.536-1.937-1.28-1.55 1.024-2.195 2.048-.775 1.152-1.033.256-1.033-.768-.259-1.408 0-2.688.774-3.2zm-13.56 41.988a12.162 12.162 0 00-3.229-2.304c-1.808-.896-3.874-1.152-5.812-1.024-.387 0-4.003.64-3.874 1.28-.129-.768-.517-1.664-1.291-2.049-.388-.127-2.583.129-2.325.64-.388-1.023-.517-1.407-1.55-1.792-1.55-.512-4.133-.128-4.004 2.049 0-.768-2.195-.768-2.712-.512-.645.384-1.033 1.408-1.162 2.176-.517-.384-1.421-.64-2.066-.896-2.325-.768-4.908-1.152-7.233-.384-2.195.768-4.003 1.408-5.811 2.816-1.808 1.28-2.454 3.072-2.842 5.12-.258 1.28-.516 2.56-.258 3.969.129.896.517 1.92.775 2.816.387.896.646 1.664 1.421 2.432 1.42 1.409 3.357 2.305 5.424 2.689 1.162.256 2.324.128 3.487 0 .775-.128 1.679 0 2.324-.256.646-.256 1.292-.64 1.938-1.025.904-.383 1.162-1.024 1.808-1.664.646-.768 1.291-1.536 1.679-2.432.645-1.152.904-2.56 1.033-3.84 0-.384 0-1.28.517-1.408.516 0 .387.896.387 1.28 0 1.024-.517 1.92-.646 2.816-.258 1.152-.775 1.792-1.291 2.816-.517 1.024-1.033 2.049-1.808 2.817-.388.512-1.034.896-1.421 1.28-1.291 1.024-2.841 2.048-4.391 2.688-.646.256-1.421.384-2.066.768-.388.256-.904.512-1.292.896l-.258.256c-.388.512-.904 1.024-.904 1.664-.129.768.258 1.537.904 1.921.516.256 1.162.384 1.679.512.387.128 1.033.384 1.55.256.516-.256 0-.64-.259-.768-.646-.513-1.679-.641-2.066-1.537-.388-.896-.129-1.792.516-2.56.388-.512 1.55-.768 1.809-.128.129.384 0 .768-.13 1.024-.258.384-1.162 1.024-.904 1.664.129.512 1.034 1.024 1.55 1.152.517.257 1.162-.256 1.033-.896.517-.256 1.679.512 2.067 1.025.516.64.904 1.28 1.549 1.664.388.256.775.128 1.163 0l.129.128c-.129.384-.646.384-.775.768h.387c.259 0 .517-.128.775-.384.517-.256.775-.128 1.034.384 0 .128.129.256.129.384.645 1.152-.129.384-.517 1.024-.775.896 1.033 1.92 1.679 2.048.517.128 2.196.768 2.712.256-.258-.64-1.55-.384-2.066-.768-.388-.256-1.163-.896-.775-1.408.775-1.024 2.583-.128 3.358-1.408.129-.256.258-1.024.775-.768.775.384-1.163 1.92.775 1.408.387-.128.516-.256 1.033-.256.387 0 .904.256 1.291.384 1.421.128.775-1.536.517-2.304-.388-1.665-.904-3.2-1.292-4.865-.258-.896-.387-2.048-.387-2.944 0-.64.258-1.024.646-.512.258.384.258 1.024.387 1.536.258 1.28 0 2.688.517 3.968.387 1.152.904 2.305 1.162 3.457.258.896.258 2.176 1.421 2.304.258 0 .645.128.904.128.258 0 .387.256.258.512s-.387.384-.646.512c-.387.256-.775.512-1.291.64-.129 0-.904.128-.517.384.388.256 1.679-.512 2.196-.768.904-.512 1.549-1.28 1.808-2.304.258-.896-.259-1.792-.646-2.56-.258-.384-.387-.897-.775-1.281-.516-.512-1.033-1.152-1.291-1.792-.129-.512-.646-1.664-.259-2.048.517.256.388 1.024.646 1.536.129.512.646 1.28.904 1.792.646 1.024 2.067 3.329 3.487 2.177.258-.256.646-.384.904-.384.388 0 .646-.128.775-.512.258-.385.517-.641.904-.769.388 0 1.033.384 1.292-.128.645-1.28-3.746-2.176-4.391-2.432-1.679-.768-3.487-1.792-4.65-3.328-.516-.64-4.003-5.377-2.583-5.505.904-.128 1.679 1.92 1.937 2.56.517 1.153 1.163 1.92 2.067 2.689.775.64 1.42 1.536 2.325 2.048.904.64 1.808 1.024 2.841 1.408.775.384 1.808.512 2.583.896 1.937 1.28-.904 3.073-1.808 3.585-.388.256-.904.384-1.421.512-.129 0-.646 0-.775.128s-.129.256 0 .256c.129.128.258 0 .388 0 .387-.128.645-.256 1.033-.256.129 0 .258 0 .387-.128 1.033-.384 1.937-1.024 2.841-1.664.905-.641 1.163-1.537 1.292-2.433.129-.64 0-1.28-.517-1.792-.129-.128-.258-.256-.258-.384 0-.256-.129-.256-.258-.384-1.033-.384-1.937-.64-2.971-1.024-1.42-.384-2.712-1.152-3.874-2.048-1.55-1.28-2.325-2.945-3.358-4.48-2.066-3.073-1.679-6.53-1.033-9.986.129-.384.646-1.664 1.162-1.664.775 0 .646 1.92.388 2.432-.388 1.152-.904 2.177-.904 3.457 0 1.536.258 2.816.904 4.224.516 1.152 1.162 2.304 2.324 3.072 1.034.769 2.325 1.28 3.616 1.665 1.55.384 3.1.384 4.65 0 1.162-.257 2.454-.64 3.487-1.28 1.033-.513 1.679-1.409 2.325-2.433.774-1.024 1.549-2.688 1.678-3.968.13-1.408-.258-2.56-.774-3.84-.388-1.28-.904-2.305-1.679-3.457-.904-.256-1.163-.64-1.55-1.024zm-28.542 6.4a8.658 8.658 0 01-1.421 3.969c-1.291 1.92-2.97 3.072-5.424 3.2-1.808.128-3.229-.384-4.649-1.536-.646-.512-1.292-1.152-1.55-1.92s-.129-1.664.904-1.28c.646.256 1.162 1.024 1.808 1.408.646.384 1.421.896 2.067 1.28 2.582 1.664 4.778.128 6.328-1.92 1.033-1.408 1.033-2.432.516-4.097-.258-.896-.516-1.792-1.291-2.56-.775-.64-3.616-1.408-3.229.512.129.512.646.64 1.033 1.024.775.769 1.034 1.92.775 2.945-.258 1.28-1.033 2.304-2.324 2.688-2.583.64-4.779-2.688-4.391-4.993.516-4.096 5.811-6.656 9.04-3.584 1.421 1.408 1.937 3.2 1.808 4.865zm24.797 4.097c-.13-.256.258-.384.516-.384.775-.384 1.55-.768 2.325-1.28 1.162-.768 2.195-2.176 2.066-3.713 0-.512-.516-.896-.516-1.408-.13-1.024.645-.128.904.256 1.033 1.793.904 4.48-.904 5.633-.259.128-.517.384-.775.512-.904.384-1.808.512-2.712.64-.517-.128-.775 0-.904-.256zm-4.133 2.176c-1.163-.384-1.937-1.024-2.841-1.792-.259-.256-.517-.64-.775-1.024-.517-.768-1.034-1.664-1.292-2.688-.129-.64-.387-1.28-.387-2.049v-.255c0-.257 0-.513.387-.513.258 0 .517.256.517.513 0 .64.258 1.152.258 1.664s.258.896.517 1.28c.387.768.775 1.536 1.291 2.304.904 1.152 2.196 1.92 3.487 2.688.129 0 .258 0 .258.256-.516.128-.904-.256-1.42-.384zm-17.048 5.12c-.516.64-1.033.769-1.679 1.28-.516.385-1.033.897-1.55 1.409-.645.768-1.291 1.28-2.066 1.92-.516.384-2.97 1.152-1.937-.384.387-.64 1.937-1.152 2.583-1.536.387-.256.904-.384 1.162-.768.904-1.024 2.196-1.792 2.971-2.944.516-.768.774-1.665 1.162-2.433.517-.896.646-1.664.775-2.688.387-1.664.516-3.2.904-4.864a6.713 6.713 0 000-3.2c-.258-1.153-.646-1.793-1.421-2.689-.387-.384-.775-1.28-.387-1.792.516-.64 1.55 0 1.808.512.258.64.258 1.536.387 2.176.259 1.152.259 2.176.129 3.329 0 .768-.258 1.408-.387 2.176-.258 1.152-.258 2.176-.387 3.328-.259 1.28-.517 2.688-.904 3.968 0 .769-.388 2.305-1.163 3.2zm15.627-10.88c.517.896 1.162 1.792 2.067 2.176.387.256 1.291 0 1.678.256.517.384-.258.64-.774.768-1.163.128-2.454-.768-3.1-1.664-.904-1.152-1.162-2.56-1.291-3.969 0-.64-.388-1.152-.13-1.664a2.787 2.787 0 011.292-1.408c.775-.384 1.55-1.024 2.454-1.024.904 0 2.195.512 2.97.896 1.162.64 2.196 1.92 2.454 3.2.258 1.153-1.421 2.56-2.325 2.689-1.42.256-3.099.128-3.745-1.409-.517-1.152-.258-2.816 1.033-3.2 1.162-.384 1.421.64 1.421 1.536 0 .384-.129 1.025 0 1.409.645 1.152 2.066.255 2.066-.769.129-1.024-.775-1.792-1.55-2.432-1.42-1.024-3.874-1.024-4.778.768-.517 1.152-.388 2.56.258 3.84zm-12.527 9.6c.387-1.407.645-2.688.775-4.096.129-.768-.13-1.28-.13-2.048 0-.64.13-1.408.13-2.048 0-1.024.129-1.92.387-2.945.258-.896.388-1.792.517-2.816 0-.512.129-1.024.129-1.536s-.258-.896-.258-1.536c0-.896-.388-2.432.774-2.56 1.292-.128.646 1.536.517 2.176-.258 1.024-.646 2.048-.775 3.2-.129 1.28-.516 2.56-.516 3.969 0 1.152-.259 2.304-.259 3.456a21.03 21.03 0 01-.387 4.096c-.259 1.409-.775 2.817-1.033 4.225-.388 1.792-1.55 3.584-2.067 5.248-.129.512 0 2.561-.775 2.817-.645.128-.645-.64-.516-.897a3.15 3.15 0 00.516-1.152c.129-.384.129-.768.388-1.152.387-.768.904-1.28 1.162-2.176.258-1.024.517-1.792.904-2.816.258-.128.388-.768.517-1.408zm-2.712 2.305c.258-.384 1.033-1.408 1.033-.384 0 .512-.775 1.152-1.033 1.536-.259.512-.646 1.024-.904 1.664-.517 1.024-1.034 2.048-1.938 2.816-.775.64-1.549-.512-1.162-1.152.387-.64 1.033-.768 1.55-1.28.516-.512.904-1.152 1.291-1.664.517-.512.775-1.024 1.163-1.536zm-5.166 9.217c.129 0 .258 0 .258-.128s0-.128-.129-.128c-.388-.128-.646-.256-1.033 0 .387-.128.645.256.904.256zm-6.974-22.146c-.259.64 0 2.048.516 2.56.259.128.646.256.904 0 .129-.128 0-.64 0-.896.129-.768.517-1.152.775-1.664a1.037 1.037 0 00-.258-1.409.83.83 0 00-.775 0c-.387.128-1.033 1.025-1.162 1.409z" fill="#fff"/><path d="M210 19.131C210 1.541 188.563 0 178.936 0 169.308 0 148 1.54 148 19.131c0 8.732 15.789 17.078 19.126 22.984l.899 1.412v4.623c0 6.933 6.675 5.778 11.424 5.778 4.365 0 10.655.257 10.655-5.778v-4.494l.898-1.413C194.211 36.337 210 27.863 210 19.131zm-5.391 0c.256 5.008-14.505 16.307-18.228 19.389-1.926 1.669-5.263-.514-7.445-.642-2.696 0-4.75 1.926-7.574.257-4.107-2.44-17.714-13.996-17.971-19.132-.642-15.408 20.025-14.509 25.545-14.509 5.519 0 24.903-.642 25.673 14.637z" fill="url(#paint0_linear)"/><path d="M184.684 47h-11.747L167 21.04l5.558-3.402 4.674 4.41L182.158 16l3.158 6.175L191 19.78 184.684 47zm-8.716-3.78h5.811l3.916-17.265c-1.39.252-2.906-.504-3.537-1.764l-.632-1.26-1.515 1.89c-.632.756-1.516 1.134-2.4 1.26h-.253c-.884 0-1.769-.378-2.4-.882l-2.905-2.646-.758.504 4.673 20.162z" fill="url(#paint1_linear)"/><path d="M186.888 57h-15.776c-1.118 0-2.112.914-2.112 2.057 0 1.143.87 1.943 2.112 1.943h15.776c1.118 0 2.112-.914 2.112-1.943 0-1.143-.994-2.057-2.112-2.057z" fill="url(#paint2_linear)"/><path d="M186.888 64h-15.776c-1.118 0-2.112.914-2.112 2.057 0 1.143.87 1.943 2.112 1.943h15.776c1.118 0 2.112-.914 2.112-1.943 0-1.143-.994-2.057-2.112-2.057z" fill="url(#paint3_linear)"/><defs><linearGradient id="paint0_linear" x1="178.59" y1="-3.724" x2="179.874" y2="72.032" gradientUnits="userSpaceOnUse"><stop stop-color="#FFF33B"/><stop offset=".059" stop-color="#FFE029"/><stop offset=".13" stop-color="#FFD218"/><stop offset=".203" stop-color="#FEC90F"/><stop offset=".281" stop-color="#FDC70C"/><stop offset=".668" stop-color="#F3903F"/><stop offset=".888" stop-color="#ED683C"/><stop offset="1" stop-color="#E93E3A"/></linearGradient><linearGradient id="paint1_linear" x1="178.542" y1="-3.025" x2="179.8" y2="71.326" gradientUnits="userSpaceOnUse"><stop stop-color="#FFF33B"/><stop offset=".059" stop-color="#FFE029"/><stop offset=".13" stop-color="#FFD218"/><stop offset=".203" stop-color="#FEC90F"/><stop offset=".281" stop-color="#FDC70C"/><stop offset=".668" stop-color="#F3903F"/><stop offset=".888" stop-color="#ED683C"/><stop offset="1" stop-color="#E93E3A"/></linearGradient><linearGradient id="paint2_linear" x1="177.949" y1="3.169" x2="179" y2="70.615" gradientUnits="userSpaceOnUse"><stop stop-color="#FFF33B"/><stop offset=".059" stop-color="#FFE029"/><stop offset=".13" stop-color="#FFD218"/><stop offset=".203" stop-color="#FEC90F"/><stop offset=".281" stop-color="#FDC70C"/><stop offset=".668" stop-color="#F3903F"/><stop offset=".888" stop-color="#ED683C"/><stop offset="1" stop-color="#E93E3A"/></linearGradient><linearGradient id="paint3_linear" x1="177.835" y1="3.999" x2="178.887" y2="71.445" gradientUnits="userSpaceOnUse"><stop stop-color="#FFF33B"/><stop offset=".059" stop-color="#FFE029"/><stop offset=".13" stop-color="#FFD218"/><stop offset=".203" stop-color="#FEC90F"/><stop offset=".281" stop-color="#FDC70C"/><stop offset=".668" stop-color="#F3903F"/><stop offset=".888" stop-color="#ED683C"/><stop offset="1" stop-color="#E93E3A"/></linearGradient></defs></svg>