<svg width="369" height="323" fill="none" xmlns="http://www.w3.org/2000/svg"><path d="M160.5 258c0 1.526 0 3.621-.58 5.5m.58-5.5c1.461.175 3.144.244 5 .169m-5-.169l-5-251M199 63a150.221 150.221 0 014 5.725M199 63l-33.5 34M199 63a2252.663 2252.663 0 00-4.049-5.5M155.5 7l-8 251m8-251c1.188 1.188 3.927 4.318 8.515 10M155.5 7c-2.446 2.565-5.64 6-9.25 10M93.5 216c1.288 3.381 3.33 7.578 6.115 12M93.5 216l50 24m-50-24a151.226 151.226 0 01-3.505-9.5M147.5 258c-.333 3.333.4 10 6 10 3.949 0 5.67-2.068 6.42-4.5M147.5 258a48.62 48.62 0 01-4-.164m16.42 5.664c1.194 1.333 3.98 3.2 5.58 0v-5.331m0 0c12.132-.488 31.67-7.109 45.181-30.169M147.5 263.5c-.667 1.333-2.4 3.2-4 0-.333-.943-.8-3.395 0-5.664m0 0c-20.927-1.725-35.652-16.764-43.885-29.836m65.885 21l45.181-21m0 0a86.378 86.378 0 004.784-9.5M165.5 240l49.965-21.5m0 0c.352-.817.697-1.651 1.035-2.5a162.72 162.72 0 003.441-9.5m-54.441 26l54.441-26m0 0a166.609 166.609 0 003.313-11.5M165.5 224l57.754-29m0 0a168.419 168.419 0 002.082-9.5M165.5 214l59.836-28.5m0 0a168.487 168.487 0 001.518-9.5M165.5 206.5l61.354-30.5m0 0c.369-2.817.667-5.651.893-8.5m-62.247 31l62.247-31m0 0c.29-3.647.462-7.316.511-11m-62.758 33l62.758-33m0 0c.045-3.324-.01-6.659-.168-10M165.5 181l62.59-34.5m0 0c-.173-3.663-.47-7.333-.894-11M165.5 173l61.696-37.5m0 0c-.368-3.17-.83-6.338-1.391-9.5M165.5 167.5l60.305-41.5m0 0a156.38 156.38 0 00-2.113-10M165.5 160l58.192-44m0 0a153.212 153.212 0 00-2.661-9.5m-55.531 45l55.531-45m0 0a151.622 151.622 0 00-3.345-9.5M165.5 143l52.186-46m0 0a150.055 150.055 0 00-3.163-7.5M165.5 133l49.023-43.5m0 0a148.91 148.91 0 00-3.664-7.5M165.5 124l45.359-42m0 0a148.818 148.818 0 00-3.615-6.5M165.5 116l41.744-40.5m0 0A148.287 148.287 0 00203 68.725M165.5 106.5L203 68.725M165.5 88l29.451-30.5m0 0a2065.244 2065.244 0 00-4.451-6.007m-27 28.007l27-28.007m0 0a1878.45 1878.45 0 00-4-5.359M163.5 70l23-23.866m0 0A1700.313 1700.313 0 00181.883 40M162 61l19.883-21m0 0a1398.426 1398.426 0 00-4.181-5.5M162 51.493L177.702 34.5m0 0a1258.47 1258.47 0 00-3.841-5M162 42l11.861-12.5m0 0c-.997-1.29-1.95-2.517-2.861-3.685m-9 8.685l9-8.685m0 0a836.087 836.087 0 00-3.5-4.454M162 28l5.5-6.639m0 0A594.748 594.748 0 00164.015 17M162 20l2.015-3M143.5 249l-43.885-21M145 232.5l-55.005-26m0 0a150.98 150.98 0 01-3.31-11.5M145 224l-58.315-29m0 0c-.78-3.18-1.448-6.349-2.012-9.5M145 214l-60.327-28.5m0 0a155.257 155.257 0 01-1.396-9.5M145 198.5l-62.474-31m0 0c.172 2.813.42 5.647.75 8.5m-.75-8.5a163.341 163.341 0 01-.302-11m62.776 50L83.277 176M145 189.5l-62.776-33m0 0c.02-3.376.143-6.712.358-10M145 181l-62.418-34.5m0 0a175.27 175.27 0 011.07-11M145 173l-61.348-37.5m0 0a181.26 181.26 0 011.484-9.5M145 167.5L85.136 126m0 0a186.063 186.063 0 012.12-10M145 160l-57.744-44m0 0a189.13 189.13 0 012.552-9.5m55.192 45l-55.192-45m0 0c.973-3.282 2.01-6.452 3.093-9.5M145 143L92.9 97m0 0a184.058 184.058 0 013.463-9M145 133L96.363 88m0 0c1.03-2.478 2.08-4.85 3.137-7.105M145 124L99.5 80.895m0 0a161.45 161.45 0 012.653-5.395M147 116l-44.847-40.5m0 0a137.579 137.579 0 013.732-6.775M147 106.5l-41.115-37.775m0 0A104.62 104.62 0 01109.5 63c.42-.658.854-1.325 1.301-2M147 97l-36.199-36m0 0a186.766 186.766 0 013.699-5.362M147 88l-32.5-32.362m0 0a250.972 250.972 0 013.029-4.145M147 79.5l-29.471-28.007m0 0a315.525 315.525 0 014.091-5.359M147 70l-25.38-23.866m0 0A402.164 402.164 0 01126.503 40M147 61l-20.497-21m0 0a492.408 492.408 0 014.531-5.5M147 51.493L131.034 34.5m0 0c2.49-2.98 4.983-5.897 7.407-8.685M147 42l-12.5-12.5m12.5 5l-8.559-8.685m0 0A645.15 645.15 0 01146.25 17m.75 11l-6-6.639M149 20l-2.75-3M82.224 283h146.034M65 268V7m250-.5V148m0 128.5v-9m0 15h53.5m-53.5-33v18m0-18V148m0 101.5c2.714-1.357 5.92-3.505 9.318-6.5M337 53.5a153.255 153.255 0 00-.315 5m.315-5l8.5 6.5m-8.5-6.5c.148-1.861.329-3.696.54-5.5m7.96 12c0 1.326.024 2.66.071 4m-.071-4c0-1.702.065-3.496.185-5.358M355 226.5a447.98 447.98 0 01-2.829 4.884M355 226.5l-11.834-9m11.834 9a70.104 70.104 0 002.5-4.808M315 267.5c9.169-5.55 14.612-7.956 19.813-12.5M315 148c11.444 9.167 33.099 35.9 28.166 69.5m0 0a97.062 97.062 0 01-2.666 5.06m2.666-5.06c.711-1.45 1.402-2.949 2.071-4.5m-20.919 30l10.495 12m-10.495-12a65.198 65.198 0 003.666-3.5m6.829 15.5a44.358 44.358 0 004.187-4.205M327.984 239.5L339 250.795M327.984 239.5a73.573 73.573 0 003.516-3.895m7.5 15.19a66.769 66.769 0 003.442-4.295M331.5 235.605l10.942 10.895M331.5 235.605a79.891 79.891 0 003.313-4.221m7.629 15.116a111.834 111.834 0 003.558-5.12m-11.187-9.996L346 241.38m-11.187-9.996a86.891 86.891 0 003.329-4.884M346 241.38a195.313 195.313 0 003.646-5.775m-11.504-9.105l11.504 9.105m-11.504-9.105a91.778 91.778 0 002.358-3.94m9.146 13.045a305.916 305.916 0 002.525-4.221M340.5 222.56l11.671 8.824M345.237 213l12.263 8.692M345.237 213c.762-1.767 1.494-3.6 2.192-5.5m10.071 14.192a80.615 80.615 0 002.5-5.9m-12.571-8.292L360 215.792m-12.571-8.292a113.078 113.078 0 001.859-5.5M360 215.792a92.711 92.711 0 001.974-5.792m-12.686-8l12.686 8m-12.686-8c.6-1.937 1.164-3.937 1.687-6m10.999 14a106.79 106.79 0 001.64-6m-12.639-8l12.639 8m-12.639-8a125.634 125.634 0 001.465-6.5m11.174 14.5c.519-2.139.98-4.309 1.386-6.5m-12.56-8l12.56 8m-12.56-8c.386-1.949.736-3.949 1.046-6m11.514 14c.399-2.15.744-4.32 1.039-6.5m-12.553-7.5l12.553 7.5m-12.553-7.5c.319-2.112.596-4.279.828-6.5m11.725 14c.337-2.491.609-4.995.821-7.5m-12.546-6.5l12.546 6.5m-12.546-6.5c.221-2.117.4-4.283.535-6.5m12.011 13c.183-2.17.32-4.339.415-6.5m-12.426-6.5l12.426 6.5m-12.426-6.5c.148-2.439.242-4.938.279-7.5m12.147 14c.096-2.179.148-4.348.161-6.5m-12.308-7.5l12.308 7.5m-12.308-7.5c.03-2.124.02-4.29-.032-6.5m12.34 14c.014-2.53-.027-5.035-.119-7.5m-12.221-6.5a172.44 172.44 0 00-.096-3 48.43 48.43 0 00-.304-3.5m.4 6.5l12.221 6.5m0 0a174.28 174.28 0 00-.363-6.5m-12.258-6.5l12.258 6.5m-12.258-6.5a106.948 106.948 0 00-.986-6.5m13.244 13a166.11 166.11 0 00-.614-6.5m-12.63-6.5l12.63 6.5m-12.63-6.5a144.037 144.037 0 00-1.27-6.214M366.34 150a150.999 150.999 0 00-.884-6.5m-13.016-6.214l13.016 6.214m-13.016-6.214c-.424-1.865-.91-3.844-1.465-5.919m14.481 12.133a128.441 128.441 0 00-1.139-6.214m-13.342-5.919l13.342 5.919m-13.342-5.919a165.182 165.182 0 00-1.687-5.872m15.029 11.791a99.751 99.751 0 00-1.42-5.919m-13.609-5.872c-.252-.821-.515-1.653-.788-2.495-.27-.831-.543-1.664-.819-2.5m1.607 4.995l13.609 5.872m0 0a67.538 67.538 0 00-1.876-5.872m-13.34-4.995l13.34 4.995m-13.34-4.995c-.714-2.159-1.448-4.338-2.181-6.555m15.521 11.55A44.332 44.332 0 00360 123a174.305 174.305 0 01-1.728-4m-12.772-5.055L358.272 119m-12.772-5.055a369.823 369.823 0 01-2.076-6.445m14.848 11.5a174.258 174.258 0 01-2.556-6.5m-12.292-5l12.292 5m-12.292-5a205.593 205.593 0 01-1.91-6.5m14.202 11.5a177.33 177.33 0 01-2.43-7m-11.772-4.5l11.772 4.5m-11.772-4.5a159.893 159.893 0 01-1.41-5.5m13.182 10a178.104 178.104 0 01-1.826-6m-11.356-4l11.356 4m-11.356-4a138.648 138.648 0 01-1.285-6m12.641 10a171.453 171.453 0 01-1.594-6m-11.047-4l11.047 4m-11.047-4a130.118 130.118 0 01-1.001-6m12.048 10a164.16 164.16 0 01-1.366-6.018M337.818 83.5l10.682 3.982M337.818 83.5a127.371 127.371 0 01-.818-7.186m11.5 11.168a155.326 155.326 0 01-1.284-6.982M337 76.314l10.216 4.186M337 76.314a129.48 129.48 0 01-.382-6.314m10.598 10.5a143.62 143.62 0 01-.774-5.5m-9.824-5l9.824 5m-9.824-5c-.071-1.948-.1-3.947-.084-6m9.908 11a132.729 132.729 0 01-.595-6.024M336.534 64l9.313 4.976M336.534 64c.015-1.791.064-3.624.151-5.5m9.162 10.476a123.632 123.632 0 01-.276-4.976m-8.886-5.5l8.886 5.5m-8.031-16l8.145 6.642M337.54 48c.238-2.04.514-4.042.821-6m7.324 12.642c.138-2.137.348-4.364.616-6.642m-7.94-6l7.94 6m-7.94-6c.322-2.05.678-4.051 1.062-6m6.878 12c.257-2.181.566-4.41.915-6.653M339.423 36l7.793 5.347M339.423 36c.406-2.062.842-4.064 1.301-6m6.492 11.347c.315-2.02.661-4.053 1.031-6.072M340.724 30l7.523 5.275M340.724 30c.451-1.899.923-3.734 1.408-5.5m6.115 10.775c.324-1.774.666-3.538 1.019-5.275m-7.134-5.5l7.134 5.5m-7.134-5.5a158.85 158.85 0 011.465-5m5.669 10.5c.38-1.87.773-3.71 1.171-5.5m-6.84-5l6.84 5m-6.84-5a147.944 147.944 0 011.655-5m5.185 10c.382-1.72.769-3.393 1.152-5m-6.337-5l6.337 5m-6.337-5a131.196 131.196 0 011.67-4.5m4.667 9.5a322.6 322.6 0 011.235-5m-5.902-4.5l5.902 4.5m-5.902-4.5a106.424 106.424 0 011.88-4.5m4.022 9c.413-1.615.813-3.124 1.189-4.5m-5.211-4.5c.819-1.835 1.567-3.348 2.198-4.5l4 5.5a201.91 201.91 0 00-.987 3.5m-5.211-4.5l5.211 4.5" stroke="#AFAFAF"/><path d="M8.622 128.994v1.224H4.77l-.774 2.592c.204-.048.456-.072.756-.072 1.188 0 2.142.396 2.862 1.188.732.792 1.098 1.782 1.098 2.97 0 1.296-.426 2.34-1.278 3.132-.84.792-1.872 1.188-3.096 1.188-1.032 0-1.926-.312-2.682-.936a4.972 4.972 0 01-1.044-1.224l1.062-.756c.18.36.45.684.81.972.588.48 1.236.72 1.944.72.84 0 1.542-.3 2.106-.9.564-.6.846-1.326.846-2.178 0-.864-.282-1.572-.846-2.124-.552-.552-1.254-.828-2.106-.828-.756 0-1.53.276-2.322.828l1.746-5.796h4.77zm10.23 0v1.224h-3.851l-.774 2.592c.204-.048.455-.072.755-.072 1.189 0 2.143.396 2.863 1.188.732.792 1.098 1.782 1.098 2.97 0 1.296-.427 2.34-1.279 3.132-.84.792-1.872 1.188-3.096 1.188-1.031 0-1.925-.312-2.681-.936a4.972 4.972 0 01-1.045-1.224l1.063-.756c.18.36.45.684.81.972.588.48 1.236.72 1.944.72.84 0 1.542-.3 2.106-.9.563-.6.845-1.326.845-2.178 0-.864-.282-1.572-.845-2.124-.553-.552-1.255-.828-2.107-.828-.755 0-1.53.276-2.322.828l1.746-5.796h4.77zm2.04 14.4l1.477-4.158 1.188.432-1.818 4.068-.846-.342zm13.13-14.4v1.224H30.17l-.774 2.592c.204-.048.456-.072.756-.072 1.188 0 2.142.396 2.862 1.188.732.792 1.098 1.782 1.098 2.97 0 1.296-.426 2.34-1.278 3.132-.84.792-1.872 1.188-3.096 1.188-1.032 0-1.926-.312-2.682-.936a4.972 4.972 0 01-1.044-1.224l1.062-.756c.18.36.45.684.81.972.588.48 1.236.72 1.944.72.84 0 1.542-.3 2.106-.9.564-.6.846-1.326.846-2.178 0-.864-.282-1.572-.846-2.124-.552-.552-1.254-.828-2.106-.828-.756 0-1.53.276-2.322.828l1.746-5.796h4.77zM137.658 320H129.9l4.374-5.058c.744-.876 1.212-1.458 1.404-1.746.444-.636.666-1.248.666-1.836 0-.684-.222-1.242-.666-1.674-.444-.444-1.02-.666-1.728-.666-.864 0-1.53.354-1.998 1.062-.252.384-.384.858-.396 1.422h-1.332c.048-1.02.348-1.848.9-2.484.72-.816 1.668-1.224 2.844-1.224 1.068 0 1.95.342 2.646 1.026.708.672 1.062 1.524 1.062 2.556 0 .804-.318 1.662-.954 2.574-.324.444-.87 1.11-1.638 1.998l-2.502 2.826h5.076V320zm5.081.288l-1.008-.738 2.754-3.834a3.563 3.563 0 01-1.062.162c-1.14 0-2.076-.378-2.808-1.134-.72-.756-1.08-1.698-1.08-2.826 0-1.2.384-2.184 1.152-2.952.78-.78 1.77-1.17 2.97-1.17.888 0 1.656.216 2.304.648.66.42 1.134.936 1.422 1.548.288.6.431 1.23.431 1.89 0 .924-.329 1.842-.989 2.754l-4.086 5.652zm.936-11.268c-.816 0-1.488.276-2.016.828-.528.54-.792 1.218-.792 2.034 0 .804.264 1.47.792 1.998.54.516 1.218.774 2.034.774.816 0 1.482-.264 1.998-.792.528-.528.792-1.188.792-1.98 0-.816-.264-1.494-.792-2.034-.516-.552-1.188-.828-2.016-.828zm5.55 13.374l1.476-4.158 1.188.432-1.818 4.068-.846-.342zm13.129-14.4v1.224h-3.852l-.774 2.592c.204-.048.456-.072.756-.072 1.188 0 2.142.396 2.862 1.188.732.792 1.098 1.782 1.098 2.97 0 1.296-.426 2.34-1.278 3.132-.84.792-1.872 1.188-3.096 1.188-1.032 0-1.926-.312-2.682-.936a4.972 4.972 0 01-1.044-1.224l1.062-.756c.18.36.45.684.81.972.588.48 1.236.72 1.944.72.84 0 1.542-.3 2.106-.9.564-.6.846-1.326.846-2.178 0-.864-.282-1.572-.846-2.124-.552-.552-1.254-.828-2.106-.828-.756 0-1.53.276-2.322.828l1.746-5.796h4.77zm178.822 13.294l-1.008-.738 2.754-3.834a3.563 3.563 0 01-1.062.162c-1.14 0-2.076-.378-2.808-1.134-.72-.756-1.08-1.698-1.08-2.826 0-1.2.384-2.184 1.152-2.952.78-.78 1.77-1.17 2.97-1.17.888 0 1.656.216 2.304.648.66.42 1.134.936 1.422 1.548.288.6.432 1.23.432 1.89 0 .924-.33 1.842-.99 2.754l-4.086 5.652zm.936-11.268c-.816 0-1.488.276-2.016.828-.528.54-.792 1.218-.792 2.034 0 .804.264 1.47.792 1.998.54.516 1.218.774 2.034.774.816 0 1.482-.264 1.998-.792.528-.528.792-1.188.792-1.98 0-.816-.264-1.494-.792-2.034-.516-.552-1.188-.828-2.016-.828z" fill="#AFAFAF"/></svg>